%TF.GenerationSoftware,KiCad,Pcbnew,10.0.4*%
%TF.CreationDate,2026-07-23T06:55:38-04:00*%
%TF.ProjectId,SATVIK-26,53415456-494b-42d3-9236-2e6b69636164,rev?*%
%TF.SameCoordinates,Original*%
%TF.FileFunction,Copper,L1,Top*%
%TF.FilePolarity,Positive*%
%FSLAX46Y46*%
G04 Gerber Fmt 4.6, Leading zero omitted, Abs format (unit mm)*
G04 Created by KiCad (PCBNEW 10.0.4) date 2026-07-23 06:55:38*
%MOMM*%
%LPD*%
G01*
G04 APERTURE LIST*
G04 Aperture macros list*
%AMRoundRect*
0 Rectangle with rounded corners*
0 $1 Rounding radius*
0 $2 $3 $4 $5 $6 $7 $8 $9 X,Y pos of 4 corners*
0 Add a 4 corners polygon primitive as box body*
4,1,4,$2,$3,$4,$5,$6,$7,$8,$9,$2,$3,0*
0 Add four circle primitives for the rounded corners*
1,1,$1+$1,$2,$3*
1,1,$1+$1,$4,$5*
1,1,$1+$1,$6,$7*
1,1,$1+$1,$8,$9*
0 Add four rect primitives between the rounded corners*
20,1,$1+$1,$2,$3,$4,$5,0*
20,1,$1+$1,$4,$5,$6,$7,0*
20,1,$1+$1,$6,$7,$8,$9,0*
20,1,$1+$1,$8,$9,$2,$3,0*%
G04 Aperture macros list end*
%TA.AperFunction,SMDPad,CuDef*%
%ADD10RoundRect,0.135000X-0.185000X0.135000X-0.185000X-0.135000X0.185000X-0.135000X0.185000X0.135000X0*%
%TD*%
%TA.AperFunction,SMDPad,CuDef*%
%ADD11R,0.300000X0.500000*%
%TD*%
%TA.AperFunction,SMDPad,CuDef*%
%ADD12R,0.500000X0.300000*%
%TD*%
%TA.AperFunction,SMDPad,CuDef*%
%ADD13RoundRect,0.140000X0.140000X0.170000X-0.140000X0.170000X-0.140000X-0.170000X0.140000X-0.170000X0*%
%TD*%
%TA.AperFunction,SMDPad,CuDef*%
%ADD14RoundRect,0.140000X-0.140000X-0.170000X0.140000X-0.170000X0.140000X0.170000X-0.140000X0.170000X0*%
%TD*%
%TA.AperFunction,SMDPad,CuDef*%
%ADD15RoundRect,0.140000X-0.170000X0.140000X-0.170000X-0.140000X0.170000X-0.140000X0.170000X0.140000X0*%
%TD*%
%TA.AperFunction,SMDPad,CuDef*%
%ADD16R,1.400000X1.200000*%
%TD*%
%TA.AperFunction,SMDPad,CuDef*%
%ADD17R,1.000000X0.750000*%
%TD*%
%TA.AperFunction,SMDPad,CuDef*%
%ADD18RoundRect,0.135000X-0.135000X-0.185000X0.135000X-0.185000X0.135000X0.185000X-0.135000X0.185000X0*%
%TD*%
%TA.AperFunction,SMDPad,CuDef*%
%ADD19RoundRect,0.135000X0.135000X0.185000X-0.135000X0.185000X-0.135000X-0.185000X0.135000X-0.185000X0*%
%TD*%
%TA.AperFunction,SMDPad,CuDef*%
%ADD20RoundRect,0.135000X0.185000X-0.135000X0.185000X0.135000X-0.185000X0.135000X-0.185000X-0.135000X0*%
%TD*%
%TA.AperFunction,SMDPad,CuDef*%
%ADD21RoundRect,0.218750X0.256250X-0.218750X0.256250X0.218750X-0.256250X0.218750X-0.256250X-0.218750X0*%
%TD*%
%TA.AperFunction,SMDPad,CuDef*%
%ADD22RoundRect,0.140000X0.170000X-0.140000X0.170000X0.140000X-0.170000X0.140000X-0.170000X-0.140000X0*%
%TD*%
%TA.AperFunction,SMDPad,CuDef*%
%ADD23RoundRect,0.150000X-0.700000X0.150000X-0.700000X-0.150000X0.700000X-0.150000X0.700000X0.150000X0*%
%TD*%
%TA.AperFunction,SMDPad,CuDef*%
%ADD24RoundRect,0.250000X-1.100000X0.250000X-1.100000X-0.250000X1.100000X-0.250000X1.100000X0.250000X0*%
%TD*%
%TA.AperFunction,SMDPad,CuDef*%
%ADD25R,0.675000X0.280000*%
%TD*%
%TA.AperFunction,SMDPad,CuDef*%
%ADD26R,0.280000X0.675000*%
%TD*%
%TA.AperFunction,SMDPad,CuDef*%
%ADD27RoundRect,0.150000X0.700000X-0.150000X0.700000X0.150000X-0.700000X0.150000X-0.700000X-0.150000X0*%
%TD*%
%TA.AperFunction,SMDPad,CuDef*%
%ADD28RoundRect,0.250000X1.100000X-0.250000X1.100000X0.250000X-1.100000X0.250000X-1.100000X-0.250000X0*%
%TD*%
%TA.AperFunction,HeatsinkPad*%
%ADD29C,0.500000*%
%TD*%
%TA.AperFunction,HeatsinkPad*%
%ADD30R,1.800000X3.100000*%
%TD*%
%TA.AperFunction,SMDPad,CuDef*%
%ADD31RoundRect,0.150000X-0.512500X-0.150000X0.512500X-0.150000X0.512500X0.150000X-0.512500X0.150000X0*%
%TD*%
%TA.AperFunction,ComponentPad*%
%ADD32O,1.100000X2.000000*%
%TD*%
%TA.AperFunction,ComponentPad*%
%ADD33O,1.200000X1.800000*%
%TD*%
%TA.AperFunction,SMDPad,CuDef*%
%ADD34R,0.550000X1.100000*%
%TD*%
%TA.AperFunction,SMDPad,CuDef*%
%ADD35R,0.300000X1.100000*%
%TD*%
%TA.AperFunction,SMDPad,CuDef*%
%ADD36RoundRect,0.075000X-0.075000X-0.725000X0.075000X-0.725000X0.075000X0.725000X-0.075000X0.725000X0*%
%TD*%
%TA.AperFunction,SMDPad,CuDef*%
%ADD37RoundRect,0.075000X-0.725000X-0.075000X0.725000X-0.075000X0.725000X0.075000X-0.725000X0.075000X0*%
%TD*%
%TA.AperFunction,ViaPad*%
%ADD38C,0.800000*%
%TD*%
%TA.AperFunction,ViaPad*%
%ADD39C,0.600000*%
%TD*%
%TA.AperFunction,Conductor*%
%ADD40C,0.200000*%
%TD*%
%TA.AperFunction,Conductor*%
%ADD41C,0.600000*%
%TD*%
%TA.AperFunction,Conductor*%
%ADD42C,0.254000*%
%TD*%
%TA.AperFunction,Conductor*%
%ADD43C,0.599999*%
%TD*%
G04 APERTURE END LIST*
D10*
%TO.P,R11,1*%
%TO.N,/I2C2_SDA*%
X74934314Y-58200000D03*
%TO.P,R11,2*%
%TO.N,+3V3*%
X74934314Y-59220000D03*
%TD*%
%TO.P,R10,1*%
%TO.N,/I2C2_SCL*%
X73934314Y-58200000D03*
%TO.P,R10,2*%
%TO.N,+3V3*%
X73934314Y-59220000D03*
%TD*%
D11*
%TO.P,U5,1,VDDIO_1*%
%TO.N,+3V3*%
X77184314Y-57580000D03*
%TO.P,U5,2,SCK_2*%
%TO.N,/I2C2_SCL*%
X76684314Y-57580000D03*
D12*
%TO.P,U5,3,VSS_3*%
%TO.N,GND*%
X76064314Y-57950000D03*
%TO.P,U5,4,SDI_4*%
%TO.N,/I2C2_SDA*%
X76064314Y-58450000D03*
%TO.P,U5,5,SDO_5*%
%TO.N,GND*%
X76064314Y-58950000D03*
D11*
%TO.P,U5,6,CSB_6*%
%TO.N,+3V3*%
X76684314Y-59320000D03*
%TO.P,U5,7,INT_7*%
%TO.N,unconnected-(U5-INT-Pad7)*%
X77184314Y-59320000D03*
D12*
%TO.P,U5,8,VSS_8*%
%TO.N,GND*%
X77804314Y-58950000D03*
%TO.P,U5,9,VSS_9*%
X77804314Y-58450000D03*
%TO.P,U5,10,VDD_10*%
%TO.N,+3V3*%
X77804314Y-57950000D03*
%TD*%
D13*
%TO.P,C23,2*%
%TO.N,GND*%
X63184314Y-46200000D03*
%TO.P,C23,1*%
%TO.N,Net-(U1-PC0)*%
X64144314Y-46200000D03*
%TD*%
%TO.P,C22,2*%
%TO.N,GND*%
X67724314Y-58700000D03*
%TO.P,C22,1*%
%TO.N,+3V3*%
X68684314Y-58700000D03*
%TD*%
D14*
%TO.P,C24,2*%
%TO.N,/CURR*%
X64684314Y-49200000D03*
%TO.P,C24,1*%
%TO.N,GND*%
X63724314Y-49200000D03*
%TD*%
D15*
%TO.P,C29,2*%
%TO.N,GND*%
X78684314Y-58950000D03*
%TO.P,C29,1*%
%TO.N,+3V3*%
X78684314Y-57990000D03*
%TD*%
D13*
%TO.P,C5,2*%
%TO.N,Net-(U1-PH0)*%
X65139314Y-58455000D03*
%TO.P,C5,1*%
%TO.N,GND*%
X66099314Y-58455000D03*
%TD*%
%TO.P,C4,2*%
%TO.N,Net-(U1-PH1)*%
X63159314Y-58455000D03*
%TO.P,C4,1*%
%TO.N,GND*%
X64119314Y-58455000D03*
%TD*%
D16*
%TO.P,Y1,4*%
%TO.N,N/C*%
X63434314Y-55350000D03*
%TO.P,Y1,3*%
X65634314Y-55350000D03*
%TO.P,Y1,2,2_2*%
%TO.N,Net-(U1-PH0)*%
X65634314Y-57050000D03*
%TO.P,Y1,1,1_1*%
%TO.N,Net-(U1-PH1)*%
X63434314Y-57050000D03*
%TD*%
D17*
%TO.P,SW1,1,1_1*%
%TO.N,GND*%
X77184314Y-36700000D03*
%TO.P,SW1,2,2_2*%
%TO.N,Net-(C3-Pad1)*%
X71184314Y-36700000D03*
%TO.P,SW1,3*%
%TO.N,N/C*%
X77184314Y-33000000D03*
%TO.P,SW1,4*%
X71184314Y-33000000D03*
%TD*%
D13*
%TO.P,C9,1*%
%TO.N,GND*%
X64684314Y-50200000D03*
%TO.P,C9,2*%
%TO.N,/VBAT_RAW*%
X63724314Y-50200000D03*
%TD*%
D18*
%TO.P,R15,1*%
%TO.N,/SD_CMD*%
X76434314Y-37950000D03*
%TO.P,R15,2*%
%TO.N,+3V3*%
X77454314Y-37950000D03*
%TD*%
D13*
%TO.P,C25,1*%
%TO.N,+3V3*%
X72684314Y-59700000D03*
%TO.P,C25,2*%
%TO.N,GND*%
X71724314Y-59700000D03*
%TD*%
D19*
%TO.P,R9,1*%
%TO.N,Net-(U1-PC0)*%
X64674314Y-47200000D03*
%TO.P,R9,2*%
%TO.N,GND*%
X63654314Y-47200000D03*
%TD*%
D15*
%TO.P,C8,1*%
%TO.N,+3V3*%
X80934314Y-54990000D03*
%TO.P,C8,2*%
%TO.N,GND*%
X80934314Y-55950000D03*
%TD*%
D20*
%TO.P,R20,1*%
%TO.N,Net-(D3-A)*%
X81434314Y-64210000D03*
%TO.P,R20,2*%
%TO.N,+5V*%
X81434314Y-63190000D03*
%TD*%
D13*
%TO.P,C27,1*%
%TO.N,+3V3*%
X64664314Y-43700000D03*
%TO.P,C27,2*%
%TO.N,GND*%
X63704314Y-43700000D03*
%TD*%
D18*
%TO.P,R18,1*%
%TO.N,/SD_D1*%
X83684314Y-44700000D03*
%TO.P,R18,2*%
%TO.N,+3V3*%
X84704314Y-44700000D03*
%TD*%
D20*
%TO.P,R22,1*%
%TO.N,Net-(D5-A)*%
X84434314Y-64220000D03*
%TO.P,R22,2*%
%TO.N,/LED_STATUS*%
X84434314Y-63200000D03*
%TD*%
D18*
%TO.P,R1,1*%
%TO.N,GND*%
X77434314Y-35700000D03*
%TO.P,R1,2*%
%TO.N,Net-(U1-BOOT0)*%
X78454314Y-35700000D03*
%TD*%
D20*
%TO.P,R21,1*%
%TO.N,Net-(D4-A)*%
X82934314Y-64200000D03*
%TO.P,R21,2*%
%TO.N,+3V3*%
X82934314Y-63180000D03*
%TD*%
D21*
%TO.P,D3,1,K_1*%
%TO.N,GND*%
X81434314Y-66987500D03*
%TO.P,D3,2,A_2*%
%TO.N,Net-(D3-A)*%
X81434314Y-65412500D03*
%TD*%
D15*
%TO.P,C11,1*%
%TO.N,+3V3*%
X81934314Y-54990000D03*
%TO.P,C11,2*%
%TO.N,GND*%
X81934314Y-55950000D03*
%TD*%
%TO.P,C28,1*%
%TO.N,GND*%
X66934314Y-38450000D03*
%TO.P,C28,2*%
%TO.N,+3V3*%
X66934314Y-39410000D03*
%TD*%
D10*
%TO.P,R16,2*%
%TO.N,+3V3*%
X82184314Y-39220000D03*
%TO.P,R16,1*%
%TO.N,/SD_D3*%
X82184314Y-38200000D03*
%TD*%
D13*
%TO.P,C26,1*%
%TO.N,+3V3*%
X64664314Y-45200000D03*
%TO.P,C26,2*%
%TO.N,GND*%
X63704314Y-45200000D03*
%TD*%
D15*
%TO.P,C12,1*%
%TO.N,+3V3*%
X68434314Y-56490000D03*
%TO.P,C12,2*%
%TO.N,GND*%
X68434314Y-57450000D03*
%TD*%
D22*
%TO.P,C2,1*%
%TO.N,Net-(C2-Pad1)*%
X83184314Y-42200000D03*
%TO.P,C2,2*%
%TO.N,GND*%
X83184314Y-41240000D03*
%TD*%
D13*
%TO.P,C3,1*%
%TO.N,Net-(C3-Pad1)*%
X70184314Y-35700000D03*
%TO.P,C3,2*%
%TO.N,Net-(U1-NRST)*%
X69224314Y-35700000D03*
%TD*%
D23*
%TO.P,J7,1,Pin_1_1*%
%TO.N,+5V*%
X60859314Y-51250000D03*
%TO.P,J7,2,Pin_2_2*%
%TO.N,GND*%
X60859314Y-52500000D03*
%TO.P,J7,3,Pin_3_3*%
%TO.N,/USART7_TX*%
X60859314Y-53750000D03*
%TO.P,J7,4,Pin_4_4*%
%TO.N,/USART7_RX*%
X60859314Y-55000000D03*
D24*
%TO.P,J7,MP*%
%TO.N,N/C*%
X57659314Y-49400000D03*
X57659314Y-56850000D03*
%TD*%
D19*
%TO.P,R13,1*%
%TO.N,Net-(USB1-CC1)*%
X65434314Y-60720000D03*
%TO.P,R13,2*%
%TO.N,GND*%
X64414314Y-60720000D03*
%TD*%
D21*
%TO.P,D4,1,K_1*%
%TO.N,GND*%
X82934314Y-66987500D03*
%TO.P,D4,2,A_2*%
%TO.N,Net-(D4-A)*%
X82934314Y-65412500D03*
%TD*%
D10*
%TO.P,R23,1*%
%TO.N,Net-(U1-PB0)*%
X80684314Y-59180000D03*
%TO.P,R23,2*%
%TO.N,/WS2812_DATA*%
X80684314Y-60200000D03*
%TD*%
D18*
%TO.P,R19,1*%
%TO.N,/SD_DET*%
X84674314Y-48200000D03*
%TO.P,R19,2*%
%TO.N,+3V3*%
X85694314Y-48200000D03*
%TD*%
D25*
%TO.P,U4,1,AP_SDO/AP_AD0_1*%
%TO.N,/SPI1_MISO*%
X70174314Y-56960000D03*
%TO.P,U4,2,RESV_2*%
%TO.N,GND*%
X70174314Y-57460000D03*
%TO.P,U4,3,RESV_3*%
X70174314Y-57960000D03*
%TO.P,U4,4,INT1/INT_4*%
%TO.N,unconnected-(U4-INT1{slash}INT-Pad4)*%
X70174314Y-58460000D03*
D26*
%TO.P,U4,5,VDDIO_5*%
%TO.N,+3V3*%
X70934314Y-58720000D03*
%TO.P,U4,6,GND_6*%
%TO.N,GND*%
X71434314Y-58720000D03*
%TO.P,U4,7,RESV_7*%
X71934314Y-58720000D03*
D25*
%TO.P,U4,8,VDD_8*%
%TO.N,+3V3*%
X72694314Y-58460000D03*
%TO.P,U4,9,INT2/FSYNC/CLKIN_9*%
%TO.N,GND*%
X72694314Y-57960000D03*
%TO.P,U4,10,RESV_10*%
X72694314Y-57460000D03*
%TO.P,U4,11,RESV_11*%
X72694314Y-56960000D03*
D26*
%TO.P,U4,12,AP_CS_12*%
%TO.N,/IMU_CS*%
X71934314Y-56700000D03*
%TO.P,U4,13,AP_SCL/AP_SCLK_13*%
%TO.N,/SPI1_SCLK*%
X71434314Y-56700000D03*
%TO.P,U4,14,AP_SDA/AP_SDIO/AP_SDI_14*%
%TO.N,/SPI1_MOSI*%
X70934314Y-56700000D03*
%TD*%
D27*
%TO.P,J6,1,Pin_1_1*%
%TO.N,+5V*%
X86659314Y-45225000D03*
%TO.P,J6,2,Pin_2_2*%
%TO.N,GND*%
X86659314Y-43975000D03*
%TO.P,J6,3,Pin_3_3*%
%TO.N,/USART1_TX*%
X86659314Y-42725000D03*
%TO.P,J6,4,Pin_4_4*%
%TO.N,/USART1_RX*%
X86659314Y-41475000D03*
D28*
%TO.P,J6,MP*%
%TO.N,N/C*%
X89859314Y-47075000D03*
X89859314Y-39625000D03*
%TD*%
D13*
%TO.P,C1,1*%
%TO.N,GND*%
X79934314Y-56450000D03*
%TO.P,C1,2*%
%TO.N,Net-(C1-Pad2)*%
X78974314Y-56450000D03*
%TD*%
D17*
%TO.P,SW2,1,1_1*%
%TO.N,+3V3*%
X84934314Y-36700000D03*
%TO.P,SW2,2,2_2*%
%TO.N,Net-(U1-BOOT0)*%
X78934314Y-36700000D03*
%TO.P,SW2,3*%
%TO.N,N/C*%
X84934314Y-33000000D03*
%TO.P,SW2,4*%
X78934314Y-33000000D03*
%TD*%
D19*
%TO.P,R8,1*%
%TO.N,Net-(U1-PC0)*%
X62694314Y-47450000D03*
%TO.P,R8,2*%
%TO.N,/VBAT_RAW*%
X61674314Y-47450000D03*
%TD*%
D10*
%TO.P,R17,1*%
%TO.N,/SD_D2*%
X80934314Y-38190000D03*
%TO.P,R17,2*%
%TO.N,+3V3*%
X80934314Y-39210000D03*
%TD*%
D27*
%TO.P,J3,1,Pin_1_1*%
%TO.N,+5V*%
X86659314Y-57375000D03*
%TO.P,J3,2,Pin_2_2*%
%TO.N,GND*%
X86659314Y-56125000D03*
%TO.P,J3,3,Pin_3_3*%
%TO.N,/USART2_TX*%
X86659314Y-54875000D03*
%TO.P,J3,4,Pin_4_4*%
%TO.N,/USART2_RX*%
X86659314Y-53625000D03*
%TO.P,J3,5,Pin_5_5*%
%TO.N,/I2C2_SCL*%
X86659314Y-52375000D03*
%TO.P,J3,6,Pin_6_6*%
%TO.N,/I2C2_SDA*%
X86659314Y-51125000D03*
D28*
%TO.P,J3,MP*%
%TO.N,N/C*%
X89859314Y-59225000D03*
X89859314Y-49275000D03*
%TD*%
D13*
%TO.P,C13,1*%
%TO.N,+3V3*%
X64684314Y-51200000D03*
%TO.P,C13,2*%
%TO.N,GND*%
X63724314Y-51200000D03*
%TD*%
D18*
%TO.P,R14,1*%
%TO.N,/SD_D0*%
X84664314Y-47200000D03*
%TO.P,R14,2*%
%TO.N,+3V3*%
X85684314Y-47200000D03*
%TD*%
D14*
%TO.P,C10,1*%
%TO.N,+3V3*%
X81724314Y-40200000D03*
%TO.P,C10,2*%
%TO.N,GND*%
X82684314Y-40200000D03*
%TD*%
D21*
%TO.P,D5,1,K_1*%
%TO.N,GND*%
X84434314Y-66987500D03*
%TO.P,D5,2,A_2*%
%TO.N,Net-(D5-A)*%
X84434314Y-65412500D03*
%TD*%
D23*
%TO.P,J5,1,Pin_1_1*%
%TO.N,+5V*%
X60859314Y-41325000D03*
%TO.P,J5,2,Pin_2_2*%
%TO.N,GND*%
X60859314Y-42575000D03*
%TO.P,J5,3,Pin_3_3*%
%TO.N,/USART6_TX*%
X60859314Y-43825000D03*
%TO.P,J5,4,Pin_4_4*%
%TO.N,/USART6_RX*%
X60859314Y-45075000D03*
D24*
%TO.P,J5,MP*%
%TO.N,N/C*%
X57659314Y-39475000D03*
X57659314Y-46925000D03*
%TD*%
D29*
%TO.P,U2,9,GND_9*%
%TO.N,GND*%
X66874314Y-33680000D03*
X66874314Y-34980000D03*
X66874314Y-36280000D03*
D30*
X67524314Y-34980000D03*
D29*
X68174314Y-33680000D03*
X68174314Y-34980000D03*
X68174314Y-36280000D03*
%TD*%
D18*
%TO.P,R12,1*%
%TO.N,Net-(USB1-CC2)*%
X68424314Y-60700000D03*
%TO.P,R12,2*%
%TO.N,GND*%
X69444314Y-60700000D03*
%TD*%
D31*
%TO.P,U6,6,I/O1_6*%
%TO.N,/USB_DP_MCU*%
X75209314Y-65450000D03*
%TO.P,U6,5,VBUS_5*%
%TO.N,/VBUS*%
X75209314Y-66400000D03*
%TO.P,U6,4,I/O2_4*%
%TO.N,/USB_DM_MCU*%
X75209314Y-67350000D03*
%TO.P,U6,3,I/O2_3*%
%TO.N,/USB_DM*%
X72934314Y-67350000D03*
%TO.P,U6,2,GND_2*%
%TO.N,GND*%
X72934314Y-66400000D03*
%TO.P,U6,1,I/O1_1*%
%TO.N,/USB_DP*%
X72934314Y-65450000D03*
%TD*%
D32*
%TO.P,USB1,13,EH_13*%
%TO.N,GND*%
X62364314Y-62537500D03*
D33*
X62364314Y-66747500D03*
D32*
%TO.P,USB1,14,EH_14*%
X71004314Y-62537500D03*
D33*
X71004314Y-66747500D03*
D34*
%TO.P,USB1,A1B12,GND_A1B12*%
X63484314Y-61987500D03*
%TO.P,USB1,A4B9,VBUS_A4B9*%
%TO.N,/VBUS*%
X64284314Y-61987500D03*
D35*
%TO.P,USB1,A5,CC1_A5*%
%TO.N,Net-(USB1-CC1)*%
X65434314Y-61987500D03*
%TO.P,USB1,A6,Dp1_A6*%
%TO.N,/USB_DP*%
X66434314Y-61987500D03*
%TO.P,USB1,A7,Dn1_A7*%
%TO.N,/USB_DM*%
X66934314Y-61987500D03*
%TO.P,USB1,A8,SBU1_A8*%
%TO.N,unconnected-(USB1-SBU1-PadA8)*%
X67934314Y-61987500D03*
D34*
%TO.P,USB1,B1A12,GND_B1A12*%
%TO.N,GND*%
X69884314Y-61987500D03*
%TO.P,USB1,B4A9,VBUS_B4A9*%
%TO.N,/VBUS*%
X69084314Y-61987500D03*
D35*
%TO.P,USB1,B5,CC2_B5*%
%TO.N,Net-(USB1-CC2)*%
X68434314Y-61987500D03*
%TO.P,USB1,B6,Dp2_B6*%
%TO.N,/USB_DP*%
X67434314Y-61987500D03*
%TO.P,USB1,B7,Dn2_B7*%
%TO.N,/USB_DM*%
X65934314Y-61987500D03*
%TO.P,USB1,B8,SBU2_B8*%
%TO.N,unconnected-(USB1-SBU2-PadB8)*%
X64934314Y-61987500D03*
%TD*%
D36*
%TO.P,U1,100,VDD_100*%
%TO.N,+3V3*%
X67934314Y-39525000D03*
%TO.P,U1,99,VSS_99*%
%TO.N,GND*%
X68434314Y-39525000D03*
%TO.P,U1,98,PE1_98*%
%TO.N,unconnected-(U1-PE1-Pad98)*%
X68934314Y-39525000D03*
%TO.P,U1,97,PE0_97*%
%TO.N,unconnected-(U1-PE0-Pad97)*%
X69434314Y-39525000D03*
%TO.P,U1,96,PB9_96*%
%TO.N,unconnected-(U1-PB9-Pad96)*%
X69934314Y-39525000D03*
%TO.P,U1,95,PB8_95*%
%TO.N,/UART4_RX*%
X70434314Y-39525000D03*
%TO.P,U1,94,BOOT0_94*%
%TO.N,Net-(U1-BOOT0)*%
X70934314Y-39525000D03*
%TO.P,U1,93,PB7_93*%
%TO.N,unconnected-(U1-PB7-Pad93)*%
X71434314Y-39525000D03*
%TO.P,U1,92,PB6_92*%
%TO.N,unconnected-(U1-PB6-Pad92)*%
X71934314Y-39525000D03*
%TO.P,U1,91,PB5_91*%
%TO.N,unconnected-(U1-PB5-Pad91)*%
X72434314Y-39525000D03*
%TO.P,U1,90,PB4_90*%
%TO.N,unconnected-(U1-PB4-Pad90)*%
X72934314Y-39525000D03*
%TO.P,U1,89,PB3_89*%
%TO.N,unconnected-(U1-PB3-Pad89)*%
X73434314Y-39525000D03*
%TO.P,U1,88,PD7_88*%
%TO.N,unconnected-(U1-PD7-Pad88)*%
X73934314Y-39525000D03*
%TO.P,U1,87,PD6_87*%
%TO.N,/USART2_RX*%
X74434314Y-39525000D03*
%TO.P,U1,86,PD5_86*%
%TO.N,/USART2_TX*%
X74934314Y-39525000D03*
%TO.P,U1,85,PD4_85*%
%TO.N,unconnected-(U1-PD4-Pad85)*%
X75434314Y-39525000D03*
%TO.P,U1,84,PD3_84*%
%TO.N,unconnected-(U1-PD3-Pad84)*%
X75934314Y-39525000D03*
%TO.P,U1,83,PD2_83*%
%TO.N,/SD_CMD*%
X76434314Y-39525000D03*
%TO.P,U1,82,PD1_82*%
%TO.N,unconnected-(U1-PD1-Pad82)*%
X76934314Y-39525000D03*
%TO.P,U1,81,PD0_81*%
%TO.N,unconnected-(U1-PD0-Pad81)*%
X77434314Y-39525000D03*
%TO.P,U1,80,PC12_80*%
%TO.N,/SD_CLK*%
X77934314Y-39525000D03*
%TO.P,U1,79,PC11_79*%
%TO.N,/SD_D3*%
X78434314Y-39525000D03*
%TO.P,U1,78,PC10_78*%
%TO.N,/SD_D2*%
X78934314Y-39525000D03*
%TO.P,U1,77,PA15_77*%
%TO.N,unconnected-(U1-PA15-Pad77)*%
X79434314Y-39525000D03*
%TO.P,U1,76,PA14_76*%
%TO.N,unconnected-(U1-PA14-Pad76)*%
X79934314Y-39525000D03*
D37*
%TO.P,U1,75,VDD_75*%
%TO.N,+3V3*%
X81609314Y-41200000D03*
%TO.P,U1,74,VSS_74*%
%TO.N,GND*%
X81609314Y-41700000D03*
%TO.P,U1,73,VCAP_73*%
%TO.N,Net-(C2-Pad1)*%
X81609314Y-42200000D03*
%TO.P,U1,72,PA13_72*%
%TO.N,unconnected-(U1-PA13-Pad72)*%
X81609314Y-42700000D03*
%TO.P,U1,71,PA12_71*%
%TO.N,/USB_DP_MCU*%
X81609314Y-43200000D03*
%TO.P,U1,70,PA11_70*%
%TO.N,/USB_DM_MCU*%
X81609314Y-43700000D03*
%TO.P,U1,69,PA10_69*%
%TO.N,/USART1_RX*%
X81609314Y-44200000D03*
%TO.P,U1,68,PA9_68*%
%TO.N,/USART1_TX*%
X81609314Y-44700000D03*
%TO.P,U1,67,PA8_67*%
%TO.N,unconnected-(U1-PA8-Pad67)*%
X81609314Y-45200000D03*
%TO.P,U1,66,PC9_66*%
%TO.N,/SD_D1*%
X81609314Y-45700000D03*
%TO.P,U1,65,PC8_65*%
%TO.N,/SD_D0*%
X81609314Y-46200000D03*
%TO.P,U1,64,PC7_64*%
%TO.N,/USART6_RX*%
X81609314Y-46700000D03*
%TO.P,U1,63,PC6_63*%
%TO.N,/USART6_TX*%
X81609314Y-47200000D03*
%TO.P,U1,62,PD15_62*%
%TO.N,unconnected-(U1-PD15-Pad62)*%
X81609314Y-47700000D03*
%TO.P,U1,61,PD14_61*%
%TO.N,unconnected-(U1-PD14-Pad61)*%
X81609314Y-48200000D03*
%TO.P,U1,60,PD13_60*%
%TO.N,unconnected-(U1-PD13-Pad60)*%
X81609314Y-48700000D03*
%TO.P,U1,59,PD12_59*%
%TO.N,unconnected-(U1-PD12-Pad59)*%
X81609314Y-49200000D03*
%TO.P,U1,58,PD11_58*%
%TO.N,unconnected-(U1-PD11-Pad58)*%
X81609314Y-49700000D03*
%TO.P,U1,57,PD10_57*%
%TO.N,unconnected-(U1-PD10-Pad57)*%
X81609314Y-50200000D03*
%TO.P,U1,56,PD9_56*%
%TO.N,unconnected-(U1-PD9-Pad56)*%
X81609314Y-50700000D03*
%TO.P,U1,55,PD8_55*%
%TO.N,unconnected-(U1-PD8-Pad55)*%
X81609314Y-51200000D03*
%TO.P,U1,54,PB15_54*%
%TO.N,unconnected-(U1-PB15-Pad54)*%
X81609314Y-51700000D03*
%TO.P,U1,53,PB14_53*%
%TO.N,unconnected-(U1-PB14-Pad53)*%
X81609314Y-52200000D03*
%TO.P,U1,52,PB13_52*%
%TO.N,unconnected-(U1-PB13-Pad52)*%
X81609314Y-52700000D03*
%TO.P,U1,51,PB12_51*%
%TO.N,unconnected-(U1-PB12-Pad51)*%
X81609314Y-53200000D03*
D36*
%TO.P,U1,50,VDD_50*%
%TO.N,+3V3*%
X79934314Y-54875000D03*
%TO.P,U1,49,VSS_49*%
%TO.N,GND*%
X79434314Y-54875000D03*
%TO.P,U1,48,VCAP_48*%
%TO.N,Net-(C1-Pad2)*%
X78934314Y-54875000D03*
%TO.P,U1,47,PB11_47*%
%TO.N,/I2C2_SDA*%
X78434314Y-54875000D03*
%TO.P,U1,46,PB10_46*%
%TO.N,/I2C2_SCL*%
X77934314Y-54875000D03*
%TO.P,U1,45,PE15_45*%
%TO.N,unconnected-(U1-PE15-Pad45)*%
X77434314Y-54875000D03*
%TO.P,U1,44,PE14_44*%
%TO.N,unconnected-(U1-PE14-Pad44)*%
X76934314Y-54875000D03*
%TO.P,U1,43,PE13_43*%
%TO.N,unconnected-(U1-PE13-Pad43)*%
X76434314Y-54875000D03*
%TO.P,U1,42,PE12_42*%
%TO.N,unconnected-(U1-PE12-Pad42)*%
X75934314Y-54875000D03*
%TO.P,U1,41,PE11_41*%
%TO.N,unconnected-(U1-PE11-Pad41)*%
X75434314Y-54875000D03*
%TO.P,U1,40,PE10_40*%
%TO.N,unconnected-(U1-PE10-Pad40)*%
X74934314Y-54875000D03*
%TO.P,U1,39,PE9_39*%
%TO.N,unconnected-(U1-PE9-Pad39)*%
X74434314Y-54875000D03*
%TO.P,U1,38,PE8_38*%
%TO.N,/USART7_TX*%
X73934314Y-54875000D03*
%TO.P,U1,37,PE7_37*%
%TO.N,/USART7_RX*%
X73434314Y-54875000D03*
%TO.P,U1,36,PB2_36*%
%TO.N,unconnected-(U1-PB2-Pad36)*%
X72934314Y-54875000D03*
%TO.P,U1,35,PB1_35*%
%TO.N,/LED_STATUS*%
X72434314Y-54875000D03*
%TO.P,U1,34,PB0_34*%
%TO.N,Net-(U1-PB0)*%
X71934314Y-54875000D03*
%TO.P,U1,33,PC5_33*%
%TO.N,unconnected-(U1-PC5-Pad33)*%
X71434314Y-54875000D03*
%TO.P,U1,32,PC4_32*%
%TO.N,unconnected-(U1-PC4-Pad32)*%
X70934314Y-54875000D03*
%TO.P,U1,31,PA7_31*%
%TO.N,/SPI1_MOSI*%
X70434314Y-54875000D03*
%TO.P,U1,30,PA6_30*%
%TO.N,/SPI1_MISO*%
X69934314Y-54875000D03*
%TO.P,U1,29,PA5_29*%
%TO.N,/SPI1_SCLK*%
X69434314Y-54875000D03*
%TO.P,U1,28,PA4_28*%
%TO.N,unconnected-(U1-PA4-Pad28)*%
X68934314Y-54875000D03*
%TO.P,U1,27,VDD_27*%
%TO.N,+3V3*%
X68434314Y-54875000D03*
%TO.P,U1,26,VSS_26*%
%TO.N,GND*%
X67934314Y-54875000D03*
D37*
%TO.P,U1,25,PA3_25*%
%TO.N,/MOTOR4*%
X66259314Y-53200000D03*
%TO.P,U1,24,PA2_24*%
%TO.N,/MOTOR3*%
X66259314Y-52700000D03*
%TO.P,U1,23,PA1_23*%
%TO.N,/MOTOR2*%
X66259314Y-52200000D03*
%TO.P,U1,22,PA0_22*%
%TO.N,/MOTOR1*%
X66259314Y-51700000D03*
%TO.P,U1,21,VDDA_21*%
%TO.N,+3V3*%
X66259314Y-51200000D03*
%TO.P,U1,20,VREF+_20*%
X66259314Y-50700000D03*
%TO.P,U1,19,VSSA_19*%
%TO.N,GND*%
X66259314Y-50200000D03*
%TO.P,U1,18,PC3_C_18*%
%TO.N,unconnected-(U1-PC3_C-Pad18)*%
X66259314Y-49700000D03*
%TO.P,U1,17,PC2_C_17*%
%TO.N,unconnected-(U1-PC2_C-Pad17)*%
X66259314Y-49200000D03*
%TO.P,U1,16,PC1_16*%
%TO.N,/CURR*%
X66259314Y-48700000D03*
%TO.P,U1,15,PC0_15*%
%TO.N,Net-(U1-PC0)*%
X66259314Y-48200000D03*
%TO.P,U1,14,NRST_14*%
%TO.N,Net-(U1-NRST)*%
X66259314Y-47700000D03*
%TO.P,U1,13,PH1_13*%
%TO.N,Net-(U1-PH1)*%
X66259314Y-47200000D03*
%TO.P,U1,12,PH0_12*%
%TO.N,Net-(U1-PH0)*%
X66259314Y-46700000D03*
%TO.P,U1,11,VDD_11*%
%TO.N,+3V3*%
X66259314Y-46200000D03*
%TO.P,U1,10,VSS_10*%
%TO.N,GND*%
X66259314Y-45700000D03*
%TO.P,U1,9,PC15_9*%
%TO.N,/IMU_CS*%
X66259314Y-45200000D03*
%TO.P,U1,8,PC14_8*%
%TO.N,unconnected-(U1-PC14-Pad8)*%
X66259314Y-44700000D03*
%TO.P,U1,7,PC13_7*%
%TO.N,/SD_DET*%
X66259314Y-44200000D03*
%TO.P,U1,6,VBAT_6*%
%TO.N,+3V3*%
X66259314Y-43700000D03*
%TO.P,U1,5,PE6_5*%
%TO.N,unconnected-(U1-PE6-Pad5)*%
X66259314Y-43200000D03*
%TO.P,U1,4,PE5_4*%
%TO.N,unconnected-(U1-PE5-Pad4)*%
X66259314Y-42700000D03*
%TO.P,U1,3,PE4_3*%
%TO.N,unconnected-(U1-PE4-Pad3)*%
X66259314Y-42200000D03*
%TO.P,U1,2,PE3_2*%
%TO.N,unconnected-(U1-PE3-Pad2)*%
X66259314Y-41700000D03*
%TO.P,U1,1,PE2_1*%
%TO.N,unconnected-(U1-PE2-Pad1)*%
X66259314Y-41200000D03*
%TD*%
D38*
%TO.N,+3V3*%
X65634314Y-50950000D03*
%TO.N,GND*%
X72694314Y-57460000D03*
D39*
%TO.N,/USART6_RX*%
X61202944Y-45749999D03*
%TO.N,/USART6_TX*%
X62684314Y-43300000D03*
X83057549Y-48076765D03*
%TO.N,/USART6_RX*%
X83904314Y-48075000D03*
%TO.N,/SD_DET*%
X84434314Y-48700000D03*
%TO.N,Net-(U1-PB0)*%
X71232609Y-53588938D03*
X81184314Y-59200000D03*
D38*
%TO.N,+5V*%
X61584314Y-41423492D03*
X59009314Y-51449140D03*
D39*
%TO.N,/USART7_TX*%
X75844313Y-52752506D03*
D38*
%TO.N,GND*%
X63434314Y-48920000D03*
X64484314Y-37785000D03*
%TO.N,Net-(U1-NRST)*%
X65184314Y-39150000D03*
X69297917Y-47313603D03*
D39*
%TO.N,/MOTOR3*%
X62545796Y-52140770D03*
D38*
%TO.N,+5V*%
X85434314Y-39200000D03*
D39*
%TO.N,/USART2_RX*%
X78000196Y-50375000D03*
%TO.N,/SD_CLK*%
X79444314Y-48782105D03*
%TO.N,/USART2_RX*%
X88135049Y-53650735D03*
%TO.N,/USART2_TX*%
X78065427Y-43631631D03*
X87934314Y-54700000D03*
D38*
%TO.N,GND*%
X77184314Y-36450000D03*
%TO.N,+3V3*%
X85665677Y-48175000D03*
%TO.N,GND*%
X86684314Y-43950000D03*
X69934314Y-41950000D03*
D39*
%TO.N,/SD_DET*%
X73434314Y-47450000D03*
D38*
%TO.N,GND*%
X68357760Y-45250000D03*
D39*
%TO.N,/USART7_RX*%
X69479465Y-53575000D03*
X65684314Y-66200000D03*
%TO.N,/UART4_RX*%
X68620154Y-53585784D03*
%TO.N,/I2C2_SDA*%
X87934314Y-51200000D03*
X78484313Y-53199996D03*
X76330710Y-56586036D03*
%TO.N,/I2C2_SCL*%
X77684314Y-53200002D03*
X86184314Y-52450000D03*
D38*
%TO.N,GND*%
X80318791Y-57275000D03*
%TO.N,/VBAT_RAW*%
X61184314Y-46950000D03*
D39*
X62516647Y-49107618D03*
D38*
%TO.N,+3V3*%
X66934314Y-39410000D03*
X67684764Y-49516120D03*
D39*
%TO.N,/LED_STATUS*%
X72434314Y-53700000D03*
X84184314Y-62450000D03*
%TO.N,/MOTOR2*%
X59509315Y-52915626D03*
%TO.N,/MOTOR1*%
X63923104Y-52192284D03*
%TO.N,/MOTOR4*%
X66213754Y-53729440D03*
%TO.N,Net-(U1-BOOT0)*%
X70930095Y-40706433D03*
X75684314Y-35073000D03*
D38*
%TO.N,+3V3*%
X77454314Y-37950000D03*
X73934314Y-59220000D03*
X79344314Y-50700000D03*
X83334314Y-63113636D03*
D39*
X84704314Y-44700000D03*
D38*
%TO.N,GND*%
X59434314Y-42200000D03*
%TO.N,+5V*%
X72684314Y-33030000D03*
X82684314Y-61700000D03*
D39*
%TO.N,/WS2812_DATA*%
X80684314Y-60200000D03*
D38*
%TO.N,+3V3*%
X74385786Y-52525002D03*
%TO.N,GND*%
X79184314Y-46700000D03*
X89934314Y-60325000D03*
X89394314Y-45975000D03*
X74385786Y-50450000D03*
D39*
%TO.N,/SD_CMD*%
X76861494Y-52325761D03*
%TO.N,/SD_D3*%
X76085786Y-42500000D03*
%TO.N,/SD_D2*%
X76934314Y-42500000D03*
%TO.N,/SD_D1*%
X83456092Y-45622221D03*
%TO.N,/SD_D0*%
X83544314Y-46450000D03*
D38*
%TO.N,GND*%
X79934314Y-63450000D03*
X75725998Y-57649999D03*
X75934314Y-59450000D03*
D39*
%TO.N,/IMU_CS*%
X69384766Y-45569097D03*
X72145538Y-56366829D03*
%TO.N,/SPI1_SCLK*%
X69334314Y-56092469D03*
X71434315Y-57384489D03*
D38*
%TO.N,+3V3*%
X85184314Y-35389998D03*
%TO.N,GND*%
X83184314Y-40700000D03*
D39*
%TO.N,/VBUS*%
X75184314Y-66450000D03*
X67934314Y-63700000D03*
D38*
%TO.N,GND*%
X66184314Y-59450000D03*
X61184314Y-33200000D03*
X61684314Y-49450000D03*
X72309314Y-50325000D03*
D39*
X67524314Y-34980000D03*
X72684314Y-37950000D03*
%TO.N,/CURR*%
X60434314Y-57700000D03*
%TO.N,GND*%
X73434314Y-33950000D03*
D38*
X62184314Y-39200000D03*
D39*
%TO.N,/USART7_TX*%
X59305063Y-54079251D03*
%TD*%
%TO.N,+3V3*%
D40*
X66479950Y-39410000D02*
X66934314Y-39410000D01*
X64664314Y-41225636D02*
X66479950Y-39410000D01*
X64664314Y-43700000D02*
X64664314Y-41225636D01*
X65184314Y-50700000D02*
X64684314Y-51200000D01*
X66259314Y-50700000D02*
X65184314Y-50700000D01*
%TO.N,GND*%
X72694314Y-56960000D02*
X72694314Y-57460000D01*
X62889313Y-42575000D02*
X60859314Y-42575000D01*
X63704314Y-43390001D02*
X62889313Y-42575000D01*
X63704314Y-43700000D02*
X63704314Y-43390001D01*
X63444314Y-48920000D02*
X63724314Y-49200000D01*
X63434314Y-48920000D02*
X63444314Y-48920000D01*
X64684314Y-50160000D02*
X63724314Y-49200000D01*
X64684314Y-50200000D02*
X64684314Y-50160000D01*
%TO.N,/VBAT_RAW*%
X62631932Y-49107618D02*
X63724314Y-50200000D01*
X62516647Y-49107618D02*
X62631932Y-49107618D01*
%TO.N,+3V3*%
X64664314Y-45200000D02*
X64664314Y-45437410D01*
%TO.N,/USART6_RX*%
X61202944Y-45418630D02*
X60859314Y-45075000D01*
X61202944Y-45749999D02*
X61202944Y-45418630D01*
%TO.N,/USART6_TX*%
X62159314Y-43825000D02*
X60859314Y-43825000D01*
X62684314Y-43300000D02*
X62159314Y-43825000D01*
X83057549Y-47815825D02*
X83057549Y-48076765D01*
X82441724Y-47200000D02*
X83057549Y-47815825D01*
X81609314Y-47200000D02*
X82441724Y-47200000D01*
%TO.N,/USART6_RX*%
X82529314Y-46700000D02*
X83904314Y-48075000D01*
X81609314Y-46700000D02*
X82529314Y-46700000D01*
%TO.N,/SD_D0*%
X84684314Y-46450000D02*
X83544314Y-46450000D01*
X84664314Y-46470000D02*
X84684314Y-46450000D01*
X84664314Y-47200000D02*
X84664314Y-46470000D01*
%TO.N,/SD_DET*%
X84674314Y-48460000D02*
X84434314Y-48700000D01*
X84674314Y-48200000D02*
X84674314Y-48460000D01*
%TO.N,Net-(U1-PB0)*%
X71232609Y-53588938D02*
X71480662Y-53588938D01*
X71934314Y-54042590D02*
X71934314Y-54875000D01*
X71480662Y-53588938D02*
X71934314Y-54042590D01*
X81164314Y-59180000D02*
X81184314Y-59200000D01*
X80684314Y-59180000D02*
X81164314Y-59180000D01*
%TO.N,+5V*%
D41*
X60859314Y-40950000D02*
X60859314Y-38195000D01*
D40*
X61584314Y-41423492D02*
X61110822Y-40950000D01*
X61110822Y-40950000D02*
X60859314Y-40950000D01*
X59208454Y-51250000D02*
X59009314Y-51449140D01*
X60859314Y-51250000D02*
X59208454Y-51250000D01*
%TO.N,/USART7_TX*%
X73934314Y-54042590D02*
X73934314Y-54875000D01*
X74201904Y-53775000D02*
X73934314Y-54042590D01*
X74821819Y-53775000D02*
X74201904Y-53775000D01*
X75844313Y-52752506D02*
X74821819Y-53775000D01*
X59634314Y-53750000D02*
X59305063Y-54079251D01*
X60859314Y-53750000D02*
X59634314Y-53750000D01*
%TO.N,/USB_DM*%
X71853454Y-60837500D02*
X71522082Y-60837500D01*
X72254314Y-61238360D02*
X71853454Y-60837500D01*
X72900000Y-64850000D02*
X72254314Y-64204314D01*
X73637366Y-64850000D02*
X72900000Y-64850000D01*
X72254314Y-64204314D02*
X72254314Y-61238360D01*
X73896814Y-65109448D02*
X73637366Y-64850000D01*
X73896814Y-67049999D02*
X73896814Y-65109448D01*
X73596813Y-67350000D02*
X73896814Y-67049999D01*
X72934314Y-67350000D02*
X73596813Y-67350000D01*
%TO.N,/USB_DP*%
X71854314Y-61404046D02*
X71687768Y-61237500D01*
X71854314Y-64370000D02*
X71854314Y-61404046D01*
X72934314Y-65450000D02*
X71854314Y-64370000D01*
X70014314Y-60421472D02*
X70830343Y-61237500D01*
X70014314Y-60331076D02*
X70014314Y-60421472D01*
X69763238Y-60080000D02*
X70014314Y-60331076D01*
X69094852Y-60110538D02*
X69125390Y-60080000D01*
X68105390Y-60080000D02*
X69064314Y-60080000D01*
X67434314Y-60751076D02*
X68105390Y-60080000D01*
X69064314Y-60080000D02*
X69094852Y-60110538D01*
X67434314Y-61987500D02*
X67434314Y-60751076D01*
%TO.N,/USB_DM*%
X70996028Y-60837500D02*
X71522082Y-60837500D01*
X70414314Y-60165391D02*
X70414314Y-60255786D01*
%TO.N,/USB_DP*%
X70830343Y-61237500D02*
X71687768Y-61237500D01*
%TO.N,/USB_DM*%
X70414314Y-60255786D02*
X70996028Y-60837500D01*
X67939705Y-59680000D02*
X69928924Y-59680000D01*
%TO.N,/USB_DP*%
X69125390Y-60080000D02*
X69763238Y-60080000D01*
%TO.N,/USB_DM*%
X67034314Y-60585390D02*
X67939705Y-59680000D01*
X69928924Y-59680000D02*
X70414314Y-60165391D01*
X66884314Y-60735391D02*
X67034314Y-60885391D01*
X66884314Y-61137500D02*
X66884314Y-60735391D01*
X67034314Y-60885391D02*
X67034314Y-60585390D01*
%TO.N,/CURR*%
X59309314Y-57075000D02*
X59934314Y-57700000D01*
X59309314Y-56365256D02*
X59309314Y-57075000D01*
X56084314Y-53140256D02*
X59309314Y-56365256D01*
X56084314Y-51800000D02*
X56084314Y-53140256D01*
X57684314Y-50200000D02*
X56084314Y-51800000D01*
X58994058Y-50200000D02*
X57684314Y-50200000D01*
X59309314Y-49884744D02*
X58994058Y-50200000D01*
X59139186Y-48745128D02*
X59309314Y-48915256D01*
X59376696Y-48507618D02*
X59139186Y-48745128D01*
X61126696Y-48507618D02*
X59376696Y-48507618D01*
X61564314Y-48070000D02*
X61126696Y-48507618D01*
X59309314Y-48915256D02*
X59309314Y-49884744D01*
X62184314Y-47878924D02*
X61993238Y-48070000D01*
X64247314Y-48356869D02*
X64247314Y-48220000D01*
X62898628Y-48220000D02*
X62748628Y-48070000D01*
X64684314Y-48627000D02*
X64517444Y-48627000D01*
X64517444Y-48627000D02*
X64247314Y-48356869D01*
X59934314Y-57700000D02*
X60434314Y-57700000D01*
X64247314Y-48220000D02*
X62898628Y-48220000D01*
X61993238Y-48070000D02*
X61564314Y-48070000D01*
X62375390Y-48070000D02*
X62184314Y-47878924D01*
X64684314Y-49200000D02*
X64684314Y-48627000D01*
X62748628Y-48070000D02*
X62375390Y-48070000D01*
%TO.N,GND*%
D41*
X67724314Y-58700000D02*
X66344314Y-58700000D01*
%TO.N,+3V3*%
X68684314Y-58700000D02*
X69336814Y-58700000D01*
%TO.N,/USART7_RX*%
D40*
X73434314Y-51950000D02*
X73434314Y-54875000D01*
X72509315Y-51025000D02*
X73434314Y-51950000D01*
X72029465Y-51025000D02*
X72509315Y-51025000D01*
X69479465Y-53575000D02*
X72029465Y-51025000D01*
%TO.N,/UART4_RX*%
X70434314Y-40357410D02*
X70434314Y-39525000D01*
X70330095Y-40461629D02*
X70434314Y-40357410D01*
X70330095Y-40954962D02*
X70330095Y-40461629D01*
X74685786Y-45310653D02*
X70330095Y-40954962D01*
X74685786Y-47237309D02*
X74685786Y-45310653D01*
X72298095Y-49625000D02*
X74685786Y-47237309D01*
X72019364Y-49625000D02*
X72298095Y-49625000D01*
X69470124Y-52452971D02*
X71609314Y-50313781D01*
X68620154Y-53585784D02*
X69470124Y-52735814D01*
X71609314Y-50035050D02*
X72019364Y-49625000D01*
X69470124Y-52735814D02*
X69470124Y-52452971D01*
X71609314Y-50313781D02*
X71609314Y-50035050D01*
%TO.N,/USART2_RX*%
X74434314Y-40700000D02*
X74434314Y-39525000D01*
X76684314Y-45644112D02*
X73934314Y-42894112D01*
X76684314Y-49059118D02*
X76684314Y-45644112D01*
X78000196Y-50375000D02*
X76684314Y-49059118D01*
X73934314Y-42894112D02*
X73934314Y-41200000D01*
X73934314Y-41200000D02*
X74434314Y-40700000D01*
%TO.N,/SD_CMD*%
X76434314Y-40357410D02*
X76434314Y-39525000D01*
X76712257Y-40635353D02*
X76434314Y-40357410D01*
X76712257Y-40790685D02*
X76712257Y-40635353D01*
X76354416Y-41100000D02*
X76637257Y-41100000D01*
X75954415Y-41500000D02*
X76354416Y-41100000D01*
X75671572Y-41500000D02*
X75954415Y-41500000D01*
X75671571Y-43500000D02*
X75085786Y-42914214D01*
X76500000Y-43500000D02*
X75671571Y-43500000D01*
X76520099Y-43500000D02*
X76510050Y-43489951D01*
X77348528Y-43500000D02*
X76520099Y-43500000D01*
X77934314Y-42914215D02*
X77348528Y-43500000D01*
X76510050Y-43489951D02*
X76500000Y-43500000D01*
X77934314Y-42631372D02*
X77934314Y-42914215D01*
X76637257Y-41100000D02*
X76829414Y-40907843D01*
X78934314Y-43012743D02*
X78243628Y-42322057D01*
X78934314Y-45600000D02*
X78934314Y-43012743D01*
X78728679Y-45600000D02*
X78934314Y-45600000D01*
X78084314Y-46244364D02*
X78728679Y-45600000D01*
X78084314Y-47155635D02*
X78084314Y-46244364D01*
X76829414Y-40907843D02*
X76712257Y-40790685D01*
X78728678Y-47800000D02*
X78084314Y-47155635D01*
X78870100Y-47800000D02*
X78728678Y-47800000D01*
X78934314Y-47864214D02*
X78870100Y-47800000D01*
X78644314Y-48175786D02*
X78934314Y-47885786D01*
X78644314Y-51910000D02*
X78644314Y-48175786D01*
X78635788Y-52200000D02*
X78934314Y-52200000D01*
X78160051Y-52675737D02*
X78635788Y-52200000D01*
X77435785Y-52600000D02*
X78084314Y-52600000D01*
X78084314Y-52600000D02*
X78160051Y-52675737D01*
X76861494Y-52325761D02*
X77161546Y-52325761D01*
X75085786Y-42914214D02*
X75085786Y-42085785D01*
X78934314Y-52200000D02*
X78644314Y-51910000D01*
X78243628Y-42322057D02*
X77934314Y-42631372D01*
X77161546Y-52325761D02*
X77435785Y-52600000D01*
X78934314Y-47885786D02*
X78934314Y-47864214D01*
X75085786Y-42085785D02*
X75671572Y-41500000D01*
%TO.N,/I2C2_SCL*%
X77684316Y-53200002D02*
X77934314Y-53450000D01*
X77684314Y-53200002D02*
X77684316Y-53200002D01*
X77934314Y-53450000D02*
X77934314Y-54875000D01*
%TO.N,/I2C2_SDA*%
X78484317Y-54824997D02*
X78434314Y-54875000D01*
X78484317Y-53200000D02*
X78484317Y-54824997D01*
X78484313Y-53199996D02*
X78484317Y-53200000D01*
%TO.N,GND*%
X64894364Y-39850000D02*
X64484314Y-39439950D01*
X64484314Y-39439950D02*
X64484314Y-37785000D01*
X65474264Y-39850000D02*
X64894364Y-39850000D01*
X66874264Y-38450000D02*
X65474264Y-39850000D01*
X66934314Y-38450000D02*
X66874264Y-38450000D01*
%TO.N,Net-(U1-NRST)*%
X69224314Y-36330000D02*
X69224314Y-35700000D01*
X68724314Y-36830000D02*
X69224314Y-36330000D01*
X65184314Y-39150000D02*
X65184314Y-36830000D01*
X65184314Y-36830000D02*
X68724314Y-36830000D01*
X68911520Y-47700000D02*
X69297917Y-47313603D01*
X66259314Y-47700000D02*
X68911520Y-47700000D01*
%TO.N,/MOTOR3*%
X65426904Y-52700000D02*
X66259314Y-52700000D01*
X62545796Y-52229190D02*
X63508890Y-53192284D01*
X62545796Y-52140770D02*
X62545796Y-52229190D01*
X63508890Y-53192284D02*
X64934620Y-53192284D01*
X64934620Y-53192284D02*
X65426904Y-52700000D01*
%TO.N,/MOTOR2*%
X65426904Y-52200000D02*
X66259314Y-52200000D01*
X65326904Y-52100000D02*
X65426904Y-52200000D01*
X65286134Y-52100000D02*
X65326904Y-52100000D01*
X65176134Y-52210000D02*
X65286134Y-52100000D01*
X64523104Y-52210000D02*
X65176134Y-52210000D01*
X64523104Y-52440813D02*
X64523104Y-52210000D01*
X64171633Y-52792284D02*
X64523104Y-52440813D01*
X63323104Y-52440813D02*
X63674575Y-52792284D01*
X63323104Y-52250161D02*
X63323104Y-52440813D01*
X63144314Y-52071371D02*
X63323104Y-52250161D01*
X63144314Y-50300971D02*
X63144314Y-52071371D01*
X62550961Y-49707618D02*
X63144314Y-50300971D01*
X62384314Y-49707618D02*
X62550961Y-49707618D01*
X62009314Y-50114950D02*
X62384314Y-49739950D01*
X62009314Y-51848527D02*
X62009314Y-50114950D01*
X59968762Y-51900000D02*
X61957841Y-51900000D01*
X59705210Y-52163552D02*
X59968762Y-51900000D01*
X62384314Y-49739950D02*
X62384314Y-49707618D01*
X59705210Y-52719731D02*
X59705210Y-52163552D01*
X63674575Y-52792284D02*
X64171633Y-52792284D01*
X59509315Y-52915626D02*
X59705210Y-52719731D01*
X61957841Y-51900000D02*
X62009314Y-51848527D01*
%TO.N,+5V*%
X85874866Y-39200000D02*
X85434314Y-39200000D01*
X87809314Y-41134448D02*
X85874866Y-39200000D01*
X87809314Y-44924999D02*
X87809314Y-41134448D01*
X87509313Y-45225000D02*
X87809314Y-44924999D01*
X86659314Y-45225000D02*
X87509313Y-45225000D01*
%TO.N,/USART2_TX*%
X74934314Y-40357410D02*
X74934314Y-39525000D01*
X75434314Y-40857410D02*
X74934314Y-40357410D01*
X74685786Y-43079899D02*
X74685787Y-41920099D01*
X75434314Y-41171572D02*
X75434314Y-40857410D01*
X75505885Y-43899999D02*
X74685786Y-43079899D01*
X77797058Y-43900000D02*
X75505885Y-43899999D01*
X74685787Y-41920099D02*
X75434314Y-41171572D01*
X78065427Y-43631631D02*
X77797058Y-43900000D01*
%TO.N,/SD_CLK*%
X77934314Y-40357410D02*
X77934314Y-39525000D01*
X77666724Y-40625000D02*
X77934314Y-40357410D01*
X77112257Y-40625000D02*
X77666724Y-40625000D01*
X77395099Y-40907842D02*
X77112257Y-40625000D01*
X76802942Y-41500000D02*
X77395099Y-40907842D01*
X76520101Y-41500000D02*
X76802942Y-41500000D01*
X75837257Y-41900000D02*
X76120100Y-41900000D01*
X75485786Y-42748529D02*
X75485786Y-42251471D01*
X75837257Y-43100000D02*
X75485786Y-42748529D01*
X76334315Y-43100000D02*
X75837257Y-43100000D01*
X76510050Y-42924265D02*
X76334315Y-43100000D01*
X77182843Y-43100000D02*
X76685785Y-43100000D01*
X77534314Y-42748529D02*
X77182843Y-43100000D01*
X77534314Y-42465686D02*
X77534314Y-42748529D01*
X78243628Y-41756371D02*
X77534314Y-42465686D01*
X79916395Y-43429138D02*
X78243628Y-41756371D01*
X79709315Y-43636218D02*
X79916395Y-43429138D01*
X79474264Y-46000000D02*
X79709314Y-46235050D01*
X78894364Y-46000000D02*
X79474264Y-46000000D01*
X78484314Y-46410050D02*
X78894364Y-46000000D01*
X76685785Y-43100000D02*
X76510050Y-42924265D01*
X79035786Y-47400000D02*
X78894364Y-47400000D01*
X79185786Y-47550000D02*
X79035786Y-47400000D01*
X79682842Y-47550000D02*
X79185786Y-47550000D01*
X79709314Y-47523528D02*
X79682842Y-47550000D01*
X78484314Y-46989950D02*
X78484314Y-46410050D01*
X79709314Y-47676472D02*
X79709314Y-47523528D01*
X79444314Y-47941472D02*
X79709314Y-47676472D01*
X79444314Y-48782105D02*
X79444314Y-47941472D01*
X79709314Y-46235050D02*
X79709315Y-43636218D01*
X75485786Y-42251471D02*
X75837257Y-41900000D01*
X76120100Y-41900000D02*
X76520101Y-41500000D01*
X78894364Y-47400000D02*
X78484314Y-46989950D01*
%TO.N,+3V3*%
X79344314Y-51360000D02*
X79709314Y-51725000D01*
X79934314Y-54042590D02*
X79934314Y-54875000D01*
X79709314Y-51725000D02*
X79709314Y-53790686D01*
X79947766Y-54029138D02*
X79934314Y-54042590D01*
X79344314Y-50700000D02*
X79344314Y-51360000D01*
X79709314Y-53790686D02*
X79947766Y-54029138D01*
%TO.N,/USART2_RX*%
X88109314Y-53625000D02*
X88135049Y-53650735D01*
X86659314Y-53625000D02*
X88109314Y-53625000D01*
%TO.N,/USART2_TX*%
X87759314Y-54875000D02*
X87934314Y-54700000D01*
X86659314Y-54875000D02*
X87759314Y-54875000D01*
%TO.N,+3V3*%
X85684314Y-48156363D02*
X85665677Y-48175000D01*
X85684314Y-47200000D02*
X85684314Y-48156363D01*
%TO.N,GND*%
X86659314Y-43975000D02*
X86684314Y-43950000D01*
%TO.N,/SD_DET*%
X70134314Y-44150000D02*
X73434314Y-47450000D01*
X66309314Y-44150000D02*
X70134314Y-44150000D01*
X66259314Y-44200000D02*
X66309314Y-44150000D01*
%TO.N,/IMU_CS*%
X68647710Y-44550000D02*
X69384766Y-45287056D01*
X69384766Y-45287056D02*
X69384766Y-45569097D01*
X67834314Y-44550000D02*
X68647710Y-44550000D01*
X67184314Y-45200000D02*
X67834314Y-44550000D01*
X66259314Y-45200000D02*
X67184314Y-45200000D01*
%TO.N,GND*%
X68357760Y-45250000D02*
X67971713Y-45250000D01*
X67521713Y-45700000D02*
X66259314Y-45700000D01*
X67971713Y-45250000D02*
X67521713Y-45700000D01*
%TO.N,/IMU_CS*%
X69384766Y-45569097D02*
X69265669Y-45450000D01*
%TO.N,+3V3*%
X65426904Y-46200000D02*
X64664314Y-45437410D01*
X66259314Y-46200000D02*
X65426904Y-46200000D01*
%TO.N,Net-(U1-PC0)*%
X64674314Y-47200000D02*
X64674314Y-46730000D01*
X64674314Y-46730000D02*
X64144314Y-46200000D01*
%TO.N,GND*%
X63184314Y-45720000D02*
X63704314Y-45200000D01*
X63184314Y-46200000D02*
X63184314Y-45720000D01*
X63654314Y-46670000D02*
X63184314Y-46200000D01*
X63654314Y-47200000D02*
X63654314Y-46670000D01*
%TO.N,+3V3*%
X64664314Y-43970000D02*
X64664314Y-45200000D01*
D42*
X64934314Y-43700000D02*
X64664314Y-43700000D01*
D40*
X64934314Y-43700000D02*
X64664314Y-43970000D01*
%TO.N,GND*%
X63704314Y-43700000D02*
X63704314Y-45200000D01*
%TO.N,/I2C2_SCL*%
X74476904Y-57200000D02*
X75701904Y-55975000D01*
X74434314Y-57200000D02*
X74476904Y-57200000D01*
X74434314Y-57700000D02*
X73934314Y-58200000D01*
X74434314Y-57200000D02*
X74434314Y-57700000D01*
X76166724Y-55975000D02*
X75701904Y-55975000D01*
X76666724Y-55975000D02*
X76201904Y-55975000D01*
X76184314Y-55957410D02*
X76166724Y-55975000D01*
X76684314Y-55957410D02*
X76666724Y-55975000D01*
X77934314Y-55975000D02*
X76701904Y-55975000D01*
X76701904Y-55975000D02*
X76684314Y-55957410D01*
X77934314Y-57030000D02*
X77934314Y-55975000D01*
X76201904Y-55975000D02*
X76184314Y-55957410D01*
X76734314Y-57030000D02*
X77934314Y-57030000D01*
%TO.N,/USART7_RX*%
X64374732Y-66200000D02*
X65684314Y-66200000D01*
X61514314Y-63339582D02*
X64374732Y-66200000D01*
X61514314Y-55655000D02*
X61514314Y-63339582D01*
X60859314Y-55000000D02*
X61514314Y-55655000D01*
%TO.N,/I2C2_SDA*%
X86734314Y-51200000D02*
X86659314Y-51125000D01*
X87934314Y-51200000D02*
X86734314Y-51200000D01*
X75800011Y-56586036D02*
X76330710Y-56586036D01*
X74934314Y-57451733D02*
X75800011Y-56586036D01*
X74934314Y-58200000D02*
X74934314Y-57451733D01*
%TO.N,/I2C2_SCL*%
X77634314Y-57030000D02*
X77634314Y-57200000D01*
X76734314Y-57030000D02*
X77634314Y-57030000D01*
X76734314Y-57580000D02*
X76734314Y-57030000D01*
X77634314Y-57200000D02*
X77934314Y-57200000D01*
X76684314Y-57580000D02*
X76734314Y-57580000D01*
X77934314Y-57200000D02*
X77934314Y-54875000D01*
X76734314Y-57530000D02*
X76734314Y-57030000D01*
X76684314Y-57580000D02*
X76734314Y-57530000D01*
X86259314Y-52375000D02*
X86184314Y-52450000D01*
X86659314Y-52375000D02*
X86259314Y-52375000D01*
%TO.N,GND*%
X79934314Y-56450000D02*
X79934314Y-56890523D01*
X79934314Y-56890523D02*
X80318791Y-57275000D01*
X79934314Y-56450000D02*
X79934314Y-56700000D01*
X79934314Y-56700000D02*
X79151473Y-57482841D01*
%TO.N,/MOTOR1*%
X65120448Y-51700000D02*
X66259314Y-51700000D01*
X64358180Y-51810000D02*
X65010448Y-51810000D01*
X64248180Y-51700000D02*
X64358180Y-51810000D01*
X64160448Y-51700000D02*
X64248180Y-51700000D01*
X64050448Y-51810000D02*
X64160448Y-51700000D01*
X63574314Y-51810000D02*
X64050448Y-51810000D01*
X63544314Y-51905685D02*
X63544314Y-51840000D01*
X63830913Y-52192284D02*
X63544314Y-51905685D01*
X63923104Y-52192284D02*
X63830913Y-52192284D01*
X63544314Y-51840000D02*
X63574314Y-51810000D01*
X65010448Y-51810000D02*
X65120448Y-51700000D01*
%TO.N,/MOTOR2*%
X66249314Y-52210000D02*
X66259314Y-52200000D01*
%TO.N,Net-(U1-PC0)*%
X64054314Y-47820000D02*
X64674314Y-47200000D01*
X63064314Y-47820000D02*
X64054314Y-47820000D01*
X62694314Y-47450000D02*
X63064314Y-47820000D01*
%TO.N,/VBAT_RAW*%
X61674314Y-47440000D02*
X61184314Y-46950000D01*
X61674314Y-47450000D02*
X61674314Y-47440000D01*
X63724314Y-50200000D02*
X63609029Y-50200000D01*
%TO.N,+3V3*%
X67684764Y-50574549D02*
X67684764Y-49516120D01*
X67059313Y-51200000D02*
X67684764Y-50574549D01*
X66259314Y-51200000D02*
X67059313Y-51200000D01*
%TO.N,Net-(U1-PH1)*%
X67359314Y-47200000D02*
X66259314Y-47200000D01*
X67359314Y-47100000D02*
X67359314Y-47200000D01*
X67599999Y-47100000D02*
X67359314Y-47100000D01*
X68130903Y-46569097D02*
X67599999Y-47100000D01*
X69798980Y-46569097D02*
X68130903Y-46569097D01*
X70284314Y-46350000D02*
X70018078Y-46350000D01*
X70284314Y-46471655D02*
X70284314Y-46350000D01*
X64634314Y-54450000D02*
X66341723Y-54450000D01*
X70534314Y-46721656D02*
X70284314Y-46471655D01*
X64564314Y-57050000D02*
X64634314Y-56980000D01*
X64634314Y-56980000D02*
X64634314Y-54450000D01*
X70018078Y-46350000D02*
X69798980Y-46569097D01*
X63434314Y-57050000D02*
X64564314Y-57050000D01*
X66341723Y-54450000D02*
X70534314Y-50257409D01*
X70534314Y-50257409D02*
X70534314Y-46721656D01*
%TO.N,Net-(U1-PH0)*%
X67434314Y-46700000D02*
X66259314Y-46700000D01*
X68184314Y-45950000D02*
X67434314Y-46700000D01*
X68917140Y-45950000D02*
X68184314Y-45950000D01*
X69136237Y-46169097D02*
X68917140Y-45950000D01*
X69633295Y-46169097D02*
X69136237Y-46169097D01*
X69852392Y-45950000D02*
X69633295Y-46169097D01*
X70684314Y-45950000D02*
X69852392Y-45950000D01*
X70684314Y-46305970D02*
X70684314Y-45950000D01*
X70934314Y-50423095D02*
X70934314Y-46555970D01*
X70934314Y-46555970D02*
X70684314Y-46305970D01*
X66684314Y-56910000D02*
X66684314Y-54673095D01*
X66684314Y-54673095D02*
X70934314Y-50423095D01*
X66544314Y-57050000D02*
X66684314Y-56910000D01*
X65634314Y-57050000D02*
X66544314Y-57050000D01*
%TO.N,/LED_STATUS*%
X72434314Y-53700000D02*
X72434314Y-54875000D01*
X84434314Y-62700000D02*
X84184314Y-62450000D01*
X84434314Y-63200000D02*
X84434314Y-62700000D01*
%TO.N,/MOTOR4*%
X66213754Y-53729440D02*
X66213754Y-53245560D01*
X66213754Y-53245560D02*
X66259314Y-53200000D01*
%TO.N,+3V3*%
X66259314Y-51200000D02*
X64684314Y-51200000D01*
%TO.N,+5V*%
X85809315Y-57375000D02*
X86659314Y-57375000D01*
X85509314Y-57074999D02*
X85809315Y-57375000D01*
X85509314Y-50784448D02*
X85509314Y-57074999D01*
X86659314Y-49634448D02*
X85509314Y-50784448D01*
X86659314Y-45225000D02*
X86659314Y-49634448D01*
%TO.N,Net-(U1-BOOT0)*%
X70930095Y-39529219D02*
X70934314Y-39525000D01*
X70930095Y-40706433D02*
X70930095Y-39529219D01*
X77827314Y-35073000D02*
X75684314Y-35073000D01*
X78454314Y-35700000D02*
X77827314Y-35073000D01*
%TO.N,GND*%
X68434314Y-38692590D02*
X68434314Y-39525000D01*
X68166724Y-38425000D02*
X68434314Y-38692590D01*
X66959314Y-38425000D02*
X68166724Y-38425000D01*
X66934314Y-38450000D02*
X66959314Y-38425000D01*
X88824570Y-60325000D02*
X89934314Y-60325000D01*
X88209314Y-59709744D02*
X88824570Y-60325000D01*
X87509313Y-56125000D02*
X88209314Y-56825001D01*
X88209314Y-56825001D02*
X88209314Y-59709744D01*
X86659314Y-56125000D02*
X87509313Y-56125000D01*
%TO.N,+3V3*%
D41*
X83267950Y-63180000D02*
X83334314Y-63113636D01*
X82934314Y-63180000D02*
X83267950Y-63180000D01*
%TO.N,/USART1_RX*%
D40*
X82441724Y-44200000D02*
X81609314Y-44200000D01*
X85166724Y-41475000D02*
X82441724Y-44200000D01*
X86659314Y-41475000D02*
X85166724Y-41475000D01*
%TO.N,/USART1_TX*%
X84720390Y-42725000D02*
X82745390Y-44700000D01*
X82745390Y-44700000D02*
X81609314Y-44700000D01*
X86659314Y-42725000D02*
X84720390Y-42725000D01*
%TO.N,GND*%
D41*
X59809314Y-42575000D02*
X59434314Y-42200000D01*
X60859314Y-42575000D02*
X59809314Y-42575000D01*
%TO.N,+5V*%
X72684314Y-33375000D02*
X72684314Y-33030000D01*
X70184314Y-33875000D02*
X72184314Y-33875000D01*
X72184314Y-33875000D02*
X72684314Y-33375000D01*
X69239314Y-32930000D02*
X70184314Y-33875000D01*
X66124314Y-32930000D02*
X69239314Y-32930000D01*
X60859314Y-38195000D02*
X66124314Y-32930000D01*
X60859314Y-41325000D02*
X60859314Y-40950000D01*
%TO.N,GND*%
X62234314Y-62407500D02*
X62364314Y-62537500D01*
X62234314Y-53025001D02*
X62234314Y-62407500D01*
X61709313Y-52500000D02*
X62234314Y-53025001D01*
X60859314Y-52500000D02*
X61709313Y-52500000D01*
X66344314Y-58700000D02*
X66099314Y-58455000D01*
%TO.N,+5V*%
X82684314Y-61350000D02*
X86659314Y-57375000D01*
X82684314Y-61700000D02*
X82684314Y-61350000D01*
X82684314Y-61940000D02*
X81434314Y-63190000D01*
X82684314Y-61700000D02*
X82684314Y-61940000D01*
%TO.N,+3V3*%
X74485786Y-52625002D02*
X74485786Y-52700000D01*
X74485786Y-52625002D02*
X74385786Y-52525002D01*
%TO.N,Net-(C3-Pad1)*%
D40*
X71184314Y-36700000D02*
X70184314Y-35700000D01*
%TO.N,+3V3*%
D41*
X85684314Y-48190000D02*
X85694314Y-48200000D01*
X85684314Y-47200000D02*
X85684314Y-48190000D01*
%TO.N,GND*%
X79184314Y-46700000D02*
X79434314Y-46950000D01*
X74385786Y-50450000D02*
X74385786Y-50550000D01*
%TO.N,/SD_DET*%
D40*
X84684314Y-48210000D02*
X84674314Y-48200000D01*
%TO.N,+3V3*%
D41*
X80934314Y-39410000D02*
X81724314Y-40200000D01*
X80934314Y-39210000D02*
X80934314Y-39410000D01*
%TO.N,/SD_D2*%
D40*
X78934314Y-38692590D02*
X78934314Y-39525000D01*
X80934314Y-38190000D02*
X79436904Y-38190000D01*
X79436904Y-38190000D02*
X78934314Y-38692590D01*
%TO.N,/SD_D3*%
X78434314Y-38626905D02*
X78434314Y-39525000D01*
X79441219Y-37620000D02*
X78434314Y-38626905D01*
X81604314Y-37620000D02*
X79441219Y-37620000D01*
X82184314Y-38200000D02*
X81604314Y-37620000D01*
%TO.N,/SD_CMD*%
X76434314Y-37950000D02*
X76434314Y-39525000D01*
%TO.N,+3V3*%
D41*
X82184314Y-39220000D02*
X82414314Y-39220000D01*
X82414314Y-39220000D02*
X84934314Y-36700000D01*
%TO.N,/SD_D3*%
D40*
X78434314Y-40434314D02*
X78434314Y-39525000D01*
X76968628Y-41900000D02*
X78434314Y-40434314D01*
X76685786Y-41900000D02*
X76968628Y-41900000D01*
X76085786Y-42500000D02*
X76685786Y-41900000D01*
%TO.N,+3V3*%
D41*
X81724314Y-40200000D02*
X81664314Y-40200000D01*
%TO.N,/SD_D2*%
D40*
X80934314Y-38450000D02*
X80909314Y-38425000D01*
X78934314Y-40500000D02*
X78934314Y-39525000D01*
X76934314Y-42500000D02*
X78934314Y-40500000D01*
%TO.N,/SD_D1*%
X83456092Y-44928222D02*
X83684314Y-44700000D01*
X83456092Y-45622221D02*
X83456092Y-44928222D01*
%TO.N,+3V3*%
D41*
X84704314Y-45043394D02*
X84704314Y-44700000D01*
%TO.N,/SD_D1*%
D40*
X83378313Y-45700000D02*
X81609314Y-45700000D01*
X83456092Y-45622221D02*
X83378313Y-45700000D01*
%TO.N,/SD_D0*%
X83544314Y-46450000D02*
X83294314Y-46200000D01*
X83294314Y-46200000D02*
X81609314Y-46200000D01*
%TO.N,Net-(D5-A)*%
X84434314Y-65412500D02*
X84434314Y-64220000D01*
%TO.N,Net-(D4-A)*%
X82934314Y-65412500D02*
X82934314Y-64200000D01*
%TO.N,Net-(D3-A)*%
X81434314Y-65412500D02*
X81434314Y-64210000D01*
%TO.N,GND*%
D42*
X79934314Y-65487500D02*
X79934314Y-63450000D01*
X81434314Y-66987500D02*
X79934314Y-65487500D01*
X76025999Y-57950000D02*
X75725998Y-57649999D01*
X76064314Y-57950000D02*
X76025999Y-57950000D01*
X76064314Y-59320000D02*
X75934314Y-59450000D01*
X76064314Y-58950000D02*
X76064314Y-59320000D01*
%TO.N,+3V3*%
X74934314Y-60700000D02*
X74934314Y-59220000D01*
X75809314Y-61575000D02*
X74934314Y-60700000D01*
X76684314Y-59320000D02*
X76684314Y-60700000D01*
X76684314Y-60700000D02*
X75809314Y-61575000D01*
%TO.N,GND*%
X79321314Y-57652682D02*
X79151473Y-57482841D01*
X78698632Y-58950000D02*
X79321314Y-58327318D01*
X79321314Y-58327318D02*
X79321314Y-57652682D01*
X78684314Y-58950000D02*
X78698632Y-58950000D01*
%TO.N,+3V3*%
X77250314Y-57950000D02*
X77804314Y-57950000D01*
X76684314Y-58516000D02*
X77250314Y-57950000D01*
X76684314Y-59320000D02*
X76684314Y-58516000D01*
X77554314Y-57950000D02*
X77184314Y-57580000D01*
X77804314Y-57950000D02*
X77554314Y-57950000D01*
D41*
X78554314Y-57800000D02*
X77804314Y-57800000D01*
X78554314Y-57860000D02*
X78554314Y-57800000D01*
X78684314Y-57990000D02*
X78554314Y-57860000D01*
%TO.N,/I2C2_SDA*%
D40*
X75184314Y-58450000D02*
X74934314Y-58200000D01*
X76064314Y-58450000D02*
X75184314Y-58450000D01*
%TO.N,+3V3*%
D41*
X73934314Y-59220000D02*
X74934314Y-59220000D01*
%TO.N,GND*%
D42*
X77804314Y-58950000D02*
X78684314Y-58950000D01*
D41*
X78184314Y-58950000D02*
X77834314Y-58600000D01*
X78684314Y-58950000D02*
X78184314Y-58950000D01*
%TO.N,/IMU_CS*%
D40*
X71934314Y-56578053D02*
X72145538Y-56366829D01*
X71934314Y-56700000D02*
X71934314Y-56578053D01*
%TO.N,+3V3*%
D41*
X73164314Y-59220000D02*
X72684314Y-59700000D01*
X73934314Y-59220000D02*
X73164314Y-59220000D01*
D42*
X72684314Y-60009999D02*
X72684314Y-59700000D01*
X72357313Y-60337000D02*
X72684314Y-60009999D01*
X71386996Y-60337000D02*
X72357313Y-60337000D01*
X70934314Y-58720000D02*
X70934314Y-59884318D01*
X70934314Y-59884318D02*
X71386996Y-60337000D01*
%TO.N,GND*%
D41*
X71724314Y-58870000D02*
X71574314Y-58720000D01*
X71724314Y-59700000D02*
X71724314Y-58870000D01*
%TO.N,+3V3*%
D42*
X72694314Y-59690000D02*
X72684314Y-59700000D01*
X72694314Y-58460000D02*
X72694314Y-59690000D01*
%TO.N,GND*%
X63654314Y-45250000D02*
X63704314Y-45200000D01*
X77184314Y-35950000D02*
X77434314Y-35700000D01*
X77184314Y-36700000D02*
X77184314Y-35950000D01*
%TO.N,Net-(U1-BOOT0)*%
X78934314Y-36180000D02*
X78454314Y-35700000D01*
X78934314Y-36700000D02*
X78934314Y-36180000D01*
%TO.N,GND*%
X63724314Y-51174318D02*
X63724314Y-51200000D01*
X64684314Y-50214318D02*
X63724314Y-51174318D01*
X64684314Y-50200000D02*
X64684314Y-50214318D01*
X63724314Y-49225682D02*
X63724314Y-49200000D01*
X64684314Y-50200000D02*
X64684314Y-50185682D01*
X66259314Y-50200000D02*
X64684314Y-50200000D01*
%TO.N,Net-(U1-PC0)*%
X64674314Y-48180000D02*
X64694314Y-48200000D01*
X64674314Y-47200000D02*
X64674314Y-48180000D01*
X64694314Y-48200000D02*
X66259314Y-48200000D01*
%TO.N,/CURR*%
X65184314Y-48700000D02*
X66259314Y-48700000D01*
X64684314Y-49200000D02*
X65184314Y-48700000D01*
%TO.N,+3V3*%
X66259314Y-43700000D02*
X64934314Y-43700000D01*
X67049314Y-39525000D02*
X66934314Y-39410000D01*
X67934314Y-39525000D02*
X67049314Y-39525000D01*
%TO.N,/SPI1_SCLK*%
D40*
X69434314Y-55992469D02*
X69434314Y-54875000D01*
X69334314Y-56092469D02*
X69434314Y-55992469D01*
X71434314Y-56700000D02*
X71434315Y-57384489D01*
%TO.N,/SPI1_MOSI*%
X70434314Y-56200000D02*
X70434314Y-54875000D01*
X70934314Y-56700000D02*
X70434314Y-56200000D01*
%TO.N,/SPI1_MISO*%
X69934314Y-56720000D02*
X69934314Y-54875000D01*
X70174314Y-56960000D02*
X69934314Y-56720000D01*
%TO.N,GND*%
X71434314Y-58142500D02*
X71434314Y-58720000D01*
X71251814Y-57960000D02*
X71434314Y-58142500D01*
X70174314Y-57960000D02*
X71251814Y-57960000D01*
X70174314Y-57460000D02*
X70174314Y-57960000D01*
X72694314Y-57960000D02*
X72694314Y-57460000D01*
X72116814Y-57960000D02*
X72694314Y-57960000D01*
X71934314Y-58720000D02*
X71934314Y-58142500D01*
X71934314Y-58142500D02*
X72116814Y-57960000D01*
X71434314Y-58720000D02*
X71934314Y-58720000D01*
%TO.N,+3V3*%
D42*
X69509814Y-57525500D02*
X68474314Y-56490000D01*
X69509814Y-58927000D02*
X69509814Y-57525500D01*
X68474314Y-56490000D02*
X68434314Y-56490000D01*
X70727314Y-58927000D02*
X69509814Y-58927000D01*
X70934314Y-58720000D02*
X70727314Y-58927000D01*
%TO.N,GND*%
D41*
X84434314Y-66987500D02*
X81434314Y-66987500D01*
%TO.N,+3V3*%
X85694314Y-47210000D02*
X85684314Y-47200000D01*
X84934314Y-35639998D02*
X85184314Y-35389998D01*
X84934314Y-36700000D02*
X84934314Y-35639998D01*
X81724314Y-39910000D02*
X82414314Y-39220000D01*
X81724314Y-40200000D02*
X81724314Y-39910000D01*
%TO.N,/USB_DM_MCU*%
D40*
X75871813Y-67350000D02*
X75209314Y-67350000D01*
X76184314Y-67037499D02*
X75871813Y-67350000D01*
X76184314Y-62700000D02*
X76184314Y-67037499D01*
X77034314Y-61850000D02*
X76184314Y-62700000D01*
X78099999Y-61850000D02*
X77034314Y-61850000D01*
X80064314Y-59885686D02*
X78099999Y-61850000D01*
X80064314Y-58861076D02*
X80064314Y-59885686D01*
X80315390Y-58610000D02*
X80064314Y-58861076D01*
X80774313Y-58610000D02*
X80315390Y-58610000D01*
X82454314Y-56930000D02*
X80774313Y-58610000D01*
X82456133Y-56930000D02*
X82454314Y-56930000D01*
X82944314Y-56441820D02*
X82456133Y-56930000D01*
X82944314Y-54498181D02*
X82944314Y-56441820D01*
X82834314Y-54388180D02*
X82944314Y-54498181D01*
X82834314Y-54284315D02*
X82834314Y-54388180D01*
X82540000Y-53990000D02*
X82834314Y-54284315D01*
X81066904Y-53990000D02*
X82540000Y-53990000D01*
X80509314Y-53432410D02*
X81066904Y-53990000D01*
X80509314Y-52967590D02*
X80509314Y-53432410D01*
X80526904Y-52450000D02*
X80509314Y-52467590D01*
X80509314Y-52932410D02*
X80526904Y-52950000D01*
X80509314Y-52432410D02*
X80526904Y-52450000D01*
X80509314Y-43967590D02*
X80509314Y-52432410D01*
X80776904Y-43700000D02*
X80509314Y-43967590D01*
X80509314Y-52467590D02*
X80509314Y-52932410D01*
X80526904Y-52950000D02*
X80509314Y-52967590D01*
X81609314Y-43700000D02*
X80776904Y-43700000D01*
%TO.N,/USB_DP_MCU*%
X80874314Y-54390000D02*
X82374314Y-54390000D01*
X80109314Y-53625000D02*
X80874314Y-54390000D01*
X82374314Y-54390000D02*
X82434314Y-54450000D01*
X80109314Y-53625000D02*
X80109314Y-43801904D01*
X82434314Y-54553866D02*
X82434314Y-54450000D01*
X82544314Y-55316134D02*
X82544314Y-54663866D01*
X82544314Y-54663866D02*
X82434314Y-54553866D01*
X82434314Y-55426134D02*
X82544314Y-55316134D01*
X82544314Y-55623866D02*
X82434314Y-55513866D01*
X82544314Y-56276134D02*
X82544314Y-55623866D01*
X82290448Y-56530000D02*
X82544314Y-56276134D01*
X82288628Y-56530000D02*
X82290448Y-56530000D01*
X80608628Y-58210000D02*
X82288628Y-56530000D01*
X79664314Y-59720000D02*
X79664314Y-58695390D01*
X77934314Y-61450000D02*
X79664314Y-59720000D01*
X79664314Y-58695390D02*
X80149705Y-58210000D01*
X82434314Y-55513866D02*
X82434314Y-55426134D01*
X76868629Y-61450000D02*
X77934314Y-61450000D01*
X75209314Y-63109314D02*
X76868629Y-61450000D01*
X80149705Y-58210000D02*
X80608628Y-58210000D01*
X80109314Y-43801904D02*
X80711219Y-43200000D01*
X80711219Y-43200000D02*
X81609314Y-43200000D01*
X75209314Y-65450000D02*
X75209314Y-63109314D01*
%TO.N,+3V3*%
D41*
X81934314Y-54990000D02*
X80934314Y-54990000D01*
%TO.N,GND*%
X81934314Y-55950000D02*
X80934314Y-55950000D01*
%TO.N,+3V3*%
X81724314Y-40935000D02*
X81609314Y-41050000D01*
X81724314Y-40200000D02*
X81724314Y-40935000D01*
%TO.N,GND*%
D42*
X82709996Y-41700000D02*
X83169996Y-41240000D01*
X81609314Y-41700000D02*
X82709996Y-41700000D01*
X83169996Y-41240000D02*
X83184314Y-41240000D01*
D41*
X83184314Y-40700000D02*
X83184314Y-41240000D01*
X83184314Y-40700000D02*
X82684314Y-40200000D01*
%TO.N,Net-(C2-Pad1)*%
D40*
X83184314Y-42200000D02*
X81609314Y-42200000D01*
%TO.N,/VBUS*%
D43*
X75184314Y-66425000D02*
X75209314Y-66400000D01*
X75184314Y-66450000D02*
X75184314Y-66425000D01*
X67745339Y-63511025D02*
X67934314Y-63700000D01*
X67745339Y-63237500D02*
X67745339Y-63511025D01*
%TO.N,GND*%
D41*
X71351814Y-66400000D02*
X72934314Y-66400000D01*
X71004314Y-66747500D02*
X71351814Y-66400000D01*
%TO.N,Net-(C1-Pad2)*%
D42*
X78934314Y-56410000D02*
X78934314Y-54875000D01*
X78974314Y-56450000D02*
X78934314Y-56410000D01*
%TO.N,GND*%
X79434314Y-55745592D02*
X79434314Y-54875000D01*
X79934314Y-56450000D02*
X79934314Y-56245592D01*
X79934314Y-56245592D02*
X79434314Y-55745592D01*
D41*
X80434314Y-56450000D02*
X79934314Y-56450000D01*
X80934314Y-55950000D02*
X80434314Y-56450000D01*
%TO.N,+3V3*%
X80199314Y-54990000D02*
X80084314Y-54875000D01*
X80934314Y-54990000D02*
X80199314Y-54990000D01*
%TO.N,GND*%
D43*
X71141814Y-62400000D02*
X71004314Y-62537500D01*
%TO.N,/VBUS*%
D40*
X69084314Y-62567551D02*
X68560445Y-63091420D01*
X68560445Y-63091420D02*
X67891419Y-63091420D01*
X67745339Y-63237500D02*
X67891419Y-63091420D01*
X66406129Y-63237500D02*
X67745339Y-63237500D01*
X69084314Y-62567551D02*
X69084314Y-61987500D01*
X64284314Y-62550000D02*
X64684314Y-62950000D01*
X64684314Y-62950000D02*
X66118628Y-62950000D01*
X66118628Y-62950000D02*
X66406129Y-63237500D01*
X64284314Y-61987500D02*
X64284314Y-62550000D01*
%TO.N,Net-(USB1-CC2)*%
X68434314Y-60710000D02*
X68424314Y-60700000D01*
X68434314Y-61987500D02*
X68434314Y-60710000D01*
%TO.N,/USB_DM*%
X65984314Y-61137500D02*
X65934314Y-61187500D01*
X65934314Y-61187500D02*
X65934314Y-61987500D01*
X66934314Y-61187500D02*
X66884314Y-61137500D01*
X66884314Y-61137500D02*
X65984314Y-61137500D01*
X66934314Y-61987500D02*
X66934314Y-61187500D01*
%TO.N,/USB_DP*%
X67296814Y-62837500D02*
X67434314Y-62700000D01*
X66571814Y-62837500D02*
X67296814Y-62837500D01*
X66434314Y-62700000D02*
X66571814Y-62837500D01*
X66434314Y-61987500D02*
X66434314Y-62700000D01*
X67434314Y-62700000D02*
X67434314Y-61987500D01*
%TO.N,GND*%
D41*
X65784313Y-59450000D02*
X66184314Y-59450000D01*
X65599313Y-59265000D02*
X65784313Y-59450000D01*
X64414314Y-59470001D02*
X64619315Y-59265000D01*
X64414314Y-60720000D02*
X64414314Y-59470001D01*
%TO.N,Net-(USB1-CC1)*%
D40*
X65434314Y-61987500D02*
X65434314Y-60720000D01*
%TO.N,+3V3*%
D42*
X68434314Y-56490000D02*
X68434314Y-54875000D01*
%TO.N,GND*%
D41*
X67714314Y-57450000D02*
X68434314Y-57450000D01*
X67624314Y-57360000D02*
X67714314Y-57450000D01*
X67624314Y-55035000D02*
X67784314Y-54875000D01*
X67624314Y-57360000D02*
X67624314Y-55035000D01*
X66529314Y-58455000D02*
X67624314Y-57360000D01*
X66099314Y-58455000D02*
X66529314Y-58455000D01*
X64619315Y-59265000D02*
X65599313Y-59265000D01*
X64119314Y-58764999D02*
X64619315Y-59265000D01*
X65599313Y-59265000D02*
X66099314Y-58764999D01*
X64119314Y-58455000D02*
X64119314Y-58764999D01*
X66099314Y-58764999D02*
X66099314Y-58455000D01*
%TO.N,Net-(U1-PH0)*%
D40*
X65634314Y-57960000D02*
X65139314Y-58455000D01*
X65634314Y-57050000D02*
X65634314Y-57960000D01*
%TO.N,Net-(U1-PH1)*%
X63434314Y-58180000D02*
X63159314Y-58455000D01*
X63434314Y-57050000D02*
X63434314Y-58180000D01*
%TO.N,GND*%
D41*
X69884314Y-61140000D02*
X69444314Y-60700000D01*
X69884314Y-61987500D02*
X69884314Y-61140000D01*
X63484314Y-60837500D02*
X63484314Y-61987500D01*
X63601814Y-60720000D02*
X63484314Y-60837500D01*
X64414314Y-60720000D02*
X63601814Y-60720000D01*
X71004314Y-62537500D02*
X71004314Y-62260000D01*
X71004314Y-62260000D02*
X69884314Y-61140000D01*
X62364314Y-61957500D02*
X63484314Y-60837500D01*
X62364314Y-62537500D02*
X62364314Y-61957500D01*
%TD*%
%TA.AperFunction,Conductor*%
%TO.N,GND*%
G36*
X67703148Y-54606010D02*
G01*
X67759081Y-54647882D01*
X67783498Y-54713346D01*
X67783814Y-54722192D01*
X67783814Y-55637727D01*
X67798627Y-55750235D01*
X67800728Y-55758076D01*
X67801791Y-55759730D01*
X67806814Y-55794665D01*
X67806814Y-55850333D01*
X67787129Y-55917372D01*
X67770495Y-55938014D01*
X67754201Y-55954307D01*
X67754195Y-55954315D01*
X67671819Y-56093606D01*
X67671818Y-56093609D01*
X67626671Y-56249002D01*
X67626670Y-56249008D01*
X67623814Y-56285302D01*
X67623814Y-56694697D01*
X67626670Y-56730991D01*
X67626671Y-56730997D01*
X67671818Y-56886390D01*
X67671819Y-56886393D01*
X67754195Y-57025684D01*
X67754201Y-57025692D01*
X67868621Y-57140112D01*
X67868625Y-57140115D01*
X67868627Y-57140117D01*
X68007919Y-57222494D01*
X68032030Y-57229499D01*
X68163316Y-57267642D01*
X68163319Y-57267642D01*
X68163321Y-57267643D01*
X68199624Y-57270500D01*
X68316033Y-57270500D01*
X68383072Y-57290185D01*
X68403714Y-57306819D01*
X68774714Y-57677819D01*
X68808199Y-57739142D01*
X68803215Y-57808834D01*
X68761343Y-57864767D01*
X68695879Y-57889184D01*
X68687033Y-57889500D01*
X68479616Y-57889500D01*
X68443322Y-57892356D01*
X68443316Y-57892357D01*
X68287923Y-57937504D01*
X68287920Y-57937505D01*
X68148629Y-58019881D01*
X68148621Y-58019887D01*
X68034201Y-58134307D01*
X68034195Y-58134315D01*
X67951819Y-58273606D01*
X67951818Y-58273609D01*
X67906671Y-58429002D01*
X67906670Y-58429008D01*
X67903814Y-58465302D01*
X67903814Y-58508399D01*
X67901431Y-58532590D01*
X67883814Y-58621154D01*
X67883814Y-58778844D01*
X67901431Y-58867407D01*
X67903751Y-58887658D01*
X67903814Y-58889639D01*
X67903814Y-58934690D01*
X67906218Y-58965239D01*
X67906311Y-58968157D01*
X67898238Y-58999279D01*
X67891627Y-59030748D01*
X67889521Y-59032883D01*
X67888768Y-59035788D01*
X67865146Y-59057608D01*
X67842575Y-59080504D01*
X67838636Y-59082096D01*
X67837445Y-59083198D01*
X67834731Y-59083676D01*
X67814468Y-59091873D01*
X67711791Y-59119386D01*
X67711790Y-59119385D01*
X67707924Y-59120421D01*
X67707914Y-59120426D01*
X67570995Y-59199475D01*
X67570987Y-59199481D01*
X67459183Y-59311286D01*
X66666274Y-60104193D01*
X66666242Y-60104225D01*
X66665600Y-60104868D01*
X66665598Y-60104870D01*
X66553794Y-60216674D01*
X66548750Y-60225408D01*
X66538064Y-60236431D01*
X66524353Y-60244195D01*
X66520563Y-60247985D01*
X66522049Y-60249921D01*
X66515595Y-60254873D01*
X66403795Y-60366673D01*
X66403791Y-60366678D01*
X66401724Y-60370259D01*
X66399190Y-60372673D01*
X66398844Y-60373126D01*
X66398773Y-60373071D01*
X66351153Y-60418471D01*
X66282545Y-60431689D01*
X66217682Y-60405716D01*
X66177158Y-60348799D01*
X66175273Y-60342873D01*
X66157183Y-60280607D01*
X66075449Y-60142402D01*
X66075447Y-60142400D01*
X66075444Y-60142396D01*
X65961917Y-60028869D01*
X65961909Y-60028863D01*
X65823707Y-59947131D01*
X65823702Y-59947129D01*
X65669522Y-59902335D01*
X65669516Y-59902334D01*
X65633495Y-59899500D01*
X65235144Y-59899500D01*
X65235122Y-59899501D01*
X65199108Y-59902335D01*
X65044925Y-59947129D01*
X65044920Y-59947131D01*
X64906718Y-60028863D01*
X64906710Y-60028869D01*
X64793183Y-60142396D01*
X64793177Y-60142404D01*
X64711445Y-60280606D01*
X64711443Y-60280611D01*
X64666649Y-60434791D01*
X64666648Y-60434797D01*
X64663814Y-60470811D01*
X64663814Y-60813000D01*
X64644129Y-60880039D01*
X64591325Y-60925794D01*
X64539814Y-60937000D01*
X63961443Y-60937000D01*
X63961437Y-60937001D01*
X63901830Y-60943408D01*
X63766985Y-60993702D01*
X63766978Y-60993706D01*
X63651769Y-61079952D01*
X63651766Y-61079955D01*
X63565520Y-61195164D01*
X63565516Y-61195171D01*
X63515222Y-61330017D01*
X63508815Y-61389616D01*
X63508814Y-61389635D01*
X63508814Y-62467343D01*
X63489129Y-62534382D01*
X63446817Y-62574729D01*
X63425598Y-62586980D01*
X63425595Y-62586982D01*
X63313795Y-62698782D01*
X63313789Y-62698790D01*
X63234740Y-62835709D01*
X63234737Y-62835716D01*
X63193814Y-62988443D01*
X63193814Y-63146556D01*
X63234737Y-63299283D01*
X63234740Y-63299290D01*
X63313789Y-63436209D01*
X63313793Y-63436214D01*
X63313794Y-63436216D01*
X63425598Y-63548020D01*
X63425600Y-63548021D01*
X63425604Y-63548024D01*
X63548448Y-63618947D01*
X63562530Y-63627077D01*
X63715257Y-63668000D01*
X63715259Y-63668000D01*
X63873369Y-63668000D01*
X63873371Y-63668000D01*
X64026098Y-63627077D01*
X64163030Y-63548020D01*
X64226086Y-63484964D01*
X64287409Y-63451479D01*
X64357101Y-63456463D01*
X64359489Y-63457382D01*
X64367911Y-63460723D01*
X64452530Y-63509577D01*
X64564333Y-63539534D01*
X64605256Y-63550500D01*
X64605257Y-63550500D01*
X65818532Y-63550500D01*
X65847972Y-63559144D01*
X65877959Y-63565668D01*
X65882974Y-63569422D01*
X65885571Y-63570185D01*
X65906213Y-63586819D01*
X65918538Y-63599144D01*
X65918541Y-63599148D01*
X65925609Y-63606216D01*
X66037413Y-63718020D01*
X66117173Y-63764069D01*
X66174345Y-63797077D01*
X66327073Y-63838001D01*
X66485187Y-63838000D01*
X66934786Y-63838000D01*
X67001825Y-63857685D01*
X67037887Y-63893108D01*
X67045310Y-63904217D01*
X67123552Y-64021316D01*
X67123553Y-64021317D01*
X67309400Y-64207163D01*
X67309427Y-64207192D01*
X67424021Y-64321786D01*
X67424025Y-64321789D01*
X67555128Y-64409390D01*
X67555141Y-64409397D01*
X67700812Y-64469735D01*
X67700817Y-64469737D01*
X67855467Y-64500499D01*
X67855470Y-64500500D01*
X67855472Y-64500500D01*
X68013158Y-64500500D01*
X68013159Y-64500499D01*
X68167811Y-64469737D01*
X68313493Y-64409394D01*
X68444603Y-64321789D01*
X68556103Y-64210289D01*
X68643708Y-64079179D01*
X68704051Y-63933497D01*
X68734814Y-63778842D01*
X68734814Y-63755737D01*
X68738195Y-63744221D01*
X68737054Y-63732272D01*
X68747857Y-63711315D01*
X68754499Y-63688698D01*
X68764370Y-63679285D01*
X68769070Y-63670169D01*
X68796811Y-63648352D01*
X68847743Y-63618946D01*
X68929161Y-63571940D01*
X68991661Y-63509439D01*
X69052980Y-63475957D01*
X69122672Y-63480941D01*
X69167020Y-63509442D01*
X69205598Y-63548020D01*
X69205600Y-63548021D01*
X69205604Y-63548024D01*
X69328448Y-63618947D01*
X69342530Y-63627077D01*
X69495257Y-63668000D01*
X69495259Y-63668000D01*
X69653369Y-63668000D01*
X69653371Y-63668000D01*
X69806098Y-63627077D01*
X69943030Y-63548020D01*
X70054834Y-63436216D01*
X70133891Y-63299284D01*
X70174814Y-63146557D01*
X70174814Y-62988443D01*
X70133891Y-62835716D01*
X70133887Y-62835709D01*
X70054838Y-62698790D01*
X70054832Y-62698782D01*
X69943031Y-62586981D01*
X69943026Y-62586977D01*
X69921813Y-62574730D01*
X69873597Y-62524163D01*
X69859813Y-62467343D01*
X69859813Y-61415567D01*
X69879498Y-61348528D01*
X69932302Y-61302773D01*
X70001460Y-61292829D01*
X70065016Y-61321854D01*
X70071494Y-61327886D01*
X70345482Y-61601874D01*
X70345492Y-61601885D01*
X70349822Y-61606215D01*
X70349823Y-61606216D01*
X70461627Y-61718020D01*
X70553293Y-61770943D01*
X70598559Y-61797077D01*
X70751286Y-61838001D01*
X70751288Y-61838001D01*
X70916997Y-61838001D01*
X70917013Y-61838000D01*
X71129814Y-61838000D01*
X71196853Y-61857685D01*
X71242608Y-61910489D01*
X71253814Y-61962000D01*
X71253814Y-64283330D01*
X71253813Y-64283348D01*
X71253813Y-64449054D01*
X71253812Y-64449054D01*
X71294738Y-64601789D01*
X71294739Y-64601790D01*
X71310407Y-64628927D01*
X71310408Y-64628928D01*
X71373791Y-64738712D01*
X71373795Y-64738717D01*
X71492663Y-64857585D01*
X71492669Y-64857590D01*
X71738047Y-65102968D01*
X71771532Y-65164291D01*
X71773984Y-65200377D01*
X71771314Y-65234298D01*
X71771314Y-65665701D01*
X71774215Y-65702567D01*
X71774216Y-65702573D01*
X71820068Y-65860393D01*
X71820069Y-65860396D01*
X71903731Y-66001862D01*
X71903737Y-66001870D01*
X72019943Y-66118076D01*
X72019947Y-66118079D01*
X72019949Y-66118081D01*
X72161416Y-66201744D01*
X72196435Y-66211918D01*
X72319240Y-66247597D01*
X72319243Y-66247597D01*
X72319245Y-66247598D01*
X72356120Y-66250500D01*
X73172314Y-66250500D01*
X73180999Y-66253050D01*
X73189961Y-66251762D01*
X73214001Y-66262740D01*
X73239353Y-66270185D01*
X73245280Y-66277025D01*
X73253517Y-66280787D01*
X73267806Y-66303021D01*
X73285108Y-66322989D01*
X73287395Y-66333503D01*
X73291291Y-66339565D01*
X73296314Y-66374500D01*
X73296314Y-66425500D01*
X73276629Y-66492539D01*
X73223825Y-66538294D01*
X73172314Y-66549500D01*
X72356112Y-66549500D01*
X72319246Y-66552401D01*
X72319240Y-66552402D01*
X72161420Y-66598254D01*
X72161417Y-66598255D01*
X72019951Y-66681917D01*
X72019943Y-66681923D01*
X71903737Y-66798129D01*
X71903731Y-66798137D01*
X71820069Y-66939603D01*
X71820068Y-66939606D01*
X71774216Y-67097426D01*
X71774215Y-67097432D01*
X71771314Y-67134298D01*
X71771314Y-67565701D01*
X71774215Y-67602567D01*
X71792617Y-67665906D01*
X71792417Y-67735775D01*
X71754474Y-67794445D01*
X71690836Y-67823288D01*
X71673540Y-67824500D01*
X58741904Y-67824500D01*
X58731908Y-67824499D01*
X58731906Y-67824499D01*
X58711261Y-67824499D01*
X58687788Y-67824499D01*
X58687787Y-67824498D01*
X58680838Y-67824304D01*
X58389014Y-67807918D01*
X58375196Y-67806361D01*
X58090482Y-67757988D01*
X58076925Y-67754894D01*
X57799409Y-67674944D01*
X57786284Y-67670351D01*
X57519478Y-67559838D01*
X57506949Y-67553805D01*
X57254183Y-67414107D01*
X57242409Y-67406709D01*
X57006871Y-67239587D01*
X56995999Y-67230916D01*
X56780665Y-67038480D01*
X56770833Y-67028648D01*
X56585968Y-66821786D01*
X56578394Y-66813310D01*
X56569726Y-66802442D01*
X56569723Y-66802438D01*
X56424849Y-66598256D01*
X56402604Y-66566904D01*
X56395206Y-66555130D01*
X56255508Y-66302364D01*
X56249475Y-66289835D01*
X56138962Y-66023029D01*
X56134369Y-66009904D01*
X56054419Y-65732388D01*
X56051325Y-65718831D01*
X56046377Y-65689707D01*
X56002950Y-65434107D01*
X56001396Y-65420308D01*
X55992041Y-65253712D01*
X55992041Y-65253711D01*
X56583814Y-65253711D01*
X56583814Y-65496288D01*
X56615475Y-65736785D01*
X56678261Y-65971104D01*
X56740416Y-66121158D01*
X56771090Y-66195212D01*
X56892378Y-66405289D01*
X56892380Y-66405292D01*
X56892381Y-66405293D01*
X57040047Y-66597736D01*
X57040053Y-66597743D01*
X57211570Y-66769260D01*
X57211577Y-66769266D01*
X57254808Y-66802438D01*
X57404025Y-66916936D01*
X57614102Y-67038224D01*
X57838214Y-67131054D01*
X58072525Y-67193838D01*
X58252900Y-67217584D01*
X58313025Y-67225500D01*
X58313026Y-67225500D01*
X58555603Y-67225500D01*
X58603702Y-67219167D01*
X58796103Y-67193838D01*
X59030414Y-67131054D01*
X59254526Y-67038224D01*
X59464603Y-66916936D01*
X59657052Y-66769265D01*
X59828579Y-66597738D01*
X59976250Y-66405289D01*
X60097538Y-66195212D01*
X60190368Y-65971100D01*
X60253152Y-65736789D01*
X60284814Y-65496288D01*
X60284814Y-65253712D01*
X60253152Y-65013211D01*
X60190368Y-64778900D01*
X60097538Y-64554788D01*
X59976250Y-64344711D01*
X59828579Y-64152262D01*
X59828574Y-64152256D01*
X59657057Y-63980739D01*
X59657050Y-63980733D01*
X59464607Y-63833067D01*
X59464606Y-63833066D01*
X59464603Y-63833064D01*
X59265341Y-63718020D01*
X59254528Y-63711777D01*
X59254519Y-63711773D01*
X59030418Y-63618947D01*
X58882809Y-63579395D01*
X58796103Y-63556162D01*
X58796102Y-63556161D01*
X58796099Y-63556161D01*
X58555603Y-63524500D01*
X58555602Y-63524500D01*
X58313026Y-63524500D01*
X58313025Y-63524500D01*
X58072528Y-63556161D01*
X57838209Y-63618947D01*
X57614108Y-63711773D01*
X57614099Y-63711777D01*
X57404020Y-63833067D01*
X57211577Y-63980733D01*
X57211570Y-63980739D01*
X57040053Y-64152256D01*
X57040047Y-64152263D01*
X56892381Y-64344706D01*
X56771091Y-64554785D01*
X56771087Y-64554794D01*
X56678261Y-64778895D01*
X56615475Y-65013214D01*
X56583814Y-65253711D01*
X55992041Y-65253711D01*
X55985009Y-65128475D01*
X55984814Y-65121521D01*
X55984814Y-65102968D01*
X55984815Y-65077408D01*
X55984814Y-65077404D01*
X55984814Y-57849601D01*
X56004499Y-57782562D01*
X56057303Y-57736807D01*
X56126461Y-57726863D01*
X56173908Y-57744061D01*
X56239980Y-57784814D01*
X56406517Y-57839999D01*
X56509305Y-57850500D01*
X58809322Y-57850499D01*
X58912111Y-57839999D01*
X59074583Y-57786160D01*
X59144408Y-57783759D01*
X59201265Y-57816186D01*
X59449453Y-58064374D01*
X59449463Y-58064385D01*
X59453793Y-58068715D01*
X59453794Y-58068716D01*
X59565598Y-58180520D01*
X59565600Y-58180521D01*
X59565604Y-58180524D01*
X59688504Y-58251479D01*
X59702530Y-58259577D01*
X59812551Y-58289057D01*
X59812550Y-58289057D01*
X59816764Y-58290186D01*
X59855256Y-58300500D01*
X59855257Y-58300500D01*
X59855263Y-58300500D01*
X59863315Y-58301561D01*
X59863123Y-58303017D01*
X59921587Y-58320185D01*
X59923439Y-58321398D01*
X60055128Y-58409390D01*
X60055141Y-58409397D01*
X60190110Y-58465302D01*
X60200817Y-58469737D01*
X60355467Y-58500499D01*
X60355470Y-58500500D01*
X60355472Y-58500500D01*
X60513158Y-58500500D01*
X60513159Y-58500499D01*
X60667811Y-58469737D01*
X60742363Y-58438856D01*
X60811830Y-58431388D01*
X60874310Y-58462663D01*
X60909962Y-58522752D01*
X60913814Y-58553418D01*
X60913814Y-63252912D01*
X60913813Y-63252930D01*
X60913813Y-63418636D01*
X60913812Y-63418636D01*
X60918251Y-63435202D01*
X60954420Y-63570185D01*
X60954738Y-63571369D01*
X60965417Y-63589865D01*
X60965418Y-63589867D01*
X61033791Y-63708294D01*
X61033795Y-63708299D01*
X61152663Y-63827167D01*
X61152669Y-63827172D01*
X63889871Y-66564374D01*
X63889881Y-66564385D01*
X63894211Y-66568715D01*
X63894212Y-66568716D01*
X64006016Y-66680520D01*
X64057577Y-66710288D01*
X64092827Y-66730639D01*
X64092829Y-66730641D01*
X64130883Y-66752611D01*
X64142947Y-66759577D01*
X64295675Y-66800501D01*
X64295678Y-66800501D01*
X64461385Y-66800501D01*
X64461401Y-66800500D01*
X65104548Y-66800500D01*
X65171587Y-66820185D01*
X65173439Y-66821398D01*
X65305128Y-66909390D01*
X65305141Y-66909397D01*
X65423548Y-66958442D01*
X65450817Y-66969737D01*
X65605467Y-67000499D01*
X65605470Y-67000500D01*
X65605472Y-67000500D01*
X65763158Y-67000500D01*
X65763159Y-67000499D01*
X65917811Y-66969737D01*
X66063493Y-66909394D01*
X66194603Y-66821789D01*
X66306103Y-66710289D01*
X66393708Y-66579179D01*
X66454051Y-66433497D01*
X66484814Y-66278842D01*
X66484814Y-66121158D01*
X66484814Y-66121155D01*
X66484813Y-66121153D01*
X66465295Y-66023029D01*
X66454051Y-65966503D01*
X66441953Y-65937295D01*
X66393711Y-65820827D01*
X66393704Y-65820814D01*
X66306103Y-65689711D01*
X66306100Y-65689707D01*
X66194606Y-65578213D01*
X66194602Y-65578210D01*
X66063499Y-65490609D01*
X66063486Y-65490602D01*
X65917815Y-65430264D01*
X65917803Y-65430261D01*
X65763159Y-65399500D01*
X65763156Y-65399500D01*
X65605472Y-65399500D01*
X65605469Y-65399500D01*
X65450824Y-65430261D01*
X65450812Y-65430264D01*
X65305141Y-65490602D01*
X65305128Y-65490609D01*
X65173439Y-65578602D01*
X65106761Y-65599480D01*
X65104548Y-65599500D01*
X64674829Y-65599500D01*
X64607790Y-65579815D01*
X64587148Y-65563181D01*
X62151133Y-63127166D01*
X62117648Y-63065843D01*
X62114814Y-63039485D01*
X62114814Y-58030177D01*
X62134499Y-57963138D01*
X62187303Y-57917383D01*
X62256461Y-57907439D01*
X62320017Y-57936464D01*
X62338081Y-57955867D01*
X62380168Y-58012089D01*
X62404585Y-58077553D01*
X62399978Y-58120993D01*
X62381670Y-58184008D01*
X62378814Y-58220302D01*
X62378814Y-58689697D01*
X62381670Y-58725991D01*
X62381671Y-58725997D01*
X62426818Y-58881390D01*
X62426819Y-58881393D01*
X62509195Y-59020684D01*
X62509201Y-59020692D01*
X62623621Y-59135112D01*
X62623625Y-59135115D01*
X62623627Y-59135117D01*
X62762919Y-59217494D01*
X62787030Y-59224499D01*
X62918316Y-59262642D01*
X62918319Y-59262642D01*
X62918321Y-59262643D01*
X62954624Y-59265500D01*
X62954632Y-59265500D01*
X63363996Y-59265500D01*
X63364004Y-59265500D01*
X63400307Y-59262643D01*
X63400309Y-59262642D01*
X63400311Y-59262642D01*
X63441289Y-59250736D01*
X63555709Y-59217494D01*
X63695001Y-59135117D01*
X63809431Y-59020687D01*
X63891808Y-58881395D01*
X63928793Y-58754094D01*
X63936956Y-58725997D01*
X63936957Y-58725991D01*
X63937414Y-58720185D01*
X63939814Y-58689690D01*
X63939814Y-58538673D01*
X63956426Y-58476674D01*
X63993891Y-58411784D01*
X64034815Y-58259057D01*
X64034815Y-58259047D01*
X64034913Y-58258311D01*
X64035170Y-58257729D01*
X64036918Y-58251207D01*
X64037935Y-58251479D01*
X64047788Y-58229206D01*
X64059127Y-58199470D01*
X64061824Y-58197481D01*
X64063181Y-58194415D01*
X64089755Y-58176887D01*
X64115363Y-58158006D01*
X64119485Y-58157277D01*
X64121506Y-58155945D01*
X64149904Y-58150754D01*
X64153874Y-58150499D01*
X64182186Y-58150499D01*
X64224209Y-58145981D01*
X64226866Y-58145811D01*
X64258449Y-58152921D01*
X64290319Y-58158672D01*
X64292338Y-58160551D01*
X64295030Y-58161158D01*
X64317761Y-58184222D01*
X64341456Y-58206283D01*
X64342208Y-58209027D01*
X64344075Y-58210921D01*
X64348465Y-58231835D01*
X64358814Y-58269556D01*
X64358814Y-58689697D01*
X64361670Y-58725991D01*
X64361671Y-58725997D01*
X64406818Y-58881390D01*
X64406819Y-58881393D01*
X64489195Y-59020684D01*
X64489201Y-59020692D01*
X64603621Y-59135112D01*
X64603625Y-59135115D01*
X64603627Y-59135117D01*
X64742919Y-59217494D01*
X64767030Y-59224499D01*
X64898316Y-59262642D01*
X64898319Y-59262642D01*
X64898321Y-59262643D01*
X64934624Y-59265500D01*
X64934632Y-59265500D01*
X65343996Y-59265500D01*
X65344004Y-59265500D01*
X65380307Y-59262643D01*
X65380309Y-59262642D01*
X65380311Y-59262642D01*
X65421289Y-59250736D01*
X65535709Y-59217494D01*
X65675001Y-59135117D01*
X65789431Y-59020687D01*
X65871808Y-58881395D01*
X65908793Y-58754094D01*
X65916956Y-58725997D01*
X65916957Y-58725991D01*
X65917414Y-58720185D01*
X65919814Y-58689690D01*
X65919814Y-58575097D01*
X65939499Y-58508058D01*
X65956128Y-58487421D01*
X66114834Y-58328716D01*
X66181931Y-58212498D01*
X66232497Y-58164284D01*
X66289318Y-58150499D01*
X66382185Y-58150499D01*
X66382186Y-58150499D01*
X66441797Y-58144091D01*
X66576645Y-58093796D01*
X66691860Y-58007546D01*
X66778110Y-57892331D01*
X66828405Y-57757483D01*
X66834814Y-57697873D01*
X66834813Y-57647269D01*
X66854496Y-57580231D01*
X66874772Y-57556093D01*
X66884890Y-57546766D01*
X66913030Y-57530520D01*
X67024834Y-57418716D01*
X67024835Y-57418713D01*
X67042820Y-57400728D01*
X67042825Y-57400724D01*
X67053028Y-57390520D01*
X67053030Y-57390520D01*
X67164834Y-57278716D01*
X67233775Y-57159306D01*
X67243891Y-57141785D01*
X67284815Y-56989057D01*
X67284815Y-56830943D01*
X67284815Y-56823348D01*
X67284814Y-56823330D01*
X67284814Y-54973192D01*
X67304499Y-54906153D01*
X67321133Y-54885511D01*
X67572133Y-54634511D01*
X67633456Y-54601026D01*
X67703148Y-54606010D01*
G37*
%TD.AperFunction*%
%TA.AperFunction,Conductor*%
G36*
X88360315Y-40529935D02*
G01*
X88381339Y-40529546D01*
X88404215Y-40539485D01*
X88408040Y-40540317D01*
X88413692Y-40543599D01*
X88439980Y-40559814D01*
X88606517Y-40614999D01*
X88709305Y-40625500D01*
X91009322Y-40625499D01*
X91009489Y-40625482D01*
X91040619Y-40622302D01*
X91112111Y-40614999D01*
X91220812Y-40578978D01*
X91290638Y-40576577D01*
X91350680Y-40612308D01*
X91381873Y-40674828D01*
X91383814Y-40696685D01*
X91383814Y-46003314D01*
X91364129Y-46070353D01*
X91311325Y-46116108D01*
X91242167Y-46126052D01*
X91220811Y-46121020D01*
X91112113Y-46085001D01*
X91112109Y-46085000D01*
X91009324Y-46074500D01*
X88709312Y-46074500D01*
X88709295Y-46074501D01*
X88606517Y-46085000D01*
X88606514Y-46085001D01*
X88439982Y-46140185D01*
X88439977Y-46140187D01*
X88290656Y-46232289D01*
X88166603Y-46356342D01*
X88074501Y-46505663D01*
X88074500Y-46505666D01*
X88019315Y-46672203D01*
X88019315Y-46672204D01*
X88019314Y-46672204D01*
X88008814Y-46774983D01*
X88008814Y-47375001D01*
X88008815Y-47375019D01*
X88019314Y-47477796D01*
X88019315Y-47477799D01*
X88061806Y-47606026D01*
X88074500Y-47644334D01*
X88166602Y-47793656D01*
X88290658Y-47917712D01*
X88439980Y-48009814D01*
X88583267Y-48057294D01*
X88640710Y-48097065D01*
X88667533Y-48161581D01*
X88655218Y-48230357D01*
X88607675Y-48281557D01*
X88583266Y-48292705D01*
X88439980Y-48340186D01*
X88439977Y-48340187D01*
X88290656Y-48432289D01*
X88166603Y-48556342D01*
X88074501Y-48705663D01*
X88074499Y-48705668D01*
X88070377Y-48718107D01*
X88019315Y-48872203D01*
X88019315Y-48872204D01*
X88019314Y-48872204D01*
X88008814Y-48974983D01*
X88008814Y-49575001D01*
X88008815Y-49575019D01*
X88019314Y-49677796D01*
X88019315Y-49677799D01*
X88064022Y-49812713D01*
X88074500Y-49844334D01*
X88166602Y-49993656D01*
X88290658Y-50117712D01*
X88439980Y-50209814D01*
X88606517Y-50264999D01*
X88709305Y-50275500D01*
X91009322Y-50275499D01*
X91112111Y-50264999D01*
X91220812Y-50228978D01*
X91290638Y-50226577D01*
X91350680Y-50262308D01*
X91381873Y-50324828D01*
X91383814Y-50346685D01*
X91383814Y-58153314D01*
X91364129Y-58220353D01*
X91311325Y-58266108D01*
X91242167Y-58276052D01*
X91220811Y-58271020D01*
X91112113Y-58235001D01*
X91112109Y-58235000D01*
X91009324Y-58224500D01*
X88709312Y-58224500D01*
X88709295Y-58224501D01*
X88606517Y-58235000D01*
X88606514Y-58235001D01*
X88439982Y-58290185D01*
X88439977Y-58290187D01*
X88290656Y-58382289D01*
X88166603Y-58506342D01*
X88074501Y-58655663D01*
X88074499Y-58655668D01*
X88055682Y-58712454D01*
X88019315Y-58822203D01*
X88019315Y-58822204D01*
X88019314Y-58822204D01*
X88008814Y-58924983D01*
X88008814Y-59525001D01*
X88008815Y-59525019D01*
X88019314Y-59627796D01*
X88019315Y-59627799D01*
X88074499Y-59794331D01*
X88074501Y-59794336D01*
X88085603Y-59812335D01*
X88166602Y-59943656D01*
X88290658Y-60067712D01*
X88439980Y-60159814D01*
X88606517Y-60214999D01*
X88709305Y-60225500D01*
X91009322Y-60225499D01*
X91112111Y-60214999D01*
X91220812Y-60178978D01*
X91290638Y-60176577D01*
X91350680Y-60212308D01*
X91381873Y-60274828D01*
X91383814Y-60296685D01*
X91383814Y-65121521D01*
X91383619Y-65128474D01*
X91367231Y-65420296D01*
X91365674Y-65434114D01*
X91317299Y-65718831D01*
X91314205Y-65732387D01*
X91234256Y-66009898D01*
X91229663Y-66023023D01*
X91119147Y-66289835D01*
X91113114Y-66302364D01*
X90973417Y-66555127D01*
X90966019Y-66566901D01*
X90798897Y-66802438D01*
X90790226Y-66813310D01*
X90597790Y-67028644D01*
X90587958Y-67038476D01*
X90372624Y-67230912D01*
X90361752Y-67239583D01*
X90126215Y-67406705D01*
X90114441Y-67414103D01*
X89861678Y-67553800D01*
X89849149Y-67559833D01*
X89582337Y-67670349D01*
X89569212Y-67674942D01*
X89291701Y-67754891D01*
X89278145Y-67757985D01*
X88993428Y-67806360D01*
X88979610Y-67807917D01*
X88705898Y-67823288D01*
X88687786Y-67824305D01*
X88680835Y-67824500D01*
X76545909Y-67824500D01*
X76524663Y-67818261D01*
X76502576Y-67816682D01*
X76491792Y-67808609D01*
X76478870Y-67804815D01*
X76464371Y-67788083D01*
X76446642Y-67774811D01*
X76441934Y-67762188D01*
X76433115Y-67752011D01*
X76429963Y-67730095D01*
X76422225Y-67709347D01*
X76425087Y-67696185D01*
X76423171Y-67682853D01*
X76432369Y-67662711D01*
X76437076Y-67641074D01*
X76450347Y-67623345D01*
X76452196Y-67619297D01*
X76458213Y-67612833D01*
X76542823Y-67528223D01*
X76542828Y-67528220D01*
X76553028Y-67518019D01*
X76553030Y-67518019D01*
X76664834Y-67406215D01*
X76736674Y-67281784D01*
X76743891Y-67269284D01*
X76784814Y-67116556D01*
X76784814Y-66958442D01*
X76784814Y-63000097D01*
X76804499Y-62933058D01*
X76821133Y-62912416D01*
X77246731Y-62486819D01*
X77308054Y-62453334D01*
X77334412Y-62450500D01*
X78013329Y-62450500D01*
X78013345Y-62450501D01*
X78020941Y-62450501D01*
X78179053Y-62450501D01*
X78179056Y-62450501D01*
X78331784Y-62409577D01*
X78398327Y-62371158D01*
X78468715Y-62330520D01*
X78580519Y-62218716D01*
X78580519Y-62218714D01*
X78590723Y-62208511D01*
X78590727Y-62208506D01*
X79945720Y-60853512D01*
X80007041Y-60820029D01*
X80076733Y-60825013D01*
X80099637Y-60837778D01*
X80100001Y-60837164D01*
X80116068Y-60846666D01*
X80244921Y-60922869D01*
X80254989Y-60925794D01*
X80399105Y-60967664D01*
X80399108Y-60967664D01*
X80399110Y-60967665D01*
X80435133Y-60970500D01*
X80442435Y-60970499D01*
X80466628Y-60972881D01*
X80571297Y-60993702D01*
X80605471Y-61000500D01*
X80605472Y-61000500D01*
X80763158Y-61000500D01*
X80901999Y-60972882D01*
X80926191Y-60970499D01*
X80933482Y-60970499D01*
X80933494Y-60970499D01*
X80969518Y-60967665D01*
X81123707Y-60922869D01*
X81261912Y-60841135D01*
X81375449Y-60727598D01*
X81457183Y-60589393D01*
X81501979Y-60435204D01*
X81504814Y-60399181D01*
X81504813Y-60014881D01*
X81524497Y-59947843D01*
X81559922Y-59911780D01*
X81574058Y-59902335D01*
X81694603Y-59821789D01*
X81806103Y-59710289D01*
X81893708Y-59579179D01*
X81954051Y-59433497D01*
X81984814Y-59278842D01*
X81984814Y-59121158D01*
X81984814Y-59121155D01*
X81984813Y-59121153D01*
X81965116Y-59022129D01*
X81954051Y-58966503D01*
X81921393Y-58887658D01*
X81893711Y-58820827D01*
X81893704Y-58820814D01*
X81806103Y-58689711D01*
X81806100Y-58689707D01*
X81762651Y-58646258D01*
X81729166Y-58584935D01*
X81734150Y-58515243D01*
X81762651Y-58470896D01*
X82227269Y-58006278D01*
X82811460Y-57422087D01*
X82811838Y-57421712D01*
X82820817Y-57412847D01*
X82824849Y-57410520D01*
X82936653Y-57298716D01*
X82936653Y-57298714D01*
X83424833Y-56810537D01*
X83425139Y-56810008D01*
X83503030Y-56675095D01*
X83503890Y-56673606D01*
X83506172Y-56665093D01*
X83536462Y-56552046D01*
X83544814Y-56520878D01*
X83544814Y-56362764D01*
X83544814Y-54499177D01*
X83544815Y-54419126D01*
X83503892Y-54266399D01*
X83503890Y-54266396D01*
X83503889Y-54266392D01*
X83500734Y-54260927D01*
X83424835Y-54129466D01*
X83423983Y-54128356D01*
X83422746Y-54125849D01*
X83420771Y-54122427D01*
X83420995Y-54122297D01*
X83402577Y-54084948D01*
X83400555Y-54077401D01*
X83393891Y-54052531D01*
X83393890Y-54052528D01*
X83314838Y-53915605D01*
X83314832Y-53915597D01*
X83195972Y-53796737D01*
X83195964Y-53796730D01*
X83037958Y-53638723D01*
X83037957Y-53638721D01*
X82930035Y-53530799D01*
X82896550Y-53469476D01*
X82894777Y-53426932D01*
X82894999Y-53425238D01*
X82895001Y-53425236D01*
X82909814Y-53312720D01*
X82909814Y-53087280D01*
X82895001Y-52974764D01*
X82895000Y-52974763D01*
X82893940Y-52966705D01*
X82897003Y-52966301D01*
X82897003Y-52933698D01*
X82893940Y-52933295D01*
X82900825Y-52880996D01*
X82909814Y-52812720D01*
X82909814Y-52587280D01*
X82895001Y-52474764D01*
X82895000Y-52474763D01*
X82893940Y-52466705D01*
X82897003Y-52466301D01*
X82897003Y-52433698D01*
X82893940Y-52433295D01*
X82895001Y-52425236D01*
X82909814Y-52312720D01*
X82909814Y-52087280D01*
X82895001Y-51974764D01*
X82895000Y-51974763D01*
X82893940Y-51966705D01*
X82897003Y-51966301D01*
X82897003Y-51933698D01*
X82893940Y-51933295D01*
X82897086Y-51909397D01*
X82909814Y-51812720D01*
X82909814Y-51587280D01*
X82895001Y-51474764D01*
X82895000Y-51474763D01*
X82893940Y-51466705D01*
X82897003Y-51466301D01*
X82897003Y-51433698D01*
X82893940Y-51433295D01*
X82903531Y-51360444D01*
X82909814Y-51312720D01*
X82909814Y-51087280D01*
X82895001Y-50974764D01*
X82895000Y-50974763D01*
X82893940Y-50966705D01*
X82897003Y-50966301D01*
X82897003Y-50933698D01*
X82893940Y-50933295D01*
X82895001Y-50925236D01*
X82909814Y-50812720D01*
X82909814Y-50587280D01*
X82895001Y-50474764D01*
X82895000Y-50474763D01*
X82893940Y-50466705D01*
X82897003Y-50466301D01*
X82897003Y-50433698D01*
X82893940Y-50433295D01*
X82895199Y-50423735D01*
X82909814Y-50312720D01*
X82909814Y-50087280D01*
X82895001Y-49974764D01*
X82895000Y-49974763D01*
X82893940Y-49966705D01*
X82897003Y-49966301D01*
X82897003Y-49933698D01*
X82893940Y-49933295D01*
X82895001Y-49925236D01*
X82909814Y-49812720D01*
X82909814Y-49587280D01*
X82895001Y-49474764D01*
X82895000Y-49474763D01*
X82893940Y-49466705D01*
X82897003Y-49466301D01*
X82897003Y-49433698D01*
X82893940Y-49433295D01*
X82897086Y-49409397D01*
X82909814Y-49312720D01*
X82909814Y-49087280D01*
X82900621Y-49017450D01*
X82911387Y-48948415D01*
X82957767Y-48896159D01*
X83023560Y-48877265D01*
X83136393Y-48877265D01*
X83136394Y-48877264D01*
X83291046Y-48846502D01*
X83435610Y-48786621D01*
X83466115Y-48783342D01*
X83496317Y-48777893D01*
X83502387Y-48779442D01*
X83505079Y-48779153D01*
X83530511Y-48786620D01*
X83583541Y-48808586D01*
X83637944Y-48852427D01*
X83657705Y-48898954D01*
X83664575Y-48933492D01*
X83664577Y-48933499D01*
X83724916Y-49079172D01*
X83724923Y-49079185D01*
X83812524Y-49210288D01*
X83812527Y-49210292D01*
X83924021Y-49321786D01*
X83924025Y-49321789D01*
X84055128Y-49409390D01*
X84055141Y-49409397D01*
X84193497Y-49466705D01*
X84200817Y-49469737D01*
X84355467Y-49500499D01*
X84355470Y-49500500D01*
X84355472Y-49500500D01*
X84513158Y-49500500D01*
X84513159Y-49500499D01*
X84667811Y-49469737D01*
X84813493Y-49409394D01*
X84944603Y-49321789D01*
X85056103Y-49210289D01*
X85143708Y-49079179D01*
X85147763Y-49069387D01*
X85191599Y-49014985D01*
X85257892Y-48992916D01*
X85309777Y-49002276D01*
X85356590Y-49021666D01*
X85403011Y-49040894D01*
X85403013Y-49040894D01*
X85403018Y-49040896D01*
X85576981Y-49075499D01*
X85576984Y-49075500D01*
X85576986Y-49075500D01*
X85754370Y-49075500D01*
X85910622Y-49044419D01*
X85931606Y-49046296D01*
X85952461Y-49043298D01*
X85965708Y-49049348D01*
X85980214Y-49050646D01*
X85996851Y-49063570D01*
X86016017Y-49072323D01*
X86023891Y-49084575D01*
X86035391Y-49093509D01*
X86042399Y-49113375D01*
X86053791Y-49131101D01*
X86057325Y-49155684D01*
X86058636Y-49159399D01*
X86058814Y-49166036D01*
X86058814Y-49334350D01*
X86039129Y-49401389D01*
X86022495Y-49422031D01*
X85028795Y-50415730D01*
X85028793Y-50415733D01*
X85020404Y-50430264D01*
X84994712Y-50474764D01*
X84949737Y-50552663D01*
X84908813Y-50705391D01*
X84908813Y-50705393D01*
X84908813Y-50873494D01*
X84908814Y-50873507D01*
X84908814Y-56988329D01*
X84908813Y-56988347D01*
X84908813Y-57154053D01*
X84908812Y-57154053D01*
X84949738Y-57306788D01*
X84949739Y-57306789D01*
X84973657Y-57348215D01*
X84973658Y-57348217D01*
X85028789Y-57443708D01*
X85028795Y-57443716D01*
X85147663Y-57562584D01*
X85147669Y-57562589D01*
X85155977Y-57570897D01*
X85189462Y-57632220D01*
X85184478Y-57701912D01*
X85155977Y-57746259D01*
X82174025Y-60728211D01*
X82140433Y-60761803D01*
X82062523Y-60839712D01*
X81974923Y-60970814D01*
X81974916Y-60970827D01*
X81914578Y-61116498D01*
X81914575Y-61116508D01*
X81883019Y-61275150D01*
X81875963Y-61298410D01*
X81818420Y-61437332D01*
X81818417Y-61437341D01*
X81783814Y-61611304D01*
X81783814Y-61657059D01*
X81764129Y-61724098D01*
X81747495Y-61744740D01*
X81059977Y-62432257D01*
X81006899Y-62463650D01*
X80994925Y-62467129D01*
X80994915Y-62467133D01*
X80856719Y-62548862D01*
X80856710Y-62548869D01*
X80743183Y-62662396D01*
X80743177Y-62662404D01*
X80661445Y-62800606D01*
X80661443Y-62800611D01*
X80616649Y-62954791D01*
X80616648Y-62954797D01*
X80613814Y-62990811D01*
X80613814Y-63389169D01*
X80613815Y-63389191D01*
X80616649Y-63425205D01*
X80661443Y-63579388D01*
X80661446Y-63579395D01*
X80695442Y-63636881D01*
X80712623Y-63704605D01*
X80695442Y-63763119D01*
X80661446Y-63820604D01*
X80661443Y-63820611D01*
X80616649Y-63974791D01*
X80616648Y-63974797D01*
X80613814Y-64010811D01*
X80613814Y-64409169D01*
X80613815Y-64409191D01*
X80616648Y-64445201D01*
X80662103Y-64601658D01*
X80661903Y-64671527D01*
X80630711Y-64723930D01*
X80610031Y-64744611D01*
X80610030Y-64744612D01*
X80521769Y-64887704D01*
X80521765Y-64887713D01*
X80468878Y-65047315D01*
X80468878Y-65047316D01*
X80468877Y-65047316D01*
X80458814Y-65145818D01*
X80458814Y-65679181D01*
X80468877Y-65777683D01*
X80521764Y-65937284D01*
X80521769Y-65937295D01*
X80610030Y-66080387D01*
X80610033Y-66080391D01*
X80728922Y-66199280D01*
X80728926Y-66199283D01*
X80872018Y-66287544D01*
X80872021Y-66287545D01*
X80872027Y-66287549D01*
X81031629Y-66340436D01*
X81130140Y-66350500D01*
X81130145Y-66350500D01*
X81738483Y-66350500D01*
X81738488Y-66350500D01*
X81836999Y-66340436D01*
X81996601Y-66287549D01*
X82119218Y-66211917D01*
X82186609Y-66193477D01*
X82249409Y-66211917D01*
X82372027Y-66287549D01*
X82531629Y-66340436D01*
X82630140Y-66350500D01*
X82630145Y-66350500D01*
X83238483Y-66350500D01*
X83238488Y-66350500D01*
X83336999Y-66340436D01*
X83496601Y-66287549D01*
X83619218Y-66211917D01*
X83686609Y-66193477D01*
X83749409Y-66211917D01*
X83872027Y-66287549D01*
X84031629Y-66340436D01*
X84130140Y-66350500D01*
X84130145Y-66350500D01*
X84738483Y-66350500D01*
X84738488Y-66350500D01*
X84836999Y-66340436D01*
X84996601Y-66287549D01*
X85139705Y-66199281D01*
X85258595Y-66080391D01*
X85346863Y-65937287D01*
X85399750Y-65777685D01*
X85409814Y-65679174D01*
X85409814Y-65253711D01*
X87083814Y-65253711D01*
X87083814Y-65496288D01*
X87115475Y-65736785D01*
X87178261Y-65971104D01*
X87240416Y-66121158D01*
X87271090Y-66195212D01*
X87392378Y-66405289D01*
X87392380Y-66405292D01*
X87392381Y-66405293D01*
X87540047Y-66597736D01*
X87540053Y-66597743D01*
X87711570Y-66769260D01*
X87711577Y-66769266D01*
X87754808Y-66802438D01*
X87904025Y-66916936D01*
X88114102Y-67038224D01*
X88338214Y-67131054D01*
X88572525Y-67193838D01*
X88752900Y-67217584D01*
X88813025Y-67225500D01*
X88813026Y-67225500D01*
X89055603Y-67225500D01*
X89103702Y-67219167D01*
X89296103Y-67193838D01*
X89530414Y-67131054D01*
X89754526Y-67038224D01*
X89964603Y-66916936D01*
X90157052Y-66769265D01*
X90328579Y-66597738D01*
X90476250Y-66405289D01*
X90597538Y-66195212D01*
X90690368Y-65971100D01*
X90753152Y-65736789D01*
X90784814Y-65496288D01*
X90784814Y-65253712D01*
X90753152Y-65013211D01*
X90690368Y-64778900D01*
X90597538Y-64554788D01*
X90476250Y-64344711D01*
X90328579Y-64152262D01*
X90328574Y-64152256D01*
X90157057Y-63980739D01*
X90157050Y-63980733D01*
X89964607Y-63833067D01*
X89964606Y-63833066D01*
X89964603Y-63833064D01*
X89765341Y-63718020D01*
X89754528Y-63711777D01*
X89754519Y-63711773D01*
X89530418Y-63618947D01*
X89382809Y-63579395D01*
X89296103Y-63556162D01*
X89296102Y-63556161D01*
X89296099Y-63556161D01*
X89055603Y-63524500D01*
X89055602Y-63524500D01*
X88813026Y-63524500D01*
X88813025Y-63524500D01*
X88572528Y-63556161D01*
X88338209Y-63618947D01*
X88114108Y-63711773D01*
X88114099Y-63711777D01*
X87904020Y-63833067D01*
X87711577Y-63980733D01*
X87711570Y-63980739D01*
X87540053Y-64152256D01*
X87540047Y-64152263D01*
X87392381Y-64344706D01*
X87271091Y-64554785D01*
X87271087Y-64554794D01*
X87178261Y-64778895D01*
X87115475Y-65013214D01*
X87083814Y-65253711D01*
X85409814Y-65253711D01*
X85409814Y-65145826D01*
X85399750Y-65047315D01*
X85346863Y-64887713D01*
X85346859Y-64887707D01*
X85346858Y-64887704D01*
X85258597Y-64744612D01*
X85258594Y-64744608D01*
X85240171Y-64726185D01*
X85206686Y-64664862D01*
X85208776Y-64603909D01*
X85251978Y-64455208D01*
X85251979Y-64455202D01*
X85254813Y-64419188D01*
X85254814Y-64419181D01*
X85254813Y-64020820D01*
X85251979Y-63984796D01*
X85207183Y-63830607D01*
X85173183Y-63773117D01*
X85156002Y-63705398D01*
X85173183Y-63646882D01*
X85207183Y-63589393D01*
X85210089Y-63579393D01*
X85251978Y-63435208D01*
X85251979Y-63435202D01*
X85254814Y-63399181D01*
X85254813Y-63000820D01*
X85251979Y-62964796D01*
X85207183Y-62810607D01*
X85201271Y-62800611D01*
X85125450Y-62672404D01*
X85125449Y-62672402D01*
X85125447Y-62672400D01*
X85125444Y-62672396D01*
X85043969Y-62590921D01*
X85036131Y-62577517D01*
X85026489Y-62568945D01*
X85013065Y-62538072D01*
X85012238Y-62536657D01*
X85012046Y-62535971D01*
X84993891Y-62468216D01*
X84992327Y-62465507D01*
X84989402Y-62455054D01*
X84989525Y-62445327D01*
X84984814Y-62421637D01*
X84984814Y-62371155D01*
X84984813Y-62371153D01*
X84976731Y-62330524D01*
X84954051Y-62216503D01*
X84950741Y-62208511D01*
X84893711Y-62070827D01*
X84893704Y-62070814D01*
X84806103Y-61939711D01*
X84806100Y-61939707D01*
X84694606Y-61828213D01*
X84694602Y-61828210D01*
X84563499Y-61740609D01*
X84563486Y-61740602D01*
X84417815Y-61680264D01*
X84417803Y-61680261D01*
X84263159Y-61649500D01*
X84263156Y-61649500D01*
X84105472Y-61649500D01*
X84105469Y-61649500D01*
X83950824Y-61680261D01*
X83950812Y-61680264D01*
X83805141Y-61740602D01*
X83805130Y-61740608D01*
X83777704Y-61758934D01*
X83768004Y-61761971D01*
X83760325Y-61768625D01*
X83735226Y-61772233D01*
X83711026Y-61779811D01*
X83701226Y-61777122D01*
X83691167Y-61778569D01*
X83668100Y-61768034D01*
X83643646Y-61761326D01*
X83636855Y-61753765D01*
X83627611Y-61749544D01*
X83613899Y-61728208D01*
X83596957Y-61709346D01*
X83594326Y-61697751D01*
X83589837Y-61690766D01*
X83584814Y-61655831D01*
X83584814Y-61632939D01*
X83604499Y-61565900D01*
X83621133Y-61545258D01*
X86954573Y-58211819D01*
X87015896Y-58178334D01*
X87042254Y-58175500D01*
X87425000Y-58175500D01*
X87425008Y-58175500D01*
X87461883Y-58172598D01*
X87461885Y-58172597D01*
X87461887Y-58172597D01*
X87509816Y-58158672D01*
X87619712Y-58126744D01*
X87761179Y-58043081D01*
X87877395Y-57926865D01*
X87961058Y-57785398D01*
X88006912Y-57627569D01*
X88009814Y-57590694D01*
X88009814Y-57159306D01*
X88006912Y-57122431D01*
X87978806Y-57025692D01*
X87961059Y-56964606D01*
X87961058Y-56964603D01*
X87961058Y-56964602D01*
X87877395Y-56823135D01*
X87877393Y-56823133D01*
X87877390Y-56823129D01*
X87761184Y-56706923D01*
X87761176Y-56706917D01*
X87619710Y-56623255D01*
X87619707Y-56623254D01*
X87461887Y-56577402D01*
X87461881Y-56577401D01*
X87425015Y-56574500D01*
X87425008Y-56574500D01*
X86233814Y-56574500D01*
X86166775Y-56554815D01*
X86121020Y-56502011D01*
X86109814Y-56450500D01*
X86109814Y-55799500D01*
X86129499Y-55732461D01*
X86182303Y-55686706D01*
X86233814Y-55675500D01*
X87425000Y-55675500D01*
X87425008Y-55675500D01*
X87461883Y-55672598D01*
X87461885Y-55672597D01*
X87461887Y-55672597D01*
X87503505Y-55660505D01*
X87619712Y-55626744D01*
X87761179Y-55543081D01*
X87767441Y-55536819D01*
X87828764Y-55503334D01*
X87855122Y-55500500D01*
X88013158Y-55500500D01*
X88013159Y-55500499D01*
X88167811Y-55469737D01*
X88313493Y-55409394D01*
X88444603Y-55321789D01*
X88556103Y-55210289D01*
X88643708Y-55079179D01*
X88704051Y-54933497D01*
X88734814Y-54778842D01*
X88734814Y-54621158D01*
X88734814Y-54621155D01*
X88734813Y-54621153D01*
X88717839Y-54535821D01*
X88704051Y-54466503D01*
X88701798Y-54461063D01*
X88661746Y-54364368D01*
X88654277Y-54294899D01*
X88685552Y-54232420D01*
X88688599Y-54229262D01*
X88756838Y-54161024D01*
X88844443Y-54029914D01*
X88904786Y-53884232D01*
X88935549Y-53729577D01*
X88935549Y-53571893D01*
X88935549Y-53571890D01*
X88935548Y-53571888D01*
X88923045Y-53509030D01*
X88904786Y-53417238D01*
X88885753Y-53371287D01*
X88844446Y-53271562D01*
X88844439Y-53271549D01*
X88756838Y-53140446D01*
X88756835Y-53140442D01*
X88645341Y-53028948D01*
X88645337Y-53028945D01*
X88514234Y-52941344D01*
X88514221Y-52941337D01*
X88368550Y-52880999D01*
X88368538Y-52880996D01*
X88213894Y-52850235D01*
X88213891Y-52850235D01*
X88107374Y-52850235D01*
X88040335Y-52830550D01*
X87994580Y-52777746D01*
X87984636Y-52708588D01*
X87988298Y-52691640D01*
X88006911Y-52627573D01*
X88006912Y-52627567D01*
X88009814Y-52590694D01*
X88009814Y-52159306D01*
X88006912Y-52122431D01*
X88006415Y-52116114D01*
X88008640Y-52115938D01*
X88014891Y-52056574D01*
X88058612Y-52002074D01*
X88105360Y-51982159D01*
X88167811Y-51969737D01*
X88313493Y-51909394D01*
X88444603Y-51821789D01*
X88556103Y-51710289D01*
X88643708Y-51579179D01*
X88704051Y-51433497D01*
X88734814Y-51278842D01*
X88734814Y-51121158D01*
X88734814Y-51121155D01*
X88734813Y-51121153D01*
X88715208Y-51022592D01*
X88704051Y-50966503D01*
X88694425Y-50943263D01*
X88643711Y-50820827D01*
X88643704Y-50820814D01*
X88556103Y-50689711D01*
X88556100Y-50689707D01*
X88444606Y-50578213D01*
X88444602Y-50578210D01*
X88313499Y-50490609D01*
X88313486Y-50490602D01*
X88167815Y-50430264D01*
X88167803Y-50430261D01*
X88013159Y-50399500D01*
X88013156Y-50399500D01*
X87855472Y-50399500D01*
X87855467Y-50399500D01*
X87758758Y-50418737D01*
X87689166Y-50412510D01*
X87671456Y-50403857D01*
X87619712Y-50373256D01*
X87619710Y-50373255D01*
X87619706Y-50373253D01*
X87461887Y-50327402D01*
X87461881Y-50327401D01*
X87425015Y-50324500D01*
X87425008Y-50324500D01*
X87117860Y-50324500D01*
X87050821Y-50304815D01*
X87005066Y-50252011D01*
X86995122Y-50182853D01*
X87024147Y-50119297D01*
X87030179Y-50112819D01*
X87077765Y-50065233D01*
X87139834Y-50003164D01*
X87218891Y-49866232D01*
X87259815Y-49713505D01*
X87259815Y-49555390D01*
X87259815Y-49547795D01*
X87259814Y-49547777D01*
X87259814Y-46149500D01*
X87279499Y-46082461D01*
X87332303Y-46036706D01*
X87383814Y-46025500D01*
X87425000Y-46025500D01*
X87425008Y-46025500D01*
X87461883Y-46022598D01*
X87461885Y-46022597D01*
X87461887Y-46022597D01*
X87528258Y-46003314D01*
X87619712Y-45976744D01*
X87761179Y-45893081D01*
X87877395Y-45776865D01*
X87961058Y-45635398D01*
X87961061Y-45635384D01*
X87961503Y-45634367D01*
X87962775Y-45632494D01*
X87965030Y-45628682D01*
X87965269Y-45628823D01*
X87965556Y-45628401D01*
X87966474Y-45624181D01*
X87987588Y-45595975D01*
X87987620Y-45595928D01*
X87989833Y-45593716D01*
X87989833Y-45593713D01*
X87993830Y-45589716D01*
X88167820Y-45415727D01*
X88167825Y-45415723D01*
X88178028Y-45405519D01*
X88178030Y-45405519D01*
X88289834Y-45293715D01*
X88368891Y-45156783D01*
X88405081Y-45021721D01*
X88409814Y-45004057D01*
X88409814Y-44845942D01*
X88409814Y-41223508D01*
X88409815Y-41223495D01*
X88409815Y-41055392D01*
X88404087Y-41034016D01*
X88368891Y-40902664D01*
X88352630Y-40874499D01*
X88289838Y-40765738D01*
X88289832Y-40765730D01*
X88260932Y-40736830D01*
X88250854Y-40718375D01*
X88236792Y-40702740D01*
X88234446Y-40688324D01*
X88227447Y-40675507D01*
X88228946Y-40654533D01*
X88225569Y-40633777D01*
X88231389Y-40620381D01*
X88232431Y-40605815D01*
X88245033Y-40588980D01*
X88253413Y-40569695D01*
X88265550Y-40561573D01*
X88274303Y-40549882D01*
X88294004Y-40542533D01*
X88311482Y-40530839D01*
X88326083Y-40530568D01*
X88339767Y-40525465D01*
X88360315Y-40529935D01*
G37*
%TD.AperFunction*%
%TA.AperFunction,Conductor*%
G36*
X78094686Y-58620185D02*
G01*
X78115328Y-58636819D01*
X78118621Y-58640112D01*
X78118625Y-58640115D01*
X78118627Y-58640117D01*
X78257919Y-58722494D01*
X78295271Y-58733346D01*
X78413316Y-58767642D01*
X78413319Y-58767642D01*
X78413321Y-58767643D01*
X78449624Y-58770500D01*
X78492712Y-58770500D01*
X78516903Y-58772883D01*
X78605469Y-58790499D01*
X78605471Y-58790500D01*
X78605472Y-58790500D01*
X78763158Y-58790500D01*
X78763158Y-58790499D01*
X78851726Y-58772883D01*
X78873482Y-58770524D01*
X78874704Y-58770500D01*
X78919004Y-58770500D01*
X78933736Y-58769340D01*
X78937379Y-58769269D01*
X78967703Y-58777529D01*
X78998456Y-58783988D01*
X79001146Y-58786639D01*
X79004792Y-58787633D01*
X79025834Y-58810975D01*
X79048215Y-58833036D01*
X79049220Y-58836917D01*
X79051575Y-58839529D01*
X79054463Y-58857154D01*
X79063814Y-58893245D01*
X79063814Y-59419903D01*
X79044129Y-59486942D01*
X79027495Y-59507584D01*
X77721898Y-60813181D01*
X77660575Y-60846666D01*
X77634217Y-60849500D01*
X77435814Y-60849500D01*
X77368775Y-60829815D01*
X77323020Y-60777011D01*
X77311814Y-60725500D01*
X77311814Y-60189448D01*
X77331499Y-60122409D01*
X77384303Y-60076654D01*
X77422562Y-60066158D01*
X77441797Y-60064091D01*
X77576645Y-60013796D01*
X77691860Y-59927546D01*
X77778110Y-59812331D01*
X77828405Y-59677483D01*
X77834814Y-59617873D01*
X77834813Y-59022128D01*
X77828834Y-58966510D01*
X77828405Y-58962516D01*
X77778111Y-58827671D01*
X77778109Y-58827668D01*
X77772983Y-58820821D01*
X77756507Y-58798811D01*
X77751799Y-58786188D01*
X77742980Y-58776011D01*
X77739828Y-58754094D01*
X77732090Y-58733346D01*
X77734952Y-58720185D01*
X77733036Y-58706853D01*
X77742235Y-58686709D01*
X77746942Y-58665073D01*
X77756465Y-58655549D01*
X77762061Y-58643297D01*
X77780690Y-58631324D01*
X77796347Y-58615668D01*
X77810788Y-58611981D01*
X77820839Y-58605523D01*
X77855774Y-58600500D01*
X78027647Y-58600500D01*
X78094686Y-58620185D01*
G37*
%TD.AperFunction*%
%TA.AperFunction,Conductor*%
G36*
X75976853Y-59120184D02*
G01*
X76022608Y-59172988D01*
X76033814Y-59224499D01*
X76033814Y-59617870D01*
X76033815Y-59617876D01*
X76040222Y-59677483D01*
X76048995Y-59701002D01*
X76056814Y-59744337D01*
X76056814Y-60388719D01*
X76048169Y-60418159D01*
X76041646Y-60448146D01*
X76037891Y-60453161D01*
X76037129Y-60455758D01*
X76020495Y-60476400D01*
X75896995Y-60599900D01*
X75835672Y-60633385D01*
X75765980Y-60628401D01*
X75721633Y-60599900D01*
X75598133Y-60476400D01*
X75564648Y-60415077D01*
X75561814Y-60388719D01*
X75561814Y-59862595D01*
X75581499Y-59795556D01*
X75598129Y-59774917D01*
X75625449Y-59747598D01*
X75707183Y-59609393D01*
X75751979Y-59455204D01*
X75754814Y-59419181D01*
X75754813Y-59224498D01*
X75757363Y-59215813D01*
X75756075Y-59206852D01*
X75767052Y-59182814D01*
X75774497Y-59157460D01*
X75781339Y-59151531D01*
X75785100Y-59143296D01*
X75807331Y-59129009D01*
X75827301Y-59111705D01*
X75837816Y-59109417D01*
X75843878Y-59105522D01*
X75878808Y-59100499D01*
X75909815Y-59100499D01*
X75976853Y-59120184D01*
G37*
%TD.AperFunction*%
%TA.AperFunction,Conductor*%
G36*
X71757689Y-58140989D02*
G01*
X71760968Y-58140806D01*
X71788712Y-58156517D01*
X71817232Y-58170793D01*
X71818907Y-58173617D01*
X71821766Y-58175236D01*
X71836614Y-58203459D01*
X71852885Y-58230882D01*
X71853175Y-58234940D01*
X71854297Y-58237071D01*
X71853765Y-58243168D01*
X71855601Y-58268773D01*
X71856213Y-58268806D01*
X71856314Y-58268806D01*
X71856314Y-58268811D01*
X71856492Y-58268821D01*
X71856314Y-58272136D01*
X71856314Y-58647869D01*
X71856315Y-58647876D01*
X71862722Y-58707483D01*
X71913016Y-58842328D01*
X71913017Y-58842329D01*
X71913018Y-58842331D01*
X71946950Y-58887658D01*
X71999268Y-58957547D01*
X72007125Y-58963428D01*
X72048997Y-59019360D01*
X72053983Y-59089052D01*
X72036462Y-59126589D01*
X72038168Y-59127598D01*
X71951819Y-59273606D01*
X71951818Y-59273609D01*
X71906671Y-59429002D01*
X71906670Y-59429008D01*
X71903814Y-59465302D01*
X71903814Y-59508399D01*
X71901431Y-59532590D01*
X71886095Y-59609691D01*
X71853711Y-59671602D01*
X71792995Y-59706176D01*
X71764478Y-59709500D01*
X71698277Y-59709500D01*
X71631238Y-59689815D01*
X71610596Y-59673181D01*
X71598133Y-59660718D01*
X71564648Y-59599395D01*
X71561814Y-59573037D01*
X71561814Y-59205025D01*
X71567633Y-59172770D01*
X71566621Y-59172531D01*
X71568402Y-59164990D01*
X71568405Y-59164983D01*
X71574814Y-59105373D01*
X71574813Y-58334628D01*
X71569893Y-58288860D01*
X71582299Y-58220103D01*
X71629910Y-58168966D01*
X71651654Y-58158769D01*
X71660144Y-58155751D01*
X71667812Y-58154226D01*
X71688232Y-58145767D01*
X71691208Y-58144710D01*
X71723039Y-58142928D01*
X71754752Y-58139519D01*
X71757689Y-58140989D01*
G37*
%TD.AperFunction*%
%TA.AperFunction,Conductor*%
G36*
X81886853Y-55810185D02*
G01*
X81932608Y-55862989D01*
X81943814Y-55914500D01*
X81943814Y-55974215D01*
X81924129Y-56041254D01*
X81907495Y-56061896D01*
X80396212Y-57573181D01*
X80334889Y-57606666D01*
X80308531Y-57609500D01*
X80236375Y-57609500D01*
X80236359Y-57609499D01*
X80228763Y-57609499D01*
X80070648Y-57609499D01*
X79929363Y-57647357D01*
X79929362Y-57647356D01*
X79917926Y-57650421D01*
X79917914Y-57650426D01*
X79780995Y-57729475D01*
X79780991Y-57729478D01*
X79700761Y-57809708D01*
X79639437Y-57843192D01*
X79569746Y-57838208D01*
X79513812Y-57796336D01*
X79495578Y-57754552D01*
X79493725Y-57755091D01*
X79446809Y-57593609D01*
X79446808Y-57593606D01*
X79446808Y-57593605D01*
X79364431Y-57454313D01*
X79364429Y-57454311D01*
X79364426Y-57454307D01*
X79326566Y-57416447D01*
X79293081Y-57355124D01*
X79298065Y-57285432D01*
X79339937Y-57229499D01*
X79364997Y-57214966D01*
X79370702Y-57212495D01*
X79370709Y-57212494D01*
X79510001Y-57130117D01*
X79624431Y-57015687D01*
X79706808Y-56876395D01*
X79751957Y-56720993D01*
X79754814Y-56684690D01*
X79754814Y-56299500D01*
X79774499Y-56232461D01*
X79827303Y-56186706D01*
X79878814Y-56175500D01*
X80047027Y-56175500D01*
X80047034Y-56175500D01*
X80159550Y-56160687D01*
X80299547Y-56102698D01*
X80419765Y-56010451D01*
X80512012Y-55890233D01*
X80513453Y-55886752D01*
X80521616Y-55867048D01*
X80565456Y-55812644D01*
X80631750Y-55790579D01*
X80636177Y-55790500D01*
X80855472Y-55790500D01*
X81819814Y-55790500D01*
X81886853Y-55810185D01*
G37*
%TD.AperFunction*%
%TA.AperFunction,Conductor*%
G36*
X74207839Y-56160174D02*
G01*
X74209078Y-56160687D01*
X74321594Y-56175500D01*
X74359072Y-56175500D01*
X74365308Y-56176132D01*
X74392097Y-56187037D01*
X74419845Y-56195185D01*
X74424058Y-56200047D01*
X74430021Y-56202475D01*
X74446663Y-56226135D01*
X74465600Y-56247989D01*
X74466515Y-56254358D01*
X74470219Y-56259623D01*
X74471427Y-56288518D01*
X74475544Y-56317147D01*
X74472870Y-56323002D01*
X74473139Y-56329432D01*
X74456470Y-56358912D01*
X74446519Y-56380703D01*
X74442797Y-56383094D01*
X74440487Y-56387181D01*
X74177910Y-56649757D01*
X74152230Y-56669463D01*
X74065598Y-56719480D01*
X74065595Y-56719482D01*
X73953795Y-56831282D01*
X73953789Y-56831290D01*
X73874740Y-56968209D01*
X73874737Y-56968216D01*
X73833814Y-57120943D01*
X73833814Y-57305500D01*
X73814129Y-57372539D01*
X73761325Y-57418294D01*
X73709819Y-57429500D01*
X73685147Y-57429500D01*
X73685121Y-57429501D01*
X73649108Y-57432335D01*
X73494925Y-57477129D01*
X73494920Y-57477131D01*
X73356718Y-57558863D01*
X73356710Y-57558869D01*
X73243183Y-57672396D01*
X73243179Y-57672402D01*
X73192113Y-57758749D01*
X73141043Y-57806432D01*
X73083008Y-57818560D01*
X73083008Y-57819500D01*
X72306160Y-57819500D01*
X72280451Y-57811951D01*
X72253956Y-57807975D01*
X72247438Y-57802257D01*
X72239121Y-57799815D01*
X72221578Y-57779570D01*
X72201434Y-57761897D01*
X72199042Y-57753561D01*
X72193366Y-57747011D01*
X72189553Y-57720494D01*
X72182162Y-57694737D01*
X72184316Y-57684076D01*
X72183422Y-57677853D01*
X72187400Y-57659834D01*
X72189198Y-57653846D01*
X72204052Y-57617986D01*
X72212062Y-57577713D01*
X72213763Y-57572051D01*
X72229729Y-57547539D01*
X72243289Y-57521616D01*
X72249092Y-57517812D01*
X72251898Y-57513506D01*
X72263876Y-57508124D01*
X72289191Y-57491535D01*
X72316645Y-57481296D01*
X72316645Y-57481295D01*
X72316647Y-57481295D01*
X72316647Y-57481294D01*
X72431860Y-57395046D01*
X72518110Y-57279831D01*
X72568405Y-57144983D01*
X72570990Y-57120943D01*
X72573555Y-57097088D01*
X72600293Y-57032537D01*
X72627950Y-57007244D01*
X72655827Y-56988618D01*
X72767327Y-56877118D01*
X72854932Y-56746008D01*
X72915275Y-56600326D01*
X72946038Y-56445671D01*
X72946038Y-56297541D01*
X72946243Y-56296841D01*
X72946046Y-56296141D01*
X72956077Y-56263352D01*
X72965723Y-56230502D01*
X72966272Y-56230025D01*
X72966486Y-56229328D01*
X72992689Y-56207135D01*
X73018527Y-56184747D01*
X73019430Y-56184487D01*
X73019803Y-56184172D01*
X73052018Y-56175117D01*
X73053775Y-56174612D01*
X73159550Y-56160687D01*
X73159784Y-56160589D01*
X73168053Y-56159496D01*
X73188612Y-56162689D01*
X73200616Y-56162689D01*
X73201019Y-56159626D01*
X73209077Y-56160686D01*
X73209078Y-56160687D01*
X73321594Y-56175500D01*
X73321601Y-56175500D01*
X73547027Y-56175500D01*
X73547034Y-56175500D01*
X73659550Y-56160687D01*
X73659550Y-56160686D01*
X73667609Y-56159626D01*
X73668012Y-56162689D01*
X73700616Y-56162689D01*
X73701019Y-56159626D01*
X73709077Y-56160686D01*
X73709078Y-56160687D01*
X73821594Y-56175500D01*
X73821601Y-56175500D01*
X74047027Y-56175500D01*
X74047034Y-56175500D01*
X74159550Y-56160687D01*
X74159550Y-56160686D01*
X74167609Y-56159626D01*
X74167694Y-56160275D01*
X74196816Y-56159057D01*
X74207839Y-56160174D01*
G37*
%TD.AperFunction*%
%TA.AperFunction,Conductor*%
G36*
X61824166Y-52520185D02*
G01*
X61860229Y-52555609D01*
X61924006Y-52651058D01*
X61924009Y-52651062D01*
X62035503Y-52762556D01*
X62035507Y-52762559D01*
X62166610Y-52850160D01*
X62166623Y-52850167D01*
X62241057Y-52880998D01*
X62312299Y-52910507D01*
X62357268Y-52919451D01*
X62419177Y-52951834D01*
X62420755Y-52953385D01*
X63140174Y-53672804D01*
X63140176Y-53672805D01*
X63140180Y-53672808D01*
X63251994Y-53737363D01*
X63277106Y-53751861D01*
X63429833Y-53792785D01*
X63429835Y-53792785D01*
X63595544Y-53792785D01*
X63595560Y-53792784D01*
X64142932Y-53792784D01*
X64209971Y-53812469D01*
X64255726Y-53865273D01*
X64265670Y-53934431D01*
X64236645Y-53997987D01*
X64230613Y-54004465D01*
X64153795Y-54081282D01*
X64153791Y-54081287D01*
X64092470Y-54187500D01*
X64041903Y-54235716D01*
X63985083Y-54249500D01*
X62686443Y-54249500D01*
X62686437Y-54249501D01*
X62626830Y-54255908D01*
X62491985Y-54306202D01*
X62491978Y-54306206D01*
X62376769Y-54392452D01*
X62302509Y-54491650D01*
X62276681Y-54510983D01*
X62251740Y-54531461D01*
X62248879Y-54531795D01*
X62246575Y-54533520D01*
X62214397Y-54535821D01*
X62182342Y-54539564D01*
X62179755Y-54538298D01*
X62176883Y-54538504D01*
X62148564Y-54523039D01*
X62119580Y-54508861D01*
X62117173Y-54505898D01*
X62115561Y-54505018D01*
X62097184Y-54481583D01*
X62096846Y-54481026D01*
X62077395Y-54448135D01*
X62076197Y-54446937D01*
X62071538Y-54439245D01*
X62064346Y-54412104D01*
X62054083Y-54385965D01*
X62055516Y-54378784D01*
X62053641Y-54371706D01*
X62062264Y-54344983D01*
X62067762Y-54317447D01*
X62073450Y-54308595D01*
X62073424Y-54308580D01*
X62074719Y-54306389D01*
X62075099Y-54305213D01*
X62075713Y-54304708D01*
X62077393Y-54301866D01*
X62077395Y-54301865D01*
X62161058Y-54160398D01*
X62198966Y-54029920D01*
X62206911Y-54002573D01*
X62206912Y-54002567D01*
X62207082Y-54000404D01*
X62209814Y-53965694D01*
X62209814Y-53534306D01*
X62206912Y-53497431D01*
X62203832Y-53486831D01*
X62161059Y-53339606D01*
X62161058Y-53339603D01*
X62161058Y-53339602D01*
X62077395Y-53198135D01*
X62077393Y-53198133D01*
X62077390Y-53198129D01*
X61961184Y-53081923D01*
X61961176Y-53081917D01*
X61880686Y-53034316D01*
X61819712Y-52998256D01*
X61819711Y-52998255D01*
X61819710Y-52998255D01*
X61819707Y-52998254D01*
X61661887Y-52952402D01*
X61661881Y-52952401D01*
X61625015Y-52949500D01*
X61625008Y-52949500D01*
X60433304Y-52949500D01*
X60401068Y-52940034D01*
X60368610Y-52931286D01*
X60367643Y-52930219D01*
X60366265Y-52929815D01*
X60344274Y-52904436D01*
X60321688Y-52879517D01*
X60321209Y-52877818D01*
X60320510Y-52877011D01*
X60310991Y-52845883D01*
X60309815Y-52838826D01*
X60309815Y-52836784D01*
X60307717Y-52826241D01*
X60307397Y-52824316D01*
X60307573Y-52822854D01*
X60305710Y-52803933D01*
X60305710Y-52624500D01*
X60325395Y-52557461D01*
X60378199Y-52511706D01*
X60429710Y-52500500D01*
X61757127Y-52500500D01*
X61824166Y-52520185D01*
G37*
%TD.AperFunction*%
%TA.AperFunction,Conductor*%
G36*
X75491489Y-45300968D02*
G01*
X75497967Y-45307000D01*
X76047495Y-45856528D01*
X76080980Y-45917851D01*
X76083814Y-45944209D01*
X76083814Y-48972448D01*
X76083813Y-48972466D01*
X76083813Y-49138172D01*
X76083812Y-49138172D01*
X76089500Y-49159399D01*
X76124737Y-49290903D01*
X76137333Y-49312720D01*
X76145865Y-49327496D01*
X76145866Y-49327500D01*
X76145867Y-49327500D01*
X76203558Y-49427426D01*
X76203793Y-49427832D01*
X76203795Y-49427835D01*
X76322663Y-49546703D01*
X76322669Y-49546708D01*
X77165621Y-50389660D01*
X77199106Y-50450983D01*
X77199557Y-50453149D01*
X77230457Y-50608491D01*
X77230460Y-50608501D01*
X77290798Y-50754172D01*
X77290805Y-50754185D01*
X77378406Y-50885288D01*
X77378409Y-50885292D01*
X77489903Y-50996786D01*
X77489907Y-50996789D01*
X77621010Y-51084390D01*
X77621023Y-51084397D01*
X77766694Y-51144735D01*
X77766699Y-51144737D01*
X77921354Y-51175500D01*
X77921359Y-51175500D01*
X77927414Y-51176097D01*
X77927257Y-51177685D01*
X77986853Y-51195185D01*
X78032608Y-51247989D01*
X78043814Y-51299500D01*
X78043814Y-51830939D01*
X78043813Y-51830943D01*
X78043813Y-51875502D01*
X78033018Y-51912264D01*
X78025017Y-51939513D01*
X78024127Y-51942541D01*
X77994780Y-51967969D01*
X77971324Y-51988294D01*
X77971322Y-51988294D01*
X77971322Y-51988295D01*
X77971314Y-51988296D01*
X77919813Y-51999500D01*
X77735883Y-51999500D01*
X77668844Y-51979815D01*
X77648202Y-51963181D01*
X77530264Y-51845243D01*
X77530262Y-51845241D01*
X77518655Y-51838539D01*
X77503676Y-51829891D01*
X77478000Y-51810189D01*
X77371783Y-51703972D01*
X77371782Y-51703971D01*
X77371781Y-51703970D01*
X77240679Y-51616370D01*
X77240666Y-51616363D01*
X77094995Y-51556025D01*
X77094983Y-51556022D01*
X76940339Y-51525261D01*
X76940336Y-51525261D01*
X76782652Y-51525261D01*
X76782649Y-51525261D01*
X76628004Y-51556022D01*
X76627992Y-51556025D01*
X76482321Y-51616363D01*
X76482308Y-51616370D01*
X76351205Y-51703971D01*
X76351201Y-51703974D01*
X76239707Y-51815468D01*
X76239704Y-51815472D01*
X76168073Y-51922676D01*
X76114461Y-51967481D01*
X76045136Y-51976188D01*
X76040780Y-51975402D01*
X75923159Y-51952006D01*
X75923155Y-51952006D01*
X75765471Y-51952006D01*
X75765468Y-51952006D01*
X75610823Y-51982767D01*
X75610811Y-51982770D01*
X75465140Y-52043108D01*
X75465127Y-52043115D01*
X75348173Y-52121262D01*
X75281495Y-52142140D01*
X75214115Y-52123655D01*
X75176180Y-52087051D01*
X75085250Y-51950967D01*
X75085247Y-51950963D01*
X74959824Y-51825540D01*
X74959820Y-51825537D01*
X74812339Y-51726992D01*
X74812326Y-51726985D01*
X74648453Y-51659108D01*
X74648444Y-51659105D01*
X74474480Y-51624502D01*
X74474477Y-51624502D01*
X74297095Y-51624502D01*
X74297092Y-51624502D01*
X74123122Y-51659106D01*
X74123118Y-51659108D01*
X74091757Y-51672098D01*
X74022287Y-51679565D01*
X73959809Y-51648289D01*
X73936919Y-51619536D01*
X73914836Y-51581287D01*
X73914832Y-51581282D01*
X72996905Y-50663355D01*
X72996903Y-50663352D01*
X72878032Y-50544481D01*
X72878031Y-50544480D01*
X72782270Y-50489193D01*
X72757280Y-50474765D01*
X72741100Y-50465423D01*
X72697879Y-50453842D01*
X72588373Y-50424500D01*
X72588371Y-50424499D01*
X72588367Y-50424499D01*
X72574038Y-50424499D01*
X72507000Y-50404811D01*
X72461247Y-50352005D01*
X72451307Y-50282846D01*
X72480335Y-50219292D01*
X72522842Y-50188645D01*
X72522841Y-50188642D01*
X72522872Y-50188624D01*
X72526606Y-50185932D01*
X72529871Y-50184579D01*
X72529880Y-50184577D01*
X72532866Y-50182853D01*
X72586326Y-50151988D01*
X72586327Y-50151987D01*
X72666811Y-50105520D01*
X72778615Y-49993716D01*
X72778615Y-49993714D01*
X72788819Y-49983511D01*
X72788823Y-49983506D01*
X75044292Y-47728037D01*
X75044297Y-47728033D01*
X75054500Y-47717829D01*
X75054502Y-47717829D01*
X75166306Y-47606025D01*
X75221501Y-47510423D01*
X75245363Y-47469094D01*
X75286287Y-47316366D01*
X75286287Y-47158252D01*
X75286287Y-47150657D01*
X75286286Y-47150639D01*
X75286286Y-45394681D01*
X75305971Y-45327642D01*
X75358775Y-45281887D01*
X75427933Y-45271943D01*
X75491489Y-45300968D01*
G37*
%TD.AperFunction*%
%TA.AperFunction,Conductor*%
G36*
X61635481Y-48950583D02*
G01*
X61691414Y-48992455D01*
X61715831Y-49057919D01*
X61716147Y-49066765D01*
X61716147Y-49186464D01*
X61746907Y-49341106D01*
X61746910Y-49341115D01*
X61768301Y-49392759D01*
X61769975Y-49396799D01*
X61772111Y-49416673D01*
X61779098Y-49435404D01*
X61775770Y-49450701D01*
X61777444Y-49466268D01*
X61768494Y-49484146D01*
X61764246Y-49503677D01*
X61747559Y-49525968D01*
X61746169Y-49528747D01*
X61743096Y-49531932D01*
X61640600Y-49634428D01*
X61640599Y-49634428D01*
X61640598Y-49634429D01*
X61528795Y-49746232D01*
X61528791Y-49746237D01*
X61479691Y-49831283D01*
X61479691Y-49831284D01*
X61449737Y-49883164D01*
X61449737Y-49883165D01*
X61408813Y-50035893D01*
X61408813Y-50035895D01*
X61408813Y-50203996D01*
X61408814Y-50204009D01*
X61408814Y-50325500D01*
X61389129Y-50392539D01*
X61336325Y-50438294D01*
X61284814Y-50449500D01*
X60093612Y-50449500D01*
X60056746Y-50452401D01*
X60056740Y-50452402D01*
X59898920Y-50498254D01*
X59898917Y-50498255D01*
X59877711Y-50510796D01*
X59809987Y-50527976D01*
X59743725Y-50505815D01*
X59699963Y-50451348D01*
X59692595Y-50381868D01*
X59715056Y-50330113D01*
X59720474Y-50322819D01*
X59789834Y-50253460D01*
X59848419Y-50151987D01*
X59868891Y-50116529D01*
X59909814Y-49963802D01*
X59909814Y-49805687D01*
X59909814Y-49232118D01*
X59929499Y-49165079D01*
X59982303Y-49119324D01*
X60033814Y-49108118D01*
X61040027Y-49108118D01*
X61040043Y-49108119D01*
X61047639Y-49108119D01*
X61205750Y-49108119D01*
X61205753Y-49108119D01*
X61358481Y-49067195D01*
X61425024Y-49028776D01*
X61432431Y-49024500D01*
X61487935Y-48992455D01*
X61495412Y-48988138D01*
X61504466Y-48979084D01*
X61565789Y-48945599D01*
X61635481Y-48950583D01*
G37*
%TD.AperFunction*%
%TA.AperFunction,Conductor*%
G36*
X63848107Y-48840185D02*
G01*
X63893862Y-48892989D01*
X63904686Y-48954227D01*
X63903814Y-48965299D01*
X63903814Y-49230903D01*
X63884129Y-49297942D01*
X63831325Y-49343697D01*
X63762167Y-49353641D01*
X63698611Y-49324616D01*
X63692133Y-49318584D01*
X63405730Y-49032181D01*
X63372245Y-48970858D01*
X63377229Y-48901166D01*
X63419101Y-48845233D01*
X63484565Y-48820816D01*
X63493411Y-48820500D01*
X63781068Y-48820500D01*
X63848107Y-48840185D01*
G37*
%TD.AperFunction*%
%TA.AperFunction,Conductor*%
G36*
X65264413Y-32445185D02*
G01*
X65310168Y-32497989D01*
X65320112Y-32567147D01*
X65291087Y-32630703D01*
X65285055Y-32637181D01*
X60349025Y-37573211D01*
X60310418Y-37611818D01*
X60237523Y-37684712D01*
X60149923Y-37815814D01*
X60149916Y-37815827D01*
X60089578Y-37961498D01*
X60089575Y-37961510D01*
X60058814Y-38116153D01*
X60058814Y-40433699D01*
X60039129Y-40500738D01*
X59986325Y-40546493D01*
X59969409Y-40552775D01*
X59898920Y-40573253D01*
X59898917Y-40573255D01*
X59757451Y-40656917D01*
X59757443Y-40656923D01*
X59641237Y-40773129D01*
X59641231Y-40773137D01*
X59557571Y-40914600D01*
X59557568Y-40914606D01*
X59511716Y-41072426D01*
X59511715Y-41072432D01*
X59508814Y-41109298D01*
X59508814Y-41540701D01*
X59511715Y-41577567D01*
X59511716Y-41577573D01*
X59557568Y-41735393D01*
X59557569Y-41735396D01*
X59557570Y-41735398D01*
X59594995Y-41798681D01*
X59641231Y-41876862D01*
X59641237Y-41876870D01*
X59757443Y-41993076D01*
X59757447Y-41993079D01*
X59757449Y-41993081D01*
X59898916Y-42076744D01*
X59940538Y-42088836D01*
X60056740Y-42122597D01*
X60056743Y-42122597D01*
X60056745Y-42122598D01*
X60093620Y-42125500D01*
X60780472Y-42125500D01*
X60938156Y-42125500D01*
X60976471Y-42125500D01*
X61043510Y-42145185D01*
X61045358Y-42146395D01*
X61157767Y-42221505D01*
X61157769Y-42221506D01*
X61157773Y-42221508D01*
X61280677Y-42272415D01*
X61321648Y-42289386D01*
X61321650Y-42289386D01*
X61321655Y-42289388D01*
X61495618Y-42323991D01*
X61495621Y-42323992D01*
X61495623Y-42323992D01*
X61673007Y-42323992D01*
X61673008Y-42323991D01*
X61730996Y-42312456D01*
X61846972Y-42289388D01*
X61846975Y-42289386D01*
X61846980Y-42289386D01*
X62010861Y-42221505D01*
X62158349Y-42122956D01*
X62283778Y-41997527D01*
X62382327Y-41850039D01*
X62450208Y-41686158D01*
X62454554Y-41664313D01*
X62484813Y-41512187D01*
X62484814Y-41512185D01*
X62484814Y-41334798D01*
X62484813Y-41334796D01*
X62450210Y-41160833D01*
X62450207Y-41160824D01*
X62444307Y-41146581D01*
X62419051Y-41085605D01*
X62382330Y-40996951D01*
X62382323Y-40996938D01*
X62283778Y-40849457D01*
X62283775Y-40849453D01*
X62158352Y-40724030D01*
X62158348Y-40724027D01*
X62010867Y-40625482D01*
X62010854Y-40625475D01*
X61846981Y-40557598D01*
X61846975Y-40557596D01*
X61759621Y-40540220D01*
X61697711Y-40507834D01*
X61663137Y-40447118D01*
X61659814Y-40418603D01*
X61659814Y-38577940D01*
X61679499Y-38510901D01*
X61696133Y-38490259D01*
X66419573Y-33766819D01*
X66480896Y-33733334D01*
X66507254Y-33730500D01*
X68856374Y-33730500D01*
X68923413Y-33750185D01*
X68944055Y-33766819D01*
X69674021Y-34496786D01*
X69674025Y-34496789D01*
X69805128Y-34584390D01*
X69805141Y-34584397D01*
X69950812Y-34644735D01*
X69950817Y-34644737D01*
X69961377Y-34646837D01*
X70023288Y-34679220D01*
X70057864Y-34739934D01*
X70054127Y-34809704D01*
X70013263Y-34866377D01*
X69974941Y-34886569D01*
X69961245Y-34890946D01*
X69943321Y-34892357D01*
X69787919Y-34937506D01*
X69755393Y-34956741D01*
X69742066Y-34961001D01*
X69720557Y-34961512D01*
X69699710Y-34966801D01*
X69684606Y-34962366D01*
X69672216Y-34962661D01*
X69659770Y-34955074D01*
X69641194Y-34949620D01*
X69620711Y-34937506D01*
X69620705Y-34937504D01*
X69465311Y-34892357D01*
X69465305Y-34892356D01*
X69429011Y-34889500D01*
X69429004Y-34889500D01*
X69019624Y-34889500D01*
X69019616Y-34889500D01*
X68983322Y-34892356D01*
X68983316Y-34892357D01*
X68827923Y-34937504D01*
X68827920Y-34937505D01*
X68688629Y-35019881D01*
X68688621Y-35019887D01*
X68574201Y-35134307D01*
X68574195Y-35134315D01*
X68491819Y-35273606D01*
X68491818Y-35273609D01*
X68446671Y-35429002D01*
X68446670Y-35429008D01*
X68443814Y-35465302D01*
X68443814Y-35934697D01*
X68446670Y-35970991D01*
X68446671Y-35970997D01*
X68475698Y-36070905D01*
X68475499Y-36140774D01*
X68437557Y-36199444D01*
X68373919Y-36228288D01*
X68356622Y-36229500D01*
X65105257Y-36229500D01*
X64952530Y-36270423D01*
X64952523Y-36270426D01*
X64815604Y-36349475D01*
X64815596Y-36349481D01*
X64703795Y-36461282D01*
X64703789Y-36461290D01*
X64624740Y-36598209D01*
X64624737Y-36598216D01*
X64583814Y-36750943D01*
X64583814Y-38425638D01*
X64564129Y-38492677D01*
X64547495Y-38513319D01*
X64484852Y-38575961D01*
X64484849Y-38575965D01*
X64386304Y-38723446D01*
X64386297Y-38723459D01*
X64318420Y-38887332D01*
X64318417Y-38887341D01*
X64283814Y-39061304D01*
X64283814Y-39238695D01*
X64318417Y-39412658D01*
X64318420Y-39412667D01*
X64386297Y-39576540D01*
X64386304Y-39576553D01*
X64484849Y-39724034D01*
X64484852Y-39724038D01*
X64610275Y-39849461D01*
X64610279Y-39849464D01*
X64757760Y-39948009D01*
X64757767Y-39948013D01*
X64823149Y-39975095D01*
X64877551Y-40018933D01*
X64899617Y-40085227D01*
X64882339Y-40152927D01*
X64863377Y-40177336D01*
X64295600Y-40745114D01*
X64183795Y-40856918D01*
X64183793Y-40856921D01*
X64150493Y-40914600D01*
X64150492Y-40914602D01*
X64104737Y-40993850D01*
X64104568Y-40994480D01*
X64063813Y-41146579D01*
X64063813Y-41146581D01*
X64063813Y-41314682D01*
X64063814Y-41314695D01*
X64063814Y-43033333D01*
X64044129Y-43100372D01*
X64027495Y-43121014D01*
X64014201Y-43134307D01*
X64014195Y-43134315D01*
X63931819Y-43273606D01*
X63931818Y-43273609D01*
X63886671Y-43429002D01*
X63886670Y-43429008D01*
X63883814Y-43465302D01*
X63883814Y-43934697D01*
X63886670Y-43970991D01*
X63886671Y-43970997D01*
X63931818Y-44126390D01*
X63931819Y-44126393D01*
X63931820Y-44126395D01*
X63965594Y-44183503D01*
X64011192Y-44260607D01*
X64014197Y-44265687D01*
X64027494Y-44278984D01*
X64042201Y-44305917D01*
X64058791Y-44331731D01*
X64059682Y-44337928D01*
X64060980Y-44340305D01*
X64063814Y-44366666D01*
X64063814Y-44533333D01*
X64044129Y-44600372D01*
X64027495Y-44621014D01*
X64014201Y-44634307D01*
X64014195Y-44634315D01*
X63931819Y-44773606D01*
X63931818Y-44773609D01*
X63886671Y-44929002D01*
X63886670Y-44929008D01*
X63883814Y-44965302D01*
X63883814Y-45304922D01*
X63864129Y-45371961D01*
X63811325Y-45417716D01*
X63794410Y-45423998D01*
X63747922Y-45437504D01*
X63747920Y-45437505D01*
X63608629Y-45519881D01*
X63608621Y-45519887D01*
X63494201Y-45634307D01*
X63494195Y-45634315D01*
X63411819Y-45773606D01*
X63411818Y-45773609D01*
X63366671Y-45929002D01*
X63366670Y-45929008D01*
X63363814Y-45965302D01*
X63363814Y-46434697D01*
X63366670Y-46470989D01*
X63410312Y-46621206D01*
X63410112Y-46691076D01*
X63372169Y-46749746D01*
X63308531Y-46778589D01*
X63239401Y-46768448D01*
X63228114Y-46762533D01*
X63206492Y-46749746D01*
X63083707Y-46677131D01*
X63083702Y-46677129D01*
X62929522Y-46632335D01*
X62929516Y-46632334D01*
X62893495Y-46629500D01*
X62495144Y-46629500D01*
X62495122Y-46629501D01*
X62459108Y-46632335D01*
X62304925Y-46677129D01*
X62304918Y-46677132D01*
X62247433Y-46711128D01*
X62234549Y-46714396D01*
X62223642Y-46721993D01*
X62201339Y-46722821D01*
X62179709Y-46728309D01*
X62165549Y-46724151D01*
X62153820Y-46724587D01*
X62121193Y-46711127D01*
X62075839Y-46684305D01*
X62028156Y-46633236D01*
X62024399Y-46625025D01*
X61982329Y-46523459D01*
X61982327Y-46523453D01*
X61982325Y-46523451D01*
X61982325Y-46523449D01*
X61883778Y-46375965D01*
X61883775Y-46375961D01*
X61874008Y-46366194D01*
X61840523Y-46304871D01*
X61845507Y-46235179D01*
X61858587Y-46209622D01*
X61898759Y-46149500D01*
X61912338Y-46129178D01*
X61972681Y-45983496D01*
X62003444Y-45828841D01*
X62003444Y-45752178D01*
X62023129Y-45685139D01*
X62039764Y-45664496D01*
X62077390Y-45626870D01*
X62077395Y-45626865D01*
X62161058Y-45485398D01*
X62206912Y-45327569D01*
X62209814Y-45290694D01*
X62209814Y-44859306D01*
X62206912Y-44822431D01*
X62161058Y-44664602D01*
X62130316Y-44612621D01*
X62113134Y-44544898D01*
X62135294Y-44478635D01*
X62189760Y-44434872D01*
X62230346Y-44426829D01*
X62230311Y-44426562D01*
X62234435Y-44426018D01*
X62237049Y-44425501D01*
X62238368Y-44425501D01*
X62238371Y-44425501D01*
X62391099Y-44384577D01*
X62441218Y-44355639D01*
X62528030Y-44305520D01*
X62639834Y-44193716D01*
X62639834Y-44193714D01*
X62650042Y-44183507D01*
X62650045Y-44183503D01*
X62698976Y-44134573D01*
X62760299Y-44101089D01*
X62762465Y-44100638D01*
X62837366Y-44085738D01*
X62917811Y-44069737D01*
X63063493Y-44009394D01*
X63194603Y-43921789D01*
X63306103Y-43810289D01*
X63393708Y-43679179D01*
X63454051Y-43533497D01*
X63484814Y-43378842D01*
X63484814Y-43221158D01*
X63484814Y-43221155D01*
X63484813Y-43221153D01*
X63472036Y-43156919D01*
X63454051Y-43066503D01*
X63436653Y-43024500D01*
X63393711Y-42920827D01*
X63393704Y-42920814D01*
X63306103Y-42789711D01*
X63306100Y-42789707D01*
X63194606Y-42678213D01*
X63194602Y-42678210D01*
X63063499Y-42590609D01*
X63063486Y-42590602D01*
X62917815Y-42530264D01*
X62917803Y-42530261D01*
X62763159Y-42499500D01*
X62763156Y-42499500D01*
X62605472Y-42499500D01*
X62605469Y-42499500D01*
X62450824Y-42530261D01*
X62450812Y-42530264D01*
X62305141Y-42590602D01*
X62305128Y-42590609D01*
X62174025Y-42678210D01*
X62174021Y-42678213D01*
X62062527Y-42789707D01*
X62062524Y-42789711D01*
X61974923Y-42920814D01*
X61974918Y-42920824D01*
X61944392Y-42994521D01*
X61900551Y-43048924D01*
X61834256Y-43070989D01*
X61795236Y-43066144D01*
X61661887Y-43027402D01*
X61661881Y-43027401D01*
X61625015Y-43024500D01*
X61625008Y-43024500D01*
X60093620Y-43024500D01*
X60093612Y-43024500D01*
X60056746Y-43027401D01*
X60056740Y-43027402D01*
X59898920Y-43073254D01*
X59898917Y-43073255D01*
X59757451Y-43156917D01*
X59757443Y-43156923D01*
X59641237Y-43273129D01*
X59641231Y-43273137D01*
X59557569Y-43414603D01*
X59557568Y-43414606D01*
X59511716Y-43572426D01*
X59511715Y-43572432D01*
X59508814Y-43609298D01*
X59508814Y-44040701D01*
X59511715Y-44077567D01*
X59511716Y-44077573D01*
X59557568Y-44235393D01*
X59557569Y-44235396D01*
X59557570Y-44235398D01*
X59572481Y-44260611D01*
X59645204Y-44383580D01*
X59643233Y-44384745D01*
X59664546Y-44439058D01*
X59650854Y-44507573D01*
X59645178Y-44516404D01*
X59645204Y-44516420D01*
X59557569Y-44664603D01*
X59557568Y-44664606D01*
X59511716Y-44822426D01*
X59511715Y-44822432D01*
X59508814Y-44859298D01*
X59508814Y-45290701D01*
X59511715Y-45327567D01*
X59511716Y-45327573D01*
X59557568Y-45485393D01*
X59557569Y-45485396D01*
X59557570Y-45485398D01*
X59593187Y-45545623D01*
X59641231Y-45626862D01*
X59641237Y-45626870D01*
X59757443Y-45743076D01*
X59757447Y-45743079D01*
X59757449Y-45743081D01*
X59898916Y-45826744D01*
X59906134Y-45828841D01*
X60056740Y-45872597D01*
X60056743Y-45872597D01*
X60056745Y-45872598D01*
X60093620Y-45875500D01*
X60309961Y-45875500D01*
X60377000Y-45895185D01*
X60422755Y-45947989D01*
X60431578Y-45975309D01*
X60433205Y-45983488D01*
X60433208Y-45983500D01*
X60493546Y-46129171D01*
X60493553Y-46129184D01*
X60532376Y-46187286D01*
X60553254Y-46253964D01*
X60534770Y-46321344D01*
X60516956Y-46343857D01*
X60484853Y-46375960D01*
X60484849Y-46375965D01*
X60386304Y-46523446D01*
X60386297Y-46523459D01*
X60318420Y-46687332D01*
X60318417Y-46687341D01*
X60283814Y-46861304D01*
X60283814Y-47038695D01*
X60318417Y-47212658D01*
X60318420Y-47212667D01*
X60386297Y-47376540D01*
X60386304Y-47376553D01*
X60484849Y-47524034D01*
X60484852Y-47524038D01*
X60610275Y-47649461D01*
X60610279Y-47649464D01*
X60656002Y-47680016D01*
X60700807Y-47733629D01*
X60709514Y-47802954D01*
X60679359Y-47865981D01*
X60619916Y-47902700D01*
X60587111Y-47907118D01*
X59463363Y-47907118D01*
X59455756Y-47907117D01*
X59455753Y-47907117D01*
X59387925Y-47907117D01*
X59320886Y-47887432D01*
X59275132Y-47834627D01*
X59265189Y-47765468D01*
X59288284Y-47714900D01*
X59294214Y-47701914D01*
X59300246Y-47695436D01*
X59315666Y-47680016D01*
X59352026Y-47643656D01*
X59444128Y-47494334D01*
X59499313Y-47327797D01*
X59509814Y-47225009D01*
X59509813Y-46624992D01*
X59507644Y-46603763D01*
X59499313Y-46522203D01*
X59499312Y-46522200D01*
X59484305Y-46476913D01*
X59444128Y-46355666D01*
X59352026Y-46206344D01*
X59227970Y-46082288D01*
X59114953Y-46012579D01*
X59078650Y-45990187D01*
X59078645Y-45990185D01*
X59058435Y-45983488D01*
X58912111Y-45935001D01*
X58912109Y-45935000D01*
X58809324Y-45924500D01*
X56509312Y-45924500D01*
X56509295Y-45924501D01*
X56406517Y-45935000D01*
X56406514Y-45935001D01*
X56239982Y-45990185D01*
X56239973Y-45990190D01*
X56173910Y-46030937D01*
X56106517Y-46049377D01*
X56039854Y-46028454D01*
X55995085Y-45974811D01*
X55984814Y-45925398D01*
X55984814Y-40474601D01*
X56004499Y-40407562D01*
X56057303Y-40361807D01*
X56126461Y-40351863D01*
X56173908Y-40369061D01*
X56239980Y-40409814D01*
X56406517Y-40464999D01*
X56509305Y-40475500D01*
X58809322Y-40475499D01*
X58814462Y-40474974D01*
X58827209Y-40473671D01*
X58912111Y-40464999D01*
X59078648Y-40409814D01*
X59227970Y-40317712D01*
X59352026Y-40193656D01*
X59444128Y-40044334D01*
X59499313Y-39877797D01*
X59509814Y-39775009D01*
X59509813Y-39174992D01*
X59499313Y-39072203D01*
X59444128Y-38905666D01*
X59352026Y-38756344D01*
X59227970Y-38632288D01*
X59093893Y-38549589D01*
X59078650Y-38540187D01*
X59078645Y-38540185D01*
X59077176Y-38539698D01*
X58912111Y-38485001D01*
X58912109Y-38485000D01*
X58809324Y-38474500D01*
X56509312Y-38474500D01*
X56509295Y-38474501D01*
X56406517Y-38485000D01*
X56406514Y-38485001D01*
X56239982Y-38540185D01*
X56239973Y-38540190D01*
X56173910Y-38580937D01*
X56106517Y-38599377D01*
X56039854Y-38578454D01*
X55995085Y-38524811D01*
X55984814Y-38475398D01*
X55984814Y-35128480D01*
X55985009Y-35121527D01*
X55993886Y-34963451D01*
X56001398Y-34829691D01*
X56002952Y-34815900D01*
X56013518Y-34753711D01*
X56583814Y-34753711D01*
X56583814Y-34996288D01*
X56604292Y-35151842D01*
X56615476Y-35236789D01*
X56625341Y-35273605D01*
X56678261Y-35471104D01*
X56770915Y-35694789D01*
X56771090Y-35695212D01*
X56892378Y-35905289D01*
X56892380Y-35905292D01*
X56892381Y-35905293D01*
X57040047Y-36097736D01*
X57040053Y-36097743D01*
X57211570Y-36269260D01*
X57211577Y-36269266D01*
X57221832Y-36277135D01*
X57404025Y-36416936D01*
X57614102Y-36538224D01*
X57838214Y-36631054D01*
X58072525Y-36693838D01*
X58252900Y-36717584D01*
X58313025Y-36725500D01*
X58313026Y-36725500D01*
X58555603Y-36725500D01*
X58603702Y-36719167D01*
X58796103Y-36693838D01*
X59030414Y-36631054D01*
X59254526Y-36538224D01*
X59464603Y-36416936D01*
X59657052Y-36269265D01*
X59828579Y-36097738D01*
X59976250Y-35905289D01*
X60097538Y-35695212D01*
X60190368Y-35471100D01*
X60253152Y-35236789D01*
X60284814Y-34996288D01*
X60284814Y-34753712D01*
X60253152Y-34513211D01*
X60190368Y-34278900D01*
X60097538Y-34054788D01*
X59976250Y-33844711D01*
X59906787Y-33754185D01*
X59828580Y-33652263D01*
X59828574Y-33652256D01*
X59657057Y-33480739D01*
X59657050Y-33480733D01*
X59464607Y-33333067D01*
X59464606Y-33333066D01*
X59464603Y-33333064D01*
X59254526Y-33211776D01*
X59254519Y-33211773D01*
X59030418Y-33118947D01*
X58796099Y-33056161D01*
X58555603Y-33024500D01*
X58555602Y-33024500D01*
X58313026Y-33024500D01*
X58313025Y-33024500D01*
X58072528Y-33056161D01*
X57838209Y-33118947D01*
X57614108Y-33211773D01*
X57614099Y-33211777D01*
X57404020Y-33333067D01*
X57211577Y-33480733D01*
X57211570Y-33480739D01*
X57040053Y-33652256D01*
X57040047Y-33652263D01*
X56892381Y-33844706D01*
X56771091Y-34054785D01*
X56771087Y-34054794D01*
X56678261Y-34278895D01*
X56615475Y-34513214D01*
X56583814Y-34753711D01*
X56013518Y-34753711D01*
X56051329Y-34531167D01*
X56054423Y-34517615D01*
X56062524Y-34489498D01*
X56134375Y-34240096D01*
X56138967Y-34226975D01*
X56249489Y-33960151D01*
X56255509Y-33947651D01*
X56395216Y-33694869D01*
X56402611Y-33683101D01*
X56424492Y-33652263D01*
X56569742Y-33447551D01*
X56578393Y-33436704D01*
X56770841Y-33221356D01*
X56780672Y-33211526D01*
X56996018Y-33019079D01*
X57006865Y-33010428D01*
X57242420Y-32843293D01*
X57254183Y-32835902D01*
X57506965Y-32696195D01*
X57519465Y-32690175D01*
X57786293Y-32579651D01*
X57799410Y-32575061D01*
X58076935Y-32495107D01*
X58090481Y-32492015D01*
X58375212Y-32443638D01*
X58389005Y-32442084D01*
X58680842Y-32425695D01*
X58687795Y-32425500D01*
X58731909Y-32425500D01*
X65197374Y-32425500D01*
X65264413Y-32445185D01*
G37*
%TD.AperFunction*%
%TA.AperFunction,Conductor*%
G36*
X68492441Y-40696054D02*
G01*
X68509796Y-40707206D01*
X68569081Y-40752698D01*
X68709078Y-40810687D01*
X68815900Y-40824750D01*
X68821578Y-40825498D01*
X68821594Y-40825500D01*
X68821601Y-40825500D01*
X69047027Y-40825500D01*
X69047034Y-40825500D01*
X69159550Y-40810687D01*
X69159550Y-40810686D01*
X69167609Y-40809626D01*
X69168012Y-40812689D01*
X69200616Y-40812689D01*
X69201019Y-40809626D01*
X69209077Y-40810686D01*
X69209078Y-40810687D01*
X69321594Y-40825500D01*
X69321601Y-40825500D01*
X69547027Y-40825500D01*
X69547034Y-40825500D01*
X69589409Y-40819921D01*
X69658443Y-40830686D01*
X69710699Y-40877066D01*
X69729594Y-40942860D01*
X69729594Y-41034016D01*
X69729593Y-41034016D01*
X69770518Y-41186748D01*
X69770519Y-41186749D01*
X69792892Y-41225500D01*
X69844381Y-41314682D01*
X69849576Y-41323679D01*
X69968444Y-41442547D01*
X69968450Y-41442552D01*
X74048967Y-45523069D01*
X74082452Y-45584392D01*
X74085286Y-45610750D01*
X74085286Y-46690224D01*
X74065601Y-46757263D01*
X74012797Y-46803018D01*
X73943639Y-46812962D01*
X73892395Y-46793326D01*
X73813499Y-46740609D01*
X73813486Y-46740602D01*
X73667815Y-46680264D01*
X73667805Y-46680261D01*
X73512465Y-46649362D01*
X73450555Y-46616977D01*
X73448976Y-46615426D01*
X70621904Y-43788355D01*
X70621902Y-43788352D01*
X70503031Y-43669481D01*
X70503030Y-43669480D01*
X70416218Y-43619360D01*
X70416218Y-43619359D01*
X70416214Y-43619358D01*
X70366099Y-43590423D01*
X70213371Y-43549499D01*
X70055257Y-43549499D01*
X70047661Y-43549499D01*
X70047645Y-43549500D01*
X67670036Y-43549500D01*
X67602997Y-43529815D01*
X67557242Y-43477011D01*
X67547097Y-43409314D01*
X67551109Y-43378844D01*
X67559814Y-43312720D01*
X67559814Y-43087280D01*
X67545001Y-42974764D01*
X67545000Y-42974763D01*
X67543940Y-42966705D01*
X67547003Y-42966301D01*
X67547003Y-42933698D01*
X67543940Y-42933295D01*
X67545311Y-42922880D01*
X67559814Y-42812720D01*
X67559814Y-42587280D01*
X67545001Y-42474764D01*
X67545000Y-42474763D01*
X67543940Y-42466705D01*
X67547003Y-42466301D01*
X67547003Y-42433698D01*
X67543940Y-42433295D01*
X67545001Y-42425236D01*
X67559814Y-42312720D01*
X67559814Y-42087280D01*
X67545001Y-41974764D01*
X67545000Y-41974763D01*
X67543940Y-41966705D01*
X67547003Y-41966301D01*
X67547003Y-41933698D01*
X67543940Y-41933295D01*
X67551369Y-41876865D01*
X67559814Y-41812720D01*
X67559814Y-41587280D01*
X67545001Y-41474764D01*
X67545000Y-41474763D01*
X67543940Y-41466705D01*
X67547003Y-41466301D01*
X67547003Y-41433698D01*
X67543940Y-41433295D01*
X67545756Y-41419500D01*
X67559814Y-41312720D01*
X67559814Y-41087280D01*
X67559593Y-41085605D01*
X67547597Y-40994481D01*
X67545001Y-40974764D01*
X67543541Y-40971240D01*
X67543196Y-40968030D01*
X67542897Y-40966913D01*
X67543071Y-40966866D01*
X67536072Y-40901775D01*
X67567344Y-40839295D01*
X67627432Y-40803641D01*
X67697258Y-40806132D01*
X67705534Y-40809219D01*
X67709078Y-40810687D01*
X67802669Y-40823008D01*
X67821578Y-40825498D01*
X67821594Y-40825500D01*
X67821601Y-40825500D01*
X68047027Y-40825500D01*
X68047034Y-40825500D01*
X68159550Y-40810687D01*
X68299547Y-40752698D01*
X68358828Y-40707209D01*
X68423997Y-40682016D01*
X68492441Y-40696054D01*
G37*
%TD.AperFunction*%
%TA.AperFunction,Conductor*%
G36*
X85505545Y-43345185D02*
G01*
X85526188Y-43361820D01*
X85557443Y-43393076D01*
X85557447Y-43393079D01*
X85557449Y-43393081D01*
X85698916Y-43476744D01*
X85740538Y-43488836D01*
X85856740Y-43522597D01*
X85856743Y-43522597D01*
X85856745Y-43522598D01*
X85893620Y-43525500D01*
X87084814Y-43525500D01*
X87151853Y-43545185D01*
X87197608Y-43597989D01*
X87208814Y-43649500D01*
X87208814Y-44300500D01*
X87189129Y-44367539D01*
X87136325Y-44413294D01*
X87084814Y-44424500D01*
X85893612Y-44424500D01*
X85856746Y-44427401D01*
X85856740Y-44427402D01*
X85698920Y-44473254D01*
X85698915Y-44473256D01*
X85656873Y-44498119D01*
X85589149Y-44515300D01*
X85522887Y-44493140D01*
X85479124Y-44438673D01*
X85473882Y-44420841D01*
X85473747Y-44420881D01*
X85427184Y-44260611D01*
X85427183Y-44260607D01*
X85345449Y-44122402D01*
X85345447Y-44122400D01*
X85345444Y-44122396D01*
X85231917Y-44008869D01*
X85231909Y-44008863D01*
X85093707Y-43927131D01*
X85093702Y-43927129D01*
X84939522Y-43882335D01*
X84939516Y-43882334D01*
X84903502Y-43879500D01*
X84714486Y-43879500D01*
X84647447Y-43859815D01*
X84601692Y-43807011D01*
X84591748Y-43737853D01*
X84620773Y-43674297D01*
X84626772Y-43667852D01*
X84932809Y-43361816D01*
X84994130Y-43328334D01*
X85020488Y-43325500D01*
X85438506Y-43325500D01*
X85505545Y-43345185D01*
G37*
%TD.AperFunction*%
%TA.AperFunction,Conductor*%
G36*
X76129109Y-32445185D02*
G01*
X76174864Y-32497989D01*
X76185359Y-32562752D01*
X76183814Y-32577127D01*
X76183814Y-32577133D01*
X76183814Y-32577134D01*
X76183814Y-33422870D01*
X76183815Y-33422876D01*
X76190222Y-33482483D01*
X76240516Y-33617328D01*
X76240520Y-33617335D01*
X76326766Y-33732544D01*
X76326769Y-33732547D01*
X76441978Y-33818793D01*
X76441985Y-33818797D01*
X76576831Y-33869091D01*
X76576830Y-33869091D01*
X76583758Y-33869835D01*
X76636441Y-33875500D01*
X77732186Y-33875499D01*
X77791797Y-33869091D01*
X77926645Y-33818796D01*
X77985003Y-33775108D01*
X78050467Y-33750692D01*
X78118740Y-33765543D01*
X78133625Y-33775109D01*
X78191983Y-33818796D01*
X78191985Y-33818797D01*
X78326831Y-33869091D01*
X78326830Y-33869091D01*
X78333758Y-33869835D01*
X78386441Y-33875500D01*
X79482186Y-33875499D01*
X79541797Y-33869091D01*
X79676645Y-33818796D01*
X79791860Y-33732546D01*
X79878110Y-33617331D01*
X79928405Y-33482483D01*
X79934814Y-33422873D01*
X79934813Y-32577128D01*
X79933268Y-32562752D01*
X79945675Y-32493993D01*
X79993287Y-32442857D01*
X80056558Y-32425500D01*
X83812070Y-32425500D01*
X83879109Y-32445185D01*
X83924864Y-32497989D01*
X83935359Y-32562752D01*
X83933814Y-32577127D01*
X83933814Y-32577133D01*
X83933814Y-32577134D01*
X83933814Y-33422870D01*
X83933815Y-33422876D01*
X83940222Y-33482483D01*
X83990516Y-33617328D01*
X83990520Y-33617335D01*
X84076766Y-33732544D01*
X84076769Y-33732547D01*
X84191978Y-33818793D01*
X84191985Y-33818797D01*
X84326831Y-33869091D01*
X84326830Y-33869091D01*
X84333758Y-33869835D01*
X84386441Y-33875500D01*
X85482186Y-33875499D01*
X85541797Y-33869091D01*
X85676645Y-33818796D01*
X85791860Y-33732546D01*
X85878110Y-33617331D01*
X85928405Y-33482483D01*
X85934814Y-33422873D01*
X85934813Y-32577128D01*
X85933268Y-32562752D01*
X85945675Y-32493993D01*
X85993287Y-32442857D01*
X86056558Y-32425500D01*
X88636719Y-32425500D01*
X88680833Y-32425500D01*
X88687786Y-32425695D01*
X88979620Y-32442084D01*
X88993417Y-32443638D01*
X89278141Y-32492015D01*
X89291696Y-32495108D01*
X89430455Y-32535084D01*
X89569213Y-32575060D01*
X89582339Y-32579653D01*
X89849155Y-32690172D01*
X89861669Y-32696198D01*
X89990379Y-32767334D01*
X90114438Y-32835899D01*
X90126212Y-32843297D01*
X90361753Y-33010422D01*
X90372617Y-33019087D01*
X90401701Y-33045078D01*
X90587955Y-33211526D01*
X90597787Y-33221358D01*
X90690365Y-33324952D01*
X90777872Y-33422872D01*
X90790223Y-33436692D01*
X90798894Y-33447564D01*
X90966016Y-33683101D01*
X90973414Y-33694875D01*
X91113111Y-33947637D01*
X91119144Y-33960165D01*
X91229660Y-34226975D01*
X91234253Y-34240100D01*
X91314204Y-34517615D01*
X91317298Y-34531172D01*
X91365673Y-34815885D01*
X91367230Y-34829703D01*
X91383619Y-35121527D01*
X91383814Y-35128480D01*
X91383814Y-38553314D01*
X91364129Y-38620353D01*
X91311325Y-38666108D01*
X91242167Y-38676052D01*
X91220811Y-38671020D01*
X91112113Y-38635001D01*
X91112109Y-38635000D01*
X91009324Y-38624500D01*
X88709312Y-38624500D01*
X88709295Y-38624501D01*
X88606517Y-38635000D01*
X88606514Y-38635001D01*
X88439982Y-38690185D01*
X88439977Y-38690187D01*
X88290656Y-38782289D01*
X88166603Y-38906342D01*
X88074501Y-39055663D01*
X88074499Y-39055668D01*
X88072630Y-39061309D01*
X88019315Y-39222203D01*
X88019315Y-39222204D01*
X88019314Y-39222204D01*
X88008814Y-39324983D01*
X88008814Y-39925001D01*
X88008815Y-39925019D01*
X88019314Y-40027796D01*
X88019315Y-40027799D01*
X88038345Y-40085227D01*
X88074500Y-40194334D01*
X88074502Y-40194338D01*
X88074505Y-40194343D01*
X88090704Y-40220607D01*
X88109143Y-40287999D01*
X88088219Y-40354662D01*
X88034576Y-40399431D01*
X87965245Y-40408091D01*
X87902238Y-40377893D01*
X87897498Y-40373396D01*
X86362455Y-38838354D01*
X86362454Y-38838352D01*
X86243584Y-38719482D01*
X86243582Y-38719480D01*
X86192845Y-38690187D01*
X86191581Y-38689457D01*
X86150481Y-38650963D01*
X86133778Y-38625965D01*
X86133774Y-38625961D01*
X86133772Y-38625958D01*
X86008352Y-38500538D01*
X86008348Y-38500535D01*
X85860867Y-38401990D01*
X85860854Y-38401983D01*
X85696981Y-38334106D01*
X85696972Y-38334103D01*
X85523008Y-38299500D01*
X85523005Y-38299500D01*
X85345623Y-38299500D01*
X85345620Y-38299500D01*
X85171655Y-38334103D01*
X85171646Y-38334106D01*
X85007773Y-38401983D01*
X85007760Y-38401990D01*
X84860279Y-38500535D01*
X84860275Y-38500538D01*
X84734852Y-38625961D01*
X84734849Y-38625965D01*
X84636304Y-38773446D01*
X84636297Y-38773459D01*
X84568420Y-38937332D01*
X84568417Y-38937341D01*
X84533814Y-39111304D01*
X84533814Y-39288695D01*
X84568417Y-39462658D01*
X84568420Y-39462667D01*
X84636297Y-39626540D01*
X84636304Y-39626553D01*
X84734849Y-39774034D01*
X84734852Y-39774038D01*
X84860275Y-39899461D01*
X84860279Y-39899464D01*
X85007760Y-39998009D01*
X85007773Y-39998016D01*
X85119590Y-40044331D01*
X85171648Y-40065894D01*
X85171650Y-40065894D01*
X85171655Y-40065896D01*
X85345618Y-40100499D01*
X85345621Y-40100500D01*
X85345623Y-40100500D01*
X85523007Y-40100500D01*
X85523008Y-40100499D01*
X85696980Y-40065894D01*
X85757997Y-40040619D01*
X85827464Y-40033150D01*
X85889943Y-40064424D01*
X85893130Y-40067499D01*
X86288449Y-40462819D01*
X86321934Y-40524142D01*
X86316950Y-40593834D01*
X86275078Y-40649767D01*
X86209614Y-40674184D01*
X86200768Y-40674500D01*
X85893612Y-40674500D01*
X85856746Y-40677401D01*
X85856740Y-40677402D01*
X85698920Y-40723254D01*
X85698917Y-40723255D01*
X85557451Y-40806917D01*
X85557443Y-40806923D01*
X85526188Y-40838180D01*
X85499257Y-40852885D01*
X85473441Y-40869477D01*
X85467242Y-40870368D01*
X85464866Y-40871666D01*
X85438506Y-40874500D01*
X85253393Y-40874500D01*
X85253377Y-40874499D01*
X85245781Y-40874499D01*
X85087667Y-40874499D01*
X84980311Y-40903265D01*
X84934934Y-40915424D01*
X84934933Y-40915425D01*
X84884820Y-40944359D01*
X84884819Y-40944360D01*
X84852637Y-40962940D01*
X84798009Y-40994479D01*
X84798006Y-40994481D01*
X84686202Y-41106286D01*
X84075481Y-41717006D01*
X84014158Y-41750491D01*
X83944466Y-41745507D01*
X83888533Y-41703635D01*
X83881072Y-41692452D01*
X83864431Y-41664313D01*
X83864429Y-41664311D01*
X83864426Y-41664307D01*
X83750006Y-41549887D01*
X83749998Y-41549881D01*
X83665459Y-41499885D01*
X83610709Y-41467506D01*
X83610708Y-41467505D01*
X83610707Y-41467505D01*
X83610704Y-41467504D01*
X83455311Y-41422357D01*
X83455305Y-41422356D01*
X83419011Y-41419500D01*
X83419004Y-41419500D01*
X83033814Y-41419500D01*
X82966775Y-41399815D01*
X82921020Y-41347011D01*
X82909814Y-41295500D01*
X82909814Y-41087286D01*
X82909813Y-41087272D01*
X82905616Y-41055392D01*
X82895001Y-40974764D01*
X82837012Y-40834767D01*
X82744765Y-40714549D01*
X82624547Y-40622302D01*
X82619909Y-40620381D01*
X82608220Y-40615539D01*
X82601358Y-40612696D01*
X82585794Y-40600154D01*
X82567611Y-40591850D01*
X82559146Y-40578679D01*
X82546956Y-40568855D01*
X82540643Y-40549887D01*
X82529837Y-40533072D01*
X82525873Y-40505506D01*
X82524893Y-40502560D01*
X82524814Y-40498137D01*
X82524814Y-40292940D01*
X82544499Y-40225901D01*
X82561133Y-40205259D01*
X83036103Y-39730289D01*
X84091390Y-38675002D01*
X85154573Y-37611817D01*
X85215896Y-37578333D01*
X85242254Y-37575499D01*
X85482185Y-37575499D01*
X85482186Y-37575499D01*
X85541797Y-37569091D01*
X85676645Y-37518796D01*
X85791860Y-37432546D01*
X85878110Y-37317331D01*
X85928405Y-37182483D01*
X85934814Y-37122873D01*
X85934813Y-36277128D01*
X85928405Y-36217517D01*
X85928405Y-36217516D01*
X85875011Y-36074359D01*
X85877811Y-36073314D01*
X85866138Y-36019692D01*
X85886721Y-35959628D01*
X85972730Y-35830908D01*
X85982322Y-35816553D01*
X85982323Y-35816550D01*
X85982327Y-35816545D01*
X85984107Y-35812249D01*
X86032759Y-35694789D01*
X86050208Y-35652664D01*
X86059439Y-35606260D01*
X86084813Y-35478693D01*
X86084814Y-35478691D01*
X86084814Y-35301304D01*
X86084813Y-35301302D01*
X86050210Y-35127339D01*
X86050207Y-35127330D01*
X86047803Y-35121527D01*
X86032855Y-35085438D01*
X85982330Y-34963457D01*
X85982323Y-34963444D01*
X85885504Y-34818546D01*
X85885503Y-34818545D01*
X85883775Y-34815959D01*
X85821527Y-34753711D01*
X87083814Y-34753711D01*
X87083814Y-34996288D01*
X87104292Y-35151842D01*
X87115476Y-35236789D01*
X87125341Y-35273605D01*
X87178261Y-35471104D01*
X87270915Y-35694789D01*
X87271090Y-35695212D01*
X87392378Y-35905289D01*
X87392380Y-35905292D01*
X87392381Y-35905293D01*
X87540047Y-36097736D01*
X87540053Y-36097743D01*
X87711570Y-36269260D01*
X87711577Y-36269266D01*
X87721832Y-36277135D01*
X87904025Y-36416936D01*
X88114102Y-36538224D01*
X88338214Y-36631054D01*
X88572525Y-36693838D01*
X88752900Y-36717584D01*
X88813025Y-36725500D01*
X88813026Y-36725500D01*
X89055603Y-36725500D01*
X89103702Y-36719167D01*
X89296103Y-36693838D01*
X89530414Y-36631054D01*
X89754526Y-36538224D01*
X89964603Y-36416936D01*
X90157052Y-36269265D01*
X90328579Y-36097738D01*
X90476250Y-35905289D01*
X90597538Y-35695212D01*
X90690368Y-35471100D01*
X90753152Y-35236789D01*
X90784814Y-34996288D01*
X90784814Y-34753712D01*
X90753152Y-34513211D01*
X90690368Y-34278900D01*
X90597538Y-34054788D01*
X90476250Y-33844711D01*
X90406787Y-33754185D01*
X90328580Y-33652263D01*
X90328574Y-33652256D01*
X90157057Y-33480739D01*
X90157050Y-33480733D01*
X89964607Y-33333067D01*
X89964606Y-33333066D01*
X89964603Y-33333064D01*
X89754526Y-33211776D01*
X89754519Y-33211773D01*
X89530418Y-33118947D01*
X89296099Y-33056161D01*
X89055603Y-33024500D01*
X89055602Y-33024500D01*
X88813026Y-33024500D01*
X88813025Y-33024500D01*
X88572528Y-33056161D01*
X88338209Y-33118947D01*
X88114108Y-33211773D01*
X88114099Y-33211777D01*
X87904020Y-33333067D01*
X87711577Y-33480733D01*
X87711570Y-33480739D01*
X87540053Y-33652256D01*
X87540047Y-33652263D01*
X87392381Y-33844706D01*
X87271091Y-34054785D01*
X87271087Y-34054794D01*
X87178261Y-34278895D01*
X87115475Y-34513214D01*
X87083814Y-34753711D01*
X85821527Y-34753711D01*
X85758352Y-34690536D01*
X85758348Y-34690533D01*
X85610867Y-34591988D01*
X85610854Y-34591981D01*
X85446981Y-34524104D01*
X85446972Y-34524101D01*
X85273008Y-34489498D01*
X85273005Y-34489498D01*
X85095623Y-34489498D01*
X85095620Y-34489498D01*
X84921655Y-34524101D01*
X84921646Y-34524104D01*
X84757773Y-34591981D01*
X84757760Y-34591988D01*
X84610279Y-34690533D01*
X84610275Y-34690536D01*
X84484852Y-34815959D01*
X84484849Y-34815963D01*
X84386299Y-34963453D01*
X84329476Y-35100637D01*
X84315323Y-35124255D01*
X84315908Y-35124646D01*
X84224923Y-35260812D01*
X84224916Y-35260825D01*
X84164578Y-35406496D01*
X84164575Y-35406508D01*
X84133814Y-35561151D01*
X84133814Y-35862679D01*
X84114129Y-35929718D01*
X84084127Y-35961944D01*
X84076773Y-35967449D01*
X84076765Y-35967457D01*
X83990520Y-36082664D01*
X83990516Y-36082671D01*
X83940222Y-36217517D01*
X83934660Y-36269260D01*
X83933815Y-36277123D01*
X83933814Y-36277135D01*
X83933814Y-36517059D01*
X83914129Y-36584098D01*
X83897495Y-36604740D01*
X82940322Y-37561912D01*
X82878999Y-37595397D01*
X82809307Y-37590413D01*
X82764960Y-37561912D01*
X82761917Y-37558869D01*
X82761909Y-37558863D01*
X82623707Y-37477131D01*
X82623702Y-37477129D01*
X82469522Y-37432335D01*
X82469516Y-37432334D01*
X82433502Y-37429500D01*
X82433495Y-37429500D01*
X82314411Y-37429500D01*
X82284970Y-37420855D01*
X82254984Y-37414332D01*
X82249968Y-37410577D01*
X82247372Y-37409815D01*
X82226730Y-37393181D01*
X82091904Y-37258355D01*
X82091902Y-37258352D01*
X81973031Y-37139481D01*
X81973023Y-37139475D01*
X81868586Y-37079179D01*
X81868583Y-37079178D01*
X81836100Y-37060423D01*
X81836101Y-37060423D01*
X81775007Y-37044053D01*
X81683371Y-37019499D01*
X81525257Y-37019499D01*
X81517661Y-37019499D01*
X81517645Y-37019500D01*
X80058814Y-37019500D01*
X79991775Y-36999815D01*
X79946020Y-36947011D01*
X79934814Y-36895500D01*
X79934813Y-36277129D01*
X79934812Y-36277123D01*
X79934811Y-36277116D01*
X79928405Y-36217517D01*
X79921664Y-36199444D01*
X79878111Y-36082671D01*
X79878107Y-36082664D01*
X79791861Y-35967455D01*
X79791858Y-35967452D01*
X79676649Y-35881206D01*
X79676642Y-35881202D01*
X79541797Y-35830908D01*
X79506357Y-35827098D01*
X79483555Y-35817652D01*
X79459476Y-35812249D01*
X79448579Y-35803164D01*
X79441807Y-35800359D01*
X79431361Y-35790913D01*
X79424119Y-35783576D01*
X79421725Y-35779992D01*
X79334322Y-35692589D01*
X79261132Y-35619399D01*
X79227647Y-35558076D01*
X79224813Y-35531718D01*
X79224813Y-35450831D01*
X79224812Y-35450806D01*
X79223097Y-35429008D01*
X79221979Y-35414796D01*
X79177183Y-35260607D01*
X79095449Y-35122402D01*
X79095447Y-35122400D01*
X79095444Y-35122396D01*
X78981917Y-35008869D01*
X78981909Y-35008863D01*
X78843707Y-34927131D01*
X78843702Y-34927129D01*
X78689522Y-34882335D01*
X78689516Y-34882334D01*
X78653502Y-34879500D01*
X78653495Y-34879500D01*
X78534411Y-34879500D01*
X78504970Y-34870855D01*
X78474984Y-34864332D01*
X78469968Y-34860577D01*
X78467372Y-34859815D01*
X78446730Y-34843181D01*
X78314904Y-34711355D01*
X78314902Y-34711352D01*
X78196031Y-34592481D01*
X78196030Y-34592480D01*
X78109218Y-34542360D01*
X78109218Y-34542359D01*
X78109214Y-34542358D01*
X78059099Y-34513423D01*
X77906371Y-34472499D01*
X77748257Y-34472499D01*
X77740661Y-34472499D01*
X77740645Y-34472500D01*
X76264080Y-34472500D01*
X76197041Y-34452815D01*
X76195189Y-34451602D01*
X76063499Y-34363609D01*
X76063486Y-34363602D01*
X75917815Y-34303264D01*
X75917803Y-34303261D01*
X75763159Y-34272500D01*
X75763156Y-34272500D01*
X75605472Y-34272500D01*
X75605469Y-34272500D01*
X75450824Y-34303261D01*
X75450812Y-34303264D01*
X75305141Y-34363602D01*
X75305128Y-34363609D01*
X75174025Y-34451210D01*
X75174021Y-34451213D01*
X75062527Y-34562707D01*
X75062524Y-34562711D01*
X74974923Y-34693814D01*
X74974916Y-34693827D01*
X74914578Y-34839498D01*
X74914575Y-34839510D01*
X74883814Y-34994153D01*
X74883814Y-35151846D01*
X74914575Y-35306489D01*
X74914578Y-35306501D01*
X74974916Y-35452172D01*
X74974923Y-35452185D01*
X75062524Y-35583288D01*
X75062527Y-35583292D01*
X75174021Y-35694786D01*
X75174025Y-35694789D01*
X75305128Y-35782390D01*
X75305141Y-35782397D01*
X75422259Y-35830908D01*
X75450817Y-35842737D01*
X75551072Y-35862679D01*
X75605467Y-35873499D01*
X75605470Y-35873500D01*
X75605472Y-35873500D01*
X75763158Y-35873500D01*
X75763159Y-35873499D01*
X75917811Y-35842737D01*
X76063493Y-35782394D01*
X76068969Y-35778735D01*
X76195189Y-35694398D01*
X76261867Y-35673520D01*
X76264080Y-35673500D01*
X77527217Y-35673500D01*
X77556657Y-35682144D01*
X77586644Y-35688668D01*
X77591659Y-35692422D01*
X77594256Y-35693185D01*
X77614898Y-35709819D01*
X77647495Y-35742416D01*
X77680980Y-35803739D01*
X77683814Y-35830096D01*
X77683814Y-35949168D01*
X77683815Y-35949192D01*
X77686649Y-35985205D01*
X77731443Y-36139388D01*
X77731445Y-36139393D01*
X77812901Y-36277129D01*
X77813179Y-36277598D01*
X77897496Y-36361915D01*
X77930980Y-36423236D01*
X77933814Y-36449595D01*
X77933814Y-36988342D01*
X77914129Y-37055381D01*
X77861325Y-37101136D01*
X77792167Y-37111080D01*
X77762363Y-37102904D01*
X77759083Y-37101545D01*
X77716980Y-37084106D01*
X77716976Y-37084105D01*
X77716972Y-37084103D01*
X77543008Y-37049500D01*
X77543005Y-37049500D01*
X77365623Y-37049500D01*
X77365620Y-37049500D01*
X77191655Y-37084103D01*
X77191646Y-37084106D01*
X77027766Y-37151987D01*
X77027765Y-37151987D01*
X76976857Y-37186003D01*
X76910179Y-37206880D01*
X76844848Y-37189633D01*
X76823707Y-37177131D01*
X76823702Y-37177129D01*
X76669522Y-37132335D01*
X76669516Y-37132334D01*
X76633495Y-37129500D01*
X76235144Y-37129500D01*
X76235122Y-37129501D01*
X76199108Y-37132335D01*
X76044925Y-37177129D01*
X76044920Y-37177131D01*
X75906718Y-37258863D01*
X75906710Y-37258869D01*
X75793183Y-37372396D01*
X75793177Y-37372404D01*
X75711445Y-37510606D01*
X75711443Y-37510611D01*
X75666649Y-37664791D01*
X75666648Y-37664797D01*
X75663814Y-37700811D01*
X75663814Y-37700826D01*
X75663815Y-38100500D01*
X75644131Y-38167539D01*
X75591327Y-38213294D01*
X75539815Y-38224500D01*
X75321586Y-38224500D01*
X75234707Y-38235938D01*
X75209078Y-38239313D01*
X75209076Y-38239313D01*
X75201022Y-38240374D01*
X75200630Y-38237399D01*
X75167998Y-38237399D01*
X75167606Y-38240374D01*
X75159551Y-38239313D01*
X75159550Y-38239313D01*
X75128339Y-38235204D01*
X75047041Y-38224500D01*
X75047034Y-38224500D01*
X74821594Y-38224500D01*
X74821586Y-38224500D01*
X74734707Y-38235938D01*
X74709078Y-38239313D01*
X74709076Y-38239313D01*
X74701022Y-38240374D01*
X74700630Y-38237399D01*
X74667998Y-38237399D01*
X74667606Y-38240374D01*
X74659551Y-38239313D01*
X74659550Y-38239313D01*
X74628339Y-38235204D01*
X74547041Y-38224500D01*
X74547034Y-38224500D01*
X74321594Y-38224500D01*
X74321586Y-38224500D01*
X74234707Y-38235938D01*
X74209078Y-38239313D01*
X74209076Y-38239313D01*
X74201022Y-38240374D01*
X74200630Y-38237399D01*
X74167998Y-38237399D01*
X74167606Y-38240374D01*
X74159551Y-38239313D01*
X74159550Y-38239313D01*
X74128339Y-38235204D01*
X74047041Y-38224500D01*
X74047034Y-38224500D01*
X73821594Y-38224500D01*
X73821586Y-38224500D01*
X73734707Y-38235938D01*
X73709078Y-38239313D01*
X73709076Y-38239313D01*
X73701022Y-38240374D01*
X73700630Y-38237399D01*
X73667998Y-38237399D01*
X73667606Y-38240374D01*
X73659551Y-38239313D01*
X73659550Y-38239313D01*
X73628339Y-38235204D01*
X73547041Y-38224500D01*
X73547034Y-38224500D01*
X73321594Y-38224500D01*
X73321586Y-38224500D01*
X73234707Y-38235938D01*
X73209078Y-38239313D01*
X73209076Y-38239313D01*
X73201022Y-38240374D01*
X73200630Y-38237399D01*
X73167998Y-38237399D01*
X73167606Y-38240374D01*
X73159551Y-38239313D01*
X73159550Y-38239313D01*
X73128339Y-38235204D01*
X73047041Y-38224500D01*
X73047034Y-38224500D01*
X72821594Y-38224500D01*
X72821586Y-38224500D01*
X72734707Y-38235938D01*
X72709078Y-38239313D01*
X72709076Y-38239313D01*
X72701022Y-38240374D01*
X72700630Y-38237399D01*
X72667998Y-38237399D01*
X72667606Y-38240374D01*
X72659551Y-38239313D01*
X72659550Y-38239313D01*
X72628339Y-38235204D01*
X72547041Y-38224500D01*
X72547034Y-38224500D01*
X72321594Y-38224500D01*
X72321586Y-38224500D01*
X72234707Y-38235938D01*
X72209078Y-38239313D01*
X72209076Y-38239313D01*
X72201022Y-38240374D01*
X72200630Y-38237399D01*
X72167998Y-38237399D01*
X72167606Y-38240374D01*
X72159551Y-38239313D01*
X72159550Y-38239313D01*
X72128339Y-38235204D01*
X72047041Y-38224500D01*
X72047034Y-38224500D01*
X71821594Y-38224500D01*
X71821586Y-38224500D01*
X71734707Y-38235938D01*
X71709078Y-38239313D01*
X71709076Y-38239313D01*
X71701022Y-38240374D01*
X71700630Y-38237399D01*
X71667998Y-38237399D01*
X71667606Y-38240374D01*
X71659551Y-38239313D01*
X71659550Y-38239313D01*
X71628339Y-38235204D01*
X71547041Y-38224500D01*
X71547034Y-38224500D01*
X71321594Y-38224500D01*
X71321586Y-38224500D01*
X71234707Y-38235938D01*
X71209078Y-38239313D01*
X71209076Y-38239313D01*
X71201022Y-38240374D01*
X71200630Y-38237399D01*
X71167998Y-38237399D01*
X71167606Y-38240374D01*
X71159551Y-38239313D01*
X71159550Y-38239313D01*
X71128339Y-38235204D01*
X71047041Y-38224500D01*
X71047034Y-38224500D01*
X70821594Y-38224500D01*
X70821586Y-38224500D01*
X70734707Y-38235938D01*
X70709078Y-38239313D01*
X70709076Y-38239313D01*
X70701022Y-38240374D01*
X70700630Y-38237399D01*
X70667998Y-38237399D01*
X70667606Y-38240374D01*
X70659551Y-38239313D01*
X70659550Y-38239313D01*
X70628339Y-38235204D01*
X70547041Y-38224500D01*
X70547034Y-38224500D01*
X70321594Y-38224500D01*
X70321586Y-38224500D01*
X70234707Y-38235938D01*
X70209078Y-38239313D01*
X70209076Y-38239313D01*
X70201022Y-38240374D01*
X70200630Y-38237399D01*
X70167998Y-38237399D01*
X70167606Y-38240374D01*
X70159551Y-38239313D01*
X70159550Y-38239313D01*
X70128339Y-38235204D01*
X70047041Y-38224500D01*
X70047034Y-38224500D01*
X69821594Y-38224500D01*
X69821586Y-38224500D01*
X69734707Y-38235938D01*
X69709078Y-38239313D01*
X69709076Y-38239313D01*
X69701022Y-38240374D01*
X69700630Y-38237399D01*
X69667998Y-38237399D01*
X69667606Y-38240374D01*
X69659551Y-38239313D01*
X69659550Y-38239313D01*
X69628339Y-38235204D01*
X69547041Y-38224500D01*
X69547034Y-38224500D01*
X69321594Y-38224500D01*
X69321586Y-38224500D01*
X69234707Y-38235938D01*
X69209078Y-38239313D01*
X69209076Y-38239313D01*
X69201022Y-38240374D01*
X69200630Y-38237399D01*
X69167998Y-38237399D01*
X69167606Y-38240374D01*
X69159551Y-38239313D01*
X69159550Y-38239313D01*
X69128339Y-38235204D01*
X69047041Y-38224500D01*
X69047034Y-38224500D01*
X68821594Y-38224500D01*
X68821586Y-38224500D01*
X68709078Y-38239313D01*
X68709077Y-38239313D01*
X68569083Y-38297300D01*
X68543605Y-38316850D01*
X68509799Y-38342790D01*
X68444631Y-38367984D01*
X68376187Y-38353946D01*
X68358831Y-38342793D01*
X68299547Y-38297302D01*
X68299546Y-38297301D01*
X68299544Y-38297300D01*
X68184312Y-38249570D01*
X68159550Y-38239313D01*
X68145012Y-38237399D01*
X68047041Y-38224500D01*
X68047034Y-38224500D01*
X67821594Y-38224500D01*
X67821586Y-38224500D01*
X67709078Y-38239313D01*
X67709077Y-38239313D01*
X67569084Y-38297300D01*
X67569081Y-38297301D01*
X67569081Y-38297302D01*
X67448863Y-38389549D01*
X67448862Y-38389550D01*
X67448861Y-38389551D01*
X67356042Y-38510514D01*
X67299614Y-38551716D01*
X67229868Y-38555871D01*
X67210222Y-38549590D01*
X67196980Y-38544106D01*
X67196976Y-38544105D01*
X67196972Y-38544103D01*
X67023008Y-38509500D01*
X67023005Y-38509500D01*
X66845623Y-38509500D01*
X66845620Y-38509500D01*
X66671655Y-38544103D01*
X66671646Y-38544106D01*
X66507773Y-38611983D01*
X66507760Y-38611990D01*
X66360280Y-38710534D01*
X66234849Y-38835966D01*
X66230985Y-38840675D01*
X66229393Y-38839368D01*
X66182962Y-38878143D01*
X66113633Y-38886824D01*
X66050617Y-38856645D01*
X66018955Y-38811881D01*
X65982327Y-38723453D01*
X65982323Y-38723446D01*
X65883778Y-38575965D01*
X65883775Y-38575961D01*
X65821133Y-38513319D01*
X65787648Y-38451996D01*
X65784814Y-38425638D01*
X65784814Y-37554500D01*
X65804499Y-37487461D01*
X65857303Y-37441706D01*
X65908814Y-37430500D01*
X68637645Y-37430500D01*
X68637661Y-37430501D01*
X68645257Y-37430501D01*
X68803368Y-37430501D01*
X68803371Y-37430501D01*
X68956099Y-37389577D01*
X69025514Y-37349500D01*
X69093030Y-37310520D01*
X69204834Y-37198716D01*
X69204835Y-37198714D01*
X69704834Y-36698716D01*
X69783891Y-36561784D01*
X69783891Y-36561781D01*
X69784945Y-36559957D01*
X69835512Y-36511741D01*
X69901594Y-36498302D01*
X69914495Y-36499268D01*
X69943321Y-36507643D01*
X69979624Y-36510500D01*
X70064455Y-36510500D01*
X70069075Y-36510846D01*
X70097607Y-36521597D01*
X70126853Y-36530185D01*
X70129982Y-36533797D01*
X70134457Y-36535483D01*
X70152648Y-36559954D01*
X70172608Y-36582989D01*
X70173781Y-36588382D01*
X70176141Y-36591557D01*
X70176902Y-36602728D01*
X70183814Y-36634500D01*
X70183814Y-37122870D01*
X70183815Y-37122876D01*
X70190222Y-37182483D01*
X70240516Y-37317328D01*
X70240520Y-37317335D01*
X70326766Y-37432544D01*
X70326769Y-37432547D01*
X70441978Y-37518793D01*
X70441985Y-37518797D01*
X70576831Y-37569091D01*
X70576830Y-37569091D01*
X70583758Y-37569835D01*
X70636441Y-37575500D01*
X71732186Y-37575499D01*
X71791797Y-37569091D01*
X71926645Y-37518796D01*
X72041860Y-37432546D01*
X72128110Y-37317331D01*
X72178405Y-37182483D01*
X72184814Y-37122873D01*
X72184813Y-36277128D01*
X72178405Y-36217517D01*
X72171664Y-36199444D01*
X72128111Y-36082671D01*
X72128107Y-36082664D01*
X72041861Y-35967455D01*
X72041858Y-35967452D01*
X71926649Y-35881206D01*
X71926642Y-35881202D01*
X71791796Y-35830908D01*
X71791797Y-35830908D01*
X71732197Y-35824501D01*
X71732195Y-35824500D01*
X71732187Y-35824500D01*
X71732179Y-35824500D01*
X71209412Y-35824500D01*
X71179971Y-35815855D01*
X71149985Y-35809332D01*
X71144969Y-35805577D01*
X71142373Y-35804815D01*
X71121731Y-35788181D01*
X71001133Y-35667583D01*
X70967648Y-35606260D01*
X70964814Y-35579902D01*
X70964814Y-35465317D01*
X70964813Y-35465302D01*
X70963780Y-35452179D01*
X70961957Y-35429007D01*
X70957828Y-35414796D01*
X70916809Y-35273609D01*
X70916808Y-35273606D01*
X70916808Y-35273605D01*
X70834431Y-35134313D01*
X70834429Y-35134311D01*
X70834426Y-35134307D01*
X70720006Y-35019887D01*
X70719998Y-35019881D01*
X70605264Y-34952028D01*
X70580709Y-34937506D01*
X70580708Y-34937505D01*
X70580707Y-34937505D01*
X70580704Y-34937504D01*
X70515554Y-34918576D01*
X70456668Y-34880970D01*
X70427462Y-34817497D01*
X70437208Y-34748311D01*
X70482812Y-34695376D01*
X70549795Y-34675501D01*
X70550149Y-34675500D01*
X72263158Y-34675500D01*
X72263159Y-34675499D01*
X72417811Y-34644737D01*
X72563493Y-34584394D01*
X72694603Y-34496789D01*
X73306103Y-33885289D01*
X73393708Y-33754179D01*
X73454052Y-33608497D01*
X73483696Y-33459458D01*
X73490746Y-33436219D01*
X73550208Y-33292666D01*
X73584814Y-33118691D01*
X73584814Y-32941309D01*
X73584814Y-32941306D01*
X73584813Y-32941304D01*
X73550210Y-32767341D01*
X73550207Y-32767332D01*
X73479996Y-32597824D01*
X73482413Y-32596822D01*
X73470492Y-32539540D01*
X73495497Y-32474298D01*
X73551806Y-32432933D01*
X73594091Y-32425500D01*
X76062070Y-32425500D01*
X76129109Y-32445185D01*
G37*
%TD.AperFunction*%
%TD*%
M02*
