%TF.GenerationSoftware,KiCad,Pcbnew,10.0.4*%
%TF.CreationDate,2026-07-23T06:55:38-04:00*%
%TF.ProjectId,SATVIK-26,53415456-494b-42d3-9236-2e6b69636164,rev?*%
%TF.SameCoordinates,Original*%
%TF.FileFunction,Copper,L3,Inr*%
%TF.FilePolarity,Positive*%
%FSLAX46Y46*%
G04 Gerber Fmt 4.6, Leading zero omitted, Abs format (unit mm)*
G04 Created by KiCad (PCBNEW 10.0.4) date 2026-07-23 06:55:38*
%MOMM*%
%LPD*%
G01*
G04 APERTURE LIST*
%TA.AperFunction,HeatsinkPad*%
%ADD10C,0.500000*%
%TD*%
%TA.AperFunction,ComponentPad*%
%ADD11O,1.100000X2.000000*%
%TD*%
%TA.AperFunction,ComponentPad*%
%ADD12O,1.200000X1.800000*%
%TD*%
%TA.AperFunction,ViaPad*%
%ADD13C,0.800000*%
%TD*%
%TA.AperFunction,ViaPad*%
%ADD14C,0.600000*%
%TD*%
%TA.AperFunction,Conductor*%
%ADD15C,0.200000*%
%TD*%
G04 APERTURE END LIST*
D10*
%TO.N,GND*%
%TO.C,U2*%
X66874314Y-33680000D03*
X66874314Y-34980000D03*
X66874314Y-36280000D03*
X68174314Y-33680000D03*
X68174314Y-34980000D03*
X68174314Y-36280000D03*
%TD*%
D11*
%TO.N,GND*%
%TO.C,USB1*%
X62364314Y-62537500D03*
D12*
X62364314Y-66747500D03*
D11*
X71004314Y-62537500D03*
D12*
X71004314Y-66747500D03*
%TD*%
D13*
%TO.N,+3V3*%
X65634314Y-50950000D03*
%TO.N,GND*%
X72694314Y-57460000D03*
D14*
%TO.N,/USART6_RX*%
X61202944Y-45749999D03*
%TO.N,/USART6_TX*%
X62684314Y-43300000D03*
X83057549Y-48076765D03*
%TO.N,/USART6_RX*%
X83904314Y-48075000D03*
%TO.N,/SD_DET*%
X84434314Y-48700000D03*
%TO.N,Net-(U1-PB0)*%
X71232609Y-53588938D03*
X81184314Y-59200000D03*
D13*
%TO.N,+5V*%
X61584314Y-41423492D03*
X59009314Y-51449140D03*
D14*
%TO.N,/USART7_TX*%
X75844313Y-52752506D03*
D13*
%TO.N,GND*%
X63434314Y-48920000D03*
X64484314Y-37785000D03*
%TO.N,Net-(U1-NRST)*%
X65184314Y-39150000D03*
X69297917Y-47313603D03*
D14*
%TO.N,/MOTOR3*%
X62545796Y-52140770D03*
D13*
%TO.N,+5V*%
X85434314Y-39200000D03*
D14*
%TO.N,/USART2_RX*%
X78000196Y-50375000D03*
%TO.N,/SD_CLK*%
X79444314Y-48782105D03*
%TO.N,/USART2_RX*%
X88135049Y-53650735D03*
%TO.N,/USART2_TX*%
X78065427Y-43631631D03*
X87934314Y-54700000D03*
D13*
%TO.N,GND*%
X77184314Y-36450000D03*
%TO.N,+3V3*%
X85665677Y-48175000D03*
%TO.N,GND*%
X86684314Y-43950000D03*
X69934314Y-41950000D03*
D14*
%TO.N,/SD_DET*%
X73434314Y-47450000D03*
D13*
%TO.N,GND*%
X68357760Y-45250000D03*
D14*
%TO.N,/USART7_RX*%
X69479465Y-53575000D03*
X65684314Y-66200000D03*
%TO.N,/UART4_RX*%
X68620154Y-53585784D03*
%TO.N,/I2C2_SDA*%
X87934314Y-51200000D03*
X78484313Y-53199996D03*
X76330710Y-56586036D03*
%TO.N,/I2C2_SCL*%
X77684314Y-53200002D03*
X86184314Y-52450000D03*
D13*
%TO.N,GND*%
X80318791Y-57275000D03*
%TO.N,/VBAT_RAW*%
X61184314Y-46950000D03*
D14*
X62516647Y-49107618D03*
D13*
%TO.N,+3V3*%
X66934314Y-39410000D03*
X67684764Y-49516120D03*
D14*
%TO.N,/LED_STATUS*%
X72434314Y-53700000D03*
X84184314Y-62450000D03*
%TO.N,/MOTOR2*%
X59509315Y-52915626D03*
%TO.N,/MOTOR1*%
X63923104Y-52192284D03*
%TO.N,/MOTOR4*%
X66213754Y-53729440D03*
%TO.N,Net-(U1-BOOT0)*%
X70930095Y-40706433D03*
X75684314Y-35073000D03*
D13*
%TO.N,+3V3*%
X77454314Y-37950000D03*
X73934314Y-59220000D03*
X79344314Y-50700000D03*
X83334314Y-63113636D03*
D14*
X84704314Y-44700000D03*
D13*
%TO.N,GND*%
X59434314Y-42200000D03*
%TO.N,+5V*%
X72684314Y-33030000D03*
X82684314Y-61700000D03*
D14*
%TO.N,/WS2812_DATA*%
X80684314Y-60200000D03*
D13*
%TO.N,+3V3*%
X74385786Y-52525002D03*
%TO.N,GND*%
X79184314Y-46700000D03*
X89934314Y-60325000D03*
X89394314Y-45975000D03*
X74385786Y-50450000D03*
D14*
%TO.N,/SD_CMD*%
X76861494Y-52325761D03*
%TO.N,/SD_D3*%
X76085786Y-42500000D03*
%TO.N,/SD_D2*%
X76934314Y-42500000D03*
%TO.N,/SD_D1*%
X83456092Y-45622221D03*
%TO.N,/SD_D0*%
X83544314Y-46450000D03*
D13*
%TO.N,GND*%
X79934314Y-63450000D03*
X75725998Y-57649999D03*
X75934314Y-59450000D03*
D14*
%TO.N,/IMU_CS*%
X69384766Y-45569097D03*
X72145538Y-56366829D03*
%TO.N,/SPI1_SCLK*%
X69334314Y-56092469D03*
X71434315Y-57384489D03*
D13*
%TO.N,+3V3*%
X85184314Y-35389998D03*
%TO.N,GND*%
X83184314Y-40700000D03*
D14*
%TO.N,/VBUS*%
X75184314Y-66450000D03*
X67934314Y-63700000D03*
D13*
%TO.N,GND*%
X66184314Y-59450000D03*
X61184314Y-33200000D03*
X61684314Y-49450000D03*
X72309314Y-50325000D03*
D14*
X67524314Y-34980000D03*
X72684314Y-37950000D03*
%TO.N,/CURR*%
X60434314Y-57700000D03*
%TO.N,GND*%
X73434314Y-33950000D03*
D13*
X62184314Y-39200000D03*
D14*
%TO.N,/USART7_TX*%
X59305063Y-54079251D03*
%TD*%
%TO.N,/USART6_RX*%
D15*
X61702945Y-46250000D02*
X61202944Y-45749999D01*
X78894364Y-47400000D02*
X77744364Y-46250000D01*
X80751029Y-48676765D02*
X79474264Y-47400000D01*
X77744364Y-46250000D02*
X61702945Y-46250000D01*
X83306078Y-48676765D02*
X80751029Y-48676765D01*
X83904314Y-48078529D02*
X83306078Y-48676765D01*
X79474264Y-47400000D02*
X78894364Y-47400000D01*
X83904314Y-48075000D02*
X83904314Y-48078529D01*
%TO.N,/USART6_TX*%
X76885267Y-43300000D02*
X62684314Y-43300000D01*
X81662032Y-48076765D02*
X76885267Y-43300000D01*
X83057549Y-48076765D02*
X81662032Y-48076765D01*
%TO.N,/SD_DET*%
X75366419Y-49382105D02*
X73434314Y-47450000D01*
X83752209Y-49382105D02*
X75366419Y-49382105D01*
X84434314Y-48700000D02*
X83752209Y-49382105D01*
%TO.N,Net-(U1-PB0)*%
X73222209Y-55578538D02*
X71232609Y-53588938D01*
X77562852Y-55578538D02*
X73222209Y-55578538D01*
X81184314Y-59200000D02*
X77562852Y-55578538D01*
%TO.N,+5V*%
X59009314Y-43998492D02*
X61584314Y-41423492D01*
X59009314Y-51449140D02*
X59009314Y-43998492D01*
%TO.N,/USART7_TX*%
X75371817Y-53225002D02*
X75844313Y-52752506D01*
X74095836Y-53225002D02*
X75371817Y-53225002D01*
X73685786Y-52814952D02*
X74095836Y-53225002D01*
X60569362Y-52814952D02*
X73685786Y-52814952D01*
X59305063Y-54079251D02*
X60569362Y-52814952D01*
%TD*%
%TA.AperFunction,Conductor*%
%TO.N,+3V3*%
G36*
X60454230Y-32445185D02*
G01*
X60499985Y-32497989D01*
X60509929Y-32567147D01*
X60486698Y-32619873D01*
X60488234Y-32620900D01*
X60386304Y-32773446D01*
X60386297Y-32773459D01*
X60318420Y-32937332D01*
X60318417Y-32937341D01*
X60283814Y-33111304D01*
X60283814Y-33288695D01*
X60318417Y-33462658D01*
X60318420Y-33462667D01*
X60386297Y-33626540D01*
X60386304Y-33626553D01*
X60484849Y-33774034D01*
X60484852Y-33774038D01*
X60610275Y-33899461D01*
X60610279Y-33899464D01*
X60757760Y-33998009D01*
X60757773Y-33998016D01*
X60848272Y-34035501D01*
X60921648Y-34065894D01*
X60921650Y-34065894D01*
X60921655Y-34065896D01*
X61095618Y-34100499D01*
X61095621Y-34100500D01*
X61095623Y-34100500D01*
X61273007Y-34100500D01*
X61273008Y-34100499D01*
X61330996Y-34088964D01*
X61446972Y-34065896D01*
X61446975Y-34065894D01*
X61446980Y-34065894D01*
X61610861Y-33998013D01*
X61758349Y-33899464D01*
X61883778Y-33774035D01*
X61897219Y-33753920D01*
X66123813Y-33753920D01*
X66152654Y-33898907D01*
X66152657Y-33898917D01*
X66209226Y-34035488D01*
X66209233Y-34035501D01*
X66291362Y-34158415D01*
X66291365Y-34158419D01*
X66375265Y-34242319D01*
X66408750Y-34303642D01*
X66403766Y-34373334D01*
X66375265Y-34417681D01*
X66291365Y-34501580D01*
X66291362Y-34501584D01*
X66209233Y-34624498D01*
X66209226Y-34624511D01*
X66152657Y-34761082D01*
X66152654Y-34761092D01*
X66123814Y-34906079D01*
X66123814Y-34906082D01*
X66123814Y-35053918D01*
X66123814Y-35053920D01*
X66123813Y-35053920D01*
X66152654Y-35198907D01*
X66152657Y-35198917D01*
X66209226Y-35335488D01*
X66209233Y-35335501D01*
X66291362Y-35458415D01*
X66291365Y-35458419D01*
X66375265Y-35542319D01*
X66408750Y-35603642D01*
X66403766Y-35673334D01*
X66375265Y-35717681D01*
X66291365Y-35801580D01*
X66291362Y-35801584D01*
X66209233Y-35924498D01*
X66209226Y-35924511D01*
X66152657Y-36061082D01*
X66152654Y-36061092D01*
X66123814Y-36206079D01*
X66123814Y-36206082D01*
X66123814Y-36353918D01*
X66123814Y-36353920D01*
X66123813Y-36353920D01*
X66152654Y-36498907D01*
X66152657Y-36498917D01*
X66209226Y-36635488D01*
X66209233Y-36635501D01*
X66291362Y-36758415D01*
X66291365Y-36758419D01*
X66395894Y-36862948D01*
X66395898Y-36862951D01*
X66518812Y-36945080D01*
X66518825Y-36945087D01*
X66619972Y-36986983D01*
X66655401Y-37001658D01*
X66655405Y-37001658D01*
X66655406Y-37001659D01*
X66800393Y-37030500D01*
X66800396Y-37030500D01*
X66948234Y-37030500D01*
X67045776Y-37011096D01*
X67093227Y-37001658D01*
X67229809Y-36945084D01*
X67352730Y-36862951D01*
X67352733Y-36862948D01*
X67436633Y-36779049D01*
X67497956Y-36745564D01*
X67567648Y-36750548D01*
X67611995Y-36779049D01*
X67695894Y-36862948D01*
X67695898Y-36862951D01*
X67818812Y-36945080D01*
X67818825Y-36945087D01*
X67919972Y-36986983D01*
X67955401Y-37001658D01*
X67955405Y-37001658D01*
X67955406Y-37001659D01*
X68100393Y-37030500D01*
X68100396Y-37030500D01*
X68248234Y-37030500D01*
X68345776Y-37011096D01*
X68393227Y-37001658D01*
X68529809Y-36945084D01*
X68652730Y-36862951D01*
X68757265Y-36758416D01*
X68839398Y-36635495D01*
X68895972Y-36498913D01*
X68912279Y-36416936D01*
X68923345Y-36361304D01*
X76283814Y-36361304D01*
X76283814Y-36538695D01*
X76318417Y-36712658D01*
X76318420Y-36712667D01*
X76386297Y-36876540D01*
X76386304Y-36876553D01*
X76484849Y-37024034D01*
X76484852Y-37024038D01*
X76610275Y-37149461D01*
X76610279Y-37149464D01*
X76757760Y-37248009D01*
X76757773Y-37248016D01*
X76880677Y-37298923D01*
X76921648Y-37315894D01*
X76921650Y-37315894D01*
X76921655Y-37315896D01*
X77095618Y-37350499D01*
X77095621Y-37350500D01*
X77095623Y-37350500D01*
X77273007Y-37350500D01*
X77273008Y-37350499D01*
X77330996Y-37338964D01*
X77446972Y-37315896D01*
X77446975Y-37315894D01*
X77446980Y-37315894D01*
X77610861Y-37248013D01*
X77758349Y-37149464D01*
X77883778Y-37024035D01*
X77982327Y-36876547D01*
X78050208Y-36712666D01*
X78065559Y-36635495D01*
X78084813Y-36538695D01*
X78084814Y-36538693D01*
X78084814Y-36361306D01*
X78084813Y-36361304D01*
X78050210Y-36187341D01*
X78050207Y-36187332D01*
X77982330Y-36023459D01*
X77982323Y-36023446D01*
X77883778Y-35875965D01*
X77883775Y-35875961D01*
X77758352Y-35750538D01*
X77758348Y-35750535D01*
X77610867Y-35651990D01*
X77610854Y-35651983D01*
X77446981Y-35584106D01*
X77446972Y-35584103D01*
X77273008Y-35549500D01*
X77273005Y-35549500D01*
X77095623Y-35549500D01*
X77095620Y-35549500D01*
X76921655Y-35584103D01*
X76921646Y-35584106D01*
X76757773Y-35651983D01*
X76757760Y-35651990D01*
X76610279Y-35750535D01*
X76610275Y-35750538D01*
X76484852Y-35875961D01*
X76484849Y-35875965D01*
X76386304Y-36023446D01*
X76386297Y-36023459D01*
X76318420Y-36187332D01*
X76318417Y-36187341D01*
X76283814Y-36361304D01*
X68923345Y-36361304D01*
X68924814Y-36353920D01*
X68924814Y-36206079D01*
X68895973Y-36061092D01*
X68895972Y-36061091D01*
X68895972Y-36061087D01*
X68880381Y-36023446D01*
X68839401Y-35924511D01*
X68839394Y-35924498D01*
X68757265Y-35801584D01*
X68757262Y-35801580D01*
X68673363Y-35717681D01*
X68639878Y-35656358D01*
X68644862Y-35586666D01*
X68673363Y-35542319D01*
X68757262Y-35458419D01*
X68757265Y-35458416D01*
X68839398Y-35335495D01*
X68895972Y-35198913D01*
X68910675Y-35125000D01*
X68924814Y-35053920D01*
X68924814Y-34994153D01*
X74883814Y-34994153D01*
X74883814Y-35151846D01*
X74914575Y-35306489D01*
X74914578Y-35306501D01*
X74974916Y-35452172D01*
X74974923Y-35452185D01*
X75062524Y-35583288D01*
X75062527Y-35583292D01*
X75174021Y-35694786D01*
X75174025Y-35694789D01*
X75305128Y-35782390D01*
X75305141Y-35782397D01*
X75450812Y-35842735D01*
X75450817Y-35842737D01*
X75605467Y-35873499D01*
X75605470Y-35873500D01*
X75605472Y-35873500D01*
X75763158Y-35873500D01*
X75763159Y-35873499D01*
X75917811Y-35842737D01*
X76063493Y-35782394D01*
X76194603Y-35694789D01*
X76306103Y-35583289D01*
X76393708Y-35452179D01*
X76454051Y-35306497D01*
X76484814Y-35151842D01*
X76484814Y-34994158D01*
X76484814Y-34994155D01*
X76484813Y-34994153D01*
X76454052Y-34839510D01*
X76454051Y-34839503D01*
X76418515Y-34753711D01*
X87083814Y-34753711D01*
X87083814Y-34996288D01*
X87115475Y-35236785D01*
X87178261Y-35471104D01*
X87271087Y-35695205D01*
X87271091Y-35695214D01*
X87284062Y-35717681D01*
X87392378Y-35905289D01*
X87392380Y-35905292D01*
X87392381Y-35905293D01*
X87540047Y-36097736D01*
X87540053Y-36097743D01*
X87711570Y-36269260D01*
X87711576Y-36269265D01*
X87904025Y-36416936D01*
X88114102Y-36538224D01*
X88338214Y-36631054D01*
X88572525Y-36693838D01*
X88752900Y-36717584D01*
X88813025Y-36725500D01*
X88813026Y-36725500D01*
X89055603Y-36725500D01*
X89103702Y-36719167D01*
X89296103Y-36693838D01*
X89530414Y-36631054D01*
X89754526Y-36538224D01*
X89964603Y-36416936D01*
X90157052Y-36269265D01*
X90328579Y-36097738D01*
X90476250Y-35905289D01*
X90597538Y-35695212D01*
X90690368Y-35471100D01*
X90753152Y-35236789D01*
X90784814Y-34996288D01*
X90784814Y-34753712D01*
X90753152Y-34513211D01*
X90690368Y-34278900D01*
X90597538Y-34054788D01*
X90476250Y-33844711D01*
X90328579Y-33652262D01*
X90328574Y-33652256D01*
X90157057Y-33480739D01*
X90157050Y-33480733D01*
X89964607Y-33333067D01*
X89964606Y-33333066D01*
X89964603Y-33333064D01*
X89754526Y-33211776D01*
X89754519Y-33211773D01*
X89530418Y-33118947D01*
X89296099Y-33056161D01*
X89055603Y-33024500D01*
X89055602Y-33024500D01*
X88813026Y-33024500D01*
X88813025Y-33024500D01*
X88572528Y-33056161D01*
X88338209Y-33118947D01*
X88114108Y-33211773D01*
X88114099Y-33211777D01*
X87932165Y-33316817D01*
X87912433Y-33328210D01*
X87904020Y-33333067D01*
X87711577Y-33480733D01*
X87711570Y-33480739D01*
X87540053Y-33652256D01*
X87540047Y-33652263D01*
X87392381Y-33844706D01*
X87271091Y-34054785D01*
X87271087Y-34054794D01*
X87178261Y-34278895D01*
X87115475Y-34513214D01*
X87083814Y-34753711D01*
X76418515Y-34753711D01*
X76404442Y-34719735D01*
X76393709Y-34693823D01*
X76393704Y-34693814D01*
X76306103Y-34562711D01*
X76306100Y-34562707D01*
X76194606Y-34451213D01*
X76194602Y-34451210D01*
X76063499Y-34363609D01*
X76063486Y-34363602D01*
X75917815Y-34303264D01*
X75917803Y-34303261D01*
X75763159Y-34272500D01*
X75763156Y-34272500D01*
X75605472Y-34272500D01*
X75605469Y-34272500D01*
X75450824Y-34303261D01*
X75450812Y-34303264D01*
X75305141Y-34363602D01*
X75305128Y-34363609D01*
X75174025Y-34451210D01*
X75174021Y-34451213D01*
X75062527Y-34562707D01*
X75062524Y-34562711D01*
X74974923Y-34693814D01*
X74974916Y-34693827D01*
X74914578Y-34839498D01*
X74914575Y-34839510D01*
X74883814Y-34994153D01*
X68924814Y-34994153D01*
X68924814Y-34906079D01*
X68895973Y-34761092D01*
X68895972Y-34761091D01*
X68895972Y-34761087D01*
X68882632Y-34728881D01*
X68839401Y-34624511D01*
X68839394Y-34624498D01*
X68757265Y-34501584D01*
X68757262Y-34501580D01*
X68673363Y-34417681D01*
X68639878Y-34356358D01*
X68644862Y-34286666D01*
X68673363Y-34242319D01*
X68757262Y-34158419D01*
X68757265Y-34158416D01*
X68839398Y-34035495D01*
X68895972Y-33898913D01*
X68920812Y-33774038D01*
X68924814Y-33753920D01*
X68924814Y-33606079D01*
X68895973Y-33461092D01*
X68895972Y-33461091D01*
X68895972Y-33461087D01*
X68894094Y-33456553D01*
X68839401Y-33324511D01*
X68839394Y-33324498D01*
X68757265Y-33201584D01*
X68757262Y-33201580D01*
X68652733Y-33097051D01*
X68652729Y-33097048D01*
X68529815Y-33014919D01*
X68529802Y-33014912D01*
X68393231Y-32958343D01*
X68393221Y-32958340D01*
X68248234Y-32929500D01*
X68248232Y-32929500D01*
X68100396Y-32929500D01*
X68100394Y-32929500D01*
X67955406Y-32958340D01*
X67955396Y-32958343D01*
X67818825Y-33014912D01*
X67818812Y-33014919D01*
X67695898Y-33097048D01*
X67695894Y-33097051D01*
X67611995Y-33180951D01*
X67550672Y-33214436D01*
X67480980Y-33209452D01*
X67436633Y-33180951D01*
X67352733Y-33097051D01*
X67352729Y-33097048D01*
X67229815Y-33014919D01*
X67229802Y-33014912D01*
X67093231Y-32958343D01*
X67093221Y-32958340D01*
X66948234Y-32929500D01*
X66948232Y-32929500D01*
X66800396Y-32929500D01*
X66800394Y-32929500D01*
X66655406Y-32958340D01*
X66655396Y-32958343D01*
X66518825Y-33014912D01*
X66518812Y-33014919D01*
X66395898Y-33097048D01*
X66395894Y-33097051D01*
X66291365Y-33201580D01*
X66291362Y-33201584D01*
X66209233Y-33324498D01*
X66209226Y-33324511D01*
X66152657Y-33461082D01*
X66152654Y-33461092D01*
X66123814Y-33606079D01*
X66123814Y-33606082D01*
X66123814Y-33753918D01*
X66123814Y-33753920D01*
X66123813Y-33753920D01*
X61897219Y-33753920D01*
X61982327Y-33626547D01*
X62050208Y-33462666D01*
X62051426Y-33456547D01*
X62075988Y-33333064D01*
X62084814Y-33288691D01*
X62084814Y-33111309D01*
X62084814Y-33111306D01*
X62084813Y-33111304D01*
X62050210Y-32937341D01*
X62050207Y-32937332D01*
X61982330Y-32773459D01*
X61982323Y-32773446D01*
X61880394Y-32620900D01*
X61882032Y-32619805D01*
X61858270Y-32563852D01*
X61870063Y-32494985D01*
X61917216Y-32443426D01*
X61981437Y-32425500D01*
X71774537Y-32425500D01*
X71841576Y-32445185D01*
X71887331Y-32497989D01*
X71897275Y-32567147D01*
X71887386Y-32597308D01*
X71888632Y-32597824D01*
X71818420Y-32767332D01*
X71818417Y-32767341D01*
X71783814Y-32941304D01*
X71783814Y-33118695D01*
X71818417Y-33292658D01*
X71818420Y-33292667D01*
X71886297Y-33456540D01*
X71886304Y-33456553D01*
X71984849Y-33604034D01*
X71984852Y-33604038D01*
X72110275Y-33729461D01*
X72110279Y-33729464D01*
X72257760Y-33828009D01*
X72257773Y-33828016D01*
X72361917Y-33871153D01*
X72421648Y-33895894D01*
X72421650Y-33895894D01*
X72421655Y-33895896D01*
X72534499Y-33918342D01*
X72596410Y-33950727D01*
X72630984Y-34011442D01*
X72633710Y-34027793D01*
X72633813Y-34028843D01*
X72664575Y-34183489D01*
X72664578Y-34183501D01*
X72724916Y-34329172D01*
X72724923Y-34329185D01*
X72812524Y-34460288D01*
X72812527Y-34460292D01*
X72924021Y-34571786D01*
X72924025Y-34571789D01*
X73055128Y-34659390D01*
X73055141Y-34659397D01*
X73138264Y-34693827D01*
X73200817Y-34719737D01*
X73355467Y-34750499D01*
X73355470Y-34750500D01*
X73355472Y-34750500D01*
X73513158Y-34750500D01*
X73513159Y-34750499D01*
X73667811Y-34719737D01*
X73813493Y-34659394D01*
X73944603Y-34571789D01*
X74056103Y-34460289D01*
X74143708Y-34329179D01*
X74204051Y-34183497D01*
X74234814Y-34028842D01*
X74234814Y-33871158D01*
X74234814Y-33871155D01*
X74234813Y-33871153D01*
X74226231Y-33828009D01*
X74204051Y-33716503D01*
X74204049Y-33716498D01*
X74143711Y-33570827D01*
X74143704Y-33570814D01*
X74056103Y-33439711D01*
X74056100Y-33439707D01*
X73944606Y-33328213D01*
X73944602Y-33328210D01*
X73813499Y-33240609D01*
X73813486Y-33240602D01*
X73662184Y-33177932D01*
X73663193Y-33175494D01*
X73614322Y-33143416D01*
X73585912Y-33079583D01*
X73584814Y-33063121D01*
X73584814Y-32941306D01*
X73584813Y-32941304D01*
X73550210Y-32767341D01*
X73550207Y-32767332D01*
X73479996Y-32597824D01*
X73482413Y-32596822D01*
X73470492Y-32539540D01*
X73495497Y-32474298D01*
X73551806Y-32432933D01*
X73594091Y-32425500D01*
X88636719Y-32425500D01*
X88680833Y-32425500D01*
X88687786Y-32425695D01*
X88979620Y-32442084D01*
X88993417Y-32443638D01*
X89278141Y-32492015D01*
X89291696Y-32495108D01*
X89310535Y-32500536D01*
X89569213Y-32575060D01*
X89582339Y-32579653D01*
X89849155Y-32690172D01*
X89861669Y-32696198D01*
X90027757Y-32787992D01*
X90114438Y-32835899D01*
X90126212Y-32843297D01*
X90361753Y-33010422D01*
X90372617Y-33019087D01*
X90401701Y-33045078D01*
X90587955Y-33211526D01*
X90597787Y-33221358D01*
X90790223Y-33436692D01*
X90798893Y-33447563D01*
X90808489Y-33461087D01*
X90966016Y-33683101D01*
X90973414Y-33694875D01*
X91113111Y-33947637D01*
X91119144Y-33960165D01*
X91229660Y-34226975D01*
X91234253Y-34240100D01*
X91314204Y-34517615D01*
X91317298Y-34531172D01*
X91365673Y-34815885D01*
X91367230Y-34829703D01*
X91383619Y-35121527D01*
X91383814Y-35128480D01*
X91383814Y-65121521D01*
X91383619Y-65128474D01*
X91367231Y-65420296D01*
X91365674Y-65434114D01*
X91317299Y-65718831D01*
X91314205Y-65732387D01*
X91234256Y-66009898D01*
X91229663Y-66023023D01*
X91119147Y-66289835D01*
X91113114Y-66302364D01*
X90973417Y-66555127D01*
X90966019Y-66566901D01*
X90798897Y-66802438D01*
X90790226Y-66813310D01*
X90597790Y-67028644D01*
X90587958Y-67038476D01*
X90372624Y-67230912D01*
X90361752Y-67239583D01*
X90126215Y-67406705D01*
X90114441Y-67414103D01*
X89861678Y-67553800D01*
X89849149Y-67559833D01*
X89582337Y-67670349D01*
X89569212Y-67674942D01*
X89291701Y-67754891D01*
X89278145Y-67757985D01*
X88993428Y-67806360D01*
X88979610Y-67807917D01*
X88705586Y-67823305D01*
X88687786Y-67824305D01*
X88680835Y-67824500D01*
X72043447Y-67824500D01*
X71976408Y-67804815D01*
X71930653Y-67752011D01*
X71920709Y-67682853D01*
X71943132Y-67627610D01*
X71945546Y-67624288D01*
X72024187Y-67469945D01*
X72077716Y-67305201D01*
X72104814Y-67134111D01*
X72104814Y-66371153D01*
X74383814Y-66371153D01*
X74383814Y-66528846D01*
X74414575Y-66683489D01*
X74414578Y-66683501D01*
X74474916Y-66829172D01*
X74474923Y-66829185D01*
X74562524Y-66960288D01*
X74562527Y-66960292D01*
X74674021Y-67071786D01*
X74674025Y-67071789D01*
X74805128Y-67159390D01*
X74805141Y-67159397D01*
X74950812Y-67219735D01*
X74950817Y-67219737D01*
X75105467Y-67250499D01*
X75105470Y-67250500D01*
X75105472Y-67250500D01*
X75263158Y-67250500D01*
X75263159Y-67250499D01*
X75417811Y-67219737D01*
X75563493Y-67159394D01*
X75694603Y-67071789D01*
X75806103Y-66960289D01*
X75893708Y-66829179D01*
X75900280Y-66813314D01*
X75954049Y-66683501D01*
X75954051Y-66683497D01*
X75984814Y-66528842D01*
X75984814Y-66371158D01*
X75984814Y-66371155D01*
X75984813Y-66371153D01*
X75971130Y-66302364D01*
X75954051Y-66216503D01*
X75914556Y-66121153D01*
X75893711Y-66070827D01*
X75893704Y-66070814D01*
X75806103Y-65939711D01*
X75806100Y-65939707D01*
X75694606Y-65828213D01*
X75694602Y-65828210D01*
X75563499Y-65740609D01*
X75563486Y-65740602D01*
X75417815Y-65680264D01*
X75417803Y-65680261D01*
X75263159Y-65649500D01*
X75263156Y-65649500D01*
X75105472Y-65649500D01*
X75105469Y-65649500D01*
X74950824Y-65680261D01*
X74950812Y-65680264D01*
X74805141Y-65740602D01*
X74805128Y-65740609D01*
X74674025Y-65828210D01*
X74674021Y-65828213D01*
X74562527Y-65939707D01*
X74562524Y-65939711D01*
X74474923Y-66070814D01*
X74474916Y-66070827D01*
X74414578Y-66216498D01*
X74414575Y-66216510D01*
X74383814Y-66371153D01*
X72104814Y-66371153D01*
X72104814Y-66360889D01*
X72077716Y-66189799D01*
X72024187Y-66025055D01*
X71945546Y-65870712D01*
X71843728Y-65730572D01*
X71721242Y-65608086D01*
X71581102Y-65506268D01*
X71431934Y-65430264D01*
X71426761Y-65427628D01*
X71426760Y-65427627D01*
X71426759Y-65427627D01*
X71262015Y-65374098D01*
X71262013Y-65374097D01*
X71262012Y-65374097D01*
X71249565Y-65372126D01*
X71183416Y-65361649D01*
X71090925Y-65347000D01*
X70917703Y-65347000D01*
X70878042Y-65353281D01*
X70746616Y-65374097D01*
X70581866Y-65427628D01*
X70427525Y-65506268D01*
X70347570Y-65564359D01*
X70287386Y-65608086D01*
X70287384Y-65608088D01*
X70287383Y-65608088D01*
X70164902Y-65730569D01*
X70164902Y-65730570D01*
X70164900Y-65730572D01*
X70157613Y-65740602D01*
X70063082Y-65870711D01*
X69984442Y-66025052D01*
X69930911Y-66189802D01*
X69916808Y-66278846D01*
X69903814Y-66360889D01*
X69903814Y-67134111D01*
X69907819Y-67159397D01*
X69918288Y-67225500D01*
X69930912Y-67305201D01*
X69984441Y-67469945D01*
X70063082Y-67624288D01*
X70065496Y-67627610D01*
X70088978Y-67693416D01*
X70073156Y-67761470D01*
X70023053Y-67810167D01*
X69965181Y-67824500D01*
X63403447Y-67824500D01*
X63336408Y-67804815D01*
X63290653Y-67752011D01*
X63280709Y-67682853D01*
X63303132Y-67627610D01*
X63305546Y-67624288D01*
X63384187Y-67469945D01*
X63437716Y-67305201D01*
X63464814Y-67134111D01*
X63464814Y-66360889D01*
X63437716Y-66189799D01*
X63415411Y-66121153D01*
X64883814Y-66121153D01*
X64883814Y-66278846D01*
X64914575Y-66433489D01*
X64914578Y-66433501D01*
X64974916Y-66579172D01*
X64974923Y-66579185D01*
X65062524Y-66710288D01*
X65062527Y-66710292D01*
X65174021Y-66821786D01*
X65174025Y-66821789D01*
X65305128Y-66909390D01*
X65305141Y-66909397D01*
X65450812Y-66969735D01*
X65450817Y-66969737D01*
X65605467Y-67000499D01*
X65605470Y-67000500D01*
X65605472Y-67000500D01*
X65763158Y-67000500D01*
X65763159Y-67000499D01*
X65917811Y-66969737D01*
X66063493Y-66909394D01*
X66194603Y-66821789D01*
X66306103Y-66710289D01*
X66393708Y-66579179D01*
X66454051Y-66433497D01*
X66484814Y-66278842D01*
X66484814Y-66121158D01*
X66484814Y-66121155D01*
X66484813Y-66121153D01*
X66465295Y-66023029D01*
X66454051Y-65966503D01*
X66454049Y-65966498D01*
X66393711Y-65820827D01*
X66393704Y-65820814D01*
X66306103Y-65689711D01*
X66306100Y-65689707D01*
X66194606Y-65578213D01*
X66194602Y-65578210D01*
X66063499Y-65490609D01*
X66063486Y-65490602D01*
X65917815Y-65430264D01*
X65917803Y-65430261D01*
X65763159Y-65399500D01*
X65763156Y-65399500D01*
X65605472Y-65399500D01*
X65605469Y-65399500D01*
X65450824Y-65430261D01*
X65450812Y-65430264D01*
X65305141Y-65490602D01*
X65305128Y-65490609D01*
X65174025Y-65578210D01*
X65174021Y-65578213D01*
X65062527Y-65689707D01*
X65062524Y-65689711D01*
X64974923Y-65820814D01*
X64974916Y-65820827D01*
X64914578Y-65966498D01*
X64914575Y-65966510D01*
X64883814Y-66121153D01*
X63415411Y-66121153D01*
X63384187Y-66025055D01*
X63305546Y-65870712D01*
X63203728Y-65730572D01*
X63081242Y-65608086D01*
X62941102Y-65506268D01*
X62791934Y-65430264D01*
X62786761Y-65427628D01*
X62786760Y-65427627D01*
X62786759Y-65427627D01*
X62622015Y-65374098D01*
X62622013Y-65374097D01*
X62622012Y-65374097D01*
X62490585Y-65353281D01*
X62450925Y-65347000D01*
X62277703Y-65347000D01*
X62238042Y-65353281D01*
X62106616Y-65374097D01*
X61941866Y-65427628D01*
X61787525Y-65506268D01*
X61707570Y-65564359D01*
X61647386Y-65608086D01*
X61647384Y-65608088D01*
X61647383Y-65608088D01*
X61524902Y-65730569D01*
X61524902Y-65730570D01*
X61524900Y-65730572D01*
X61517613Y-65740602D01*
X61423082Y-65870711D01*
X61344442Y-66025052D01*
X61290911Y-66189802D01*
X61276808Y-66278846D01*
X61263814Y-66360889D01*
X61263814Y-67134111D01*
X61267819Y-67159397D01*
X61278288Y-67225500D01*
X61290912Y-67305201D01*
X61344441Y-67469945D01*
X61423082Y-67624288D01*
X61425496Y-67627610D01*
X61448978Y-67693416D01*
X61433156Y-67761470D01*
X61383053Y-67810167D01*
X61325181Y-67824500D01*
X58741904Y-67824500D01*
X58731908Y-67824499D01*
X58731906Y-67824499D01*
X58711261Y-67824499D01*
X58687788Y-67824499D01*
X58687787Y-67824498D01*
X58680838Y-67824304D01*
X58389014Y-67807918D01*
X58375196Y-67806361D01*
X58090482Y-67757988D01*
X58076925Y-67754894D01*
X57799409Y-67674944D01*
X57786284Y-67670351D01*
X57519478Y-67559838D01*
X57506949Y-67553805D01*
X57254183Y-67414107D01*
X57242409Y-67406709D01*
X57006871Y-67239587D01*
X56995999Y-67230916D01*
X56780665Y-67038480D01*
X56770833Y-67028648D01*
X56637540Y-66879494D01*
X56578394Y-66813310D01*
X56569726Y-66802442D01*
X56569723Y-66802438D01*
X56411318Y-66579185D01*
X56402604Y-66566904D01*
X56395206Y-66555130D01*
X56255508Y-66302364D01*
X56249475Y-66289835D01*
X56138962Y-66023029D01*
X56134369Y-66009904D01*
X56054419Y-65732388D01*
X56051325Y-65718831D01*
X56046377Y-65689707D01*
X56002950Y-65434107D01*
X56001396Y-65420308D01*
X55992041Y-65253712D01*
X55992041Y-65253711D01*
X56583814Y-65253711D01*
X56583814Y-65496288D01*
X56615475Y-65736785D01*
X56678261Y-65971104D01*
X56740416Y-66121158D01*
X56771090Y-66195212D01*
X56892378Y-66405289D01*
X56892380Y-66405292D01*
X56892381Y-66405293D01*
X57040047Y-66597736D01*
X57040053Y-66597743D01*
X57211570Y-66769260D01*
X57211576Y-66769265D01*
X57404025Y-66916936D01*
X57614102Y-67038224D01*
X57838214Y-67131054D01*
X58072525Y-67193838D01*
X58252900Y-67217584D01*
X58313025Y-67225500D01*
X58313026Y-67225500D01*
X58555603Y-67225500D01*
X58603702Y-67219167D01*
X58796103Y-67193838D01*
X59030414Y-67131054D01*
X59254526Y-67038224D01*
X59464603Y-66916936D01*
X59657052Y-66769265D01*
X59828579Y-66597738D01*
X59976250Y-66405289D01*
X60097538Y-66195212D01*
X60190368Y-65971100D01*
X60253152Y-65736789D01*
X60284814Y-65496288D01*
X60284814Y-65253712D01*
X60284814Y-65253711D01*
X87083814Y-65253711D01*
X87083814Y-65496288D01*
X87115475Y-65736785D01*
X87178261Y-65971104D01*
X87240416Y-66121158D01*
X87271090Y-66195212D01*
X87392378Y-66405289D01*
X87392380Y-66405292D01*
X87392381Y-66405293D01*
X87540047Y-66597736D01*
X87540053Y-66597743D01*
X87711570Y-66769260D01*
X87711576Y-66769265D01*
X87904025Y-66916936D01*
X88114102Y-67038224D01*
X88338214Y-67131054D01*
X88572525Y-67193838D01*
X88752900Y-67217584D01*
X88813025Y-67225500D01*
X88813026Y-67225500D01*
X89055603Y-67225500D01*
X89103702Y-67219167D01*
X89296103Y-67193838D01*
X89530414Y-67131054D01*
X89754526Y-67038224D01*
X89964603Y-66916936D01*
X90157052Y-66769265D01*
X90328579Y-66597738D01*
X90476250Y-66405289D01*
X90597538Y-66195212D01*
X90690368Y-65971100D01*
X90753152Y-65736789D01*
X90784814Y-65496288D01*
X90784814Y-65253712D01*
X90753152Y-65013211D01*
X90690368Y-64778900D01*
X90597538Y-64554788D01*
X90476250Y-64344711D01*
X90415332Y-64265321D01*
X90328580Y-64152263D01*
X90328574Y-64152256D01*
X90157057Y-63980739D01*
X90157050Y-63980733D01*
X89964607Y-63833067D01*
X89964606Y-63833066D01*
X89964603Y-63833064D01*
X89792975Y-63733974D01*
X89754528Y-63711777D01*
X89754519Y-63711773D01*
X89530418Y-63618947D01*
X89296099Y-63556161D01*
X89055603Y-63524500D01*
X89055602Y-63524500D01*
X88813026Y-63524500D01*
X88813025Y-63524500D01*
X88572528Y-63556161D01*
X88338209Y-63618947D01*
X88114108Y-63711773D01*
X88114099Y-63711777D01*
X87904020Y-63833067D01*
X87711577Y-63980733D01*
X87711570Y-63980739D01*
X87540053Y-64152256D01*
X87540047Y-64152263D01*
X87392381Y-64344706D01*
X87271091Y-64554785D01*
X87271087Y-64554794D01*
X87178261Y-64778895D01*
X87115475Y-65013214D01*
X87083814Y-65253711D01*
X60284814Y-65253711D01*
X60253152Y-65013211D01*
X60190368Y-64778900D01*
X60097538Y-64554788D01*
X59976250Y-64344711D01*
X59915332Y-64265321D01*
X59828580Y-64152263D01*
X59828574Y-64152256D01*
X59657057Y-63980739D01*
X59657050Y-63980733D01*
X59464607Y-63833067D01*
X59464606Y-63833066D01*
X59464603Y-63833064D01*
X59292975Y-63733974D01*
X59254528Y-63711777D01*
X59254519Y-63711773D01*
X59030418Y-63618947D01*
X58796099Y-63556161D01*
X58555603Y-63524500D01*
X58555602Y-63524500D01*
X58313026Y-63524500D01*
X58313025Y-63524500D01*
X58072528Y-63556161D01*
X57838209Y-63618947D01*
X57614108Y-63711773D01*
X57614099Y-63711777D01*
X57404020Y-63833067D01*
X57211577Y-63980733D01*
X57211570Y-63980739D01*
X57040053Y-64152256D01*
X57040047Y-64152263D01*
X56892381Y-64344706D01*
X56771091Y-64554785D01*
X56771087Y-64554794D01*
X56678261Y-64778895D01*
X56615475Y-65013214D01*
X56583814Y-65253711D01*
X55992041Y-65253711D01*
X55985009Y-65128475D01*
X55984814Y-65121521D01*
X55984815Y-65077408D01*
X55984814Y-65077404D01*
X55984814Y-61984030D01*
X61313814Y-61984030D01*
X61313814Y-63090969D01*
X61354182Y-63293912D01*
X61354184Y-63293920D01*
X61425673Y-63466510D01*
X61433373Y-63485098D01*
X61480856Y-63556162D01*
X61548338Y-63657157D01*
X61694656Y-63803475D01*
X61694659Y-63803477D01*
X61866716Y-63918441D01*
X62057894Y-63997630D01*
X62260844Y-64037999D01*
X62260848Y-64038000D01*
X62260849Y-64038000D01*
X62467780Y-64038000D01*
X62467781Y-64037999D01*
X62670734Y-63997630D01*
X62861912Y-63918441D01*
X63033969Y-63803477D01*
X63180291Y-63657155D01*
X63238317Y-63570311D01*
X63291928Y-63525508D01*
X63361253Y-63516800D01*
X63418352Y-63544117D01*
X63419153Y-63543074D01*
X63424090Y-63546862D01*
X63424281Y-63546954D01*
X63424586Y-63547243D01*
X63425595Y-63548017D01*
X63425598Y-63548020D01*
X63425601Y-63548021D01*
X63425604Y-63548024D01*
X63548448Y-63618947D01*
X63562530Y-63627077D01*
X63715257Y-63668000D01*
X63715259Y-63668000D01*
X63873369Y-63668000D01*
X63873371Y-63668000D01*
X64026098Y-63627077D01*
X64036359Y-63621153D01*
X67133814Y-63621153D01*
X67133814Y-63778846D01*
X67164575Y-63933489D01*
X67164578Y-63933501D01*
X67224916Y-64079172D01*
X67224923Y-64079185D01*
X67312524Y-64210288D01*
X67312527Y-64210292D01*
X67424021Y-64321786D01*
X67424025Y-64321789D01*
X67555128Y-64409390D01*
X67555141Y-64409397D01*
X67700812Y-64469735D01*
X67700817Y-64469737D01*
X67855467Y-64500499D01*
X67855470Y-64500500D01*
X67855472Y-64500500D01*
X68013158Y-64500500D01*
X68013159Y-64500499D01*
X68167811Y-64469737D01*
X68313493Y-64409394D01*
X68444603Y-64321789D01*
X68556103Y-64210289D01*
X68643708Y-64079179D01*
X68704051Y-63933497D01*
X68734814Y-63778842D01*
X68734814Y-63621158D01*
X68734814Y-63621155D01*
X68734813Y-63621153D01*
X68721885Y-63556161D01*
X68704051Y-63466503D01*
X68660479Y-63361309D01*
X68643711Y-63320827D01*
X68643704Y-63320814D01*
X68556103Y-63189711D01*
X68556100Y-63189707D01*
X68444604Y-63078211D01*
X68313499Y-62990609D01*
X68313486Y-62990602D01*
X68308274Y-62988443D01*
X68973814Y-62988443D01*
X68973814Y-63146557D01*
X69001666Y-63250500D01*
X69014737Y-63299283D01*
X69014740Y-63299290D01*
X69093789Y-63436209D01*
X69093793Y-63436214D01*
X69093794Y-63436216D01*
X69205598Y-63548020D01*
X69205600Y-63548021D01*
X69205604Y-63548024D01*
X69328448Y-63618947D01*
X69342530Y-63627077D01*
X69495257Y-63668000D01*
X69495259Y-63668000D01*
X69653369Y-63668000D01*
X69653371Y-63668000D01*
X69806098Y-63627077D01*
X69943030Y-63548020D01*
X69943033Y-63548016D01*
X69949480Y-63543071D01*
X69951114Y-63545200D01*
X70000823Y-63518044D01*
X70070516Y-63523013D01*
X70126459Y-63564871D01*
X70130310Y-63570313D01*
X70188336Y-63657154D01*
X70188339Y-63657158D01*
X70334656Y-63803475D01*
X70334659Y-63803477D01*
X70506716Y-63918441D01*
X70697894Y-63997630D01*
X70900844Y-64037999D01*
X70900848Y-64038000D01*
X70900849Y-64038000D01*
X71107780Y-64038000D01*
X71107781Y-64037999D01*
X71310734Y-63997630D01*
X71501912Y-63918441D01*
X71673969Y-63803477D01*
X71820291Y-63657155D01*
X71935255Y-63485098D01*
X71986532Y-63361304D01*
X79033814Y-63361304D01*
X79033814Y-63538695D01*
X79068417Y-63712658D01*
X79068420Y-63712667D01*
X79136297Y-63876540D01*
X79136304Y-63876553D01*
X79234849Y-64024034D01*
X79234852Y-64024038D01*
X79360275Y-64149461D01*
X79360279Y-64149464D01*
X79507760Y-64248009D01*
X79507773Y-64248016D01*
X79630677Y-64298923D01*
X79671648Y-64315894D01*
X79671650Y-64315894D01*
X79671655Y-64315896D01*
X79845618Y-64350499D01*
X79845621Y-64350500D01*
X79845623Y-64350500D01*
X80023007Y-64350500D01*
X80023008Y-64350499D01*
X80080996Y-64338964D01*
X80196972Y-64315896D01*
X80196975Y-64315894D01*
X80196980Y-64315894D01*
X80360861Y-64248013D01*
X80508349Y-64149464D01*
X80633778Y-64024035D01*
X80732327Y-63876547D01*
X80800208Y-63712666D01*
X80811250Y-63657158D01*
X80831339Y-63556161D01*
X80834814Y-63538691D01*
X80834814Y-63361309D01*
X80834814Y-63361306D01*
X80834813Y-63361304D01*
X80800210Y-63187341D01*
X80800207Y-63187332D01*
X80732330Y-63023459D01*
X80732323Y-63023446D01*
X80633778Y-62875965D01*
X80633775Y-62875961D01*
X80508352Y-62750538D01*
X80508348Y-62750535D01*
X80360867Y-62651990D01*
X80360854Y-62651983D01*
X80196981Y-62584106D01*
X80196972Y-62584103D01*
X80023008Y-62549500D01*
X80023005Y-62549500D01*
X79845623Y-62549500D01*
X79845620Y-62549500D01*
X79671655Y-62584103D01*
X79671646Y-62584106D01*
X79507773Y-62651983D01*
X79507760Y-62651990D01*
X79360279Y-62750535D01*
X79360275Y-62750538D01*
X79234852Y-62875961D01*
X79234849Y-62875965D01*
X79136304Y-63023446D01*
X79136297Y-63023459D01*
X79068420Y-63187332D01*
X79068417Y-63187341D01*
X79033814Y-63361304D01*
X71986532Y-63361304D01*
X72014444Y-63293920D01*
X72054814Y-63090965D01*
X72054814Y-61984035D01*
X72014444Y-61781080D01*
X72005271Y-61758934D01*
X71961255Y-61652669D01*
X71944120Y-61611304D01*
X81783814Y-61611304D01*
X81783814Y-61788695D01*
X81818417Y-61962658D01*
X81818420Y-61962667D01*
X81886297Y-62126540D01*
X81886304Y-62126553D01*
X81984849Y-62274034D01*
X81984852Y-62274038D01*
X82110275Y-62399461D01*
X82110279Y-62399464D01*
X82257760Y-62498009D01*
X82257773Y-62498016D01*
X82332200Y-62528844D01*
X82421648Y-62565894D01*
X82421650Y-62565894D01*
X82421655Y-62565896D01*
X82595618Y-62600499D01*
X82595621Y-62600500D01*
X82595623Y-62600500D01*
X82773007Y-62600500D01*
X82773008Y-62600499D01*
X82840974Y-62586980D01*
X82946972Y-62565896D01*
X82946975Y-62565894D01*
X82946980Y-62565894D01*
X83110861Y-62498013D01*
X83192095Y-62443734D01*
X83258772Y-62422856D01*
X83326152Y-62441340D01*
X83372843Y-62493319D01*
X83381174Y-62523156D01*
X83382625Y-62522868D01*
X83414575Y-62683489D01*
X83414578Y-62683501D01*
X83474916Y-62829172D01*
X83474923Y-62829185D01*
X83562524Y-62960288D01*
X83562527Y-62960292D01*
X83674021Y-63071786D01*
X83674025Y-63071789D01*
X83805128Y-63159390D01*
X83805141Y-63159397D01*
X83878327Y-63189711D01*
X83950817Y-63219737D01*
X84105467Y-63250499D01*
X84105470Y-63250500D01*
X84105472Y-63250500D01*
X84263158Y-63250500D01*
X84263159Y-63250499D01*
X84417811Y-63219737D01*
X84563493Y-63159394D01*
X84694603Y-63071789D01*
X84806103Y-62960289D01*
X84893708Y-62829179D01*
X84954051Y-62683497D01*
X84984814Y-62528842D01*
X84984814Y-62371158D01*
X84984814Y-62371155D01*
X84984813Y-62371153D01*
X84954051Y-62216503D01*
X84916793Y-62126553D01*
X84893711Y-62070827D01*
X84893704Y-62070814D01*
X84806103Y-61939711D01*
X84806100Y-61939707D01*
X84694606Y-61828213D01*
X84694602Y-61828210D01*
X84563499Y-61740609D01*
X84563486Y-61740602D01*
X84417815Y-61680264D01*
X84417803Y-61680261D01*
X84263159Y-61649500D01*
X84263156Y-61649500D01*
X84105472Y-61649500D01*
X84105469Y-61649500D01*
X83950824Y-61680261D01*
X83950812Y-61680264D01*
X83805141Y-61740602D01*
X83805130Y-61740608D01*
X83777704Y-61758934D01*
X83711026Y-61779811D01*
X83643646Y-61761326D01*
X83596957Y-61709346D01*
X83584814Y-61655831D01*
X83584814Y-61611306D01*
X83584813Y-61611304D01*
X83550210Y-61437341D01*
X83550207Y-61437332D01*
X83482330Y-61273459D01*
X83482323Y-61273446D01*
X83383778Y-61125965D01*
X83383775Y-61125961D01*
X83258352Y-61000538D01*
X83258348Y-61000535D01*
X83110867Y-60901990D01*
X83110854Y-60901983D01*
X82946981Y-60834106D01*
X82946972Y-60834103D01*
X82773008Y-60799500D01*
X82773005Y-60799500D01*
X82595623Y-60799500D01*
X82595620Y-60799500D01*
X82421655Y-60834103D01*
X82421646Y-60834106D01*
X82257773Y-60901983D01*
X82257760Y-60901990D01*
X82110279Y-61000535D01*
X82110275Y-61000538D01*
X81984852Y-61125961D01*
X81984849Y-61125965D01*
X81886304Y-61273446D01*
X81886297Y-61273459D01*
X81818420Y-61437332D01*
X81818417Y-61437341D01*
X81783814Y-61611304D01*
X71944120Y-61611304D01*
X71935256Y-61589904D01*
X71820289Y-61417842D01*
X71673971Y-61271524D01*
X71553297Y-61190893D01*
X71501912Y-61156559D01*
X71428042Y-61125961D01*
X71310734Y-61077370D01*
X71310726Y-61077368D01*
X71107783Y-61037000D01*
X71107779Y-61037000D01*
X70900849Y-61037000D01*
X70900844Y-61037000D01*
X70697901Y-61077368D01*
X70697893Y-61077370D01*
X70506717Y-61156558D01*
X70334656Y-61271524D01*
X70188338Y-61417842D01*
X70073372Y-61589903D01*
X69994184Y-61781079D01*
X69994182Y-61781087D01*
X69953814Y-61984030D01*
X69953814Y-62385903D01*
X69934129Y-62452942D01*
X69881325Y-62498697D01*
X69812167Y-62508641D01*
X69797721Y-62505678D01*
X69711819Y-62482661D01*
X69653371Y-62467000D01*
X69495257Y-62467000D01*
X69342530Y-62507923D01*
X69342523Y-62507926D01*
X69205604Y-62586975D01*
X69205596Y-62586981D01*
X69093795Y-62698782D01*
X69093789Y-62698790D01*
X69014740Y-62835709D01*
X69014737Y-62835716D01*
X68973814Y-62988443D01*
X68308274Y-62988443D01*
X68167815Y-62930264D01*
X68167803Y-62930261D01*
X68013159Y-62899500D01*
X68013156Y-62899500D01*
X67855472Y-62899500D01*
X67855469Y-62899500D01*
X67700824Y-62930261D01*
X67700812Y-62930264D01*
X67555141Y-62990602D01*
X67555128Y-62990609D01*
X67424025Y-63078210D01*
X67424021Y-63078213D01*
X67312527Y-63189707D01*
X67312524Y-63189711D01*
X67224923Y-63320814D01*
X67224916Y-63320827D01*
X67164578Y-63466498D01*
X67164575Y-63466510D01*
X67133814Y-63621153D01*
X64036359Y-63621153D01*
X64163030Y-63548020D01*
X64274834Y-63436216D01*
X64353891Y-63299284D01*
X64394814Y-63146557D01*
X64394814Y-62988443D01*
X64353891Y-62835716D01*
X64304713Y-62750536D01*
X64274838Y-62698790D01*
X64274832Y-62698782D01*
X64163031Y-62586981D01*
X64163023Y-62586975D01*
X64026104Y-62507926D01*
X64026100Y-62507924D01*
X64026098Y-62507923D01*
X63873371Y-62467000D01*
X63715257Y-62467000D01*
X63570907Y-62505678D01*
X63501057Y-62504015D01*
X63443195Y-62464852D01*
X63415691Y-62400624D01*
X63414814Y-62385903D01*
X63414814Y-61984034D01*
X63414813Y-61984030D01*
X63383819Y-61828211D01*
X63374444Y-61781080D01*
X63295255Y-61589902D01*
X63180291Y-61417845D01*
X63180289Y-61417842D01*
X63033971Y-61271524D01*
X62913297Y-61190893D01*
X62861912Y-61156559D01*
X62788042Y-61125961D01*
X62670734Y-61077370D01*
X62670726Y-61077368D01*
X62467783Y-61037000D01*
X62467779Y-61037000D01*
X62260849Y-61037000D01*
X62260844Y-61037000D01*
X62057901Y-61077368D01*
X62057893Y-61077370D01*
X61866717Y-61156558D01*
X61694656Y-61271524D01*
X61548338Y-61417842D01*
X61433372Y-61589903D01*
X61354184Y-61781079D01*
X61354182Y-61781087D01*
X61313814Y-61984030D01*
X55984814Y-61984030D01*
X55984814Y-59361304D01*
X65283814Y-59361304D01*
X65283814Y-59538695D01*
X65318417Y-59712658D01*
X65318420Y-59712667D01*
X65386297Y-59876540D01*
X65386304Y-59876553D01*
X65484849Y-60024034D01*
X65484852Y-60024038D01*
X65610275Y-60149461D01*
X65610279Y-60149464D01*
X65757760Y-60248009D01*
X65757773Y-60248016D01*
X65832200Y-60278844D01*
X65921648Y-60315894D01*
X65921650Y-60315894D01*
X65921655Y-60315896D01*
X66095618Y-60350499D01*
X66095621Y-60350500D01*
X66095623Y-60350500D01*
X66273007Y-60350500D01*
X66273008Y-60350499D01*
X66330996Y-60338964D01*
X66446972Y-60315896D01*
X66446975Y-60315894D01*
X66446980Y-60315894D01*
X66610861Y-60248013D01*
X66758349Y-60149464D01*
X66883778Y-60024035D01*
X66982327Y-59876547D01*
X67050208Y-59712666D01*
X67050681Y-59710292D01*
X67076762Y-59579172D01*
X67084814Y-59538691D01*
X67084814Y-59361309D01*
X67084814Y-59361306D01*
X67084813Y-59361304D01*
X67050210Y-59187341D01*
X67050207Y-59187332D01*
X66982330Y-59023459D01*
X66982323Y-59023446D01*
X66883778Y-58875965D01*
X66883775Y-58875961D01*
X66758352Y-58750538D01*
X66758348Y-58750535D01*
X66610867Y-58651990D01*
X66610854Y-58651983D01*
X66446981Y-58584106D01*
X66446972Y-58584103D01*
X66273008Y-58549500D01*
X66273005Y-58549500D01*
X66095623Y-58549500D01*
X66095620Y-58549500D01*
X65921655Y-58584103D01*
X65921646Y-58584106D01*
X65757773Y-58651983D01*
X65757760Y-58651990D01*
X65610279Y-58750535D01*
X65610275Y-58750538D01*
X65484852Y-58875961D01*
X65484849Y-58875965D01*
X65386304Y-59023446D01*
X65386297Y-59023459D01*
X65318420Y-59187332D01*
X65318417Y-59187341D01*
X65283814Y-59361304D01*
X55984814Y-59361304D01*
X55984814Y-57621153D01*
X59633814Y-57621153D01*
X59633814Y-57778846D01*
X59664575Y-57933489D01*
X59664578Y-57933501D01*
X59724916Y-58079172D01*
X59724923Y-58079185D01*
X59812524Y-58210288D01*
X59812527Y-58210292D01*
X59924021Y-58321786D01*
X59924025Y-58321789D01*
X60055128Y-58409390D01*
X60055141Y-58409397D01*
X60200812Y-58469735D01*
X60200817Y-58469737D01*
X60349464Y-58499305D01*
X60355467Y-58500499D01*
X60355470Y-58500500D01*
X60355472Y-58500500D01*
X60513158Y-58500500D01*
X60513159Y-58500499D01*
X60667811Y-58469737D01*
X60813493Y-58409394D01*
X60944603Y-58321789D01*
X61056103Y-58210289D01*
X61143708Y-58079179D01*
X61204051Y-57933497D01*
X61234814Y-57778842D01*
X61234814Y-57621158D01*
X61234814Y-57621155D01*
X61234813Y-57621153D01*
X61218206Y-57537666D01*
X61204051Y-57466503D01*
X61171257Y-57387331D01*
X61143711Y-57320827D01*
X61143704Y-57320814D01*
X61056103Y-57189711D01*
X61056100Y-57189707D01*
X60944606Y-57078213D01*
X60944602Y-57078210D01*
X60813499Y-56990609D01*
X60813486Y-56990602D01*
X60667815Y-56930264D01*
X60667803Y-56930261D01*
X60513159Y-56899500D01*
X60513156Y-56899500D01*
X60355472Y-56899500D01*
X60355469Y-56899500D01*
X60200824Y-56930261D01*
X60200812Y-56930264D01*
X60055141Y-56990602D01*
X60055128Y-56990609D01*
X59924025Y-57078210D01*
X59924021Y-57078213D01*
X59812527Y-57189707D01*
X59812524Y-57189711D01*
X59724923Y-57320814D01*
X59724916Y-57320827D01*
X59664578Y-57466498D01*
X59664575Y-57466510D01*
X59633814Y-57621153D01*
X55984814Y-57621153D01*
X55984814Y-56013622D01*
X68533814Y-56013622D01*
X68533814Y-56171315D01*
X68564575Y-56325958D01*
X68564578Y-56325970D01*
X68624916Y-56471641D01*
X68624923Y-56471654D01*
X68712524Y-56602757D01*
X68712527Y-56602761D01*
X68824021Y-56714255D01*
X68824025Y-56714258D01*
X68955128Y-56801859D01*
X68955141Y-56801866D01*
X69100812Y-56862204D01*
X69100817Y-56862206D01*
X69220241Y-56885961D01*
X69255467Y-56892968D01*
X69255470Y-56892969D01*
X69255472Y-56892969D01*
X69413158Y-56892969D01*
X69413159Y-56892968D01*
X69567811Y-56862206D01*
X69713493Y-56801863D01*
X69844603Y-56714258D01*
X69956103Y-56602758D01*
X70043708Y-56471648D01*
X70104051Y-56325966D01*
X70134814Y-56171311D01*
X70134814Y-56013627D01*
X70134814Y-56013624D01*
X70134813Y-56013622D01*
X70104052Y-55858979D01*
X70104051Y-55858972D01*
X70056860Y-55745042D01*
X70043711Y-55713296D01*
X70043704Y-55713283D01*
X69956103Y-55582180D01*
X69956100Y-55582176D01*
X69844606Y-55470682D01*
X69844602Y-55470679D01*
X69713499Y-55383078D01*
X69713486Y-55383071D01*
X69567815Y-55322733D01*
X69567803Y-55322730D01*
X69413159Y-55291969D01*
X69413156Y-55291969D01*
X69255472Y-55291969D01*
X69255469Y-55291969D01*
X69100824Y-55322730D01*
X69100812Y-55322733D01*
X68955141Y-55383071D01*
X68955128Y-55383078D01*
X68824025Y-55470679D01*
X68824021Y-55470682D01*
X68712527Y-55582176D01*
X68712524Y-55582180D01*
X68624923Y-55713283D01*
X68624916Y-55713296D01*
X68564578Y-55858967D01*
X68564575Y-55858979D01*
X68533814Y-56013622D01*
X55984814Y-56013622D01*
X55984814Y-51360444D01*
X58108814Y-51360444D01*
X58108814Y-51537835D01*
X58143417Y-51711798D01*
X58143420Y-51711807D01*
X58211297Y-51875680D01*
X58211304Y-51875693D01*
X58309849Y-52023174D01*
X58309852Y-52023178D01*
X58435275Y-52148601D01*
X58435279Y-52148604D01*
X58582760Y-52247149D01*
X58582773Y-52247156D01*
X58695471Y-52293836D01*
X58746648Y-52315034D01*
X58746651Y-52315034D01*
X58752483Y-52316804D01*
X58751771Y-52319149D01*
X58804128Y-52346517D01*
X58838721Y-52407222D01*
X58835002Y-52476993D01*
X58821156Y-52504664D01*
X58799926Y-52536437D01*
X58799917Y-52536453D01*
X58739579Y-52682124D01*
X58739576Y-52682136D01*
X58708815Y-52836779D01*
X58708815Y-52994472D01*
X58739576Y-53149115D01*
X58739579Y-53149127D01*
X58799917Y-53294798D01*
X58799919Y-53294802D01*
X58799921Y-53294805D01*
X58806473Y-53304612D01*
X58827351Y-53371287D01*
X58808867Y-53438667D01*
X58791053Y-53461182D01*
X58683273Y-53568962D01*
X58595672Y-53700065D01*
X58595665Y-53700078D01*
X58535327Y-53845749D01*
X58535324Y-53845761D01*
X58504563Y-54000404D01*
X58504563Y-54158097D01*
X58535324Y-54312740D01*
X58535327Y-54312752D01*
X58595665Y-54458423D01*
X58595672Y-54458436D01*
X58683273Y-54589539D01*
X58683276Y-54589543D01*
X58794770Y-54701037D01*
X58794774Y-54701040D01*
X58925877Y-54788641D01*
X58925890Y-54788648D01*
X59071561Y-54848986D01*
X59071566Y-54848988D01*
X59226216Y-54879750D01*
X59226219Y-54879751D01*
X59226221Y-54879751D01*
X59383907Y-54879751D01*
X59383908Y-54879750D01*
X59538560Y-54848988D01*
X59684242Y-54788645D01*
X59815352Y-54701040D01*
X59926852Y-54589540D01*
X60014457Y-54458430D01*
X60074800Y-54312748D01*
X60095094Y-54210724D01*
X60105701Y-54157401D01*
X60138086Y-54095490D01*
X60139578Y-54093970D01*
X60781779Y-53451771D01*
X60843102Y-53418286D01*
X60869460Y-53415452D01*
X65308933Y-53415452D01*
X65375972Y-53435137D01*
X65421727Y-53487941D01*
X65431671Y-53557099D01*
X65430550Y-53563644D01*
X65413254Y-53650595D01*
X65413254Y-53808286D01*
X65444015Y-53962929D01*
X65444018Y-53962941D01*
X65504356Y-54108612D01*
X65504363Y-54108625D01*
X65591964Y-54239728D01*
X65591967Y-54239732D01*
X65703461Y-54351226D01*
X65703465Y-54351229D01*
X65834568Y-54438830D01*
X65834581Y-54438837D01*
X65980252Y-54499175D01*
X65980257Y-54499177D01*
X66134907Y-54529939D01*
X66134910Y-54529940D01*
X66134912Y-54529940D01*
X66292598Y-54529940D01*
X66292599Y-54529939D01*
X66447251Y-54499177D01*
X66592933Y-54438834D01*
X66724043Y-54351229D01*
X66835543Y-54239729D01*
X66923148Y-54108619D01*
X66928344Y-54096076D01*
X66967931Y-54000502D01*
X66983491Y-53962937D01*
X67014254Y-53808282D01*
X67014254Y-53650598D01*
X67014254Y-53650595D01*
X66996958Y-53563644D01*
X67003185Y-53494052D01*
X67046048Y-53438875D01*
X67111938Y-53415630D01*
X67118575Y-53415452D01*
X67695654Y-53415452D01*
X67762693Y-53435137D01*
X67808448Y-53487941D01*
X67819654Y-53539452D01*
X67819654Y-53664630D01*
X67850415Y-53819273D01*
X67850418Y-53819285D01*
X67910756Y-53964956D01*
X67910763Y-53964969D01*
X67998364Y-54096072D01*
X67998367Y-54096076D01*
X68109861Y-54207570D01*
X68109865Y-54207573D01*
X68240968Y-54295174D01*
X68240981Y-54295181D01*
X68360622Y-54344737D01*
X68386657Y-54355521D01*
X68487093Y-54375499D01*
X68541307Y-54386283D01*
X68541310Y-54386284D01*
X68541312Y-54386284D01*
X68698998Y-54386284D01*
X68698999Y-54386283D01*
X68853651Y-54355521D01*
X68999333Y-54295178D01*
X68999343Y-54295171D01*
X69003041Y-54293195D01*
X69071443Y-54278946D01*
X69108956Y-54287985D01*
X69245968Y-54344737D01*
X69392187Y-54373822D01*
X69400618Y-54375499D01*
X69400621Y-54375500D01*
X69400623Y-54375500D01*
X69558309Y-54375500D01*
X69558310Y-54375499D01*
X69712962Y-54344737D01*
X69832619Y-54295174D01*
X69858637Y-54284397D01*
X69858637Y-54284396D01*
X69858644Y-54284394D01*
X69989754Y-54196789D01*
X70101254Y-54085289D01*
X70188859Y-53954179D01*
X70238589Y-53834118D01*
X70282429Y-53779715D01*
X70348723Y-53757650D01*
X70416423Y-53774929D01*
X70464034Y-53826066D01*
X70467711Y-53834119D01*
X70523211Y-53968110D01*
X70523218Y-53968123D01*
X70610819Y-54099226D01*
X70610822Y-54099230D01*
X70722316Y-54210724D01*
X70722320Y-54210727D01*
X70853423Y-54298328D01*
X70853436Y-54298335D01*
X70991500Y-54355522D01*
X70999112Y-54358675D01*
X71063756Y-54371533D01*
X71154458Y-54389576D01*
X71216369Y-54421961D01*
X71217948Y-54423512D01*
X72149084Y-55354648D01*
X72182569Y-55415971D01*
X72177585Y-55485663D01*
X72135713Y-55541596D01*
X72072693Y-55565101D01*
X72072756Y-55565732D01*
X72070373Y-55565966D01*
X72070249Y-55566013D01*
X72069705Y-55566032D01*
X72066691Y-55566329D01*
X71912048Y-55597090D01*
X71912036Y-55597093D01*
X71766365Y-55657431D01*
X71766352Y-55657438D01*
X71635249Y-55745039D01*
X71635245Y-55745042D01*
X71523751Y-55856536D01*
X71523748Y-55856540D01*
X71436147Y-55987643D01*
X71436140Y-55987656D01*
X71375802Y-56133327D01*
X71375799Y-56133339D01*
X71345038Y-56287982D01*
X71345038Y-56445672D01*
X71347710Y-56459107D01*
X71341481Y-56528698D01*
X71298616Y-56583874D01*
X71250284Y-56604912D01*
X71200823Y-56614750D01*
X71200813Y-56614753D01*
X71055142Y-56675091D01*
X71055129Y-56675098D01*
X70924026Y-56762699D01*
X70924022Y-56762702D01*
X70812528Y-56874196D01*
X70812525Y-56874200D01*
X70724924Y-57005303D01*
X70724917Y-57005316D01*
X70664579Y-57150987D01*
X70664576Y-57150999D01*
X70633815Y-57305642D01*
X70633815Y-57463335D01*
X70664576Y-57617978D01*
X70664579Y-57617990D01*
X70724917Y-57763661D01*
X70724924Y-57763674D01*
X70812525Y-57894777D01*
X70812528Y-57894781D01*
X70924022Y-58006275D01*
X70924026Y-58006278D01*
X71055129Y-58093879D01*
X71055142Y-58093886D01*
X71200813Y-58154224D01*
X71200818Y-58154226D01*
X71355468Y-58184988D01*
X71355471Y-58184989D01*
X71355473Y-58184989D01*
X71513159Y-58184989D01*
X71513160Y-58184988D01*
X71667812Y-58154226D01*
X71813494Y-58093883D01*
X71873472Y-58053806D01*
X71940145Y-58032929D01*
X72007526Y-58051412D01*
X72030042Y-58069228D01*
X72120275Y-58159461D01*
X72120279Y-58159464D01*
X72267760Y-58258009D01*
X72267773Y-58258016D01*
X72390677Y-58308923D01*
X72431648Y-58325894D01*
X72431650Y-58325894D01*
X72431655Y-58325896D01*
X72605618Y-58360499D01*
X72605621Y-58360500D01*
X72605623Y-58360500D01*
X72783007Y-58360500D01*
X72783008Y-58360499D01*
X72840996Y-58348964D01*
X72956972Y-58325896D01*
X72956975Y-58325894D01*
X72956980Y-58325894D01*
X73120861Y-58258013D01*
X73268349Y-58159464D01*
X73393778Y-58034035D01*
X73492327Y-57886547D01*
X73560208Y-57722666D01*
X73564411Y-57701540D01*
X73594813Y-57548695D01*
X73594814Y-57548693D01*
X73594814Y-57371306D01*
X73594813Y-57371304D01*
X73560210Y-57197341D01*
X73560207Y-57197332D01*
X73492330Y-57033459D01*
X73492323Y-57033446D01*
X73393778Y-56885965D01*
X73393775Y-56885961D01*
X73268352Y-56760538D01*
X73268348Y-56760535D01*
X73120867Y-56661990D01*
X73120858Y-56661985D01*
X73013610Y-56617562D01*
X72959207Y-56573721D01*
X72937142Y-56507427D01*
X72937171Y-56497834D01*
X72937571Y-56488234D01*
X72946038Y-56445671D01*
X72946038Y-56287987D01*
X72945943Y-56287511D01*
X72946146Y-56282654D01*
X72956579Y-56251922D01*
X72965723Y-56220782D01*
X72967746Y-56219029D01*
X72968607Y-56216493D01*
X72994005Y-56196274D01*
X73018527Y-56175027D01*
X73021176Y-56174646D01*
X73023272Y-56172978D01*
X73055564Y-56169701D01*
X73087685Y-56165083D01*
X73092119Y-56165992D01*
X73092785Y-56165925D01*
X73093458Y-56166267D01*
X73102115Y-56168042D01*
X73143151Y-56179038D01*
X73143152Y-56179038D01*
X75447260Y-56179038D01*
X75514299Y-56198723D01*
X75560054Y-56251527D01*
X75569998Y-56320685D01*
X75561824Y-56350484D01*
X75560974Y-56352535D01*
X75560971Y-56352546D01*
X75530210Y-56507189D01*
X75530210Y-56670970D01*
X75528022Y-56670970D01*
X75516837Y-56729943D01*
X75468771Y-56780652D01*
X75453906Y-56788009D01*
X75299457Y-56851982D01*
X75299444Y-56851989D01*
X75151963Y-56950534D01*
X75151959Y-56950537D01*
X75026536Y-57075960D01*
X75026533Y-57075964D01*
X74927988Y-57223445D01*
X74927981Y-57223458D01*
X74860104Y-57387331D01*
X74860101Y-57387340D01*
X74825498Y-57561303D01*
X74825498Y-57738694D01*
X74860101Y-57912657D01*
X74860104Y-57912666D01*
X74927981Y-58076539D01*
X74927988Y-58076552D01*
X75026533Y-58224033D01*
X75026536Y-58224037D01*
X75151959Y-58349460D01*
X75151963Y-58349463D01*
X75299444Y-58448008D01*
X75299456Y-58448015D01*
X75402167Y-58490558D01*
X75456571Y-58534398D01*
X75478636Y-58600692D01*
X75461357Y-58668392D01*
X75423607Y-58708221D01*
X75360275Y-58750538D01*
X75234852Y-58875961D01*
X75234849Y-58875965D01*
X75136304Y-59023446D01*
X75136297Y-59023459D01*
X75068420Y-59187332D01*
X75068417Y-59187341D01*
X75033814Y-59361304D01*
X75033814Y-59538695D01*
X75068417Y-59712658D01*
X75068420Y-59712667D01*
X75136297Y-59876540D01*
X75136304Y-59876553D01*
X75234849Y-60024034D01*
X75234852Y-60024038D01*
X75360275Y-60149461D01*
X75360279Y-60149464D01*
X75507760Y-60248009D01*
X75507773Y-60248016D01*
X75582200Y-60278844D01*
X75671648Y-60315894D01*
X75671650Y-60315894D01*
X75671655Y-60315896D01*
X75845618Y-60350499D01*
X75845621Y-60350500D01*
X75845623Y-60350500D01*
X76023007Y-60350500D01*
X76023008Y-60350499D01*
X76080996Y-60338964D01*
X76196972Y-60315896D01*
X76196975Y-60315894D01*
X76196980Y-60315894D01*
X76360861Y-60248013D01*
X76508349Y-60149464D01*
X76633778Y-60024035D01*
X76732327Y-59876547D01*
X76800208Y-59712666D01*
X76800681Y-59710292D01*
X76826762Y-59579172D01*
X76834814Y-59538691D01*
X76834814Y-59361309D01*
X76834814Y-59361306D01*
X76834813Y-59361304D01*
X76800210Y-59187341D01*
X76800207Y-59187332D01*
X76732330Y-59023459D01*
X76732323Y-59023446D01*
X76633778Y-58875965D01*
X76633775Y-58875961D01*
X76508352Y-58750538D01*
X76508348Y-58750535D01*
X76360867Y-58651990D01*
X76360854Y-58651983D01*
X76258144Y-58609440D01*
X76203740Y-58565599D01*
X76181675Y-58499305D01*
X76198954Y-58431606D01*
X76236703Y-58391778D01*
X76300033Y-58349463D01*
X76425462Y-58224034D01*
X76524011Y-58076546D01*
X76591892Y-57912665D01*
X76595450Y-57894781D01*
X76621528Y-57763674D01*
X76626498Y-57738690D01*
X76626498Y-57561308D01*
X76626498Y-57561305D01*
X76603838Y-57447390D01*
X76610065Y-57377798D01*
X76652928Y-57322621D01*
X76677997Y-57308639D01*
X76709889Y-57295430D01*
X76840999Y-57207825D01*
X76952499Y-57096325D01*
X77040104Y-56965215D01*
X77100447Y-56819533D01*
X77131210Y-56664878D01*
X77131210Y-56507194D01*
X77131210Y-56507191D01*
X77131209Y-56507189D01*
X77100448Y-56352546D01*
X77100447Y-56352539D01*
X77099596Y-56350484D01*
X77099471Y-56349323D01*
X77098679Y-56346712D01*
X77099174Y-56346561D01*
X77096089Y-56317851D01*
X77091422Y-56285391D01*
X77092376Y-56283300D01*
X77092131Y-56281015D01*
X77106817Y-56251680D01*
X77120447Y-56221835D01*
X77122381Y-56220591D01*
X77123410Y-56218537D01*
X77151621Y-56201800D01*
X77179225Y-56184061D01*
X77182259Y-56183624D01*
X77183501Y-56182888D01*
X77214160Y-56179038D01*
X77262755Y-56179038D01*
X77329794Y-56198723D01*
X77350436Y-56215357D01*
X80349739Y-59214660D01*
X80383224Y-59275983D01*
X80383675Y-59278149D01*
X80396887Y-59344567D01*
X80390660Y-59414158D01*
X80347798Y-59469336D01*
X80322725Y-59483319D01*
X80305140Y-59490603D01*
X80305128Y-59490609D01*
X80174025Y-59578210D01*
X80174021Y-59578213D01*
X80062527Y-59689707D01*
X80062524Y-59689711D01*
X79974923Y-59820814D01*
X79974916Y-59820827D01*
X79914578Y-59966498D01*
X79914575Y-59966510D01*
X79883814Y-60121153D01*
X79883814Y-60278846D01*
X79914575Y-60433489D01*
X79914578Y-60433501D01*
X79974916Y-60579172D01*
X79974923Y-60579185D01*
X80062524Y-60710288D01*
X80062527Y-60710292D01*
X80174021Y-60821786D01*
X80174025Y-60821789D01*
X80305128Y-60909390D01*
X80305141Y-60909397D01*
X80450812Y-60969735D01*
X80450817Y-60969737D01*
X80605467Y-61000499D01*
X80605470Y-61000500D01*
X80605472Y-61000500D01*
X80763158Y-61000500D01*
X80763159Y-61000499D01*
X80917811Y-60969737D01*
X81063493Y-60909394D01*
X81194603Y-60821789D01*
X81306103Y-60710289D01*
X81393708Y-60579179D01*
X81454051Y-60433497D01*
X81484814Y-60278842D01*
X81484814Y-60236304D01*
X89033814Y-60236304D01*
X89033814Y-60413695D01*
X89068417Y-60587658D01*
X89068420Y-60587667D01*
X89136297Y-60751540D01*
X89136304Y-60751553D01*
X89234849Y-60899034D01*
X89234852Y-60899038D01*
X89360275Y-61024461D01*
X89360279Y-61024464D01*
X89507760Y-61123009D01*
X89507773Y-61123016D01*
X89588755Y-61156559D01*
X89671648Y-61190894D01*
X89671650Y-61190894D01*
X89671655Y-61190896D01*
X89845618Y-61225499D01*
X89845621Y-61225500D01*
X89845623Y-61225500D01*
X90023007Y-61225500D01*
X90023008Y-61225499D01*
X90080996Y-61213964D01*
X90196972Y-61190896D01*
X90196975Y-61190894D01*
X90196980Y-61190894D01*
X90360861Y-61123013D01*
X90508349Y-61024464D01*
X90633778Y-60899035D01*
X90732327Y-60751547D01*
X90800208Y-60587666D01*
X90801897Y-60579179D01*
X90823278Y-60471682D01*
X90834814Y-60413691D01*
X90834814Y-60236309D01*
X90834814Y-60236306D01*
X90834813Y-60236304D01*
X90800210Y-60062341D01*
X90800207Y-60062332D01*
X90732330Y-59898459D01*
X90732323Y-59898446D01*
X90633778Y-59750965D01*
X90633775Y-59750961D01*
X90508352Y-59625538D01*
X90508348Y-59625535D01*
X90360867Y-59526990D01*
X90360854Y-59526983D01*
X90196981Y-59459106D01*
X90196972Y-59459103D01*
X90023008Y-59424500D01*
X90023005Y-59424500D01*
X89845623Y-59424500D01*
X89845620Y-59424500D01*
X89671655Y-59459103D01*
X89671646Y-59459106D01*
X89507773Y-59526983D01*
X89507760Y-59526990D01*
X89360279Y-59625535D01*
X89360275Y-59625538D01*
X89234852Y-59750961D01*
X89234849Y-59750965D01*
X89136304Y-59898446D01*
X89136297Y-59898459D01*
X89068420Y-60062332D01*
X89068417Y-60062341D01*
X89033814Y-60236304D01*
X81484814Y-60236304D01*
X81484814Y-60121158D01*
X81470299Y-60048190D01*
X81469729Y-60040843D01*
X81475484Y-60013583D01*
X81477967Y-59985840D01*
X81482602Y-59979873D01*
X81484163Y-59972480D01*
X81503739Y-59952661D01*
X81520829Y-59930662D01*
X81531164Y-59924898D01*
X81533264Y-59922773D01*
X81536125Y-59922132D01*
X81545903Y-59916679D01*
X81563493Y-59909394D01*
X81694603Y-59821789D01*
X81806103Y-59710289D01*
X81893708Y-59579179D01*
X81954051Y-59433497D01*
X81984814Y-59278842D01*
X81984814Y-59121158D01*
X81984814Y-59121155D01*
X81984813Y-59121153D01*
X81965379Y-59023453D01*
X81954051Y-58966503D01*
X81954049Y-58966498D01*
X81893711Y-58820827D01*
X81893704Y-58820814D01*
X81806103Y-58689711D01*
X81806100Y-58689707D01*
X81694606Y-58578213D01*
X81694602Y-58578210D01*
X81563499Y-58490609D01*
X81563486Y-58490602D01*
X81417815Y-58430264D01*
X81417803Y-58430261D01*
X81262465Y-58399362D01*
X81200554Y-58366977D01*
X81199026Y-58365476D01*
X81043838Y-58210288D01*
X80938101Y-58104551D01*
X80904616Y-58043228D01*
X80909600Y-57973536D01*
X80938099Y-57929190D01*
X81018255Y-57849035D01*
X81116804Y-57701547D01*
X81184685Y-57537666D01*
X81199471Y-57463335D01*
X81216485Y-57377798D01*
X81219291Y-57363691D01*
X81219291Y-57186309D01*
X81219291Y-57186306D01*
X81219290Y-57186304D01*
X81184687Y-57012341D01*
X81184684Y-57012332D01*
X81181775Y-57005310D01*
X81150691Y-56930264D01*
X81116807Y-56848459D01*
X81116800Y-56848446D01*
X81018255Y-56700965D01*
X81018252Y-56700961D01*
X80892829Y-56575538D01*
X80892825Y-56575535D01*
X80745344Y-56476990D01*
X80745331Y-56476983D01*
X80581458Y-56409106D01*
X80581449Y-56409103D01*
X80407485Y-56374500D01*
X80407482Y-56374500D01*
X80230100Y-56374500D01*
X80230097Y-56374500D01*
X80056132Y-56409103D01*
X80056123Y-56409106D01*
X79892250Y-56476983D01*
X79892237Y-56476990D01*
X79744756Y-56575535D01*
X79744752Y-56575538D01*
X79664601Y-56655690D01*
X79603278Y-56689175D01*
X79533586Y-56684191D01*
X79489239Y-56655690D01*
X78050442Y-55216893D01*
X78050440Y-55216890D01*
X77931569Y-55098019D01*
X77931568Y-55098018D01*
X77844756Y-55047898D01*
X77844756Y-55047897D01*
X77844752Y-55047896D01*
X77794637Y-55018961D01*
X77641909Y-54978037D01*
X77483795Y-54978037D01*
X77476199Y-54978037D01*
X77476183Y-54978038D01*
X73522306Y-54978038D01*
X73455267Y-54958353D01*
X73434625Y-54941719D01*
X73114059Y-54621153D01*
X87133814Y-54621153D01*
X87133814Y-54778846D01*
X87164575Y-54933489D01*
X87164578Y-54933501D01*
X87224916Y-55079172D01*
X87224923Y-55079185D01*
X87312524Y-55210288D01*
X87312527Y-55210292D01*
X87424021Y-55321786D01*
X87424025Y-55321789D01*
X87555128Y-55409390D01*
X87555141Y-55409397D01*
X87700812Y-55469735D01*
X87700817Y-55469737D01*
X87855467Y-55500499D01*
X87855470Y-55500500D01*
X87855472Y-55500500D01*
X88013158Y-55500500D01*
X88013159Y-55500499D01*
X88167811Y-55469737D01*
X88313493Y-55409394D01*
X88444603Y-55321789D01*
X88556103Y-55210289D01*
X88643708Y-55079179D01*
X88704051Y-54933497D01*
X88734814Y-54778842D01*
X88734814Y-54621158D01*
X88734814Y-54621155D01*
X88734813Y-54621153D01*
X88728525Y-54589540D01*
X88704051Y-54466503D01*
X88700704Y-54458423D01*
X88661746Y-54364368D01*
X88654277Y-54294899D01*
X88685552Y-54232420D01*
X88688599Y-54229262D01*
X88756838Y-54161024D01*
X88844443Y-54029914D01*
X88904786Y-53884232D01*
X88935549Y-53729577D01*
X88935549Y-53571893D01*
X88935549Y-53571890D01*
X88935548Y-53571888D01*
X88925673Y-53522243D01*
X88904786Y-53417238D01*
X88886999Y-53374295D01*
X88844446Y-53271562D01*
X88844439Y-53271549D01*
X88756838Y-53140446D01*
X88756835Y-53140442D01*
X88645341Y-53028948D01*
X88645337Y-53028945D01*
X88514234Y-52941344D01*
X88514221Y-52941337D01*
X88368550Y-52880999D01*
X88368538Y-52880996D01*
X88213894Y-52850235D01*
X88213891Y-52850235D01*
X88056207Y-52850235D01*
X88056204Y-52850235D01*
X87901559Y-52880996D01*
X87901547Y-52880999D01*
X87755876Y-52941337D01*
X87755863Y-52941344D01*
X87624760Y-53028945D01*
X87624756Y-53028948D01*
X87513262Y-53140442D01*
X87513259Y-53140446D01*
X87425658Y-53271549D01*
X87425651Y-53271562D01*
X87365313Y-53417233D01*
X87365310Y-53417245D01*
X87334549Y-53571888D01*
X87334549Y-53729581D01*
X87365310Y-53884224D01*
X87365313Y-53884236D01*
X87407616Y-53986366D01*
X87415085Y-54055836D01*
X87383809Y-54118315D01*
X87380736Y-54121499D01*
X87312527Y-54189707D01*
X87312524Y-54189711D01*
X87224923Y-54320814D01*
X87224916Y-54320827D01*
X87164578Y-54466498D01*
X87164575Y-54466510D01*
X87133814Y-54621153D01*
X73114059Y-54621153D01*
X72967330Y-54474424D01*
X72933845Y-54413101D01*
X72938829Y-54343409D01*
X72967328Y-54299063D01*
X73056103Y-54210289D01*
X73143708Y-54079179D01*
X73204051Y-53933497D01*
X73234814Y-53778842D01*
X73234814Y-53621158D01*
X73234814Y-53621155D01*
X73223374Y-53563644D01*
X73225251Y-53542659D01*
X73222253Y-53521805D01*
X73228303Y-53508557D01*
X73229601Y-53494052D01*
X73242525Y-53477414D01*
X73251278Y-53458249D01*
X73263530Y-53450374D01*
X73272464Y-53438875D01*
X73292330Y-53431866D01*
X73310056Y-53420475D01*
X73334639Y-53416940D01*
X73338354Y-53415630D01*
X73344991Y-53415452D01*
X73385689Y-53415452D01*
X73452728Y-53435137D01*
X73473370Y-53451771D01*
X73610975Y-53589376D01*
X73610985Y-53589387D01*
X73615315Y-53593717D01*
X73615316Y-53593718D01*
X73727120Y-53705522D01*
X73768793Y-53729581D01*
X73813931Y-53755641D01*
X73813933Y-53755643D01*
X73864049Y-53784578D01*
X73864051Y-53784579D01*
X74016778Y-53825502D01*
X74016779Y-53825502D01*
X75285148Y-53825502D01*
X75285164Y-53825503D01*
X75292760Y-53825503D01*
X75450871Y-53825503D01*
X75450874Y-53825503D01*
X75603602Y-53784579D01*
X75653721Y-53755641D01*
X75740533Y-53705522D01*
X75852337Y-53593718D01*
X75852338Y-53593715D01*
X75858974Y-53587078D01*
X75920297Y-53553594D01*
X75922465Y-53553143D01*
X75923154Y-53553006D01*
X75923155Y-53553006D01*
X76077810Y-53522243D01*
X76223492Y-53461900D01*
X76354602Y-53374295D01*
X76466102Y-53262795D01*
X76495263Y-53219151D01*
X76537734Y-53155591D01*
X76553070Y-53142773D01*
X76564765Y-53126556D01*
X76579333Y-53120824D01*
X76591346Y-53110785D01*
X76611182Y-53108293D01*
X76629784Y-53100975D01*
X76657587Y-53102465D01*
X76660671Y-53102078D01*
X76665027Y-53102864D01*
X76692321Y-53108293D01*
X76782652Y-53126261D01*
X76782653Y-53126261D01*
X76784005Y-53126530D01*
X76845916Y-53158915D01*
X76880490Y-53219630D01*
X76883814Y-53248147D01*
X76883814Y-53278848D01*
X76914575Y-53433491D01*
X76914578Y-53433503D01*
X76974916Y-53579174D01*
X76974923Y-53579187D01*
X77062524Y-53710290D01*
X77062527Y-53710294D01*
X77174021Y-53821788D01*
X77174025Y-53821791D01*
X77305128Y-53909392D01*
X77305141Y-53909399D01*
X77450805Y-53969734D01*
X77450817Y-53969739D01*
X77604979Y-54000404D01*
X77605467Y-54000501D01*
X77605470Y-54000502D01*
X77605472Y-54000502D01*
X77763158Y-54000502D01*
X77763159Y-54000501D01*
X77917811Y-53969739D01*
X78036869Y-53920423D01*
X78106338Y-53912955D01*
X78131769Y-53920422D01*
X78250816Y-53969733D01*
X78405034Y-54000409D01*
X78405466Y-54000495D01*
X78405469Y-54000496D01*
X78405471Y-54000496D01*
X78563157Y-54000496D01*
X78563158Y-54000495D01*
X78717810Y-53969733D01*
X78854885Y-53912955D01*
X78863485Y-53909393D01*
X78863485Y-53909392D01*
X78863492Y-53909390D01*
X78994602Y-53821785D01*
X79106102Y-53710285D01*
X79193707Y-53579175D01*
X79254050Y-53433493D01*
X79284813Y-53278838D01*
X79284813Y-53121154D01*
X79284813Y-53121151D01*
X79284812Y-53121149D01*
X79281175Y-53102864D01*
X79254050Y-52966499D01*
X79218634Y-52880996D01*
X79193710Y-52820823D01*
X79193703Y-52820810D01*
X79106102Y-52689707D01*
X79106099Y-52689703D01*
X78994605Y-52578209D01*
X78994601Y-52578206D01*
X78863498Y-52490605D01*
X78863485Y-52490598D01*
X78836997Y-52479627D01*
X78717814Y-52430260D01*
X78717802Y-52430257D01*
X78563158Y-52399496D01*
X78563155Y-52399496D01*
X78405471Y-52399496D01*
X78405468Y-52399496D01*
X78250823Y-52430257D01*
X78250811Y-52430260D01*
X78131758Y-52479573D01*
X78062288Y-52487042D01*
X78036854Y-52479573D01*
X77917815Y-52430266D01*
X77917805Y-52430263D01*
X77761802Y-52399232D01*
X77708123Y-52371153D01*
X85383814Y-52371153D01*
X85383814Y-52528846D01*
X85414575Y-52683489D01*
X85414578Y-52683501D01*
X85474916Y-52829172D01*
X85474923Y-52829185D01*
X85562524Y-52960288D01*
X85562527Y-52960292D01*
X85674021Y-53071786D01*
X85674025Y-53071789D01*
X85805128Y-53159390D01*
X85805141Y-53159397D01*
X85950559Y-53219630D01*
X85950817Y-53219737D01*
X86093643Y-53248147D01*
X86105467Y-53250499D01*
X86105470Y-53250500D01*
X86105472Y-53250500D01*
X86263158Y-53250500D01*
X86263159Y-53250499D01*
X86417811Y-53219737D01*
X86563493Y-53159394D01*
X86694603Y-53071789D01*
X86806103Y-52960289D01*
X86893708Y-52829179D01*
X86954051Y-52683497D01*
X86984814Y-52528842D01*
X86984814Y-52371158D01*
X86984814Y-52371155D01*
X86984813Y-52371153D01*
X86969434Y-52293837D01*
X86954051Y-52216503D01*
X86954049Y-52216498D01*
X86893711Y-52070827D01*
X86893704Y-52070814D01*
X86806103Y-51939711D01*
X86806100Y-51939707D01*
X86694606Y-51828213D01*
X86694602Y-51828210D01*
X86563499Y-51740609D01*
X86563486Y-51740602D01*
X86417815Y-51680264D01*
X86417803Y-51680261D01*
X86263159Y-51649500D01*
X86263156Y-51649500D01*
X86105472Y-51649500D01*
X86105469Y-51649500D01*
X85950824Y-51680261D01*
X85950812Y-51680264D01*
X85805141Y-51740602D01*
X85805128Y-51740609D01*
X85674025Y-51828210D01*
X85674021Y-51828213D01*
X85562527Y-51939707D01*
X85562524Y-51939711D01*
X85474923Y-52070814D01*
X85474916Y-52070827D01*
X85414578Y-52216498D01*
X85414575Y-52216510D01*
X85383814Y-52371153D01*
X77708123Y-52371153D01*
X77699891Y-52366847D01*
X77665317Y-52306131D01*
X77661994Y-52277615D01*
X77661994Y-52246916D01*
X77661993Y-52246914D01*
X77645911Y-52166067D01*
X77631231Y-52092264D01*
X77631229Y-52092259D01*
X77570891Y-51946588D01*
X77570884Y-51946575D01*
X77483283Y-51815472D01*
X77483280Y-51815468D01*
X77371786Y-51703974D01*
X77371782Y-51703971D01*
X77240679Y-51616370D01*
X77240666Y-51616363D01*
X77094995Y-51556025D01*
X77094983Y-51556022D01*
X76940339Y-51525261D01*
X76940336Y-51525261D01*
X76782652Y-51525261D01*
X76782649Y-51525261D01*
X76628004Y-51556022D01*
X76627992Y-51556025D01*
X76482321Y-51616363D01*
X76482308Y-51616370D01*
X76351205Y-51703971D01*
X76351201Y-51703974D01*
X76239707Y-51815468D01*
X76239704Y-51815472D01*
X76168073Y-51922676D01*
X76114461Y-51967481D01*
X76045136Y-51976188D01*
X76040780Y-51975402D01*
X75923159Y-51952006D01*
X75923155Y-51952006D01*
X75765471Y-51952006D01*
X75765468Y-51952006D01*
X75610823Y-51982767D01*
X75610811Y-51982770D01*
X75465140Y-52043108D01*
X75465127Y-52043115D01*
X75334024Y-52130716D01*
X75334020Y-52130719D01*
X75222526Y-52242213D01*
X75222523Y-52242217D01*
X75134922Y-52373320D01*
X75134915Y-52373333D01*
X75074577Y-52519004D01*
X75074576Y-52519008D01*
X75073446Y-52524692D01*
X75041061Y-52586603D01*
X74980346Y-52621178D01*
X74951828Y-52624502D01*
X74395933Y-52624502D01*
X74366492Y-52615857D01*
X74336506Y-52609334D01*
X74331490Y-52605579D01*
X74328894Y-52604817D01*
X74308252Y-52588183D01*
X74173376Y-52453307D01*
X74173374Y-52453304D01*
X74054503Y-52334433D01*
X74054502Y-52334432D01*
X73967690Y-52284312D01*
X73967690Y-52284311D01*
X73967686Y-52284310D01*
X73917571Y-52255375D01*
X73764843Y-52214451D01*
X73606729Y-52214451D01*
X73599133Y-52214451D01*
X73599117Y-52214452D01*
X64845461Y-52214452D01*
X64778422Y-52194767D01*
X64732667Y-52141963D01*
X64723844Y-52114644D01*
X64692842Y-51958792D01*
X64692841Y-51958791D01*
X64692841Y-51958787D01*
X64684938Y-51939707D01*
X64632501Y-51813111D01*
X64632494Y-51813098D01*
X64544893Y-51681995D01*
X64544890Y-51681991D01*
X64433396Y-51570497D01*
X64433392Y-51570494D01*
X64302289Y-51482893D01*
X64302276Y-51482886D01*
X64156605Y-51422548D01*
X64156593Y-51422545D01*
X64001949Y-51391784D01*
X64001946Y-51391784D01*
X63844262Y-51391784D01*
X63844259Y-51391784D01*
X63689614Y-51422545D01*
X63689602Y-51422548D01*
X63543931Y-51482886D01*
X63543918Y-51482893D01*
X63412815Y-51570494D01*
X63347825Y-51635484D01*
X63286501Y-51668968D01*
X63216810Y-51663983D01*
X63173585Y-51633095D01*
X63171893Y-51634788D01*
X63056088Y-51518983D01*
X63056084Y-51518980D01*
X62924981Y-51431379D01*
X62924968Y-51431372D01*
X62779297Y-51371034D01*
X62779285Y-51371031D01*
X62624641Y-51340270D01*
X62624638Y-51340270D01*
X62466954Y-51340270D01*
X62466951Y-51340270D01*
X62312306Y-51371031D01*
X62312294Y-51371034D01*
X62166623Y-51431372D01*
X62166610Y-51431379D01*
X62035507Y-51518980D01*
X62035503Y-51518983D01*
X61924009Y-51630477D01*
X61924006Y-51630481D01*
X61836405Y-51761584D01*
X61836398Y-51761597D01*
X61776060Y-51907268D01*
X61776057Y-51907280D01*
X61745296Y-52061923D01*
X61745296Y-52090452D01*
X61725611Y-52157491D01*
X61672807Y-52203246D01*
X61621296Y-52214452D01*
X60656032Y-52214452D01*
X60656016Y-52214451D01*
X60648420Y-52214451D01*
X60490305Y-52214451D01*
X60350098Y-52252019D01*
X60337573Y-52255376D01*
X60194007Y-52338264D01*
X60126106Y-52354737D01*
X60060080Y-52331884D01*
X60044326Y-52318558D01*
X60019607Y-52293839D01*
X60019603Y-52293836D01*
X59888500Y-52206235D01*
X59888490Y-52206230D01*
X59791528Y-52166067D01*
X59737125Y-52122226D01*
X59715060Y-52055932D01*
X59732339Y-51988232D01*
X59735859Y-51982644D01*
X59807327Y-51875687D01*
X59875208Y-51711806D01*
X59875510Y-51710292D01*
X59906195Y-51556024D01*
X59909814Y-51537831D01*
X59909814Y-51360449D01*
X59909814Y-51360446D01*
X59909813Y-51360444D01*
X59875210Y-51186481D01*
X59875207Y-51186472D01*
X59807330Y-51022599D01*
X59807323Y-51022586D01*
X59708778Y-50875105D01*
X59708775Y-50875101D01*
X59646133Y-50812459D01*
X59612648Y-50751136D01*
X59609814Y-50724778D01*
X59609814Y-49361304D01*
X60783814Y-49361304D01*
X60783814Y-49538695D01*
X60818417Y-49712658D01*
X60818420Y-49712667D01*
X60886297Y-49876540D01*
X60886304Y-49876553D01*
X60984849Y-50024034D01*
X60984852Y-50024038D01*
X61110275Y-50149461D01*
X61110279Y-50149464D01*
X61257760Y-50248009D01*
X61257773Y-50248016D01*
X61380677Y-50298923D01*
X61421648Y-50315894D01*
X61421650Y-50315894D01*
X61421655Y-50315896D01*
X61595618Y-50350499D01*
X61595621Y-50350500D01*
X61595623Y-50350500D01*
X61773007Y-50350500D01*
X61773008Y-50350499D01*
X61830996Y-50338964D01*
X61946972Y-50315896D01*
X61946975Y-50315894D01*
X61946980Y-50315894D01*
X62110861Y-50248013D01*
X62128385Y-50236304D01*
X71408814Y-50236304D01*
X71408814Y-50413695D01*
X71443417Y-50587658D01*
X71443420Y-50587667D01*
X71511297Y-50751540D01*
X71511304Y-50751553D01*
X71609849Y-50899034D01*
X71609852Y-50899038D01*
X71735275Y-51024461D01*
X71735279Y-51024464D01*
X71882760Y-51123009D01*
X71882773Y-51123016D01*
X72005677Y-51173923D01*
X72046648Y-51190894D01*
X72046650Y-51190894D01*
X72046655Y-51190896D01*
X72220618Y-51225499D01*
X72220621Y-51225500D01*
X72220623Y-51225500D01*
X72398007Y-51225500D01*
X72398008Y-51225499D01*
X72455996Y-51213964D01*
X72571972Y-51190896D01*
X72571975Y-51190894D01*
X72571980Y-51190894D01*
X72735861Y-51123013D01*
X72883349Y-51024464D01*
X73008778Y-50899035D01*
X73107327Y-50751547D01*
X73175208Y-50587666D01*
X73177089Y-50578213D01*
X73206517Y-50430264D01*
X73209814Y-50413691D01*
X73209814Y-50236309D01*
X73209814Y-50236306D01*
X73209813Y-50236304D01*
X73175210Y-50062341D01*
X73175207Y-50062332D01*
X73107330Y-49898459D01*
X73107323Y-49898446D01*
X73008778Y-49750965D01*
X73008775Y-49750961D01*
X72883352Y-49625538D01*
X72883348Y-49625535D01*
X72735867Y-49526990D01*
X72735854Y-49526983D01*
X72571981Y-49459106D01*
X72571972Y-49459103D01*
X72398008Y-49424500D01*
X72398005Y-49424500D01*
X72220623Y-49424500D01*
X72220620Y-49424500D01*
X72046655Y-49459103D01*
X72046646Y-49459106D01*
X71882773Y-49526983D01*
X71882760Y-49526990D01*
X71735279Y-49625535D01*
X71735275Y-49625538D01*
X71609852Y-49750961D01*
X71609849Y-49750965D01*
X71511304Y-49898446D01*
X71511297Y-49898459D01*
X71443420Y-50062332D01*
X71443417Y-50062341D01*
X71408814Y-50236304D01*
X62128385Y-50236304D01*
X62258349Y-50149464D01*
X62258352Y-50149461D01*
X62265278Y-50142536D01*
X62383775Y-50024038D01*
X62383778Y-50024035D01*
X62424409Y-49963227D01*
X62478021Y-49918422D01*
X62527511Y-49908118D01*
X62595491Y-49908118D01*
X62595492Y-49908117D01*
X62750144Y-49877355D01*
X62895826Y-49817012D01*
X62975020Y-49764095D01*
X63041694Y-49743219D01*
X63091359Y-49752637D01*
X63171648Y-49785894D01*
X63328083Y-49817011D01*
X63345618Y-49820499D01*
X63345621Y-49820500D01*
X63345623Y-49820500D01*
X63523007Y-49820500D01*
X63523008Y-49820499D01*
X63580996Y-49808964D01*
X63696972Y-49785896D01*
X63696975Y-49785894D01*
X63696980Y-49785894D01*
X63860861Y-49718013D01*
X64008349Y-49619464D01*
X64133778Y-49494035D01*
X64232327Y-49346547D01*
X64300208Y-49182666D01*
X64334814Y-49008691D01*
X64334814Y-48831309D01*
X64334814Y-48831306D01*
X64334813Y-48831304D01*
X64300210Y-48657341D01*
X64300207Y-48657332D01*
X64297991Y-48651983D01*
X64261847Y-48564721D01*
X64232330Y-48493459D01*
X64232323Y-48493446D01*
X64133778Y-48345965D01*
X64133775Y-48345961D01*
X64008352Y-48220538D01*
X64008348Y-48220535D01*
X63860867Y-48121990D01*
X63860854Y-48121983D01*
X63696981Y-48054106D01*
X63696972Y-48054103D01*
X63523008Y-48019500D01*
X63523005Y-48019500D01*
X63345623Y-48019500D01*
X63345620Y-48019500D01*
X63171655Y-48054103D01*
X63171646Y-48054106D01*
X63007773Y-48121983D01*
X63007760Y-48121990D01*
X62860279Y-48220535D01*
X62860274Y-48220539D01*
X62790994Y-48289818D01*
X62729670Y-48323303D01*
X62679123Y-48323753D01*
X62595493Y-48307118D01*
X62595489Y-48307118D01*
X62437805Y-48307118D01*
X62437802Y-48307118D01*
X62283157Y-48337879D01*
X62283145Y-48337882D01*
X62137474Y-48398220D01*
X62137461Y-48398227D01*
X62006361Y-48485826D01*
X62006355Y-48485830D01*
X61961398Y-48530787D01*
X61900075Y-48564271D01*
X61849527Y-48564721D01*
X61773007Y-48549500D01*
X61773005Y-48549500D01*
X61595623Y-48549500D01*
X61595620Y-48549500D01*
X61421655Y-48584103D01*
X61421646Y-48584106D01*
X61257773Y-48651983D01*
X61257760Y-48651990D01*
X61110279Y-48750535D01*
X61110275Y-48750538D01*
X60984852Y-48875961D01*
X60984849Y-48875965D01*
X60886304Y-49023446D01*
X60886297Y-49023459D01*
X60818420Y-49187332D01*
X60818417Y-49187341D01*
X60783814Y-49361304D01*
X59609814Y-49361304D01*
X59609814Y-46861304D01*
X60283814Y-46861304D01*
X60283814Y-47038695D01*
X60318417Y-47212658D01*
X60318420Y-47212667D01*
X60386297Y-47376540D01*
X60386304Y-47376553D01*
X60484849Y-47524034D01*
X60484852Y-47524038D01*
X60610275Y-47649461D01*
X60610279Y-47649464D01*
X60757760Y-47748009D01*
X60757773Y-47748016D01*
X60880677Y-47798923D01*
X60921648Y-47815894D01*
X60921650Y-47815894D01*
X60921655Y-47815896D01*
X61095618Y-47850499D01*
X61095621Y-47850500D01*
X61095623Y-47850500D01*
X61273007Y-47850500D01*
X61273008Y-47850499D01*
X61330996Y-47838964D01*
X61446972Y-47815896D01*
X61446975Y-47815894D01*
X61446980Y-47815894D01*
X61610861Y-47748013D01*
X61758349Y-47649464D01*
X61883778Y-47524035D01*
X61982327Y-47376547D01*
X61986130Y-47367367D01*
X62011854Y-47305261D01*
X62050208Y-47212666D01*
X62051883Y-47204249D01*
X62078230Y-47071789D01*
X62084814Y-47038691D01*
X62084814Y-46974500D01*
X62104499Y-46907461D01*
X62157303Y-46861706D01*
X62208814Y-46850500D01*
X68329468Y-46850500D01*
X68396507Y-46870185D01*
X68442262Y-46922989D01*
X68452206Y-46992147D01*
X68444029Y-47021952D01*
X68432023Y-47050935D01*
X68432020Y-47050944D01*
X68397417Y-47224907D01*
X68397417Y-47402298D01*
X68432020Y-47576261D01*
X68432023Y-47576270D01*
X68499900Y-47740143D01*
X68499907Y-47740156D01*
X68598452Y-47887637D01*
X68598455Y-47887641D01*
X68723878Y-48013064D01*
X68723882Y-48013067D01*
X68871363Y-48111612D01*
X68871376Y-48111619D01*
X68986725Y-48159397D01*
X69035251Y-48179497D01*
X69035253Y-48179497D01*
X69035258Y-48179499D01*
X69209221Y-48214102D01*
X69209224Y-48214103D01*
X69209226Y-48214103D01*
X69386610Y-48214103D01*
X69386611Y-48214102D01*
X69444599Y-48202567D01*
X69560575Y-48179499D01*
X69560578Y-48179497D01*
X69560583Y-48179497D01*
X69724464Y-48111616D01*
X69871952Y-48013067D01*
X69997381Y-47887638D01*
X70095930Y-47740150D01*
X70163811Y-47576269D01*
X70174201Y-47524038D01*
X70187938Y-47454976D01*
X70198417Y-47402294D01*
X70198417Y-47224912D01*
X70198417Y-47224909D01*
X70198416Y-47224907D01*
X70163813Y-47050944D01*
X70163810Y-47050935D01*
X70158738Y-47038691D01*
X70151804Y-47021951D01*
X70144336Y-46952483D01*
X70175611Y-46890004D01*
X70235701Y-46854352D01*
X70266366Y-46850500D01*
X72640146Y-46850500D01*
X72707185Y-46870185D01*
X72752940Y-46922989D01*
X72762884Y-46992147D01*
X72743247Y-47043392D01*
X72724924Y-47070812D01*
X72724916Y-47070827D01*
X72664578Y-47216498D01*
X72664575Y-47216510D01*
X72633814Y-47371153D01*
X72633814Y-47528846D01*
X72664575Y-47683489D01*
X72664578Y-47683501D01*
X72724916Y-47829172D01*
X72724923Y-47829185D01*
X72812524Y-47960288D01*
X72812527Y-47960292D01*
X72924021Y-48071786D01*
X72924025Y-48071789D01*
X73055128Y-48159390D01*
X73055141Y-48159397D01*
X73128327Y-48189711D01*
X73200817Y-48219737D01*
X73265461Y-48232595D01*
X73356163Y-48250638D01*
X73418074Y-48283023D01*
X73419653Y-48284574D01*
X74472898Y-49337819D01*
X74506383Y-49399142D01*
X74501399Y-49468834D01*
X74459527Y-49524767D01*
X74394063Y-49549184D01*
X74385217Y-49549500D01*
X74297092Y-49549500D01*
X74123127Y-49584103D01*
X74123118Y-49584106D01*
X73959245Y-49651983D01*
X73959232Y-49651990D01*
X73811751Y-49750535D01*
X73811747Y-49750538D01*
X73686324Y-49875961D01*
X73686321Y-49875965D01*
X73587776Y-50023446D01*
X73587769Y-50023459D01*
X73519892Y-50187332D01*
X73519889Y-50187341D01*
X73485286Y-50361304D01*
X73485286Y-50538695D01*
X73519889Y-50712658D01*
X73519892Y-50712667D01*
X73587769Y-50876540D01*
X73587776Y-50876553D01*
X73686321Y-51024034D01*
X73686324Y-51024038D01*
X73811747Y-51149461D01*
X73811751Y-51149464D01*
X73959232Y-51248009D01*
X73959245Y-51248016D01*
X74033672Y-51278844D01*
X74123120Y-51315894D01*
X74123122Y-51315894D01*
X74123127Y-51315896D01*
X74297090Y-51350499D01*
X74297093Y-51350500D01*
X74297095Y-51350500D01*
X74474479Y-51350500D01*
X74474480Y-51350499D01*
X74532468Y-51338964D01*
X74648444Y-51315896D01*
X74648447Y-51315894D01*
X74648452Y-51315894D01*
X74812333Y-51248013D01*
X74959821Y-51149464D01*
X75085250Y-51024035D01*
X75183799Y-50876547D01*
X75251680Y-50712666D01*
X75286286Y-50538691D01*
X75286286Y-50361309D01*
X75286286Y-50361306D01*
X75286285Y-50361304D01*
X75251682Y-50187341D01*
X75251680Y-50187336D01*
X75251680Y-50187334D01*
X75237895Y-50154055D01*
X75230427Y-50084588D01*
X75261702Y-50022109D01*
X75321791Y-49986457D01*
X75352457Y-49982605D01*
X77111466Y-49982605D01*
X77178505Y-50002290D01*
X77224260Y-50055094D01*
X77234204Y-50124252D01*
X77231214Y-50137701D01*
X77199696Y-50296153D01*
X77199696Y-50453846D01*
X77230457Y-50608489D01*
X77230460Y-50608501D01*
X77290798Y-50754172D01*
X77290805Y-50754185D01*
X77378406Y-50885288D01*
X77378409Y-50885292D01*
X77489903Y-50996786D01*
X77489907Y-50996789D01*
X77621010Y-51084390D01*
X77621023Y-51084397D01*
X77714252Y-51123013D01*
X77766699Y-51144737D01*
X77921349Y-51175499D01*
X77921352Y-51175500D01*
X77921354Y-51175500D01*
X78079040Y-51175500D01*
X78079041Y-51175499D01*
X78233693Y-51144737D01*
X78290630Y-51121153D01*
X87133814Y-51121153D01*
X87133814Y-51278846D01*
X87164575Y-51433489D01*
X87164578Y-51433501D01*
X87224916Y-51579172D01*
X87224923Y-51579185D01*
X87312524Y-51710288D01*
X87312527Y-51710292D01*
X87424021Y-51821786D01*
X87424025Y-51821789D01*
X87555128Y-51909390D01*
X87555141Y-51909397D01*
X87658010Y-51952006D01*
X87700817Y-51969737D01*
X87855467Y-52000499D01*
X87855470Y-52000500D01*
X87855472Y-52000500D01*
X88013158Y-52000500D01*
X88013159Y-52000499D01*
X88167811Y-51969737D01*
X88313493Y-51909394D01*
X88444603Y-51821789D01*
X88556103Y-51710289D01*
X88643708Y-51579179D01*
X88704051Y-51433497D01*
X88734814Y-51278842D01*
X88734814Y-51121158D01*
X88734814Y-51121155D01*
X88734813Y-51121153D01*
X88715580Y-51024464D01*
X88704051Y-50966503D01*
X88704049Y-50966498D01*
X88643711Y-50820827D01*
X88643704Y-50820814D01*
X88556103Y-50689711D01*
X88556100Y-50689707D01*
X88444606Y-50578213D01*
X88444602Y-50578210D01*
X88313499Y-50490609D01*
X88313486Y-50490602D01*
X88167815Y-50430264D01*
X88167803Y-50430261D01*
X88013159Y-50399500D01*
X88013156Y-50399500D01*
X87855472Y-50399500D01*
X87855469Y-50399500D01*
X87700824Y-50430261D01*
X87700812Y-50430264D01*
X87555141Y-50490602D01*
X87555128Y-50490609D01*
X87424025Y-50578210D01*
X87424021Y-50578213D01*
X87312527Y-50689707D01*
X87312524Y-50689711D01*
X87224923Y-50820814D01*
X87224916Y-50820827D01*
X87164578Y-50966498D01*
X87164575Y-50966510D01*
X87133814Y-51121153D01*
X78290630Y-51121153D01*
X78379375Y-51084394D01*
X78510485Y-50996789D01*
X78621985Y-50885289D01*
X78709590Y-50754179D01*
X78710851Y-50751136D01*
X78769931Y-50608501D01*
X78769933Y-50608497D01*
X78800696Y-50453842D01*
X78800696Y-50296158D01*
X78800696Y-50296155D01*
X78800695Y-50296153D01*
X78768745Y-50135528D01*
X78770202Y-50135238D01*
X78769638Y-50072746D01*
X78806880Y-50013629D01*
X78870171Y-49984032D01*
X78888926Y-49982605D01*
X83665540Y-49982605D01*
X83665556Y-49982606D01*
X83673152Y-49982606D01*
X83831263Y-49982606D01*
X83831266Y-49982606D01*
X83983994Y-49941682D01*
X84045994Y-49905886D01*
X84120925Y-49862625D01*
X84232729Y-49750821D01*
X84232729Y-49750819D01*
X84242933Y-49740616D01*
X84242936Y-49740611D01*
X84448975Y-49534572D01*
X84510297Y-49501089D01*
X84512464Y-49500638D01*
X84570399Y-49489113D01*
X84667811Y-49469737D01*
X84813493Y-49409394D01*
X84944603Y-49321789D01*
X85056103Y-49210289D01*
X85143708Y-49079179D01*
X85204051Y-48933497D01*
X85234814Y-48778842D01*
X85234814Y-48621158D01*
X85234814Y-48621155D01*
X85234813Y-48621153D01*
X85209413Y-48493459D01*
X85204051Y-48466503D01*
X85177714Y-48402919D01*
X85143711Y-48320827D01*
X85143704Y-48320814D01*
X85056103Y-48189711D01*
X85056100Y-48189707D01*
X84944606Y-48078213D01*
X84944602Y-48078210D01*
X84813499Y-47990609D01*
X84813489Y-47990604D01*
X84755085Y-47966412D01*
X84700681Y-47922570D01*
X84680921Y-47876043D01*
X84674051Y-47841503D01*
X84663444Y-47815896D01*
X84613711Y-47695827D01*
X84613704Y-47695814D01*
X84526103Y-47564711D01*
X84526100Y-47564707D01*
X84414606Y-47453213D01*
X84414602Y-47453210D01*
X84283499Y-47365609D01*
X84283486Y-47365602D01*
X84137815Y-47305264D01*
X84137806Y-47305261D01*
X84098038Y-47297351D01*
X84036128Y-47264965D01*
X84001554Y-47204249D01*
X84005295Y-47134480D01*
X84046162Y-47077808D01*
X84053324Y-47072643D01*
X84054603Y-47071789D01*
X84166103Y-46960289D01*
X84253708Y-46829179D01*
X84314051Y-46683497D01*
X84344814Y-46528842D01*
X84344814Y-46371158D01*
X84344814Y-46371155D01*
X84344813Y-46371153D01*
X84322760Y-46260288D01*
X84314051Y-46216503D01*
X84269718Y-46109472D01*
X84253710Y-46070825D01*
X84253709Y-46070824D01*
X84253708Y-46070821D01*
X84218317Y-46017856D01*
X84216538Y-46012172D01*
X84212344Y-46007944D01*
X84206217Y-45979211D01*
X84197440Y-45951180D01*
X84198695Y-45943937D01*
X84197773Y-45939611D01*
X84203893Y-45913951D01*
X84205418Y-45905154D01*
X84206104Y-45903337D01*
X84213160Y-45886304D01*
X88493814Y-45886304D01*
X88493814Y-46063695D01*
X88528417Y-46237658D01*
X88528420Y-46237667D01*
X88596297Y-46401540D01*
X88596304Y-46401553D01*
X88694849Y-46549034D01*
X88694852Y-46549038D01*
X88820275Y-46674461D01*
X88820279Y-46674464D01*
X88967760Y-46773009D01*
X88967773Y-46773016D01*
X89090677Y-46823923D01*
X89131648Y-46840894D01*
X89131650Y-46840894D01*
X89131655Y-46840896D01*
X89305618Y-46875499D01*
X89305621Y-46875500D01*
X89305623Y-46875500D01*
X89483007Y-46875500D01*
X89483008Y-46875499D01*
X89554373Y-46861304D01*
X89656972Y-46840896D01*
X89656975Y-46840894D01*
X89656980Y-46840894D01*
X89820861Y-46773013D01*
X89968349Y-46674464D01*
X90093778Y-46549035D01*
X90192327Y-46401547D01*
X90260208Y-46237666D01*
X90264417Y-46216510D01*
X90283406Y-46121041D01*
X90294814Y-46063691D01*
X90294814Y-45886309D01*
X90294814Y-45886306D01*
X90294813Y-45886304D01*
X90260210Y-45712341D01*
X90260207Y-45712332D01*
X90192330Y-45548459D01*
X90192323Y-45548446D01*
X90093778Y-45400965D01*
X90093775Y-45400961D01*
X89968352Y-45275538D01*
X89968348Y-45275535D01*
X89820867Y-45176990D01*
X89820854Y-45176983D01*
X89656981Y-45109106D01*
X89656972Y-45109103D01*
X89483008Y-45074500D01*
X89483005Y-45074500D01*
X89305623Y-45074500D01*
X89305620Y-45074500D01*
X89131655Y-45109103D01*
X89131646Y-45109106D01*
X88967773Y-45176983D01*
X88967760Y-45176990D01*
X88820279Y-45275535D01*
X88820275Y-45275538D01*
X88694852Y-45400961D01*
X88694849Y-45400965D01*
X88596304Y-45548446D01*
X88596297Y-45548459D01*
X88528420Y-45712332D01*
X88528417Y-45712341D01*
X88493814Y-45886304D01*
X84213160Y-45886304D01*
X84225829Y-45855718D01*
X84242983Y-45769479D01*
X84256592Y-45701065D01*
X84256592Y-45543376D01*
X84256591Y-45543374D01*
X84225830Y-45388731D01*
X84225829Y-45388724D01*
X84225827Y-45388719D01*
X84165489Y-45243048D01*
X84165482Y-45243035D01*
X84077881Y-45111932D01*
X84077878Y-45111928D01*
X83966384Y-45000434D01*
X83966380Y-45000431D01*
X83835277Y-44912830D01*
X83835264Y-44912823D01*
X83689593Y-44852485D01*
X83689581Y-44852482D01*
X83534937Y-44821721D01*
X83534934Y-44821721D01*
X83377250Y-44821721D01*
X83377247Y-44821721D01*
X83222602Y-44852482D01*
X83222590Y-44852485D01*
X83076919Y-44912823D01*
X83076906Y-44912830D01*
X82945803Y-45000431D01*
X82945799Y-45000434D01*
X82834305Y-45111928D01*
X82834302Y-45111932D01*
X82746701Y-45243035D01*
X82746694Y-45243048D01*
X82686356Y-45388719D01*
X82686353Y-45388731D01*
X82655592Y-45543374D01*
X82655592Y-45701067D01*
X82686353Y-45855710D01*
X82686356Y-45855722D01*
X82746695Y-46001395D01*
X82746696Y-46001397D01*
X82782087Y-46054363D01*
X82802965Y-46121041D01*
X82793547Y-46170705D01*
X82774576Y-46216506D01*
X82774574Y-46216511D01*
X82743814Y-46371153D01*
X82743814Y-46528846D01*
X82774575Y-46683489D01*
X82774578Y-46683501D01*
X82834916Y-46829172D01*
X82834923Y-46829185D01*
X82922524Y-46960288D01*
X82922527Y-46960292D01*
X83031357Y-47069122D01*
X83064842Y-47130445D01*
X83059858Y-47200137D01*
X83017986Y-47256070D01*
X82967868Y-47278420D01*
X82824057Y-47307026D01*
X82824047Y-47307029D01*
X82678376Y-47367367D01*
X82678363Y-47367374D01*
X82546674Y-47455367D01*
X82479996Y-47476245D01*
X82477783Y-47476265D01*
X81962129Y-47476265D01*
X81895090Y-47456580D01*
X81874448Y-47439946D01*
X78714796Y-44280294D01*
X78681311Y-44218971D01*
X78686295Y-44149279D01*
X78699373Y-44123725D01*
X78774821Y-44010810D01*
X78835164Y-43865128D01*
X78835925Y-43861304D01*
X85783814Y-43861304D01*
X85783814Y-44038695D01*
X85818417Y-44212658D01*
X85818420Y-44212667D01*
X85886297Y-44376540D01*
X85886304Y-44376553D01*
X85984849Y-44524034D01*
X85984852Y-44524038D01*
X86110275Y-44649461D01*
X86110279Y-44649464D01*
X86257760Y-44748009D01*
X86257773Y-44748016D01*
X86347620Y-44785231D01*
X86421648Y-44815894D01*
X86421650Y-44815894D01*
X86421655Y-44815896D01*
X86595618Y-44850499D01*
X86595621Y-44850500D01*
X86595623Y-44850500D01*
X86773007Y-44850500D01*
X86773008Y-44850499D01*
X86830996Y-44838964D01*
X86946972Y-44815896D01*
X86946975Y-44815894D01*
X86946980Y-44815894D01*
X87110861Y-44748013D01*
X87258349Y-44649464D01*
X87383778Y-44524035D01*
X87482327Y-44376547D01*
X87550208Y-44212666D01*
X87564281Y-44141920D01*
X87578638Y-44069738D01*
X87584814Y-44038691D01*
X87584814Y-43861309D01*
X87584814Y-43861306D01*
X87584813Y-43861304D01*
X87550210Y-43687341D01*
X87550207Y-43687332D01*
X87546832Y-43679185D01*
X87526366Y-43629774D01*
X87482330Y-43523459D01*
X87482323Y-43523446D01*
X87383778Y-43375965D01*
X87383775Y-43375961D01*
X87258352Y-43250538D01*
X87258348Y-43250535D01*
X87110867Y-43151990D01*
X87110854Y-43151983D01*
X86946981Y-43084106D01*
X86946972Y-43084103D01*
X86773008Y-43049500D01*
X86773005Y-43049500D01*
X86595623Y-43049500D01*
X86595620Y-43049500D01*
X86421655Y-43084103D01*
X86421646Y-43084106D01*
X86257773Y-43151983D01*
X86257760Y-43151990D01*
X86110279Y-43250535D01*
X86110275Y-43250538D01*
X85984852Y-43375961D01*
X85984849Y-43375965D01*
X85886304Y-43523446D01*
X85886297Y-43523459D01*
X85818420Y-43687332D01*
X85818417Y-43687341D01*
X85783814Y-43861304D01*
X78835925Y-43861304D01*
X78846073Y-43810288D01*
X78865926Y-43710477D01*
X78865927Y-43710475D01*
X78865927Y-43552786D01*
X78865926Y-43552784D01*
X78835165Y-43398141D01*
X78835164Y-43398134D01*
X78827173Y-43378842D01*
X78774824Y-43252458D01*
X78774817Y-43252445D01*
X78687216Y-43121342D01*
X78687213Y-43121338D01*
X78575719Y-43009844D01*
X78575715Y-43009841D01*
X78444612Y-42922240D01*
X78444599Y-42922233D01*
X78298928Y-42861895D01*
X78298916Y-42861892D01*
X78144272Y-42831131D01*
X78144269Y-42831131D01*
X77986585Y-42831131D01*
X77986580Y-42831131D01*
X77854204Y-42857462D01*
X77784612Y-42851235D01*
X77729435Y-42808371D01*
X77706191Y-42742482D01*
X77708396Y-42711653D01*
X77734814Y-42578844D01*
X77734814Y-42421155D01*
X77734813Y-42421153D01*
X77708603Y-42289388D01*
X77704051Y-42266503D01*
X77685414Y-42221508D01*
X77643711Y-42120827D01*
X77643704Y-42120814D01*
X77556103Y-41989711D01*
X77556100Y-41989707D01*
X77444606Y-41878213D01*
X77444602Y-41878210D01*
X77313499Y-41790609D01*
X77313486Y-41790602D01*
X77167815Y-41730264D01*
X77167803Y-41730261D01*
X77013159Y-41699500D01*
X77013156Y-41699500D01*
X76855472Y-41699500D01*
X76855469Y-41699500D01*
X76700824Y-41730261D01*
X76700812Y-41730264D01*
X76557502Y-41789625D01*
X76488033Y-41797094D01*
X76462598Y-41789625D01*
X76319287Y-41730264D01*
X76319275Y-41730261D01*
X76164631Y-41699500D01*
X76164628Y-41699500D01*
X76006944Y-41699500D01*
X76006941Y-41699500D01*
X75852296Y-41730261D01*
X75852284Y-41730264D01*
X75706613Y-41790602D01*
X75706600Y-41790609D01*
X75575497Y-41878210D01*
X75575493Y-41878213D01*
X75463999Y-41989707D01*
X75463996Y-41989711D01*
X75376395Y-42120814D01*
X75376388Y-42120827D01*
X75316050Y-42266498D01*
X75316047Y-42266510D01*
X75285286Y-42421153D01*
X75285286Y-42575500D01*
X75265601Y-42642539D01*
X75212797Y-42688294D01*
X75161286Y-42699500D01*
X70748524Y-42699500D01*
X70681485Y-42679815D01*
X70635730Y-42627011D01*
X70625786Y-42557853D01*
X70645422Y-42506609D01*
X70674789Y-42462658D01*
X70732327Y-42376547D01*
X70800208Y-42212666D01*
X70834814Y-42038691D01*
X70834814Y-41861309D01*
X70834814Y-41861306D01*
X70834813Y-41861304D01*
X70800210Y-41687341D01*
X70800208Y-41687336D01*
X70800208Y-41687334D01*
X70796500Y-41678383D01*
X70789032Y-41608916D01*
X70820307Y-41546437D01*
X70880396Y-41510785D01*
X70911062Y-41506933D01*
X71008939Y-41506933D01*
X71008940Y-41506932D01*
X71163592Y-41476170D01*
X71309274Y-41415827D01*
X71440384Y-41328222D01*
X71551884Y-41216722D01*
X71639489Y-41085612D01*
X71699832Y-40939930D01*
X71730595Y-40785275D01*
X71730595Y-40627591D01*
X71730595Y-40627588D01*
X71730594Y-40627587D01*
X71727356Y-40611309D01*
X71727355Y-40611304D01*
X82283814Y-40611304D01*
X82283814Y-40788695D01*
X82318417Y-40962658D01*
X82318420Y-40962667D01*
X82386297Y-41126540D01*
X82386304Y-41126553D01*
X82484849Y-41274034D01*
X82484852Y-41274038D01*
X82610275Y-41399461D01*
X82610279Y-41399464D01*
X82757760Y-41498009D01*
X82757773Y-41498016D01*
X82874674Y-41546437D01*
X82921648Y-41565894D01*
X82921650Y-41565894D01*
X82921655Y-41565896D01*
X83095618Y-41600499D01*
X83095621Y-41600500D01*
X83095623Y-41600500D01*
X83273007Y-41600500D01*
X83273008Y-41600499D01*
X83330996Y-41588964D01*
X83446972Y-41565896D01*
X83446975Y-41565894D01*
X83446980Y-41565894D01*
X83610861Y-41498013D01*
X83758349Y-41399464D01*
X83883778Y-41274035D01*
X83982327Y-41126547D01*
X84050208Y-40962666D01*
X84084814Y-40788691D01*
X84084814Y-40611309D01*
X84084814Y-40611306D01*
X84084813Y-40611304D01*
X84050210Y-40437341D01*
X84050207Y-40437332D01*
X83982330Y-40273459D01*
X83982323Y-40273446D01*
X83883778Y-40125965D01*
X83883775Y-40125961D01*
X83758352Y-40000538D01*
X83758348Y-40000535D01*
X83610867Y-39901990D01*
X83610854Y-39901983D01*
X83446981Y-39834106D01*
X83446972Y-39834103D01*
X83273008Y-39799500D01*
X83273005Y-39799500D01*
X83095623Y-39799500D01*
X83095620Y-39799500D01*
X82921655Y-39834103D01*
X82921646Y-39834106D01*
X82757773Y-39901983D01*
X82757760Y-39901990D01*
X82610279Y-40000535D01*
X82610275Y-40000538D01*
X82484852Y-40125961D01*
X82484849Y-40125965D01*
X82386304Y-40273446D01*
X82386297Y-40273459D01*
X82318420Y-40437332D01*
X82318417Y-40437341D01*
X82283814Y-40611304D01*
X71727355Y-40611304D01*
X71699832Y-40472936D01*
X71685085Y-40437334D01*
X71639492Y-40327260D01*
X71639485Y-40327247D01*
X71551884Y-40196144D01*
X71551881Y-40196140D01*
X71440387Y-40084646D01*
X71440383Y-40084643D01*
X71309280Y-39997042D01*
X71309267Y-39997035D01*
X71163596Y-39936697D01*
X71163584Y-39936694D01*
X71008940Y-39905933D01*
X71008937Y-39905933D01*
X70851253Y-39905933D01*
X70851250Y-39905933D01*
X70696605Y-39936694D01*
X70696593Y-39936697D01*
X70550922Y-39997035D01*
X70550909Y-39997042D01*
X70419806Y-40084643D01*
X70419802Y-40084646D01*
X70308308Y-40196140D01*
X70308305Y-40196144D01*
X70220704Y-40327247D01*
X70220697Y-40327260D01*
X70160359Y-40472931D01*
X70160356Y-40472943D01*
X70129595Y-40627586D01*
X70129595Y-40785279D01*
X70152714Y-40901505D01*
X70146487Y-40971096D01*
X70103624Y-41026274D01*
X70037734Y-41049518D01*
X70029097Y-41049327D01*
X70029097Y-41049500D01*
X69845620Y-41049500D01*
X69671655Y-41084103D01*
X69671646Y-41084106D01*
X69507773Y-41151983D01*
X69507760Y-41151990D01*
X69360279Y-41250535D01*
X69360275Y-41250538D01*
X69234852Y-41375961D01*
X69234849Y-41375965D01*
X69136304Y-41523446D01*
X69136297Y-41523459D01*
X69068420Y-41687332D01*
X69068417Y-41687341D01*
X69033814Y-41861304D01*
X69033814Y-42038695D01*
X69068417Y-42212658D01*
X69068420Y-42212667D01*
X69136297Y-42376540D01*
X69136304Y-42376552D01*
X69223206Y-42506609D01*
X69244084Y-42573286D01*
X69225600Y-42640666D01*
X69173621Y-42687357D01*
X69120104Y-42699500D01*
X63264080Y-42699500D01*
X63197041Y-42679815D01*
X63195189Y-42678602D01*
X63063499Y-42590609D01*
X63063486Y-42590602D01*
X62917815Y-42530264D01*
X62917803Y-42530261D01*
X62763159Y-42499500D01*
X62763156Y-42499500D01*
X62605472Y-42499500D01*
X62605469Y-42499500D01*
X62450824Y-42530261D01*
X62450812Y-42530264D01*
X62305141Y-42590602D01*
X62305128Y-42590609D01*
X62174025Y-42678210D01*
X62174021Y-42678213D01*
X62062527Y-42789707D01*
X62062524Y-42789711D01*
X61974923Y-42920814D01*
X61974916Y-42920827D01*
X61914578Y-43066498D01*
X61914575Y-43066510D01*
X61883814Y-43221153D01*
X61883814Y-43378846D01*
X61914575Y-43533489D01*
X61914578Y-43533501D01*
X61974916Y-43679172D01*
X61974923Y-43679185D01*
X62062524Y-43810288D01*
X62062527Y-43810292D01*
X62174021Y-43921786D01*
X62174025Y-43921789D01*
X62305128Y-44009390D01*
X62305141Y-44009397D01*
X62375874Y-44038695D01*
X62450817Y-44069737D01*
X62605467Y-44100499D01*
X62605470Y-44100500D01*
X62605472Y-44100500D01*
X62763158Y-44100500D01*
X62763159Y-44100499D01*
X62917811Y-44069737D01*
X63030480Y-44023067D01*
X63063486Y-44009397D01*
X63063486Y-44009396D01*
X63063493Y-44009394D01*
X63063499Y-44009390D01*
X63195189Y-43921398D01*
X63261867Y-43900520D01*
X63264080Y-43900500D01*
X76585170Y-43900500D01*
X76652209Y-43920185D01*
X76672851Y-43936819D01*
X78585742Y-45849710D01*
X78590080Y-45857656D01*
X78597330Y-45863083D01*
X78606563Y-45887842D01*
X78619227Y-45911033D01*
X78618581Y-45920064D01*
X78621745Y-45928548D01*
X78616128Y-45954366D01*
X78614243Y-45980725D01*
X78608423Y-45989779D01*
X78606892Y-45996820D01*
X78585740Y-46025074D01*
X78564885Y-46045928D01*
X78503561Y-46079412D01*
X78433870Y-46074426D01*
X78389525Y-46045926D01*
X78231954Y-45888355D01*
X78231952Y-45888352D01*
X78113081Y-45769481D01*
X78113080Y-45769480D01*
X78026268Y-45719360D01*
X78026268Y-45719359D01*
X78026264Y-45719358D01*
X77976149Y-45690423D01*
X77823421Y-45649499D01*
X77665307Y-45649499D01*
X77657711Y-45649499D01*
X77657695Y-45649500D01*
X70309266Y-45649500D01*
X70242227Y-45629815D01*
X70196472Y-45577011D01*
X70185266Y-45525500D01*
X70185266Y-45490252D01*
X70185265Y-45490250D01*
X70161510Y-45370826D01*
X70154503Y-45335600D01*
X70129624Y-45275536D01*
X70094163Y-45189924D01*
X70094156Y-45189911D01*
X70006555Y-45058808D01*
X70006552Y-45058804D01*
X69895058Y-44947310D01*
X69895054Y-44947307D01*
X69763951Y-44859706D01*
X69763938Y-44859699D01*
X69618267Y-44799361D01*
X69618255Y-44799358D01*
X69463611Y-44768597D01*
X69463608Y-44768597D01*
X69305924Y-44768597D01*
X69305921Y-44768597D01*
X69222296Y-44785231D01*
X69152705Y-44779004D01*
X69097527Y-44736141D01*
X69095003Y-44732505D01*
X69057224Y-44675964D01*
X68931798Y-44550538D01*
X68931794Y-44550535D01*
X68784313Y-44451990D01*
X68784300Y-44451983D01*
X68620427Y-44384106D01*
X68620418Y-44384103D01*
X68446454Y-44349500D01*
X68446451Y-44349500D01*
X68269069Y-44349500D01*
X68269066Y-44349500D01*
X68095101Y-44384103D01*
X68095092Y-44384106D01*
X67931219Y-44451983D01*
X67931206Y-44451990D01*
X67783725Y-44550535D01*
X67783721Y-44550538D01*
X67658298Y-44675961D01*
X67658295Y-44675965D01*
X67559750Y-44823446D01*
X67559743Y-44823459D01*
X67491866Y-44987332D01*
X67491863Y-44987341D01*
X67457260Y-45161304D01*
X67457260Y-45338695D01*
X67489606Y-45501309D01*
X67483379Y-45570900D01*
X67440516Y-45626078D01*
X67374626Y-45649322D01*
X67367989Y-45649500D01*
X62100900Y-45649500D01*
X62033861Y-45629815D01*
X61988106Y-45577011D01*
X61979283Y-45549691D01*
X61972682Y-45516509D01*
X61972681Y-45516502D01*
X61957595Y-45480081D01*
X61912341Y-45370826D01*
X61912334Y-45370813D01*
X61824733Y-45239710D01*
X61824730Y-45239706D01*
X61713236Y-45128212D01*
X61713232Y-45128209D01*
X61582129Y-45040608D01*
X61582116Y-45040601D01*
X61436445Y-44980263D01*
X61436433Y-44980260D01*
X61281789Y-44949499D01*
X61281786Y-44949499D01*
X61124102Y-44949499D01*
X61124099Y-44949499D01*
X60969454Y-44980260D01*
X60969442Y-44980263D01*
X60823771Y-45040601D01*
X60823758Y-45040608D01*
X60692655Y-45128209D01*
X60692651Y-45128212D01*
X60581157Y-45239706D01*
X60581154Y-45239710D01*
X60493553Y-45370813D01*
X60493546Y-45370826D01*
X60433208Y-45516497D01*
X60433205Y-45516509D01*
X60402444Y-45671152D01*
X60402444Y-45828845D01*
X60433205Y-45983488D01*
X60433208Y-45983500D01*
X60493546Y-46129171D01*
X60493553Y-46129184D01*
X60532376Y-46187286D01*
X60553254Y-46253964D01*
X60534770Y-46321344D01*
X60516956Y-46343857D01*
X60484853Y-46375960D01*
X60484849Y-46375965D01*
X60386304Y-46523446D01*
X60386297Y-46523459D01*
X60318420Y-46687332D01*
X60318417Y-46687341D01*
X60283814Y-46861304D01*
X59609814Y-46861304D01*
X59609814Y-44298589D01*
X59629499Y-44231550D01*
X59646133Y-44210908D01*
X61496730Y-42360311D01*
X61558053Y-42326826D01*
X61584411Y-42323992D01*
X61673007Y-42323992D01*
X61673008Y-42323991D01*
X61730996Y-42312456D01*
X61846972Y-42289388D01*
X61846975Y-42289386D01*
X61846980Y-42289386D01*
X62010861Y-42221505D01*
X62158349Y-42122956D01*
X62283778Y-41997527D01*
X62382327Y-41850039D01*
X62450208Y-41686158D01*
X62462181Y-41625969D01*
X62482572Y-41523453D01*
X62484814Y-41512183D01*
X62484814Y-41334801D01*
X62484814Y-41334798D01*
X62484813Y-41334796D01*
X62450210Y-41160833D01*
X62450207Y-41160824D01*
X62382330Y-40996951D01*
X62382323Y-40996938D01*
X62283778Y-40849457D01*
X62283775Y-40849453D01*
X62158352Y-40724030D01*
X62158348Y-40724027D01*
X62010867Y-40625482D01*
X62010854Y-40625475D01*
X61846981Y-40557598D01*
X61846972Y-40557595D01*
X61673008Y-40522992D01*
X61673005Y-40522992D01*
X61495623Y-40522992D01*
X61495620Y-40522992D01*
X61321655Y-40557595D01*
X61321646Y-40557598D01*
X61157773Y-40625475D01*
X61157760Y-40625482D01*
X61010279Y-40724027D01*
X61010275Y-40724030D01*
X60884852Y-40849453D01*
X60884849Y-40849457D01*
X60786304Y-40996938D01*
X60786297Y-40996951D01*
X60718420Y-41160824D01*
X60718417Y-41160833D01*
X60683814Y-41334796D01*
X60683814Y-41423394D01*
X60664129Y-41490433D01*
X60647495Y-41511075D01*
X60400365Y-41758204D01*
X60339042Y-41791689D01*
X60269350Y-41786705D01*
X60213417Y-41744833D01*
X60209582Y-41739413D01*
X60133781Y-41625969D01*
X60133775Y-41625961D01*
X60008352Y-41500538D01*
X60008348Y-41500535D01*
X59860867Y-41401990D01*
X59860854Y-41401983D01*
X59696981Y-41334106D01*
X59696972Y-41334103D01*
X59523008Y-41299500D01*
X59523005Y-41299500D01*
X59345623Y-41299500D01*
X59345620Y-41299500D01*
X59171655Y-41334103D01*
X59171646Y-41334106D01*
X59007773Y-41401983D01*
X59007760Y-41401990D01*
X58860279Y-41500535D01*
X58860275Y-41500538D01*
X58734852Y-41625961D01*
X58734849Y-41625965D01*
X58636304Y-41773446D01*
X58636297Y-41773459D01*
X58568420Y-41937332D01*
X58568417Y-41937341D01*
X58533814Y-42111304D01*
X58533814Y-42288695D01*
X58568417Y-42462658D01*
X58568420Y-42462667D01*
X58636297Y-42626540D01*
X58636304Y-42626553D01*
X58734849Y-42774034D01*
X58734852Y-42774038D01*
X58860275Y-42899461D01*
X58860283Y-42899467D01*
X58973727Y-42975268D01*
X59018533Y-43028880D01*
X59027240Y-43098205D01*
X58997086Y-43161232D01*
X58992518Y-43166051D01*
X58640600Y-43517970D01*
X58528795Y-43629774D01*
X58528794Y-43629776D01*
X58490733Y-43695700D01*
X58449737Y-43766707D01*
X58408813Y-43919435D01*
X58408813Y-43919437D01*
X58408813Y-44087538D01*
X58408814Y-44087551D01*
X58408814Y-50724778D01*
X58389129Y-50791817D01*
X58372495Y-50812459D01*
X58309852Y-50875101D01*
X58309849Y-50875105D01*
X58211304Y-51022586D01*
X58211297Y-51022599D01*
X58143420Y-51186472D01*
X58143417Y-51186481D01*
X58108814Y-51360444D01*
X55984814Y-51360444D01*
X55984814Y-39111304D01*
X61283814Y-39111304D01*
X61283814Y-39288695D01*
X61318417Y-39462658D01*
X61318420Y-39462667D01*
X61386297Y-39626540D01*
X61386304Y-39626553D01*
X61484849Y-39774034D01*
X61484852Y-39774038D01*
X61610275Y-39899461D01*
X61610279Y-39899464D01*
X61757760Y-39998009D01*
X61757773Y-39998016D01*
X61880677Y-40048923D01*
X61921648Y-40065894D01*
X61921650Y-40065894D01*
X61921655Y-40065896D01*
X62095618Y-40100499D01*
X62095621Y-40100500D01*
X62095623Y-40100500D01*
X62273007Y-40100500D01*
X62273008Y-40100499D01*
X62352723Y-40084643D01*
X62446972Y-40065896D01*
X62446975Y-40065894D01*
X62446980Y-40065894D01*
X62610861Y-39998013D01*
X62758349Y-39899464D01*
X62883778Y-39774035D01*
X62982327Y-39626547D01*
X63050208Y-39462666D01*
X63060154Y-39412667D01*
X63084813Y-39288695D01*
X63084814Y-39288693D01*
X63084814Y-39111306D01*
X63084813Y-39111304D01*
X63050210Y-38937341D01*
X63050207Y-38937332D01*
X62982330Y-38773459D01*
X62982323Y-38773446D01*
X62883778Y-38625965D01*
X62883775Y-38625961D01*
X62758352Y-38500538D01*
X62758348Y-38500535D01*
X62610867Y-38401990D01*
X62610854Y-38401983D01*
X62446981Y-38334106D01*
X62446972Y-38334103D01*
X62273008Y-38299500D01*
X62273005Y-38299500D01*
X62095623Y-38299500D01*
X62095620Y-38299500D01*
X61921655Y-38334103D01*
X61921646Y-38334106D01*
X61757773Y-38401983D01*
X61757760Y-38401990D01*
X61610279Y-38500535D01*
X61610275Y-38500538D01*
X61484852Y-38625961D01*
X61484849Y-38625965D01*
X61386304Y-38773446D01*
X61386297Y-38773459D01*
X61318420Y-38937332D01*
X61318417Y-38937341D01*
X61283814Y-39111304D01*
X55984814Y-39111304D01*
X55984814Y-37696304D01*
X63583814Y-37696304D01*
X63583814Y-37873695D01*
X63618417Y-38047658D01*
X63618420Y-38047667D01*
X63686297Y-38211540D01*
X63686304Y-38211553D01*
X63784849Y-38359034D01*
X63784852Y-38359038D01*
X63910275Y-38484461D01*
X63910279Y-38484464D01*
X64057760Y-38583009D01*
X64057773Y-38583016D01*
X64161454Y-38625961D01*
X64221648Y-38650894D01*
X64221650Y-38650894D01*
X64221655Y-38650896D01*
X64253343Y-38657199D01*
X64315254Y-38689584D01*
X64349828Y-38750299D01*
X64346089Y-38820069D01*
X64343714Y-38826266D01*
X64318420Y-38887333D01*
X64318417Y-38887341D01*
X64283814Y-39061304D01*
X64283814Y-39238695D01*
X64318417Y-39412658D01*
X64318420Y-39412667D01*
X64386297Y-39576540D01*
X64386304Y-39576553D01*
X64484849Y-39724034D01*
X64484852Y-39724038D01*
X64610275Y-39849461D01*
X64610279Y-39849464D01*
X64757760Y-39948009D01*
X64757773Y-39948016D01*
X64876135Y-39997042D01*
X64921648Y-40015894D01*
X64921650Y-40015894D01*
X64921655Y-40015896D01*
X65095618Y-40050499D01*
X65095621Y-40050500D01*
X65095623Y-40050500D01*
X65273007Y-40050500D01*
X65273008Y-40050499D01*
X65330996Y-40038964D01*
X65446972Y-40015896D01*
X65446975Y-40015894D01*
X65446980Y-40015894D01*
X65610861Y-39948013D01*
X65758349Y-39849464D01*
X65883778Y-39724035D01*
X65982327Y-39576547D01*
X66050208Y-39412666D01*
X66084814Y-39238691D01*
X66084814Y-39111304D01*
X84533814Y-39111304D01*
X84533814Y-39288695D01*
X84568417Y-39462658D01*
X84568420Y-39462667D01*
X84636297Y-39626540D01*
X84636304Y-39626553D01*
X84734849Y-39774034D01*
X84734852Y-39774038D01*
X84860275Y-39899461D01*
X84860279Y-39899464D01*
X85007760Y-39998009D01*
X85007773Y-39998016D01*
X85130677Y-40048923D01*
X85171648Y-40065894D01*
X85171650Y-40065894D01*
X85171655Y-40065896D01*
X85345618Y-40100499D01*
X85345621Y-40100500D01*
X85345623Y-40100500D01*
X85523007Y-40100500D01*
X85523008Y-40100499D01*
X85602723Y-40084643D01*
X85696972Y-40065896D01*
X85696975Y-40065894D01*
X85696980Y-40065894D01*
X85860861Y-39998013D01*
X86008349Y-39899464D01*
X86133778Y-39774035D01*
X86232327Y-39626547D01*
X86300208Y-39462666D01*
X86310154Y-39412667D01*
X86334813Y-39288695D01*
X86334814Y-39288693D01*
X86334814Y-39111306D01*
X86334813Y-39111304D01*
X86300210Y-38937341D01*
X86300207Y-38937332D01*
X86232330Y-38773459D01*
X86232323Y-38773446D01*
X86133778Y-38625965D01*
X86133775Y-38625961D01*
X86008352Y-38500538D01*
X86008348Y-38500535D01*
X85860867Y-38401990D01*
X85860854Y-38401983D01*
X85696981Y-38334106D01*
X85696972Y-38334103D01*
X85523008Y-38299500D01*
X85523005Y-38299500D01*
X85345623Y-38299500D01*
X85345620Y-38299500D01*
X85171655Y-38334103D01*
X85171646Y-38334106D01*
X85007773Y-38401983D01*
X85007760Y-38401990D01*
X84860279Y-38500535D01*
X84860275Y-38500538D01*
X84734852Y-38625961D01*
X84734849Y-38625965D01*
X84636304Y-38773446D01*
X84636297Y-38773459D01*
X84568420Y-38937332D01*
X84568417Y-38937341D01*
X84533814Y-39111304D01*
X66084814Y-39111304D01*
X66084814Y-39061309D01*
X66084814Y-39061306D01*
X66084813Y-39061304D01*
X66050210Y-38887341D01*
X66050207Y-38887333D01*
X66003040Y-38773459D01*
X65982330Y-38723459D01*
X65982323Y-38723446D01*
X65883778Y-38575965D01*
X65883775Y-38575961D01*
X65758352Y-38450538D01*
X65758348Y-38450535D01*
X65610867Y-38351990D01*
X65610854Y-38351983D01*
X65446981Y-38284106D01*
X65446976Y-38284105D01*
X65415281Y-38277800D01*
X65353371Y-38245414D01*
X65318798Y-38184697D01*
X65322539Y-38114928D01*
X65324904Y-38108753D01*
X65350208Y-38047666D01*
X65353953Y-38028842D01*
X65384813Y-37873695D01*
X65384814Y-37873693D01*
X65384814Y-37871153D01*
X71883814Y-37871153D01*
X71883814Y-38028846D01*
X71914575Y-38183489D01*
X71914578Y-38183501D01*
X71974916Y-38329172D01*
X71974923Y-38329185D01*
X72062524Y-38460288D01*
X72062527Y-38460292D01*
X72174021Y-38571786D01*
X72174025Y-38571789D01*
X72305128Y-38659390D01*
X72305141Y-38659397D01*
X72450812Y-38719735D01*
X72450817Y-38719737D01*
X72604462Y-38750299D01*
X72605467Y-38750499D01*
X72605470Y-38750500D01*
X72605472Y-38750500D01*
X72763158Y-38750500D01*
X72763159Y-38750499D01*
X72917811Y-38719737D01*
X73063493Y-38659394D01*
X73194603Y-38571789D01*
X73306103Y-38460289D01*
X73393708Y-38329179D01*
X73454051Y-38183497D01*
X73484814Y-38028842D01*
X73484814Y-37871158D01*
X73484814Y-37871155D01*
X73484813Y-37871153D01*
X73454052Y-37716510D01*
X73454051Y-37716503D01*
X73454049Y-37716498D01*
X73393711Y-37570827D01*
X73393704Y-37570814D01*
X73306103Y-37439711D01*
X73306100Y-37439707D01*
X73194606Y-37328213D01*
X73194602Y-37328210D01*
X73063499Y-37240609D01*
X73063486Y-37240602D01*
X72917815Y-37180264D01*
X72917803Y-37180261D01*
X72763159Y-37149500D01*
X72763156Y-37149500D01*
X72605472Y-37149500D01*
X72605469Y-37149500D01*
X72450824Y-37180261D01*
X72450812Y-37180264D01*
X72305141Y-37240602D01*
X72305128Y-37240609D01*
X72174025Y-37328210D01*
X72174021Y-37328213D01*
X72062527Y-37439707D01*
X72062524Y-37439711D01*
X71974923Y-37570814D01*
X71974916Y-37570827D01*
X71914578Y-37716498D01*
X71914575Y-37716510D01*
X71883814Y-37871153D01*
X65384814Y-37871153D01*
X65384814Y-37696306D01*
X65384813Y-37696304D01*
X65350210Y-37522341D01*
X65350207Y-37522332D01*
X65282330Y-37358459D01*
X65282323Y-37358446D01*
X65183778Y-37210965D01*
X65183775Y-37210961D01*
X65058352Y-37085538D01*
X65058348Y-37085535D01*
X64910867Y-36986990D01*
X64910854Y-36986983D01*
X64746981Y-36919106D01*
X64746972Y-36919103D01*
X64573008Y-36884500D01*
X64573005Y-36884500D01*
X64395623Y-36884500D01*
X64395620Y-36884500D01*
X64221655Y-36919103D01*
X64221646Y-36919106D01*
X64057773Y-36986983D01*
X64057760Y-36986990D01*
X63910279Y-37085535D01*
X63910275Y-37085538D01*
X63784852Y-37210961D01*
X63784849Y-37210965D01*
X63686304Y-37358446D01*
X63686297Y-37358459D01*
X63618420Y-37522332D01*
X63618417Y-37522341D01*
X63583814Y-37696304D01*
X55984814Y-37696304D01*
X55984814Y-35128480D01*
X55985009Y-35121527D01*
X55997108Y-34906079D01*
X56001398Y-34829691D01*
X56002952Y-34815900D01*
X56013518Y-34753711D01*
X56583814Y-34753711D01*
X56583814Y-34996288D01*
X56615475Y-35236785D01*
X56678261Y-35471104D01*
X56771087Y-35695205D01*
X56771091Y-35695214D01*
X56784062Y-35717681D01*
X56892378Y-35905289D01*
X56892380Y-35905292D01*
X56892381Y-35905293D01*
X57040047Y-36097736D01*
X57040053Y-36097743D01*
X57211570Y-36269260D01*
X57211576Y-36269265D01*
X57404025Y-36416936D01*
X57614102Y-36538224D01*
X57838214Y-36631054D01*
X58072525Y-36693838D01*
X58252900Y-36717584D01*
X58313025Y-36725500D01*
X58313026Y-36725500D01*
X58555603Y-36725500D01*
X58603702Y-36719167D01*
X58796103Y-36693838D01*
X59030414Y-36631054D01*
X59254526Y-36538224D01*
X59464603Y-36416936D01*
X59657052Y-36269265D01*
X59828579Y-36097738D01*
X59976250Y-35905289D01*
X60097538Y-35695212D01*
X60190368Y-35471100D01*
X60253152Y-35236789D01*
X60284814Y-34996288D01*
X60284814Y-34753712D01*
X60253152Y-34513211D01*
X60190368Y-34278900D01*
X60097538Y-34054788D01*
X59976250Y-33844711D01*
X59828579Y-33652262D01*
X59828574Y-33652256D01*
X59657057Y-33480739D01*
X59657050Y-33480733D01*
X59464607Y-33333067D01*
X59464606Y-33333066D01*
X59464603Y-33333064D01*
X59254526Y-33211776D01*
X59254519Y-33211773D01*
X59030418Y-33118947D01*
X58796099Y-33056161D01*
X58555603Y-33024500D01*
X58555602Y-33024500D01*
X58313026Y-33024500D01*
X58313025Y-33024500D01*
X58072528Y-33056161D01*
X57838209Y-33118947D01*
X57614108Y-33211773D01*
X57614099Y-33211777D01*
X57432165Y-33316817D01*
X57412433Y-33328210D01*
X57404020Y-33333067D01*
X57211577Y-33480733D01*
X57211570Y-33480739D01*
X57040053Y-33652256D01*
X57040047Y-33652263D01*
X56892381Y-33844706D01*
X56771091Y-34054785D01*
X56771087Y-34054794D01*
X56678261Y-34278895D01*
X56615475Y-34513214D01*
X56583814Y-34753711D01*
X56013518Y-34753711D01*
X56051329Y-34531167D01*
X56054423Y-34517615D01*
X56059042Y-34501584D01*
X56134375Y-34240096D01*
X56138967Y-34226975D01*
X56249489Y-33960151D01*
X56255509Y-33947651D01*
X56395216Y-33694869D01*
X56402611Y-33683101D01*
X56424492Y-33652263D01*
X56569742Y-33447551D01*
X56578393Y-33436704D01*
X56770841Y-33221356D01*
X56780672Y-33211526D01*
X56791797Y-33201584D01*
X56996018Y-33019079D01*
X57006865Y-33010428D01*
X57242420Y-32843293D01*
X57254183Y-32835902D01*
X57506965Y-32696195D01*
X57519465Y-32690175D01*
X57786293Y-32579651D01*
X57799410Y-32575061D01*
X58076935Y-32495107D01*
X58090481Y-32492015D01*
X58375212Y-32443638D01*
X58389005Y-32442084D01*
X58680842Y-32425695D01*
X58687795Y-32425500D01*
X58731909Y-32425500D01*
X60387191Y-32425500D01*
X60454230Y-32445185D01*
G37*
%TD.AperFunction*%
%TD*%
M02*
