%TF.GenerationSoftware,KiCad,Pcbnew,10.0.4*%
%TF.CreationDate,2026-07-23T06:55:38-04:00*%
%TF.ProjectId,SATVIK-26,53415456-494b-42d3-9236-2e6b69636164,rev?*%
%TF.SameCoordinates,Original*%
%TF.FileFunction,Soldermask,Top*%
%TF.FilePolarity,Negative*%
%FSLAX46Y46*%
G04 Gerber Fmt 4.6, Leading zero omitted, Abs format (unit mm)*
G04 Created by KiCad (PCBNEW 10.0.4) date 2026-07-23 06:55:38*
%MOMM*%
%LPD*%
G01*
G04 APERTURE LIST*
G04 Aperture macros list*
%AMRoundRect*
0 Rectangle with rounded corners*
0 $1 Rounding radius*
0 $2 $3 $4 $5 $6 $7 $8 $9 X,Y pos of 4 corners*
0 Add a 4 corners polygon primitive as box body*
4,1,4,$2,$3,$4,$5,$6,$7,$8,$9,$2,$3,0*
0 Add four circle primitives for the rounded corners*
1,1,$1+$1,$2,$3*
1,1,$1+$1,$4,$5*
1,1,$1+$1,$6,$7*
1,1,$1+$1,$8,$9*
0 Add four rect primitives between the rounded corners*
20,1,$1+$1,$2,$3,$4,$5,0*
20,1,$1+$1,$4,$5,$6,$7,0*
20,1,$1+$1,$6,$7,$8,$9,0*
20,1,$1+$1,$8,$9,$2,$3,0*%
G04 Aperture macros list end*
%ADD10RoundRect,0.135000X-0.185000X0.135000X-0.185000X-0.135000X0.185000X-0.135000X0.185000X0.135000X0*%
%ADD11R,0.300000X0.500000*%
%ADD12R,0.500000X0.300000*%
%ADD13RoundRect,0.140000X0.140000X0.170000X-0.140000X0.170000X-0.140000X-0.170000X0.140000X-0.170000X0*%
%ADD14RoundRect,0.140000X-0.140000X-0.170000X0.140000X-0.170000X0.140000X0.170000X-0.140000X0.170000X0*%
%ADD15RoundRect,0.140000X-0.170000X0.140000X-0.170000X-0.140000X0.170000X-0.140000X0.170000X0.140000X0*%
%ADD16R,1.400000X1.200000*%
%ADD17R,1.000000X0.750000*%
%ADD18RoundRect,0.135000X-0.135000X-0.185000X0.135000X-0.185000X0.135000X0.185000X-0.135000X0.185000X0*%
%ADD19RoundRect,0.135000X0.135000X0.185000X-0.135000X0.185000X-0.135000X-0.185000X0.135000X-0.185000X0*%
%ADD20RoundRect,0.135000X0.185000X-0.135000X0.185000X0.135000X-0.185000X0.135000X-0.185000X-0.135000X0*%
%ADD21RoundRect,0.218750X0.256250X-0.218750X0.256250X0.218750X-0.256250X0.218750X-0.256250X-0.218750X0*%
%ADD22C,3.200000*%
%ADD23RoundRect,0.140000X0.170000X-0.140000X0.170000X0.140000X-0.170000X0.140000X-0.170000X-0.140000X0*%
%ADD24RoundRect,0.150000X-0.700000X0.150000X-0.700000X-0.150000X0.700000X-0.150000X0.700000X0.150000X0*%
%ADD25RoundRect,0.250000X-1.100000X0.250000X-1.100000X-0.250000X1.100000X-0.250000X1.100000X0.250000X0*%
%ADD26R,0.675000X0.280000*%
%ADD27R,0.280000X0.675000*%
%ADD28RoundRect,0.150000X0.700000X-0.150000X0.700000X0.150000X-0.700000X0.150000X-0.700000X-0.150000X0*%
%ADD29RoundRect,0.250000X1.100000X-0.250000X1.100000X0.250000X-1.100000X0.250000X-1.100000X-0.250000X0*%
%ADD30RoundRect,0.150000X-0.512500X-0.150000X0.512500X-0.150000X0.512500X0.150000X-0.512500X0.150000X0*%
%ADD31C,0.700000*%
%ADD32O,1.100000X2.000000*%
%ADD33O,1.200000X1.800000*%
%ADD34R,0.550000X1.100000*%
%ADD35R,0.300000X1.100000*%
%ADD36RoundRect,0.075000X-0.075000X-0.725000X0.075000X-0.725000X0.075000X0.725000X-0.075000X0.725000X0*%
%ADD37RoundRect,0.075000X-0.725000X-0.075000X0.725000X-0.075000X0.725000X0.075000X-0.725000X0.075000X0*%
G04 APERTURE END LIST*
D10*
%TO.C,R11*%
X74934314Y-58200000D03*
X74934314Y-59220000D03*
%TD*%
%TO.C,R10*%
X73934314Y-58200000D03*
X73934314Y-59220000D03*
%TD*%
D11*
%TO.C,U5*%
X77184314Y-57580000D03*
X76684314Y-57580000D03*
D12*
X76064314Y-57950000D03*
X76064314Y-58450000D03*
X76064314Y-58950000D03*
D11*
X76684314Y-59320000D03*
X77184314Y-59320000D03*
D12*
X77804314Y-58950000D03*
X77804314Y-58450000D03*
X77804314Y-57950000D03*
%TD*%
D13*
%TO.C,C23*%
X63184314Y-46200000D03*
X64144314Y-46200000D03*
%TD*%
%TO.C,C22*%
X67724314Y-58700000D03*
X68684314Y-58700000D03*
%TD*%
D14*
%TO.C,C24*%
X64684314Y-49200000D03*
X63724314Y-49200000D03*
%TD*%
D15*
%TO.C,C29*%
X78684314Y-58950000D03*
X78684314Y-57990000D03*
%TD*%
D13*
%TO.C,C5*%
X65139314Y-58455000D03*
X66099314Y-58455000D03*
%TD*%
%TO.C,C4*%
X63159314Y-58455000D03*
X64119314Y-58455000D03*
%TD*%
D16*
%TO.C,Y1*%
X63434314Y-55350000D03*
X65634314Y-55350000D03*
X65634314Y-57050000D03*
X63434314Y-57050000D03*
%TD*%
D17*
%TO.C,SW1*%
X77184314Y-36700000D03*
X71184314Y-36700000D03*
X77184314Y-33000000D03*
X71184314Y-33000000D03*
%TD*%
D13*
%TO.C,C9*%
X64684314Y-50200000D03*
X63724314Y-50200000D03*
%TD*%
D18*
%TO.C,R15*%
X76434314Y-37950000D03*
X77454314Y-37950000D03*
%TD*%
D13*
%TO.C,C25*%
X72684314Y-59700000D03*
X71724314Y-59700000D03*
%TD*%
D19*
%TO.C,R9*%
X64674314Y-47200000D03*
X63654314Y-47200000D03*
%TD*%
D15*
%TO.C,C8*%
X80934314Y-54990000D03*
X80934314Y-55950000D03*
%TD*%
D20*
%TO.C,R20*%
X81434314Y-64210000D03*
X81434314Y-63190000D03*
%TD*%
D13*
%TO.C,C27*%
X64664314Y-43700000D03*
X63704314Y-43700000D03*
%TD*%
D18*
%TO.C,R18*%
X83684314Y-44700000D03*
X84704314Y-44700000D03*
%TD*%
D20*
%TO.C,R22*%
X84434314Y-64220000D03*
X84434314Y-63200000D03*
%TD*%
D18*
%TO.C,R1*%
X77434314Y-35700000D03*
X78454314Y-35700000D03*
%TD*%
D20*
%TO.C,R21*%
X82934314Y-64200000D03*
X82934314Y-63180000D03*
%TD*%
D21*
%TO.C,D3*%
X81434314Y-66987500D03*
X81434314Y-65412500D03*
%TD*%
D15*
%TO.C,C11*%
X81934314Y-54990000D03*
X81934314Y-55950000D03*
%TD*%
%TO.C,C28*%
X66934314Y-38450000D03*
X66934314Y-39410000D03*
%TD*%
D22*
%TO.C,REF\u002A\u002A*%
X88934314Y-34875000D03*
%TD*%
D10*
%TO.C,R16*%
X82184314Y-39220000D03*
X82184314Y-38200000D03*
%TD*%
D13*
%TO.C,C26*%
X64664314Y-45200000D03*
X63704314Y-45200000D03*
%TD*%
D15*
%TO.C,C12*%
X68434314Y-56490000D03*
X68434314Y-57450000D03*
%TD*%
D23*
%TO.C,C2*%
X83184314Y-42200000D03*
X83184314Y-41240000D03*
%TD*%
D13*
%TO.C,C3*%
X70184314Y-35700000D03*
X69224314Y-35700000D03*
%TD*%
D24*
%TO.C,J7*%
X60859314Y-51250000D03*
X60859314Y-52500000D03*
X60859314Y-53750000D03*
X60859314Y-55000000D03*
D25*
X57659314Y-49400000D03*
X57659314Y-56850000D03*
%TD*%
D19*
%TO.C,R13*%
X65434314Y-60720000D03*
X64414314Y-60720000D03*
%TD*%
D21*
%TO.C,D4*%
X82934314Y-66987500D03*
X82934314Y-65412500D03*
%TD*%
D10*
%TO.C,R23*%
X80684314Y-59180000D03*
X80684314Y-60200000D03*
%TD*%
D22*
%TO.C,REF\u002A\u002A*%
X58434314Y-65375000D03*
%TD*%
D18*
%TO.C,R19*%
X84674314Y-48200000D03*
X85694314Y-48200000D03*
%TD*%
D26*
%TO.C,U4*%
X70174314Y-56960000D03*
X70174314Y-57460000D03*
X70174314Y-57960000D03*
X70174314Y-58460000D03*
D27*
X70934314Y-58720000D03*
X71434314Y-58720000D03*
X71934314Y-58720000D03*
D26*
X72694314Y-58460000D03*
X72694314Y-57960000D03*
X72694314Y-57460000D03*
X72694314Y-56960000D03*
D27*
X71934314Y-56700000D03*
X71434314Y-56700000D03*
X70934314Y-56700000D03*
%TD*%
D28*
%TO.C,J6*%
X86659314Y-45225000D03*
X86659314Y-43975000D03*
X86659314Y-42725000D03*
X86659314Y-41475000D03*
D29*
X89859314Y-47075000D03*
X89859314Y-39625000D03*
%TD*%
D13*
%TO.C,C1*%
X79934314Y-56450000D03*
X78974314Y-56450000D03*
%TD*%
D17*
%TO.C,SW2*%
X84934314Y-36700000D03*
X78934314Y-36700000D03*
X84934314Y-33000000D03*
X78934314Y-33000000D03*
%TD*%
D22*
%TO.C,REF\u002A\u002A*%
X58434314Y-34875000D03*
%TD*%
D19*
%TO.C,R8*%
X62694314Y-47450000D03*
X61674314Y-47450000D03*
%TD*%
D10*
%TO.C,R17*%
X80934314Y-38190000D03*
X80934314Y-39210000D03*
%TD*%
D28*
%TO.C,J3*%
X86659314Y-57375000D03*
X86659314Y-56125000D03*
X86659314Y-54875000D03*
X86659314Y-53625000D03*
X86659314Y-52375000D03*
X86659314Y-51125000D03*
D29*
X89859314Y-59225000D03*
X89859314Y-49275000D03*
%TD*%
D13*
%TO.C,C13*%
X64684314Y-51200000D03*
X63724314Y-51200000D03*
%TD*%
D18*
%TO.C,R14*%
X84664314Y-47200000D03*
X85684314Y-47200000D03*
%TD*%
D14*
%TO.C,C10*%
X81724314Y-40200000D03*
X82684314Y-40200000D03*
%TD*%
D21*
%TO.C,D5*%
X84434314Y-66987500D03*
X84434314Y-65412500D03*
%TD*%
D22*
%TO.C,REF\u002A\u002A*%
X88934314Y-65375000D03*
%TD*%
D24*
%TO.C,J5*%
X60859314Y-41325000D03*
X60859314Y-42575000D03*
X60859314Y-43825000D03*
X60859314Y-45075000D03*
D25*
X57659314Y-39475000D03*
X57659314Y-46925000D03*
%TD*%
D18*
%TO.C,R12*%
X68424314Y-60700000D03*
X69444314Y-60700000D03*
%TD*%
D30*
%TO.C,U6*%
X75209314Y-65450000D03*
X75209314Y-66400000D03*
X75209314Y-67350000D03*
X72934314Y-67350000D03*
X72934314Y-66400000D03*
X72934314Y-65450000D03*
%TD*%
D31*
%TO.C,USB1*%
X63794314Y-63067500D03*
X69574314Y-63067500D03*
D32*
X62364314Y-62537500D03*
D33*
X62364314Y-66747500D03*
D32*
X71004314Y-62537500D03*
D33*
X71004314Y-66747500D03*
D34*
X63484314Y-61987500D03*
X64284314Y-61987500D03*
D35*
X65434314Y-61987500D03*
X66434314Y-61987500D03*
X66934314Y-61987500D03*
X67934314Y-61987500D03*
D34*
X69884314Y-61987500D03*
X69084314Y-61987500D03*
D35*
X68434314Y-61987500D03*
X67434314Y-61987500D03*
X65934314Y-61987500D03*
X64934314Y-61987500D03*
%TD*%
D36*
%TO.C,U1*%
X67934314Y-39525000D03*
X68434314Y-39525000D03*
X68934314Y-39525000D03*
X69434314Y-39525000D03*
X69934314Y-39525000D03*
X70434314Y-39525000D03*
X70934314Y-39525000D03*
X71434314Y-39525000D03*
X71934314Y-39525000D03*
X72434314Y-39525000D03*
X72934314Y-39525000D03*
X73434314Y-39525000D03*
X73934314Y-39525000D03*
X74434314Y-39525000D03*
X74934314Y-39525000D03*
X75434314Y-39525000D03*
X75934314Y-39525000D03*
X76434314Y-39525000D03*
X76934314Y-39525000D03*
X77434314Y-39525000D03*
X77934314Y-39525000D03*
X78434314Y-39525000D03*
X78934314Y-39525000D03*
X79434314Y-39525000D03*
X79934314Y-39525000D03*
D37*
X81609314Y-41200000D03*
X81609314Y-41700000D03*
X81609314Y-42200000D03*
X81609314Y-42700000D03*
X81609314Y-43200000D03*
X81609314Y-43700000D03*
X81609314Y-44200000D03*
X81609314Y-44700000D03*
X81609314Y-45200000D03*
X81609314Y-45700000D03*
X81609314Y-46200000D03*
X81609314Y-46700000D03*
X81609314Y-47200000D03*
X81609314Y-47700000D03*
X81609314Y-48200000D03*
X81609314Y-48700000D03*
X81609314Y-49200000D03*
X81609314Y-49700000D03*
X81609314Y-50200000D03*
X81609314Y-50700000D03*
X81609314Y-51200000D03*
X81609314Y-51700000D03*
X81609314Y-52200000D03*
X81609314Y-52700000D03*
X81609314Y-53200000D03*
D36*
X79934314Y-54875000D03*
X79434314Y-54875000D03*
X78934314Y-54875000D03*
X78434314Y-54875000D03*
X77934314Y-54875000D03*
X77434314Y-54875000D03*
X76934314Y-54875000D03*
X76434314Y-54875000D03*
X75934314Y-54875000D03*
X75434314Y-54875000D03*
X74934314Y-54875000D03*
X74434314Y-54875000D03*
X73934314Y-54875000D03*
X73434314Y-54875000D03*
X72934314Y-54875000D03*
X72434314Y-54875000D03*
X71934314Y-54875000D03*
X71434314Y-54875000D03*
X70934314Y-54875000D03*
X70434314Y-54875000D03*
X69934314Y-54875000D03*
X69434314Y-54875000D03*
X68934314Y-54875000D03*
X68434314Y-54875000D03*
X67934314Y-54875000D03*
D37*
X66259314Y-53200000D03*
X66259314Y-52700000D03*
X66259314Y-52200000D03*
X66259314Y-51700000D03*
X66259314Y-51200000D03*
X66259314Y-50700000D03*
X66259314Y-50200000D03*
X66259314Y-49700000D03*
X66259314Y-49200000D03*
X66259314Y-48700000D03*
X66259314Y-48200000D03*
X66259314Y-47700000D03*
X66259314Y-47200000D03*
X66259314Y-46700000D03*
X66259314Y-46200000D03*
X66259314Y-45700000D03*
X66259314Y-45200000D03*
X66259314Y-44700000D03*
X66259314Y-44200000D03*
X66259314Y-43700000D03*
X66259314Y-43200000D03*
X66259314Y-42700000D03*
X66259314Y-42200000D03*
X66259314Y-41700000D03*
X66259314Y-41200000D03*
%TD*%
M02*
