%TF.GenerationSoftware,KiCad,Pcbnew,10.0.4*%
%TF.CreationDate,2026-07-23T06:55:38-04:00*%
%TF.ProjectId,SATVIK-26,53415456-494b-42d3-9236-2e6b69636164,rev?*%
%TF.SameCoordinates,Original*%
%TF.FileFunction,Copper,L2,Inr*%
%TF.FilePolarity,Positive*%
%FSLAX46Y46*%
G04 Gerber Fmt 4.6, Leading zero omitted, Abs format (unit mm)*
G04 Created by KiCad (PCBNEW 10.0.4) date 2026-07-23 06:55:38*
%MOMM*%
%LPD*%
G01*
G04 APERTURE LIST*
%TA.AperFunction,HeatsinkPad*%
%ADD10C,0.500000*%
%TD*%
%TA.AperFunction,ComponentPad*%
%ADD11O,1.100000X2.000000*%
%TD*%
%TA.AperFunction,ComponentPad*%
%ADD12O,1.200000X1.800000*%
%TD*%
%TA.AperFunction,ViaPad*%
%ADD13C,0.800000*%
%TD*%
%TA.AperFunction,ViaPad*%
%ADD14C,0.600000*%
%TD*%
G04 APERTURE END LIST*
D10*
%TO.N,GND*%
%TO.C,U2*%
X66874314Y-33680000D03*
X66874314Y-34980000D03*
X66874314Y-36280000D03*
X68174314Y-33680000D03*
X68174314Y-34980000D03*
X68174314Y-36280000D03*
%TD*%
D11*
%TO.N,GND*%
%TO.C,USB1*%
X62364314Y-62537500D03*
D12*
X62364314Y-66747500D03*
D11*
X71004314Y-62537500D03*
D12*
X71004314Y-66747500D03*
%TD*%
D13*
%TO.N,+3V3*%
X65634314Y-50950000D03*
%TO.N,GND*%
X72694314Y-57460000D03*
D14*
%TO.N,/USART6_RX*%
X61202944Y-45749999D03*
%TO.N,/USART6_TX*%
X62684314Y-43300000D03*
X83057549Y-48076765D03*
%TO.N,/USART6_RX*%
X83904314Y-48075000D03*
%TO.N,/SD_DET*%
X84434314Y-48700000D03*
%TO.N,Net-(U1-PB0)*%
X71232609Y-53588938D03*
X81184314Y-59200000D03*
D13*
%TO.N,+5V*%
X61584314Y-41423492D03*
X59009314Y-51449140D03*
D14*
%TO.N,/USART7_TX*%
X75844313Y-52752506D03*
D13*
%TO.N,GND*%
X63434314Y-48920000D03*
X64484314Y-37785000D03*
%TO.N,Net-(U1-NRST)*%
X65184314Y-39150000D03*
X69297917Y-47313603D03*
D14*
%TO.N,/MOTOR3*%
X62545796Y-52140770D03*
D13*
%TO.N,+5V*%
X85434314Y-39200000D03*
D14*
%TO.N,/USART2_RX*%
X78000196Y-50375000D03*
%TO.N,/SD_CLK*%
X79444314Y-48782105D03*
%TO.N,/USART2_RX*%
X88135049Y-53650735D03*
%TO.N,/USART2_TX*%
X78065427Y-43631631D03*
X87934314Y-54700000D03*
D13*
%TO.N,GND*%
X77184314Y-36450000D03*
%TO.N,+3V3*%
X85665677Y-48175000D03*
%TO.N,GND*%
X86684314Y-43950000D03*
X69934314Y-41950000D03*
D14*
%TO.N,/SD_DET*%
X73434314Y-47450000D03*
D13*
%TO.N,GND*%
X68357760Y-45250000D03*
D14*
%TO.N,/USART7_RX*%
X69479465Y-53575000D03*
X65684314Y-66200000D03*
%TO.N,/UART4_RX*%
X68620154Y-53585784D03*
%TO.N,/I2C2_SDA*%
X87934314Y-51200000D03*
X78484313Y-53199996D03*
X76330710Y-56586036D03*
%TO.N,/I2C2_SCL*%
X77684314Y-53200002D03*
X86184314Y-52450000D03*
D13*
%TO.N,GND*%
X80318791Y-57275000D03*
%TO.N,/VBAT_RAW*%
X61184314Y-46950000D03*
D14*
X62516647Y-49107618D03*
D13*
%TO.N,+3V3*%
X66934314Y-39410000D03*
X67684764Y-49516120D03*
D14*
%TO.N,/LED_STATUS*%
X72434314Y-53700000D03*
X84184314Y-62450000D03*
%TO.N,/MOTOR2*%
X59509315Y-52915626D03*
%TO.N,/MOTOR1*%
X63923104Y-52192284D03*
%TO.N,/MOTOR4*%
X66213754Y-53729440D03*
%TO.N,Net-(U1-BOOT0)*%
X70930095Y-40706433D03*
X75684314Y-35073000D03*
D13*
%TO.N,+3V3*%
X77454314Y-37950000D03*
X73934314Y-59220000D03*
X79344314Y-50700000D03*
X83334314Y-63113636D03*
D14*
X84704314Y-44700000D03*
D13*
%TO.N,GND*%
X59434314Y-42200000D03*
%TO.N,+5V*%
X72684314Y-33030000D03*
X82684314Y-61700000D03*
D14*
%TO.N,/WS2812_DATA*%
X80684314Y-60200000D03*
D13*
%TO.N,+3V3*%
X74385786Y-52525002D03*
%TO.N,GND*%
X79184314Y-46700000D03*
X89934314Y-60325000D03*
X89394314Y-45975000D03*
X74385786Y-50450000D03*
D14*
%TO.N,/SD_CMD*%
X76861494Y-52325761D03*
%TO.N,/SD_D3*%
X76085786Y-42500000D03*
%TO.N,/SD_D2*%
X76934314Y-42500000D03*
%TO.N,/SD_D1*%
X83456092Y-45622221D03*
%TO.N,/SD_D0*%
X83544314Y-46450000D03*
D13*
%TO.N,GND*%
X79934314Y-63450000D03*
X75725998Y-57649999D03*
X75934314Y-59450000D03*
D14*
%TO.N,/IMU_CS*%
X69384766Y-45569097D03*
X72145538Y-56366829D03*
%TO.N,/SPI1_SCLK*%
X69334314Y-56092469D03*
X71434315Y-57384489D03*
D13*
%TO.N,+3V3*%
X85184314Y-35389998D03*
%TO.N,GND*%
X83184314Y-40700000D03*
D14*
%TO.N,/VBUS*%
X75184314Y-66450000D03*
X67934314Y-63700000D03*
D13*
%TO.N,GND*%
X66184314Y-59450000D03*
X61184314Y-33200000D03*
X61684314Y-49450000D03*
X72309314Y-50325000D03*
D14*
X67524314Y-34980000D03*
X72684314Y-37950000D03*
%TO.N,/CURR*%
X60434314Y-57700000D03*
%TO.N,GND*%
X73434314Y-33950000D03*
D13*
X62184314Y-39200000D03*
D14*
%TO.N,/USART7_TX*%
X59305063Y-54079251D03*
%TD*%
%TA.AperFunction,Conductor*%
%TO.N,GND*%
G36*
X71841576Y-32445185D02*
G01*
X71887331Y-32497989D01*
X71897275Y-32567147D01*
X71887386Y-32597308D01*
X71888632Y-32597824D01*
X71818420Y-32767332D01*
X71818417Y-32767341D01*
X71783814Y-32941304D01*
X71783814Y-33118695D01*
X71818417Y-33292658D01*
X71818420Y-33292667D01*
X71886297Y-33456540D01*
X71886304Y-33456553D01*
X71984849Y-33604034D01*
X71984852Y-33604038D01*
X72110275Y-33729461D01*
X72110279Y-33729464D01*
X72257760Y-33828009D01*
X72257773Y-33828016D01*
X72380677Y-33878923D01*
X72421648Y-33895894D01*
X72421650Y-33895894D01*
X72421655Y-33895896D01*
X72595618Y-33930499D01*
X72595621Y-33930500D01*
X72595623Y-33930500D01*
X72773007Y-33930500D01*
X72773008Y-33930499D01*
X72830996Y-33918964D01*
X72946972Y-33895896D01*
X72946975Y-33895894D01*
X72946980Y-33895894D01*
X73110861Y-33828013D01*
X73258349Y-33729464D01*
X73383778Y-33604035D01*
X73482327Y-33456547D01*
X73550208Y-33292666D01*
X73584814Y-33118691D01*
X73584814Y-32941309D01*
X73584814Y-32941306D01*
X73584813Y-32941304D01*
X73550210Y-32767341D01*
X73550207Y-32767332D01*
X73479996Y-32597824D01*
X73482413Y-32596822D01*
X73470492Y-32539540D01*
X73495497Y-32474298D01*
X73551806Y-32432933D01*
X73594091Y-32425500D01*
X88636719Y-32425500D01*
X88680833Y-32425500D01*
X88687786Y-32425695D01*
X88979620Y-32442084D01*
X88993417Y-32443638D01*
X89278141Y-32492015D01*
X89291696Y-32495108D01*
X89430455Y-32535084D01*
X89569213Y-32575060D01*
X89582339Y-32579653D01*
X89849155Y-32690172D01*
X89861669Y-32696198D01*
X89990379Y-32767334D01*
X90114438Y-32835899D01*
X90126212Y-32843297D01*
X90361753Y-33010422D01*
X90372617Y-33019087D01*
X90401701Y-33045078D01*
X90587955Y-33211526D01*
X90597787Y-33221358D01*
X90790223Y-33436692D01*
X90798894Y-33447564D01*
X90966016Y-33683101D01*
X90973414Y-33694875D01*
X91113111Y-33947637D01*
X91119144Y-33960165D01*
X91229660Y-34226975D01*
X91234253Y-34240100D01*
X91314204Y-34517615D01*
X91317298Y-34531172D01*
X91365673Y-34815885D01*
X91367230Y-34829703D01*
X91383619Y-35121527D01*
X91383814Y-35128480D01*
X91383814Y-65121521D01*
X91383619Y-65128474D01*
X91367231Y-65420296D01*
X91365674Y-65434114D01*
X91317299Y-65718831D01*
X91314205Y-65732387D01*
X91234256Y-66009898D01*
X91229663Y-66023023D01*
X91119147Y-66289835D01*
X91113114Y-66302364D01*
X90973417Y-66555127D01*
X90966019Y-66566901D01*
X90798897Y-66802438D01*
X90790226Y-66813310D01*
X90597790Y-67028644D01*
X90587958Y-67038476D01*
X90372624Y-67230912D01*
X90361752Y-67239583D01*
X90126215Y-67406705D01*
X90114441Y-67414103D01*
X89861678Y-67553800D01*
X89849149Y-67559833D01*
X89582337Y-67670349D01*
X89569212Y-67674942D01*
X89291701Y-67754891D01*
X89278145Y-67757985D01*
X88993428Y-67806360D01*
X88979610Y-67807917D01*
X88705586Y-67823305D01*
X88687786Y-67824305D01*
X88680835Y-67824500D01*
X72042828Y-67824500D01*
X71975789Y-67804815D01*
X71930034Y-67752011D01*
X71920090Y-67682853D01*
X71942512Y-67627611D01*
X71945118Y-67624023D01*
X72023722Y-67469757D01*
X72077228Y-67305084D01*
X72104314Y-67134071D01*
X72104314Y-66997500D01*
X71304313Y-66997500D01*
X71304313Y-66497500D01*
X72104314Y-66497500D01*
X72104314Y-66371153D01*
X74383814Y-66371153D01*
X74383814Y-66528846D01*
X74414575Y-66683489D01*
X74414578Y-66683501D01*
X74474916Y-66829172D01*
X74474923Y-66829185D01*
X74562524Y-66960288D01*
X74562527Y-66960292D01*
X74674021Y-67071786D01*
X74674025Y-67071789D01*
X74805128Y-67159390D01*
X74805141Y-67159397D01*
X74950812Y-67219735D01*
X74950817Y-67219737D01*
X75105467Y-67250499D01*
X75105470Y-67250500D01*
X75105472Y-67250500D01*
X75263158Y-67250500D01*
X75263159Y-67250499D01*
X75417811Y-67219737D01*
X75563493Y-67159394D01*
X75694603Y-67071789D01*
X75806103Y-66960289D01*
X75893708Y-66829179D01*
X75900280Y-66813314D01*
X75954049Y-66683501D01*
X75954051Y-66683497D01*
X75984814Y-66528842D01*
X75984814Y-66371158D01*
X75984814Y-66371155D01*
X75984813Y-66371153D01*
X75971130Y-66302364D01*
X75954051Y-66216503D01*
X75954049Y-66216498D01*
X75893711Y-66070827D01*
X75893704Y-66070814D01*
X75806103Y-65939711D01*
X75806100Y-65939707D01*
X75694606Y-65828213D01*
X75694602Y-65828210D01*
X75563499Y-65740609D01*
X75563486Y-65740602D01*
X75417815Y-65680264D01*
X75417803Y-65680261D01*
X75263159Y-65649500D01*
X75263156Y-65649500D01*
X75105472Y-65649500D01*
X75105469Y-65649500D01*
X74950824Y-65680261D01*
X74950812Y-65680264D01*
X74805141Y-65740602D01*
X74805128Y-65740609D01*
X74674025Y-65828210D01*
X74674021Y-65828213D01*
X74562527Y-65939707D01*
X74562524Y-65939711D01*
X74474923Y-66070814D01*
X74474916Y-66070827D01*
X74414578Y-66216498D01*
X74414575Y-66216510D01*
X74383814Y-66371153D01*
X72104314Y-66371153D01*
X72104314Y-66360928D01*
X72077228Y-66189915D01*
X72023722Y-66025242D01*
X71945118Y-65870975D01*
X71843346Y-65730897D01*
X71720916Y-65608467D01*
X71580838Y-65506695D01*
X71426571Y-65428091D01*
X71280436Y-65380609D01*
X71254314Y-65393445D01*
X71254314Y-66280514D01*
X71244373Y-66263296D01*
X71188518Y-66207441D01*
X71120109Y-66167945D01*
X71043810Y-66147501D01*
X70964818Y-66147501D01*
X70888519Y-66167945D01*
X70820110Y-66207441D01*
X70764255Y-66263296D01*
X70754314Y-66280514D01*
X70754314Y-65373384D01*
X70754313Y-65373384D01*
X70746732Y-65374585D01*
X70746724Y-65374587D01*
X70582056Y-65428091D01*
X70427789Y-65506695D01*
X70287711Y-65608467D01*
X70165281Y-65730897D01*
X70063509Y-65870975D01*
X69984905Y-66025242D01*
X69931399Y-66189915D01*
X69904314Y-66360928D01*
X69904314Y-66497500D01*
X70704315Y-66497500D01*
X70704315Y-66997500D01*
X69904314Y-66997500D01*
X69904314Y-67134071D01*
X69931399Y-67305084D01*
X69984905Y-67469757D01*
X70063509Y-67624023D01*
X70066116Y-67627611D01*
X70089598Y-67693417D01*
X70073775Y-67761471D01*
X70023671Y-67810168D01*
X69965800Y-67824500D01*
X63402828Y-67824500D01*
X63335789Y-67804815D01*
X63290034Y-67752011D01*
X63280090Y-67682853D01*
X63302512Y-67627611D01*
X63305118Y-67624023D01*
X63383722Y-67469757D01*
X63437228Y-67305084D01*
X63464314Y-67134071D01*
X63464314Y-66997500D01*
X62664313Y-66997500D01*
X62664313Y-66497500D01*
X63464314Y-66497500D01*
X63464314Y-66360928D01*
X63437227Y-66189914D01*
X63437226Y-66189908D01*
X63425359Y-66153386D01*
X63425358Y-66153384D01*
X63414885Y-66121153D01*
X64883814Y-66121153D01*
X64883814Y-66278846D01*
X64914575Y-66433489D01*
X64914578Y-66433501D01*
X64974916Y-66579172D01*
X64974923Y-66579185D01*
X65062524Y-66710288D01*
X65062527Y-66710292D01*
X65174021Y-66821786D01*
X65174025Y-66821789D01*
X65305128Y-66909390D01*
X65305141Y-66909397D01*
X65450812Y-66969735D01*
X65450817Y-66969737D01*
X65590390Y-66997500D01*
X65605467Y-67000499D01*
X65605470Y-67000500D01*
X65605472Y-67000500D01*
X65763158Y-67000500D01*
X65763159Y-67000499D01*
X65917811Y-66969737D01*
X66063493Y-66909394D01*
X66194603Y-66821789D01*
X66306103Y-66710289D01*
X66393708Y-66579179D01*
X66454051Y-66433497D01*
X66468486Y-66360928D01*
X66474268Y-66331864D01*
X66474268Y-66331863D01*
X66484813Y-66278846D01*
X66484814Y-66278844D01*
X66484814Y-66121155D01*
X66484813Y-66121153D01*
X66465295Y-66023029D01*
X66454051Y-65966503D01*
X66454049Y-65966498D01*
X66393711Y-65820827D01*
X66393704Y-65820814D01*
X66306103Y-65689711D01*
X66306100Y-65689707D01*
X66194606Y-65578213D01*
X66194602Y-65578210D01*
X66063499Y-65490609D01*
X66063486Y-65490602D01*
X65917815Y-65430264D01*
X65917803Y-65430261D01*
X65763159Y-65399500D01*
X65763156Y-65399500D01*
X65605472Y-65399500D01*
X65605469Y-65399500D01*
X65450824Y-65430261D01*
X65450812Y-65430264D01*
X65305141Y-65490602D01*
X65305128Y-65490609D01*
X65174025Y-65578210D01*
X65174021Y-65578213D01*
X65062527Y-65689707D01*
X65062524Y-65689711D01*
X64974923Y-65820814D01*
X64974916Y-65820827D01*
X64914578Y-65966498D01*
X64914575Y-65966510D01*
X64883814Y-66121153D01*
X63414885Y-66121153D01*
X63383722Y-66025244D01*
X63305118Y-65870975D01*
X63203346Y-65730897D01*
X63080916Y-65608467D01*
X62940838Y-65506695D01*
X62786571Y-65428091D01*
X62621903Y-65374587D01*
X62621895Y-65374585D01*
X62614314Y-65373384D01*
X62614314Y-66280514D01*
X62604373Y-66263296D01*
X62548518Y-66207441D01*
X62480109Y-66167945D01*
X62403810Y-66147501D01*
X62324818Y-66147501D01*
X62248519Y-66167945D01*
X62180110Y-66207441D01*
X62124255Y-66263296D01*
X62114314Y-66280514D01*
X62114314Y-65373384D01*
X62114313Y-65373384D01*
X62106732Y-65374585D01*
X62106724Y-65374587D01*
X61942056Y-65428091D01*
X61787789Y-65506695D01*
X61647711Y-65608467D01*
X61525281Y-65730897D01*
X61423509Y-65870975D01*
X61344905Y-66025242D01*
X61291399Y-66189915D01*
X61264314Y-66360928D01*
X61264314Y-66497500D01*
X62064315Y-66497500D01*
X62064315Y-66997500D01*
X61264314Y-66997500D01*
X61264314Y-67134071D01*
X61291399Y-67305084D01*
X61344905Y-67469757D01*
X61423509Y-67624023D01*
X61426116Y-67627611D01*
X61449598Y-67693417D01*
X61433775Y-67761471D01*
X61383671Y-67810168D01*
X61325800Y-67824500D01*
X58741904Y-67824500D01*
X58731908Y-67824499D01*
X58731906Y-67824499D01*
X58711261Y-67824499D01*
X58687788Y-67824499D01*
X58687787Y-67824498D01*
X58680838Y-67824304D01*
X58389014Y-67807918D01*
X58375196Y-67806361D01*
X58090482Y-67757988D01*
X58076925Y-67754894D01*
X57799409Y-67674944D01*
X57786284Y-67670351D01*
X57519478Y-67559838D01*
X57506949Y-67553805D01*
X57254183Y-67414107D01*
X57242409Y-67406709D01*
X57006871Y-67239587D01*
X56995999Y-67230916D01*
X56780665Y-67038480D01*
X56770833Y-67028648D01*
X56637540Y-66879494D01*
X56578394Y-66813310D01*
X56569726Y-66802442D01*
X56569723Y-66802438D01*
X56411318Y-66579185D01*
X56402604Y-66566904D01*
X56395206Y-66555130D01*
X56255508Y-66302364D01*
X56249475Y-66289835D01*
X56138962Y-66023029D01*
X56134369Y-66009904D01*
X56054419Y-65732388D01*
X56051325Y-65718831D01*
X56046377Y-65689707D01*
X56002950Y-65434107D01*
X56001396Y-65420308D01*
X55992041Y-65253712D01*
X55992041Y-65253711D01*
X56583814Y-65253711D01*
X56583814Y-65496288D01*
X56615475Y-65736785D01*
X56678261Y-65971104D01*
X56768896Y-66189915D01*
X56771090Y-66195212D01*
X56892378Y-66405289D01*
X56892380Y-66405292D01*
X56892381Y-66405293D01*
X57040047Y-66597736D01*
X57040053Y-66597743D01*
X57211570Y-66769260D01*
X57211576Y-66769265D01*
X57404025Y-66916936D01*
X57614102Y-67038224D01*
X57838214Y-67131054D01*
X58072525Y-67193838D01*
X58252900Y-67217584D01*
X58313025Y-67225500D01*
X58313026Y-67225500D01*
X58555603Y-67225500D01*
X58603702Y-67219167D01*
X58796103Y-67193838D01*
X59030414Y-67131054D01*
X59254526Y-67038224D01*
X59464603Y-66916936D01*
X59657052Y-66769265D01*
X59828579Y-66597738D01*
X59976250Y-66405289D01*
X60097538Y-66195212D01*
X60190368Y-65971100D01*
X60253152Y-65736789D01*
X60284814Y-65496288D01*
X60284814Y-65253712D01*
X60284814Y-65253711D01*
X87083814Y-65253711D01*
X87083814Y-65496288D01*
X87115475Y-65736785D01*
X87178261Y-65971104D01*
X87268896Y-66189915D01*
X87271090Y-66195212D01*
X87392378Y-66405289D01*
X87392380Y-66405292D01*
X87392381Y-66405293D01*
X87540047Y-66597736D01*
X87540053Y-66597743D01*
X87711570Y-66769260D01*
X87711576Y-66769265D01*
X87904025Y-66916936D01*
X88114102Y-67038224D01*
X88338214Y-67131054D01*
X88572525Y-67193838D01*
X88752900Y-67217584D01*
X88813025Y-67225500D01*
X88813026Y-67225500D01*
X89055603Y-67225500D01*
X89103702Y-67219167D01*
X89296103Y-67193838D01*
X89530414Y-67131054D01*
X89754526Y-67038224D01*
X89964603Y-66916936D01*
X90157052Y-66769265D01*
X90328579Y-66597738D01*
X90476250Y-66405289D01*
X90597538Y-66195212D01*
X90690368Y-65971100D01*
X90753152Y-65736789D01*
X90784814Y-65496288D01*
X90784814Y-65253712D01*
X90753152Y-65013211D01*
X90690368Y-64778900D01*
X90597538Y-64554788D01*
X90476250Y-64344711D01*
X90328579Y-64152262D01*
X90328574Y-64152256D01*
X90157057Y-63980739D01*
X90157050Y-63980733D01*
X89964607Y-63833067D01*
X89964606Y-63833066D01*
X89964603Y-63833064D01*
X89754526Y-63711776D01*
X89754519Y-63711773D01*
X89530418Y-63618947D01*
X89296099Y-63556161D01*
X89055603Y-63524500D01*
X89055602Y-63524500D01*
X88813026Y-63524500D01*
X88813025Y-63524500D01*
X88572528Y-63556161D01*
X88338209Y-63618947D01*
X88114108Y-63711773D01*
X88114099Y-63711777D01*
X87904020Y-63833067D01*
X87711577Y-63980733D01*
X87711570Y-63980739D01*
X87540053Y-64152256D01*
X87540047Y-64152263D01*
X87392381Y-64344706D01*
X87271091Y-64554785D01*
X87271087Y-64554794D01*
X87178261Y-64778895D01*
X87115475Y-65013214D01*
X87083814Y-65253711D01*
X60284814Y-65253711D01*
X60253152Y-65013211D01*
X60190368Y-64778900D01*
X60097538Y-64554788D01*
X59976250Y-64344711D01*
X59828579Y-64152262D01*
X59828574Y-64152256D01*
X59657057Y-63980739D01*
X59657050Y-63980733D01*
X59464607Y-63833067D01*
X59464606Y-63833066D01*
X59464603Y-63833064D01*
X59254526Y-63711776D01*
X59254519Y-63711773D01*
X59030418Y-63618947D01*
X58796099Y-63556161D01*
X58555603Y-63524500D01*
X58555602Y-63524500D01*
X58313026Y-63524500D01*
X58313025Y-63524500D01*
X58072528Y-63556161D01*
X57838209Y-63618947D01*
X57614108Y-63711773D01*
X57614099Y-63711777D01*
X57404020Y-63833067D01*
X57211577Y-63980733D01*
X57211570Y-63980739D01*
X57040053Y-64152256D01*
X57040047Y-64152263D01*
X56892381Y-64344706D01*
X56771091Y-64554785D01*
X56771087Y-64554794D01*
X56678261Y-64778895D01*
X56615475Y-65013214D01*
X56583814Y-65253711D01*
X55992041Y-65253711D01*
X55985009Y-65128475D01*
X55984814Y-65121521D01*
X55984815Y-65077408D01*
X55984814Y-65077404D01*
X55984814Y-61984079D01*
X61314314Y-61984079D01*
X61314314Y-62287500D01*
X62064315Y-62287500D01*
X62064315Y-62787500D01*
X61314314Y-62787500D01*
X61314314Y-63090920D01*
X61354662Y-63293766D01*
X61354664Y-63293774D01*
X61433814Y-63484858D01*
X61433819Y-63484868D01*
X61548724Y-63656835D01*
X61548727Y-63656839D01*
X61694974Y-63803086D01*
X61694978Y-63803089D01*
X61866945Y-63917994D01*
X61866955Y-63917999D01*
X62058037Y-63997148D01*
X62058039Y-63997149D01*
X62114314Y-64008342D01*
X62114314Y-63154485D01*
X62124255Y-63171704D01*
X62180110Y-63227559D01*
X62248519Y-63267055D01*
X62324818Y-63287499D01*
X62403810Y-63287499D01*
X62480109Y-63267055D01*
X62548518Y-63227559D01*
X62604373Y-63171704D01*
X62614314Y-63154485D01*
X62614314Y-64008342D01*
X62670588Y-63997149D01*
X62670590Y-63997148D01*
X62861672Y-63917999D01*
X62861682Y-63917994D01*
X63033649Y-63803089D01*
X63033653Y-63803086D01*
X63179900Y-63656839D01*
X63179906Y-63656831D01*
X63237957Y-63569953D01*
X63291569Y-63525147D01*
X63360894Y-63516440D01*
X63418457Y-63543980D01*
X63419153Y-63543074D01*
X63423440Y-63546364D01*
X63423921Y-63546594D01*
X63424689Y-63547322D01*
X63425595Y-63548017D01*
X63425598Y-63548020D01*
X63425601Y-63548021D01*
X63425604Y-63548024D01*
X63548448Y-63618947D01*
X63562530Y-63627077D01*
X63715257Y-63668000D01*
X63715259Y-63668000D01*
X63873369Y-63668000D01*
X63873371Y-63668000D01*
X64026098Y-63627077D01*
X64036359Y-63621153D01*
X67133814Y-63621153D01*
X67133814Y-63778846D01*
X67164575Y-63933489D01*
X67164578Y-63933501D01*
X67224916Y-64079172D01*
X67224923Y-64079185D01*
X67312524Y-64210288D01*
X67312527Y-64210292D01*
X67424021Y-64321786D01*
X67424025Y-64321789D01*
X67555128Y-64409390D01*
X67555141Y-64409397D01*
X67700812Y-64469735D01*
X67700817Y-64469737D01*
X67855467Y-64500499D01*
X67855470Y-64500500D01*
X67855472Y-64500500D01*
X68013158Y-64500500D01*
X68013159Y-64500499D01*
X68167811Y-64469737D01*
X68313493Y-64409394D01*
X68444603Y-64321789D01*
X68556103Y-64210289D01*
X68643708Y-64079179D01*
X68704051Y-63933497D01*
X68734814Y-63778842D01*
X68734814Y-63621158D01*
X68734814Y-63621155D01*
X68734813Y-63621153D01*
X68734374Y-63618946D01*
X68704051Y-63466503D01*
X68691503Y-63436209D01*
X68643711Y-63320827D01*
X68643704Y-63320814D01*
X68556103Y-63189711D01*
X68556100Y-63189707D01*
X68444604Y-63078211D01*
X68313499Y-62990609D01*
X68313486Y-62990602D01*
X68308274Y-62988443D01*
X68973814Y-62988443D01*
X68973814Y-63146557D01*
X69013259Y-63293766D01*
X69014737Y-63299283D01*
X69014740Y-63299290D01*
X69093789Y-63436209D01*
X69093793Y-63436214D01*
X69093794Y-63436216D01*
X69205598Y-63548020D01*
X69205600Y-63548021D01*
X69205604Y-63548024D01*
X69328448Y-63618947D01*
X69342530Y-63627077D01*
X69495257Y-63668000D01*
X69495259Y-63668000D01*
X69653369Y-63668000D01*
X69653371Y-63668000D01*
X69806098Y-63627077D01*
X69943030Y-63548020D01*
X69943033Y-63548016D01*
X69949480Y-63543071D01*
X69951025Y-63545085D01*
X70001188Y-63517682D01*
X70070880Y-63522653D01*
X70126822Y-63564514D01*
X70130671Y-63569953D01*
X70188721Y-63656831D01*
X70188727Y-63656839D01*
X70334974Y-63803086D01*
X70334978Y-63803089D01*
X70506945Y-63917994D01*
X70506955Y-63917999D01*
X70698037Y-63997148D01*
X70698039Y-63997149D01*
X70754314Y-64008342D01*
X70754314Y-63154497D01*
X70764255Y-63171716D01*
X70820110Y-63227571D01*
X70888519Y-63267067D01*
X70964818Y-63287511D01*
X71043810Y-63287511D01*
X71120109Y-63267067D01*
X71188518Y-63227571D01*
X71244373Y-63171716D01*
X71254314Y-63154497D01*
X71254314Y-64008342D01*
X71310588Y-63997149D01*
X71310590Y-63997148D01*
X71501672Y-63917999D01*
X71501682Y-63917994D01*
X71673649Y-63803089D01*
X71673653Y-63803086D01*
X71819900Y-63656839D01*
X71819903Y-63656835D01*
X71934808Y-63484868D01*
X71934813Y-63484858D01*
X72013963Y-63293774D01*
X72013965Y-63293766D01*
X72054313Y-63090920D01*
X72054314Y-63090917D01*
X72054314Y-62787500D01*
X71304313Y-62787500D01*
X71304313Y-62287500D01*
X72054314Y-62287500D01*
X72054314Y-61984083D01*
X72054313Y-61984079D01*
X72013965Y-61781233D01*
X72013963Y-61781225D01*
X71960714Y-61652670D01*
X71943579Y-61611304D01*
X81783814Y-61611304D01*
X81783814Y-61788695D01*
X81818417Y-61962658D01*
X81818420Y-61962667D01*
X81886297Y-62126540D01*
X81886304Y-62126553D01*
X81984849Y-62274034D01*
X81984852Y-62274038D01*
X82110275Y-62399461D01*
X82110279Y-62399464D01*
X82257760Y-62498009D01*
X82257773Y-62498016D01*
X82332200Y-62528844D01*
X82421648Y-62565894D01*
X82425757Y-62566711D01*
X82487668Y-62599092D01*
X82522246Y-62659805D01*
X82518510Y-62729575D01*
X82516132Y-62735781D01*
X82468420Y-62850968D01*
X82468417Y-62850977D01*
X82433814Y-63024940D01*
X82433814Y-63202331D01*
X82468417Y-63376294D01*
X82468420Y-63376303D01*
X82536297Y-63540176D01*
X82536304Y-63540189D01*
X82634849Y-63687670D01*
X82634852Y-63687674D01*
X82760275Y-63813097D01*
X82760279Y-63813100D01*
X82907760Y-63911645D01*
X82907773Y-63911652D01*
X83030677Y-63962559D01*
X83071648Y-63979530D01*
X83071650Y-63979530D01*
X83071655Y-63979532D01*
X83245618Y-64014135D01*
X83245621Y-64014136D01*
X83245623Y-64014136D01*
X83423007Y-64014136D01*
X83423008Y-64014135D01*
X83508409Y-63997148D01*
X83596972Y-63979532D01*
X83596975Y-63979530D01*
X83596980Y-63979530D01*
X83760861Y-63911649D01*
X83908349Y-63813100D01*
X84033778Y-63687671D01*
X84132327Y-63540183D01*
X84200208Y-63376302D01*
X84207505Y-63339614D01*
X84239888Y-63277706D01*
X84300603Y-63243131D01*
X84304868Y-63242202D01*
X84417811Y-63219737D01*
X84563493Y-63159394D01*
X84694603Y-63071789D01*
X84806103Y-62960289D01*
X84893708Y-62829179D01*
X84954051Y-62683497D01*
X84984814Y-62528842D01*
X84984814Y-62371158D01*
X84984814Y-62371155D01*
X84984813Y-62371153D01*
X84968173Y-62287500D01*
X84954051Y-62216503D01*
X84916793Y-62126553D01*
X84893711Y-62070827D01*
X84893704Y-62070814D01*
X84806103Y-61939711D01*
X84806100Y-61939707D01*
X84694606Y-61828213D01*
X84694602Y-61828210D01*
X84563499Y-61740609D01*
X84563486Y-61740602D01*
X84417815Y-61680264D01*
X84417803Y-61680261D01*
X84263159Y-61649500D01*
X84263156Y-61649500D01*
X84105472Y-61649500D01*
X84105469Y-61649500D01*
X83950824Y-61680261D01*
X83950812Y-61680264D01*
X83805141Y-61740602D01*
X83805130Y-61740608D01*
X83777704Y-61758934D01*
X83711026Y-61779811D01*
X83643646Y-61761326D01*
X83596957Y-61709346D01*
X83584814Y-61655831D01*
X83584814Y-61611306D01*
X83584813Y-61611304D01*
X83550210Y-61437341D01*
X83550207Y-61437332D01*
X83482330Y-61273459D01*
X83482323Y-61273446D01*
X83383778Y-61125965D01*
X83383775Y-61125961D01*
X83258352Y-61000538D01*
X83258348Y-61000535D01*
X83110867Y-60901990D01*
X83110854Y-60901983D01*
X82946981Y-60834106D01*
X82946972Y-60834103D01*
X82773008Y-60799500D01*
X82773005Y-60799500D01*
X82595623Y-60799500D01*
X82595620Y-60799500D01*
X82421655Y-60834103D01*
X82421646Y-60834106D01*
X82257773Y-60901983D01*
X82257760Y-60901990D01*
X82110279Y-61000535D01*
X82110275Y-61000538D01*
X81984852Y-61125961D01*
X81984849Y-61125965D01*
X81886304Y-61273446D01*
X81886297Y-61273459D01*
X81818420Y-61437332D01*
X81818417Y-61437341D01*
X81783814Y-61611304D01*
X71943579Y-61611304D01*
X71934813Y-61590141D01*
X71934808Y-61590131D01*
X71819903Y-61418164D01*
X71819900Y-61418160D01*
X71673653Y-61271913D01*
X71673649Y-61271910D01*
X71501682Y-61157005D01*
X71501672Y-61157000D01*
X71310586Y-61077849D01*
X71310581Y-61077847D01*
X71254314Y-61066655D01*
X71254314Y-61920502D01*
X71244373Y-61903284D01*
X71188518Y-61847429D01*
X71120109Y-61807933D01*
X71043810Y-61787489D01*
X70964818Y-61787489D01*
X70888519Y-61807933D01*
X70820110Y-61847429D01*
X70764255Y-61903284D01*
X70754314Y-61920502D01*
X70754314Y-61066656D01*
X70754313Y-61066655D01*
X70698046Y-61077847D01*
X70698041Y-61077849D01*
X70506955Y-61157000D01*
X70506945Y-61157005D01*
X70334978Y-61271910D01*
X70334974Y-61271913D01*
X70188727Y-61418160D01*
X70188724Y-61418164D01*
X70073819Y-61590131D01*
X70073814Y-61590141D01*
X69994664Y-61781225D01*
X69994662Y-61781233D01*
X69954314Y-61984079D01*
X69954314Y-62386037D01*
X69934629Y-62453076D01*
X69881825Y-62498831D01*
X69812667Y-62508775D01*
X69798221Y-62505812D01*
X69714386Y-62483349D01*
X69653371Y-62467000D01*
X69495257Y-62467000D01*
X69342530Y-62507923D01*
X69342523Y-62507926D01*
X69205604Y-62586975D01*
X69205596Y-62586981D01*
X69093795Y-62698782D01*
X69093789Y-62698790D01*
X69014740Y-62835709D01*
X69014737Y-62835716D01*
X68973814Y-62988443D01*
X68308274Y-62988443D01*
X68167815Y-62930264D01*
X68167803Y-62930261D01*
X68013159Y-62899500D01*
X68013156Y-62899500D01*
X67855472Y-62899500D01*
X67855469Y-62899500D01*
X67700824Y-62930261D01*
X67700812Y-62930264D01*
X67555141Y-62990602D01*
X67555128Y-62990609D01*
X67424025Y-63078210D01*
X67424021Y-63078213D01*
X67312527Y-63189707D01*
X67312524Y-63189711D01*
X67224923Y-63320814D01*
X67224916Y-63320827D01*
X67164578Y-63466498D01*
X67164575Y-63466510D01*
X67133814Y-63621153D01*
X64036359Y-63621153D01*
X64163030Y-63548020D01*
X64274834Y-63436216D01*
X64353891Y-63299284D01*
X64394814Y-63146557D01*
X64394814Y-62988443D01*
X64353891Y-62835716D01*
X64292611Y-62729575D01*
X64274838Y-62698790D01*
X64274832Y-62698782D01*
X64163031Y-62586981D01*
X64163023Y-62586975D01*
X64026104Y-62507926D01*
X64026100Y-62507924D01*
X64026098Y-62507923D01*
X63873371Y-62467000D01*
X63715257Y-62467000D01*
X63570407Y-62505812D01*
X63500557Y-62504149D01*
X63442695Y-62464986D01*
X63415191Y-62400758D01*
X63414314Y-62386037D01*
X63414314Y-61984083D01*
X63414313Y-61984079D01*
X63373965Y-61781233D01*
X63373963Y-61781225D01*
X63294813Y-61590141D01*
X63294808Y-61590131D01*
X63179903Y-61418164D01*
X63179900Y-61418160D01*
X63033653Y-61271913D01*
X63033649Y-61271910D01*
X62861682Y-61157005D01*
X62861672Y-61157000D01*
X62670586Y-61077849D01*
X62670581Y-61077847D01*
X62614314Y-61066655D01*
X62614314Y-61920514D01*
X62604373Y-61903296D01*
X62548518Y-61847441D01*
X62480109Y-61807945D01*
X62403810Y-61787501D01*
X62324818Y-61787501D01*
X62248519Y-61807945D01*
X62180110Y-61847441D01*
X62124255Y-61903296D01*
X62114314Y-61920514D01*
X62114314Y-61066656D01*
X62114313Y-61066655D01*
X62058046Y-61077847D01*
X62058041Y-61077849D01*
X61866955Y-61157000D01*
X61866945Y-61157005D01*
X61694978Y-61271910D01*
X61694974Y-61271913D01*
X61548727Y-61418160D01*
X61548724Y-61418164D01*
X61433819Y-61590131D01*
X61433814Y-61590141D01*
X61354664Y-61781225D01*
X61354662Y-61781233D01*
X61314314Y-61984079D01*
X55984814Y-61984079D01*
X55984814Y-60121153D01*
X79883814Y-60121153D01*
X79883814Y-60278846D01*
X79914575Y-60433489D01*
X79914578Y-60433501D01*
X79974916Y-60579172D01*
X79974923Y-60579185D01*
X80062524Y-60710288D01*
X80062527Y-60710292D01*
X80174021Y-60821786D01*
X80174025Y-60821789D01*
X80305128Y-60909390D01*
X80305141Y-60909397D01*
X80450812Y-60969735D01*
X80450817Y-60969737D01*
X80605467Y-61000499D01*
X80605470Y-61000500D01*
X80605472Y-61000500D01*
X80763158Y-61000500D01*
X80763159Y-61000499D01*
X80917811Y-60969737D01*
X81063493Y-60909394D01*
X81194603Y-60821789D01*
X81306103Y-60710289D01*
X81393708Y-60579179D01*
X81454051Y-60433497D01*
X81484814Y-60278842D01*
X81484814Y-60121158D01*
X81484814Y-60121155D01*
X81471740Y-60055431D01*
X81477967Y-59985840D01*
X81520829Y-59930662D01*
X81545903Y-59916679D01*
X81563493Y-59909394D01*
X81694603Y-59821789D01*
X81806103Y-59710289D01*
X81893708Y-59579179D01*
X81954051Y-59433497D01*
X81984814Y-59278842D01*
X81984814Y-59121158D01*
X81984814Y-59121155D01*
X81984813Y-59121153D01*
X81954052Y-58966510D01*
X81954051Y-58966503D01*
X81950252Y-58957332D01*
X81893711Y-58820827D01*
X81893704Y-58820814D01*
X81806103Y-58689711D01*
X81806100Y-58689707D01*
X81694606Y-58578213D01*
X81694602Y-58578210D01*
X81563499Y-58490609D01*
X81563486Y-58490602D01*
X81417815Y-58430264D01*
X81417803Y-58430261D01*
X81263159Y-58399500D01*
X81263156Y-58399500D01*
X81105472Y-58399500D01*
X81105469Y-58399500D01*
X80950824Y-58430261D01*
X80950812Y-58430264D01*
X80805141Y-58490602D01*
X80805128Y-58490609D01*
X80674025Y-58578210D01*
X80674021Y-58578213D01*
X80562527Y-58689707D01*
X80562524Y-58689711D01*
X80474923Y-58820814D01*
X80474916Y-58820827D01*
X80414578Y-58966498D01*
X80414575Y-58966510D01*
X80383814Y-59121153D01*
X80383814Y-59278846D01*
X80396887Y-59344568D01*
X80390660Y-59414159D01*
X80347797Y-59469337D01*
X80322725Y-59483319D01*
X80305140Y-59490603D01*
X80305128Y-59490609D01*
X80174025Y-59578210D01*
X80174021Y-59578213D01*
X80062527Y-59689707D01*
X80062524Y-59689711D01*
X79974923Y-59820814D01*
X79974916Y-59820827D01*
X79914578Y-59966498D01*
X79914575Y-59966510D01*
X79883814Y-60121153D01*
X55984814Y-60121153D01*
X55984814Y-59131304D01*
X73033814Y-59131304D01*
X73033814Y-59308695D01*
X73068417Y-59482658D01*
X73068420Y-59482667D01*
X73136297Y-59646540D01*
X73136304Y-59646553D01*
X73234849Y-59794034D01*
X73234852Y-59794038D01*
X73360275Y-59919461D01*
X73360279Y-59919464D01*
X73507760Y-60018009D01*
X73507773Y-60018016D01*
X73598103Y-60055431D01*
X73671648Y-60085894D01*
X73671650Y-60085894D01*
X73671655Y-60085896D01*
X73845618Y-60120499D01*
X73845621Y-60120500D01*
X73845623Y-60120500D01*
X74023007Y-60120500D01*
X74023008Y-60120499D01*
X74080996Y-60108964D01*
X74196972Y-60085896D01*
X74196975Y-60085894D01*
X74196980Y-60085894D01*
X74360861Y-60018013D01*
X74360867Y-60018009D01*
X74369915Y-60011964D01*
X74452996Y-59956450D01*
X74508349Y-59919464D01*
X74633778Y-59794035D01*
X74732327Y-59646547D01*
X74800208Y-59482666D01*
X74802860Y-59469337D01*
X74823278Y-59366682D01*
X74834814Y-59308691D01*
X74834814Y-59131309D01*
X74834814Y-59131306D01*
X74834813Y-59131304D01*
X74800210Y-58957341D01*
X74800207Y-58957332D01*
X74732330Y-58793459D01*
X74732323Y-58793446D01*
X74633778Y-58645965D01*
X74633775Y-58645961D01*
X74508352Y-58520538D01*
X74508348Y-58520535D01*
X74360867Y-58421990D01*
X74360854Y-58421983D01*
X74196981Y-58354106D01*
X74196972Y-58354103D01*
X74023008Y-58319500D01*
X74023005Y-58319500D01*
X73845623Y-58319500D01*
X73845620Y-58319500D01*
X73671655Y-58354103D01*
X73671646Y-58354106D01*
X73507773Y-58421983D01*
X73507760Y-58421990D01*
X73360279Y-58520535D01*
X73360275Y-58520538D01*
X73234852Y-58645961D01*
X73234849Y-58645965D01*
X73136304Y-58793446D01*
X73136297Y-58793459D01*
X73068420Y-58957332D01*
X73068417Y-58957341D01*
X73033814Y-59131304D01*
X55984814Y-59131304D01*
X55984814Y-57621153D01*
X59633814Y-57621153D01*
X59633814Y-57778846D01*
X59664575Y-57933489D01*
X59664578Y-57933501D01*
X59724916Y-58079172D01*
X59724923Y-58079185D01*
X59812524Y-58210288D01*
X59812527Y-58210292D01*
X59924021Y-58321786D01*
X59924025Y-58321789D01*
X60055128Y-58409390D01*
X60055141Y-58409397D01*
X60200812Y-58469735D01*
X60200817Y-58469737D01*
X60355467Y-58500499D01*
X60355470Y-58500500D01*
X60355472Y-58500500D01*
X60513158Y-58500500D01*
X60513159Y-58500499D01*
X60667811Y-58469737D01*
X60813493Y-58409394D01*
X60944603Y-58321789D01*
X61056103Y-58210289D01*
X61143708Y-58079179D01*
X61204051Y-57933497D01*
X61234814Y-57778842D01*
X61234814Y-57621158D01*
X61234814Y-57621155D01*
X61234813Y-57621153D01*
X61204052Y-57466510D01*
X61204051Y-57466503D01*
X61170928Y-57386536D01*
X61154555Y-57347007D01*
X61143711Y-57320827D01*
X61143704Y-57320814D01*
X61133566Y-57305642D01*
X70633815Y-57305642D01*
X70633815Y-57463335D01*
X70664576Y-57617978D01*
X70664579Y-57617990D01*
X70724917Y-57763661D01*
X70724924Y-57763674D01*
X70812525Y-57894777D01*
X70812528Y-57894781D01*
X70924022Y-58006275D01*
X70924026Y-58006278D01*
X71055129Y-58093879D01*
X71055142Y-58093886D01*
X71200813Y-58154224D01*
X71200818Y-58154226D01*
X71355468Y-58184988D01*
X71355471Y-58184989D01*
X71355473Y-58184989D01*
X71513159Y-58184989D01*
X71513160Y-58184988D01*
X71667812Y-58154226D01*
X71813494Y-58093883D01*
X71944604Y-58006278D01*
X72056104Y-57894778D01*
X72143709Y-57763668D01*
X72204052Y-57617986D01*
X72234815Y-57463331D01*
X72234815Y-57305647D01*
X72232143Y-57292214D01*
X72238370Y-57222623D01*
X72281232Y-57167445D01*
X72329566Y-57146405D01*
X72379035Y-57136566D01*
X72524717Y-57076223D01*
X72655827Y-56988618D01*
X72767327Y-56877118D01*
X72854932Y-56746008D01*
X72915275Y-56600326D01*
X72929523Y-56528698D01*
X72933802Y-56507189D01*
X75530210Y-56507189D01*
X75530210Y-56664882D01*
X75560971Y-56819525D01*
X75560974Y-56819537D01*
X75621312Y-56965208D01*
X75621319Y-56965221D01*
X75708920Y-57096324D01*
X75708923Y-57096328D01*
X75820417Y-57207822D01*
X75820421Y-57207825D01*
X75951524Y-57295426D01*
X75951537Y-57295433D01*
X76076050Y-57347007D01*
X76097213Y-57355773D01*
X76251863Y-57386535D01*
X76251866Y-57386536D01*
X76251868Y-57386536D01*
X76409554Y-57386536D01*
X76409555Y-57386535D01*
X76564207Y-57355773D01*
X76709889Y-57295430D01*
X76840999Y-57207825D01*
X76952499Y-57096325D01*
X77040104Y-56965215D01*
X77100447Y-56819533D01*
X77131210Y-56664878D01*
X77131210Y-56507194D01*
X77131210Y-56507191D01*
X77131209Y-56507189D01*
X77100448Y-56352546D01*
X77100447Y-56352539D01*
X77073707Y-56287982D01*
X77040107Y-56206863D01*
X77040100Y-56206850D01*
X76952499Y-56075747D01*
X76952496Y-56075743D01*
X76841002Y-55964249D01*
X76840998Y-55964246D01*
X76709895Y-55876645D01*
X76709882Y-55876638D01*
X76564211Y-55816300D01*
X76564199Y-55816297D01*
X76409555Y-55785536D01*
X76409552Y-55785536D01*
X76251868Y-55785536D01*
X76251865Y-55785536D01*
X76097220Y-55816297D01*
X76097208Y-55816300D01*
X75951537Y-55876638D01*
X75951524Y-55876645D01*
X75820421Y-55964246D01*
X75820417Y-55964249D01*
X75708923Y-56075743D01*
X75708920Y-56075747D01*
X75621319Y-56206850D01*
X75621312Y-56206863D01*
X75560974Y-56352534D01*
X75560971Y-56352546D01*
X75530210Y-56507189D01*
X72933802Y-56507189D01*
X72939820Y-56476933D01*
X72939824Y-56476912D01*
X72946038Y-56445670D01*
X72946038Y-56287984D01*
X72946037Y-56287982D01*
X72922830Y-56171313D01*
X72915275Y-56133332D01*
X72865690Y-56013622D01*
X72854935Y-55987656D01*
X72854928Y-55987643D01*
X72767327Y-55856540D01*
X72767324Y-55856536D01*
X72655830Y-55745042D01*
X72655826Y-55745039D01*
X72524723Y-55657438D01*
X72524710Y-55657431D01*
X72379039Y-55597093D01*
X72379027Y-55597090D01*
X72224383Y-55566329D01*
X72224380Y-55566329D01*
X72066696Y-55566329D01*
X72066693Y-55566329D01*
X71912048Y-55597090D01*
X71912036Y-55597093D01*
X71766365Y-55657431D01*
X71766352Y-55657438D01*
X71635249Y-55745039D01*
X71635245Y-55745042D01*
X71523751Y-55856536D01*
X71523748Y-55856540D01*
X71436147Y-55987643D01*
X71436140Y-55987656D01*
X71375802Y-56133327D01*
X71375799Y-56133339D01*
X71345038Y-56287982D01*
X71345038Y-56445672D01*
X71347710Y-56459107D01*
X71341481Y-56528698D01*
X71298616Y-56583874D01*
X71250284Y-56604912D01*
X71200823Y-56614750D01*
X71200813Y-56614753D01*
X71055142Y-56675091D01*
X71055129Y-56675098D01*
X70924026Y-56762699D01*
X70924022Y-56762702D01*
X70812528Y-56874196D01*
X70812525Y-56874200D01*
X70724924Y-57005303D01*
X70724917Y-57005316D01*
X70664579Y-57150987D01*
X70664576Y-57150999D01*
X70633815Y-57305642D01*
X61133566Y-57305642D01*
X61056103Y-57189711D01*
X61056100Y-57189707D01*
X60944606Y-57078213D01*
X60944602Y-57078210D01*
X60813499Y-56990609D01*
X60813486Y-56990602D01*
X60667815Y-56930264D01*
X60667803Y-56930261D01*
X60513159Y-56899500D01*
X60513156Y-56899500D01*
X60355472Y-56899500D01*
X60355469Y-56899500D01*
X60200824Y-56930261D01*
X60200812Y-56930264D01*
X60055141Y-56990602D01*
X60055128Y-56990609D01*
X59924025Y-57078210D01*
X59924021Y-57078213D01*
X59812527Y-57189707D01*
X59812524Y-57189711D01*
X59724923Y-57320814D01*
X59724916Y-57320827D01*
X59664578Y-57466498D01*
X59664575Y-57466510D01*
X59633814Y-57621153D01*
X55984814Y-57621153D01*
X55984814Y-56013622D01*
X68533814Y-56013622D01*
X68533814Y-56171315D01*
X68564575Y-56325958D01*
X68564578Y-56325970D01*
X68624916Y-56471641D01*
X68624923Y-56471654D01*
X68712524Y-56602757D01*
X68712527Y-56602761D01*
X68824021Y-56714255D01*
X68824025Y-56714258D01*
X68955128Y-56801859D01*
X68955141Y-56801866D01*
X69100812Y-56862204D01*
X69100817Y-56862206D01*
X69255467Y-56892968D01*
X69255470Y-56892969D01*
X69255472Y-56892969D01*
X69413158Y-56892969D01*
X69413159Y-56892968D01*
X69567811Y-56862206D01*
X69713493Y-56801863D01*
X69844603Y-56714258D01*
X69956103Y-56602758D01*
X70043708Y-56471648D01*
X70104051Y-56325966D01*
X70134814Y-56171311D01*
X70134814Y-56013627D01*
X70134814Y-56013624D01*
X70134813Y-56013622D01*
X70107566Y-55876645D01*
X70104051Y-55858972D01*
X70086376Y-55816300D01*
X70043711Y-55713296D01*
X70043704Y-55713283D01*
X69956103Y-55582180D01*
X69956100Y-55582176D01*
X69844606Y-55470682D01*
X69844602Y-55470679D01*
X69713499Y-55383078D01*
X69713486Y-55383071D01*
X69567815Y-55322733D01*
X69567803Y-55322730D01*
X69413159Y-55291969D01*
X69413156Y-55291969D01*
X69255472Y-55291969D01*
X69255469Y-55291969D01*
X69100824Y-55322730D01*
X69100812Y-55322733D01*
X68955141Y-55383071D01*
X68955128Y-55383078D01*
X68824025Y-55470679D01*
X68824021Y-55470682D01*
X68712527Y-55582176D01*
X68712524Y-55582180D01*
X68624923Y-55713283D01*
X68624916Y-55713296D01*
X68564578Y-55858967D01*
X68564575Y-55858979D01*
X68533814Y-56013622D01*
X55984814Y-56013622D01*
X55984814Y-51360444D01*
X58108814Y-51360444D01*
X58108814Y-51537835D01*
X58143417Y-51711798D01*
X58143420Y-51711807D01*
X58211297Y-51875680D01*
X58211304Y-51875693D01*
X58309849Y-52023174D01*
X58309852Y-52023178D01*
X58435275Y-52148601D01*
X58435279Y-52148604D01*
X58582760Y-52247149D01*
X58582773Y-52247156D01*
X58695471Y-52293836D01*
X58746648Y-52315034D01*
X58746651Y-52315034D01*
X58752483Y-52316804D01*
X58751771Y-52319149D01*
X58804128Y-52346517D01*
X58838721Y-52407222D01*
X58835002Y-52476993D01*
X58821156Y-52504664D01*
X58799926Y-52536437D01*
X58799917Y-52536453D01*
X58739579Y-52682124D01*
X58739576Y-52682136D01*
X58708815Y-52836779D01*
X58708815Y-52994472D01*
X58739576Y-53149115D01*
X58739579Y-53149127D01*
X58799917Y-53294798D01*
X58799919Y-53294802D01*
X58799921Y-53294805D01*
X58806473Y-53304612D01*
X58827351Y-53371287D01*
X58808867Y-53438667D01*
X58791053Y-53461182D01*
X58683273Y-53568962D01*
X58595672Y-53700065D01*
X58595665Y-53700078D01*
X58535327Y-53845749D01*
X58535324Y-53845761D01*
X58504563Y-54000404D01*
X58504563Y-54158097D01*
X58535324Y-54312740D01*
X58535327Y-54312752D01*
X58595665Y-54458423D01*
X58595672Y-54458436D01*
X58683273Y-54589539D01*
X58683276Y-54589543D01*
X58794770Y-54701037D01*
X58794774Y-54701040D01*
X58925877Y-54788641D01*
X58925890Y-54788648D01*
X59071561Y-54848986D01*
X59071566Y-54848988D01*
X59226216Y-54879750D01*
X59226219Y-54879751D01*
X59226221Y-54879751D01*
X59383907Y-54879751D01*
X59383908Y-54879750D01*
X59538560Y-54848988D01*
X59684242Y-54788645D01*
X59815352Y-54701040D01*
X59895239Y-54621153D01*
X87133814Y-54621153D01*
X87133814Y-54778846D01*
X87164575Y-54933489D01*
X87164578Y-54933501D01*
X87224916Y-55079172D01*
X87224923Y-55079185D01*
X87312524Y-55210288D01*
X87312527Y-55210292D01*
X87424021Y-55321786D01*
X87424025Y-55321789D01*
X87555128Y-55409390D01*
X87555141Y-55409397D01*
X87700812Y-55469735D01*
X87700817Y-55469737D01*
X87855467Y-55500499D01*
X87855470Y-55500500D01*
X87855472Y-55500500D01*
X88013158Y-55500500D01*
X88013159Y-55500499D01*
X88167811Y-55469737D01*
X88313493Y-55409394D01*
X88444603Y-55321789D01*
X88556103Y-55210289D01*
X88643708Y-55079179D01*
X88704051Y-54933497D01*
X88734814Y-54778842D01*
X88734814Y-54621158D01*
X88734814Y-54621155D01*
X88734813Y-54621153D01*
X88728525Y-54589540D01*
X88704051Y-54466503D01*
X88700704Y-54458423D01*
X88661746Y-54364368D01*
X88654277Y-54294899D01*
X88685552Y-54232420D01*
X88688599Y-54229262D01*
X88756838Y-54161024D01*
X88844443Y-54029914D01*
X88904786Y-53884232D01*
X88935549Y-53729577D01*
X88935549Y-53571893D01*
X88935549Y-53571890D01*
X88935548Y-53571888D01*
X88925673Y-53522243D01*
X88904786Y-53417238D01*
X88893875Y-53390896D01*
X88844446Y-53271562D01*
X88844439Y-53271549D01*
X88756838Y-53140446D01*
X88756835Y-53140442D01*
X88645341Y-53028948D01*
X88645337Y-53028945D01*
X88514234Y-52941344D01*
X88514221Y-52941337D01*
X88368550Y-52880999D01*
X88368538Y-52880996D01*
X88213894Y-52850235D01*
X88213891Y-52850235D01*
X88056207Y-52850235D01*
X88056204Y-52850235D01*
X87901559Y-52880996D01*
X87901547Y-52880999D01*
X87755876Y-52941337D01*
X87755863Y-52941344D01*
X87624760Y-53028945D01*
X87624756Y-53028948D01*
X87513262Y-53140442D01*
X87513259Y-53140446D01*
X87425658Y-53271549D01*
X87425651Y-53271562D01*
X87365313Y-53417233D01*
X87365310Y-53417245D01*
X87334549Y-53571888D01*
X87334549Y-53729581D01*
X87365310Y-53884224D01*
X87365313Y-53884236D01*
X87407616Y-53986366D01*
X87415085Y-54055836D01*
X87383809Y-54118315D01*
X87380736Y-54121499D01*
X87312527Y-54189707D01*
X87312524Y-54189711D01*
X87224923Y-54320814D01*
X87224916Y-54320827D01*
X87164578Y-54466498D01*
X87164575Y-54466510D01*
X87133814Y-54621153D01*
X59895239Y-54621153D01*
X59926852Y-54589540D01*
X60014457Y-54458430D01*
X60074800Y-54312748D01*
X60105563Y-54158093D01*
X60105563Y-54000409D01*
X60105563Y-54000406D01*
X60105562Y-54000404D01*
X60102770Y-53986366D01*
X60074800Y-53845754D01*
X60063835Y-53819281D01*
X60015565Y-53702745D01*
X60015562Y-53702741D01*
X60014457Y-53700072D01*
X60006734Y-53688515D01*
X60005642Y-53686754D01*
X59996867Y-53655020D01*
X59995481Y-53650593D01*
X65413254Y-53650593D01*
X65413254Y-53808286D01*
X65444015Y-53962929D01*
X65444018Y-53962941D01*
X65504356Y-54108612D01*
X65504363Y-54108625D01*
X65591964Y-54239728D01*
X65591967Y-54239732D01*
X65703461Y-54351226D01*
X65703465Y-54351229D01*
X65834568Y-54438830D01*
X65834581Y-54438837D01*
X65980252Y-54499175D01*
X65980257Y-54499177D01*
X66134907Y-54529939D01*
X66134910Y-54529940D01*
X66134912Y-54529940D01*
X66292598Y-54529940D01*
X66292599Y-54529939D01*
X66447251Y-54499177D01*
X66592933Y-54438834D01*
X66724043Y-54351229D01*
X66835543Y-54239729D01*
X66923148Y-54108619D01*
X66928344Y-54096076D01*
X66967931Y-54000502D01*
X66983491Y-53962937D01*
X67014254Y-53808282D01*
X67014254Y-53650598D01*
X67014254Y-53650595D01*
X67014253Y-53650593D01*
X66989280Y-53525041D01*
X66985678Y-53506937D01*
X67819654Y-53506937D01*
X67819654Y-53664630D01*
X67850415Y-53819273D01*
X67850418Y-53819285D01*
X67910756Y-53964956D01*
X67910763Y-53964969D01*
X67998364Y-54096072D01*
X67998367Y-54096076D01*
X68109861Y-54207570D01*
X68109865Y-54207573D01*
X68240968Y-54295174D01*
X68240981Y-54295181D01*
X68360622Y-54344737D01*
X68386657Y-54355521D01*
X68487093Y-54375499D01*
X68541307Y-54386283D01*
X68541310Y-54386284D01*
X68541312Y-54386284D01*
X68698998Y-54386284D01*
X68698999Y-54386283D01*
X68853651Y-54355521D01*
X68999333Y-54295178D01*
X68999343Y-54295171D01*
X69003041Y-54293195D01*
X69071443Y-54278946D01*
X69108956Y-54287985D01*
X69245968Y-54344737D01*
X69400618Y-54375499D01*
X69400621Y-54375500D01*
X69400623Y-54375500D01*
X69558309Y-54375500D01*
X69558310Y-54375499D01*
X69712962Y-54344737D01*
X69832619Y-54295174D01*
X69858637Y-54284397D01*
X69858637Y-54284396D01*
X69858644Y-54284394D01*
X69989754Y-54196789D01*
X70101254Y-54085289D01*
X70188859Y-53954179D01*
X70238589Y-53834118D01*
X70282429Y-53779715D01*
X70348723Y-53757650D01*
X70416423Y-53774929D01*
X70464034Y-53826066D01*
X70467711Y-53834119D01*
X70523211Y-53968110D01*
X70523218Y-53968123D01*
X70610819Y-54099226D01*
X70610822Y-54099230D01*
X70722316Y-54210724D01*
X70722320Y-54210727D01*
X70853423Y-54298328D01*
X70853436Y-54298335D01*
X70991500Y-54355522D01*
X70999112Y-54358675D01*
X71137906Y-54386283D01*
X71153762Y-54389437D01*
X71153765Y-54389438D01*
X71153767Y-54389438D01*
X71311453Y-54389438D01*
X71311454Y-54389437D01*
X71466106Y-54358675D01*
X71611788Y-54298332D01*
X71611793Y-54298328D01*
X71611796Y-54298327D01*
X71677206Y-54254621D01*
X71700284Y-54239200D01*
X71766960Y-54218322D01*
X71834341Y-54236806D01*
X71856856Y-54254621D01*
X71924021Y-54321786D01*
X71924025Y-54321789D01*
X72055128Y-54409390D01*
X72055141Y-54409397D01*
X72192997Y-54466498D01*
X72200817Y-54469737D01*
X72348811Y-54499175D01*
X72355467Y-54500499D01*
X72355470Y-54500500D01*
X72355472Y-54500500D01*
X72513158Y-54500500D01*
X72513159Y-54500499D01*
X72523493Y-54498443D01*
X72548601Y-54493450D01*
X72548606Y-54493449D01*
X72634114Y-54476439D01*
X72667811Y-54469737D01*
X72813493Y-54409394D01*
X72944603Y-54321789D01*
X73056103Y-54210289D01*
X73143708Y-54079179D01*
X73204051Y-53933497D01*
X73234814Y-53778842D01*
X73234814Y-53621158D01*
X73234814Y-53621155D01*
X73234813Y-53621153D01*
X73226462Y-53579168D01*
X73204051Y-53466503D01*
X73190382Y-53433503D01*
X73143711Y-53320827D01*
X73143704Y-53320814D01*
X73056103Y-53189711D01*
X73056100Y-53189707D01*
X72944606Y-53078213D01*
X72944602Y-53078210D01*
X72813499Y-52990609D01*
X72813486Y-52990602D01*
X72667815Y-52930264D01*
X72667803Y-52930261D01*
X72513159Y-52899500D01*
X72513156Y-52899500D01*
X72355472Y-52899500D01*
X72355469Y-52899500D01*
X72200824Y-52930261D01*
X72200812Y-52930264D01*
X72055141Y-52990602D01*
X72055128Y-52990609D01*
X71966638Y-53049737D01*
X71899960Y-53070615D01*
X71832580Y-53052130D01*
X71810066Y-53034316D01*
X71742901Y-52967151D01*
X71742897Y-52967148D01*
X71611794Y-52879547D01*
X71611781Y-52879540D01*
X71466110Y-52819202D01*
X71466098Y-52819199D01*
X71311454Y-52788438D01*
X71311451Y-52788438D01*
X71153767Y-52788438D01*
X71153764Y-52788438D01*
X70999119Y-52819199D01*
X70999107Y-52819202D01*
X70853436Y-52879540D01*
X70853423Y-52879547D01*
X70722320Y-52967148D01*
X70722316Y-52967151D01*
X70610822Y-53078645D01*
X70610819Y-53078649D01*
X70523218Y-53209752D01*
X70523213Y-53209762D01*
X70473484Y-53329819D01*
X70429643Y-53384222D01*
X70363349Y-53406287D01*
X70295649Y-53389008D01*
X70248039Y-53337870D01*
X70244362Y-53329818D01*
X70188862Y-53195827D01*
X70188855Y-53195814D01*
X70101254Y-53064711D01*
X70101251Y-53064707D01*
X69989757Y-52953213D01*
X69989753Y-52953210D01*
X69858650Y-52865609D01*
X69858637Y-52865602D01*
X69712966Y-52805264D01*
X69712954Y-52805261D01*
X69558310Y-52774500D01*
X69558307Y-52774500D01*
X69400623Y-52774500D01*
X69400620Y-52774500D01*
X69245975Y-52805261D01*
X69245963Y-52805264D01*
X69100280Y-52865608D01*
X69096557Y-52867598D01*
X69028154Y-52881835D01*
X68990660Y-52872797D01*
X68853655Y-52816048D01*
X68853643Y-52816045D01*
X68698999Y-52785284D01*
X68698996Y-52785284D01*
X68541312Y-52785284D01*
X68541309Y-52785284D01*
X68386664Y-52816045D01*
X68386652Y-52816048D01*
X68240981Y-52876386D01*
X68240968Y-52876393D01*
X68109865Y-52963994D01*
X68109861Y-52963997D01*
X67998367Y-53075491D01*
X67998364Y-53075495D01*
X67910763Y-53206598D01*
X67910756Y-53206611D01*
X67850418Y-53352282D01*
X67850415Y-53352294D01*
X67819654Y-53506937D01*
X66985678Y-53506937D01*
X66983492Y-53495947D01*
X66983489Y-53495938D01*
X66923151Y-53350267D01*
X66923144Y-53350254D01*
X66835543Y-53219151D01*
X66835540Y-53219147D01*
X66724046Y-53107653D01*
X66724042Y-53107650D01*
X66592939Y-53020049D01*
X66592926Y-53020042D01*
X66447255Y-52959704D01*
X66447243Y-52959701D01*
X66292599Y-52928940D01*
X66292596Y-52928940D01*
X66134912Y-52928940D01*
X66134909Y-52928940D01*
X65980264Y-52959701D01*
X65980252Y-52959704D01*
X65834581Y-53020042D01*
X65834568Y-53020049D01*
X65703465Y-53107650D01*
X65703461Y-53107653D01*
X65591967Y-53219147D01*
X65591964Y-53219151D01*
X65504363Y-53350254D01*
X65504356Y-53350267D01*
X65444018Y-53495938D01*
X65444015Y-53495950D01*
X65413254Y-53650593D01*
X59995481Y-53650593D01*
X59987026Y-53623591D01*
X59987599Y-53621500D01*
X59987022Y-53619412D01*
X59996797Y-53587970D01*
X60005509Y-53556211D01*
X60007423Y-53553791D01*
X60007765Y-53552692D01*
X60009336Y-53551373D01*
X60023321Y-53533697D01*
X60131104Y-53425915D01*
X60218709Y-53294805D01*
X60228337Y-53271562D01*
X60247845Y-53224463D01*
X60279052Y-53149123D01*
X60309815Y-52994468D01*
X60309815Y-52836784D01*
X60309815Y-52836781D01*
X60309814Y-52836779D01*
X60306318Y-52819202D01*
X60279052Y-52682129D01*
X60279050Y-52682124D01*
X60218712Y-52536453D01*
X60218705Y-52536440D01*
X60131104Y-52405337D01*
X60131101Y-52405333D01*
X60019607Y-52293839D01*
X60019603Y-52293836D01*
X59888500Y-52206235D01*
X59888490Y-52206230D01*
X59801984Y-52170398D01*
X59791530Y-52166068D01*
X59737126Y-52122228D01*
X59717053Y-52061923D01*
X61745296Y-52061923D01*
X61745296Y-52219616D01*
X61776057Y-52374259D01*
X61776060Y-52374271D01*
X61836398Y-52519942D01*
X61836405Y-52519955D01*
X61924006Y-52651058D01*
X61924009Y-52651062D01*
X62035503Y-52762556D01*
X62035507Y-52762559D01*
X62166610Y-52850160D01*
X62166623Y-52850167D01*
X62290991Y-52901681D01*
X62312299Y-52910507D01*
X62466949Y-52941269D01*
X62466952Y-52941270D01*
X62466954Y-52941270D01*
X62624640Y-52941270D01*
X62624641Y-52941269D01*
X62779293Y-52910507D01*
X62924975Y-52850164D01*
X63056085Y-52762559D01*
X63121075Y-52697568D01*
X63182396Y-52664085D01*
X63252088Y-52669069D01*
X63295317Y-52699955D01*
X63297007Y-52698266D01*
X63412811Y-52814070D01*
X63412815Y-52814073D01*
X63543918Y-52901674D01*
X63543931Y-52901681D01*
X63685433Y-52960292D01*
X63689607Y-52962021D01*
X63833313Y-52990606D01*
X63844257Y-52992783D01*
X63844260Y-52992784D01*
X63844262Y-52992784D01*
X64001948Y-52992784D01*
X64001949Y-52992783D01*
X64156601Y-52962021D01*
X64302283Y-52901678D01*
X64433393Y-52814073D01*
X64544893Y-52702573D01*
X64632498Y-52571463D01*
X64688481Y-52436306D01*
X73485286Y-52436306D01*
X73485286Y-52613697D01*
X73519889Y-52787660D01*
X73519892Y-52787669D01*
X73587769Y-52951542D01*
X73587776Y-52951555D01*
X73686321Y-53099036D01*
X73686324Y-53099040D01*
X73811747Y-53224463D01*
X73811751Y-53224466D01*
X73959232Y-53323011D01*
X73959245Y-53323018D01*
X74037523Y-53355441D01*
X74123120Y-53390896D01*
X74123122Y-53390896D01*
X74123127Y-53390898D01*
X74297090Y-53425501D01*
X74297093Y-53425502D01*
X74297095Y-53425502D01*
X74474479Y-53425502D01*
X74474480Y-53425501D01*
X74571077Y-53406287D01*
X74648444Y-53390898D01*
X74648447Y-53390896D01*
X74648452Y-53390896D01*
X74812333Y-53323015D01*
X74959821Y-53224466D01*
X74995106Y-53189181D01*
X75056428Y-53155695D01*
X75126120Y-53160679D01*
X75182054Y-53202549D01*
X75185890Y-53207969D01*
X75222526Y-53262798D01*
X75334020Y-53374292D01*
X75334024Y-53374295D01*
X75465127Y-53461896D01*
X75465140Y-53461903D01*
X75581490Y-53510096D01*
X75610816Y-53522243D01*
X75763892Y-53552692D01*
X75765466Y-53553005D01*
X75765469Y-53553006D01*
X75765471Y-53553006D01*
X75923157Y-53553006D01*
X75923158Y-53553005D01*
X76077810Y-53522243D01*
X76190479Y-53475573D01*
X76223485Y-53461903D01*
X76223485Y-53461902D01*
X76223492Y-53461900D01*
X76354602Y-53374295D01*
X76466102Y-53262795D01*
X76510853Y-53195821D01*
X76537734Y-53155591D01*
X76553070Y-53142773D01*
X76564765Y-53126556D01*
X76579333Y-53120824D01*
X76591346Y-53110785D01*
X76611182Y-53108293D01*
X76629784Y-53100975D01*
X76657587Y-53102465D01*
X76660671Y-53102078D01*
X76665027Y-53102864D01*
X76692321Y-53108293D01*
X76782652Y-53126261D01*
X76782653Y-53126261D01*
X76784005Y-53126530D01*
X76845916Y-53158915D01*
X76880490Y-53219630D01*
X76883814Y-53248147D01*
X76883814Y-53278848D01*
X76914575Y-53433491D01*
X76914578Y-53433503D01*
X76974916Y-53579174D01*
X76974923Y-53579187D01*
X77062524Y-53710290D01*
X77062527Y-53710294D01*
X77174021Y-53821788D01*
X77174025Y-53821791D01*
X77305128Y-53909392D01*
X77305141Y-53909399D01*
X77450805Y-53969734D01*
X77450817Y-53969739D01*
X77604979Y-54000404D01*
X77605467Y-54000501D01*
X77605470Y-54000502D01*
X77605472Y-54000502D01*
X77763158Y-54000502D01*
X77763159Y-54000501D01*
X77917811Y-53969739D01*
X78036869Y-53920423D01*
X78106338Y-53912955D01*
X78131769Y-53920422D01*
X78250816Y-53969733D01*
X78405019Y-54000406D01*
X78405466Y-54000495D01*
X78405469Y-54000496D01*
X78405471Y-54000496D01*
X78563157Y-54000496D01*
X78563158Y-54000495D01*
X78717810Y-53969733D01*
X78854885Y-53912955D01*
X78863485Y-53909393D01*
X78863485Y-53909392D01*
X78863492Y-53909390D01*
X78994602Y-53821785D01*
X79106102Y-53710285D01*
X79193707Y-53579175D01*
X79254050Y-53433493D01*
X79284813Y-53278838D01*
X79284813Y-53121154D01*
X79284813Y-53121151D01*
X79284812Y-53121149D01*
X79281175Y-53102864D01*
X79254050Y-52966499D01*
X79251477Y-52960288D01*
X79193710Y-52820823D01*
X79193703Y-52820810D01*
X79106102Y-52689707D01*
X79106099Y-52689703D01*
X78994605Y-52578209D01*
X78994601Y-52578206D01*
X78863498Y-52490605D01*
X78863485Y-52490598D01*
X78836997Y-52479627D01*
X78717814Y-52430260D01*
X78717802Y-52430257D01*
X78563158Y-52399496D01*
X78563155Y-52399496D01*
X78405471Y-52399496D01*
X78405468Y-52399496D01*
X78250823Y-52430257D01*
X78250811Y-52430260D01*
X78131758Y-52479573D01*
X78062288Y-52487042D01*
X78036854Y-52479573D01*
X77917815Y-52430266D01*
X77917805Y-52430263D01*
X77761802Y-52399232D01*
X77708123Y-52371153D01*
X85383814Y-52371153D01*
X85383814Y-52528846D01*
X85414575Y-52683489D01*
X85414578Y-52683501D01*
X85474916Y-52829172D01*
X85474923Y-52829185D01*
X85562524Y-52960288D01*
X85562527Y-52960292D01*
X85674021Y-53071786D01*
X85674025Y-53071789D01*
X85805128Y-53159390D01*
X85805141Y-53159397D01*
X85949402Y-53219151D01*
X85950817Y-53219737D01*
X86093643Y-53248147D01*
X86105467Y-53250499D01*
X86105470Y-53250500D01*
X86105472Y-53250500D01*
X86263158Y-53250500D01*
X86263159Y-53250499D01*
X86417811Y-53219737D01*
X86563493Y-53159394D01*
X86694603Y-53071789D01*
X86806103Y-52960289D01*
X86893708Y-52829179D01*
X86954051Y-52683497D01*
X86984814Y-52528842D01*
X86984814Y-52371158D01*
X86984814Y-52371155D01*
X86984813Y-52371153D01*
X86969434Y-52293837D01*
X86954051Y-52216503D01*
X86934954Y-52170398D01*
X86893711Y-52070827D01*
X86893704Y-52070814D01*
X86806103Y-51939711D01*
X86806100Y-51939707D01*
X86694606Y-51828213D01*
X86694602Y-51828210D01*
X86563499Y-51740609D01*
X86563486Y-51740602D01*
X86417815Y-51680264D01*
X86417803Y-51680261D01*
X86263159Y-51649500D01*
X86263156Y-51649500D01*
X86105472Y-51649500D01*
X86105469Y-51649500D01*
X85950824Y-51680261D01*
X85950812Y-51680264D01*
X85805141Y-51740602D01*
X85805128Y-51740609D01*
X85674025Y-51828210D01*
X85674021Y-51828213D01*
X85562527Y-51939707D01*
X85562524Y-51939711D01*
X85474923Y-52070814D01*
X85474916Y-52070827D01*
X85414578Y-52216498D01*
X85414575Y-52216510D01*
X85383814Y-52371153D01*
X77708123Y-52371153D01*
X77699891Y-52366847D01*
X77665317Y-52306131D01*
X77661994Y-52277615D01*
X77661994Y-52246916D01*
X77661993Y-52246914D01*
X77646773Y-52170398D01*
X77631231Y-52092264D01*
X77618666Y-52061928D01*
X77570891Y-51946588D01*
X77570884Y-51946575D01*
X77483283Y-51815472D01*
X77483280Y-51815468D01*
X77371786Y-51703974D01*
X77371782Y-51703971D01*
X77240679Y-51616370D01*
X77240666Y-51616363D01*
X77094995Y-51556025D01*
X77094983Y-51556022D01*
X76940339Y-51525261D01*
X76940336Y-51525261D01*
X76782652Y-51525261D01*
X76782649Y-51525261D01*
X76628004Y-51556022D01*
X76627992Y-51556025D01*
X76482321Y-51616363D01*
X76482308Y-51616370D01*
X76351205Y-51703971D01*
X76351201Y-51703974D01*
X76239707Y-51815468D01*
X76239704Y-51815472D01*
X76168073Y-51922676D01*
X76114461Y-51967481D01*
X76045136Y-51976188D01*
X76040780Y-51975402D01*
X75923159Y-51952006D01*
X75923155Y-51952006D01*
X75765471Y-51952006D01*
X75765468Y-51952006D01*
X75610823Y-51982767D01*
X75610811Y-51982770D01*
X75465140Y-52043108D01*
X75465127Y-52043115D01*
X75348173Y-52121262D01*
X75281495Y-52142140D01*
X75214115Y-52123655D01*
X75176180Y-52087051D01*
X75085250Y-51950967D01*
X75085247Y-51950963D01*
X74959824Y-51825540D01*
X74959820Y-51825537D01*
X74812339Y-51726992D01*
X74812326Y-51726985D01*
X74648453Y-51659108D01*
X74648444Y-51659105D01*
X74474480Y-51624502D01*
X74474477Y-51624502D01*
X74297095Y-51624502D01*
X74297092Y-51624502D01*
X74123127Y-51659105D01*
X74123118Y-51659108D01*
X73959245Y-51726985D01*
X73959232Y-51726992D01*
X73811751Y-51825537D01*
X73811747Y-51825540D01*
X73686324Y-51950963D01*
X73686321Y-51950967D01*
X73587776Y-52098448D01*
X73587769Y-52098461D01*
X73519892Y-52262334D01*
X73519889Y-52262343D01*
X73485286Y-52436306D01*
X64688481Y-52436306D01*
X64692841Y-52425781D01*
X64723604Y-52271126D01*
X64723604Y-52113442D01*
X64723604Y-52113439D01*
X64723603Y-52113437D01*
X64709614Y-52043112D01*
X64692841Y-51958787D01*
X64684938Y-51939707D01*
X64632501Y-51813111D01*
X64632494Y-51813098D01*
X64544893Y-51681995D01*
X64544890Y-51681991D01*
X64433396Y-51570497D01*
X64433392Y-51570494D01*
X64302289Y-51482893D01*
X64302276Y-51482886D01*
X64156605Y-51422548D01*
X64156593Y-51422545D01*
X64001949Y-51391784D01*
X64001946Y-51391784D01*
X63844262Y-51391784D01*
X63844259Y-51391784D01*
X63689614Y-51422545D01*
X63689602Y-51422548D01*
X63543931Y-51482886D01*
X63543918Y-51482893D01*
X63412815Y-51570494D01*
X63347825Y-51635484D01*
X63286501Y-51668968D01*
X63216810Y-51663983D01*
X63173585Y-51633095D01*
X63171893Y-51634788D01*
X63056088Y-51518983D01*
X63056084Y-51518980D01*
X62924981Y-51431379D01*
X62924968Y-51431372D01*
X62779297Y-51371034D01*
X62779285Y-51371031D01*
X62624641Y-51340270D01*
X62624638Y-51340270D01*
X62466954Y-51340270D01*
X62466951Y-51340270D01*
X62312306Y-51371031D01*
X62312294Y-51371034D01*
X62166623Y-51431372D01*
X62166610Y-51431379D01*
X62035507Y-51518980D01*
X62035503Y-51518983D01*
X61924009Y-51630477D01*
X61924006Y-51630481D01*
X61836405Y-51761584D01*
X61836398Y-51761597D01*
X61776060Y-51907268D01*
X61776057Y-51907280D01*
X61745296Y-52061923D01*
X59717053Y-52061923D01*
X59715060Y-52055934D01*
X59732338Y-51988234D01*
X59735859Y-51982644D01*
X59807327Y-51875687D01*
X59875208Y-51711806D01*
X59875510Y-51710292D01*
X59906195Y-51556024D01*
X59909814Y-51537831D01*
X59909814Y-51360449D01*
X59909814Y-51360446D01*
X59909813Y-51360444D01*
X59875210Y-51186481D01*
X59875207Y-51186472D01*
X59807330Y-51022599D01*
X59807328Y-51022595D01*
X59807327Y-51022593D01*
X59715583Y-50885289D01*
X59708778Y-50875104D01*
X59694978Y-50861304D01*
X64733814Y-50861304D01*
X64733814Y-51038695D01*
X64768417Y-51212658D01*
X64768420Y-51212667D01*
X64836297Y-51376540D01*
X64836304Y-51376553D01*
X64934849Y-51524034D01*
X64934852Y-51524038D01*
X65060275Y-51649461D01*
X65060279Y-51649464D01*
X65207760Y-51748009D01*
X65207773Y-51748016D01*
X65330677Y-51798923D01*
X65371648Y-51815894D01*
X65371650Y-51815894D01*
X65371655Y-51815896D01*
X65545618Y-51850499D01*
X65545621Y-51850500D01*
X65545623Y-51850500D01*
X65723007Y-51850500D01*
X65723008Y-51850499D01*
X65780996Y-51838964D01*
X65896972Y-51815896D01*
X65896975Y-51815894D01*
X65896980Y-51815894D01*
X66060861Y-51748013D01*
X66208349Y-51649464D01*
X66333778Y-51524035D01*
X66432327Y-51376547D01*
X66500208Y-51212666D01*
X66505419Y-51186472D01*
X66534813Y-51038695D01*
X66534814Y-51038693D01*
X66534814Y-50861306D01*
X66534813Y-50861304D01*
X66500210Y-50687341D01*
X66500207Y-50687332D01*
X66432330Y-50523459D01*
X66432323Y-50523446D01*
X66333778Y-50375965D01*
X66333775Y-50375961D01*
X66208352Y-50250538D01*
X66208348Y-50250535D01*
X66060867Y-50151990D01*
X66060854Y-50151983D01*
X65896981Y-50084106D01*
X65896972Y-50084103D01*
X65723008Y-50049500D01*
X65723005Y-50049500D01*
X65545623Y-50049500D01*
X65545620Y-50049500D01*
X65371655Y-50084103D01*
X65371646Y-50084106D01*
X65207773Y-50151983D01*
X65207760Y-50151990D01*
X65060279Y-50250535D01*
X65060275Y-50250538D01*
X64934852Y-50375961D01*
X64934849Y-50375965D01*
X64836304Y-50523446D01*
X64836297Y-50523459D01*
X64768420Y-50687332D01*
X64768417Y-50687341D01*
X64733814Y-50861304D01*
X59694978Y-50861304D01*
X59583352Y-50749678D01*
X59583348Y-50749675D01*
X59435867Y-50651130D01*
X59435854Y-50651123D01*
X59271981Y-50583246D01*
X59271972Y-50583243D01*
X59098008Y-50548640D01*
X59098005Y-50548640D01*
X58920623Y-50548640D01*
X58920620Y-50548640D01*
X58746655Y-50583243D01*
X58746646Y-50583246D01*
X58582773Y-50651123D01*
X58582760Y-50651130D01*
X58435279Y-50749675D01*
X58435275Y-50749678D01*
X58309852Y-50875101D01*
X58309849Y-50875105D01*
X58211304Y-51022586D01*
X58211297Y-51022599D01*
X58143420Y-51186472D01*
X58143417Y-51186481D01*
X58108814Y-51360444D01*
X55984814Y-51360444D01*
X55984814Y-49028771D01*
X61716147Y-49028771D01*
X61716147Y-49186464D01*
X61746908Y-49341107D01*
X61746911Y-49341119D01*
X61807249Y-49486790D01*
X61807256Y-49486803D01*
X61894857Y-49617906D01*
X61894860Y-49617910D01*
X62006354Y-49729404D01*
X62006358Y-49729407D01*
X62137461Y-49817008D01*
X62137474Y-49817015D01*
X62252624Y-49864711D01*
X62283150Y-49877355D01*
X62406983Y-49901987D01*
X62437800Y-49908117D01*
X62437803Y-49908118D01*
X62437805Y-49908118D01*
X62595491Y-49908118D01*
X62595492Y-49908117D01*
X62750144Y-49877355D01*
X62895826Y-49817012D01*
X63026936Y-49729407D01*
X63138436Y-49617907D01*
X63226041Y-49486797D01*
X63250634Y-49427424D01*
X66784264Y-49427424D01*
X66784264Y-49604815D01*
X66818867Y-49778778D01*
X66818870Y-49778787D01*
X66886747Y-49942660D01*
X66886754Y-49942673D01*
X66985299Y-50090154D01*
X66985302Y-50090158D01*
X67110725Y-50215581D01*
X67110729Y-50215584D01*
X67258210Y-50314129D01*
X67258223Y-50314136D01*
X67381127Y-50365043D01*
X67422098Y-50382014D01*
X67422100Y-50382014D01*
X67422105Y-50382016D01*
X67596068Y-50416619D01*
X67596071Y-50416620D01*
X67596073Y-50416620D01*
X67773457Y-50416620D01*
X67773458Y-50416619D01*
X67859523Y-50399500D01*
X67947422Y-50382016D01*
X67947425Y-50382014D01*
X67947430Y-50382014D01*
X68111311Y-50314133D01*
X68138220Y-50296153D01*
X77199696Y-50296153D01*
X77199696Y-50453846D01*
X77230457Y-50608489D01*
X77230460Y-50608501D01*
X77290798Y-50754172D01*
X77290805Y-50754185D01*
X77378406Y-50885288D01*
X77378409Y-50885292D01*
X77489903Y-50996786D01*
X77489907Y-50996789D01*
X77621010Y-51084390D01*
X77621023Y-51084397D01*
X77766694Y-51144735D01*
X77766699Y-51144737D01*
X77921349Y-51175499D01*
X77921352Y-51175500D01*
X77921354Y-51175500D01*
X78079040Y-51175500D01*
X78079041Y-51175499D01*
X78233693Y-51144737D01*
X78379375Y-51084394D01*
X78379385Y-51084387D01*
X78382490Y-51082728D01*
X78384317Y-51082347D01*
X78385004Y-51082063D01*
X78385057Y-51082193D01*
X78450891Y-51068479D01*
X78516138Y-51093472D01*
X78544057Y-51123189D01*
X78644849Y-51274034D01*
X78644852Y-51274038D01*
X78770275Y-51399461D01*
X78770279Y-51399464D01*
X78917760Y-51498009D01*
X78917773Y-51498016D01*
X78983550Y-51525261D01*
X79081648Y-51565894D01*
X79081650Y-51565894D01*
X79081655Y-51565896D01*
X79255618Y-51600499D01*
X79255621Y-51600500D01*
X79255623Y-51600500D01*
X79433007Y-51600500D01*
X79433008Y-51600499D01*
X79490996Y-51588964D01*
X79606972Y-51565896D01*
X79606975Y-51565894D01*
X79606980Y-51565894D01*
X79770861Y-51498013D01*
X79918349Y-51399464D01*
X80043778Y-51274035D01*
X80142327Y-51126547D01*
X80144559Y-51121158D01*
X80144561Y-51121153D01*
X87133814Y-51121153D01*
X87133814Y-51278846D01*
X87164575Y-51433489D01*
X87164578Y-51433501D01*
X87224916Y-51579172D01*
X87224923Y-51579185D01*
X87312524Y-51710288D01*
X87312527Y-51710292D01*
X87424021Y-51821786D01*
X87424025Y-51821789D01*
X87555128Y-51909390D01*
X87555141Y-51909397D01*
X87658010Y-51952006D01*
X87700817Y-51969737D01*
X87855467Y-52000499D01*
X87855470Y-52000500D01*
X87855472Y-52000500D01*
X88013158Y-52000500D01*
X88013159Y-52000499D01*
X88167811Y-51969737D01*
X88313493Y-51909394D01*
X88444603Y-51821789D01*
X88556103Y-51710289D01*
X88643708Y-51579179D01*
X88704051Y-51433497D01*
X88734814Y-51278842D01*
X88734814Y-51121158D01*
X88734814Y-51121155D01*
X88734813Y-51121153D01*
X88718411Y-51038695D01*
X88704051Y-50966503D01*
X88670413Y-50885292D01*
X88643711Y-50820827D01*
X88643704Y-50820814D01*
X88556103Y-50689711D01*
X88556100Y-50689707D01*
X88444606Y-50578213D01*
X88444602Y-50578210D01*
X88313499Y-50490609D01*
X88313486Y-50490602D01*
X88167815Y-50430264D01*
X88167803Y-50430261D01*
X88013159Y-50399500D01*
X88013156Y-50399500D01*
X87855472Y-50399500D01*
X87855469Y-50399500D01*
X87700824Y-50430261D01*
X87700812Y-50430264D01*
X87555141Y-50490602D01*
X87555128Y-50490609D01*
X87424025Y-50578210D01*
X87424021Y-50578213D01*
X87312527Y-50689707D01*
X87312524Y-50689711D01*
X87224923Y-50820814D01*
X87224916Y-50820827D01*
X87164578Y-50966498D01*
X87164575Y-50966510D01*
X87133814Y-51121153D01*
X80144561Y-51121153D01*
X80166738Y-51067614D01*
X80196075Y-50996786D01*
X80210208Y-50962666D01*
X80244814Y-50788691D01*
X80244814Y-50611309D01*
X80244814Y-50611306D01*
X80244813Y-50611304D01*
X80210210Y-50437341D01*
X80210207Y-50437332D01*
X80207279Y-50430264D01*
X80184787Y-50375961D01*
X80142330Y-50273459D01*
X80142323Y-50273446D01*
X80043778Y-50125965D01*
X80043775Y-50125961D01*
X79918352Y-50000538D01*
X79918348Y-50000535D01*
X79770867Y-49901990D01*
X79770854Y-49901983D01*
X79606981Y-49834106D01*
X79606973Y-49834104D01*
X79544289Y-49821635D01*
X79482378Y-49789249D01*
X79447804Y-49728533D01*
X79451545Y-49658764D01*
X79492412Y-49602092D01*
X79544289Y-49578401D01*
X79677811Y-49551842D01*
X79790480Y-49505172D01*
X79823486Y-49491502D01*
X79823486Y-49491501D01*
X79823493Y-49491499D01*
X79954603Y-49403894D01*
X80066103Y-49292394D01*
X80153708Y-49161284D01*
X80214051Y-49015602D01*
X80244814Y-48860947D01*
X80244814Y-48703263D01*
X80244814Y-48703260D01*
X80244813Y-48703258D01*
X80234264Y-48650226D01*
X80214051Y-48548608D01*
X80188048Y-48485831D01*
X80153711Y-48402932D01*
X80153704Y-48402919D01*
X80066103Y-48271816D01*
X80066100Y-48271812D01*
X79954606Y-48160318D01*
X79954602Y-48160315D01*
X79856751Y-48094933D01*
X79823498Y-48072714D01*
X79823486Y-48072707D01*
X79677815Y-48012369D01*
X79677803Y-48012366D01*
X79605169Y-47997918D01*
X82257049Y-47997918D01*
X82257049Y-48155611D01*
X82287810Y-48310254D01*
X82287813Y-48310266D01*
X82348151Y-48455937D01*
X82348158Y-48455950D01*
X82435759Y-48587053D01*
X82435762Y-48587057D01*
X82547256Y-48698551D01*
X82547260Y-48698554D01*
X82678363Y-48786155D01*
X82678376Y-48786162D01*
X82824047Y-48846500D01*
X82824052Y-48846502D01*
X82964626Y-48874464D01*
X82978702Y-48877264D01*
X82978705Y-48877265D01*
X82978707Y-48877265D01*
X83136393Y-48877265D01*
X83136394Y-48877264D01*
X83291046Y-48846502D01*
X83435610Y-48786621D01*
X83466115Y-48783342D01*
X83496317Y-48777893D01*
X83502387Y-48779442D01*
X83505079Y-48779153D01*
X83530511Y-48786620D01*
X83583541Y-48808586D01*
X83637944Y-48852427D01*
X83657705Y-48898954D01*
X83664575Y-48933492D01*
X83664577Y-48933499D01*
X83724916Y-49079172D01*
X83724923Y-49079185D01*
X83812524Y-49210288D01*
X83812527Y-49210292D01*
X83924021Y-49321786D01*
X83924025Y-49321789D01*
X84055128Y-49409390D01*
X84055141Y-49409397D01*
X84200812Y-49469735D01*
X84200817Y-49469737D01*
X84355467Y-49500499D01*
X84355470Y-49500500D01*
X84355472Y-49500500D01*
X84513158Y-49500500D01*
X84513159Y-49500499D01*
X84667811Y-49469737D01*
X84813493Y-49409394D01*
X84944603Y-49321789D01*
X85056103Y-49210289D01*
X85143708Y-49079179D01*
X85147763Y-49069387D01*
X85191599Y-49014985D01*
X85257892Y-48992916D01*
X85309777Y-49002276D01*
X85373491Y-49028666D01*
X85403011Y-49040894D01*
X85403013Y-49040894D01*
X85403018Y-49040896D01*
X85576981Y-49075499D01*
X85576984Y-49075500D01*
X85576986Y-49075500D01*
X85754370Y-49075500D01*
X85754371Y-49075499D01*
X85812359Y-49063964D01*
X85928335Y-49040896D01*
X85928338Y-49040894D01*
X85928343Y-49040894D01*
X86092224Y-48973013D01*
X86239712Y-48874464D01*
X86365141Y-48749035D01*
X86463690Y-48601547D01*
X86531571Y-48437666D01*
X86538482Y-48402926D01*
X86564561Y-48271816D01*
X86566177Y-48263691D01*
X86566177Y-48086309D01*
X86566177Y-48086306D01*
X86566176Y-48086304D01*
X86531573Y-47912341D01*
X86531570Y-47912332D01*
X86463693Y-47748459D01*
X86463686Y-47748446D01*
X86365141Y-47600965D01*
X86365138Y-47600961D01*
X86239715Y-47475538D01*
X86239711Y-47475535D01*
X86092230Y-47376990D01*
X86092217Y-47376983D01*
X85928344Y-47309106D01*
X85928335Y-47309103D01*
X85754371Y-47274500D01*
X85754368Y-47274500D01*
X85576986Y-47274500D01*
X85576983Y-47274500D01*
X85403018Y-47309103D01*
X85403009Y-47309106D01*
X85239136Y-47376983D01*
X85239123Y-47376990D01*
X85091642Y-47475535D01*
X85091638Y-47475538D01*
X84966215Y-47600961D01*
X84966212Y-47600965D01*
X84867667Y-47748446D01*
X84867660Y-47748460D01*
X84866145Y-47752118D01*
X84864839Y-47753738D01*
X84864794Y-47753823D01*
X84864777Y-47753814D01*
X84822303Y-47806520D01*
X84756008Y-47828582D01*
X84688309Y-47811301D01*
X84640700Y-47760162D01*
X84637025Y-47752113D01*
X84613711Y-47695827D01*
X84613704Y-47695814D01*
X84526103Y-47564711D01*
X84526100Y-47564707D01*
X84414606Y-47453213D01*
X84414602Y-47453210D01*
X84283499Y-47365609D01*
X84283486Y-47365602D01*
X84137815Y-47305264D01*
X84137806Y-47305261D01*
X84098038Y-47297351D01*
X84036128Y-47264965D01*
X84001554Y-47204249D01*
X84005295Y-47134480D01*
X84046162Y-47077808D01*
X84053324Y-47072643D01*
X84054603Y-47071789D01*
X84166103Y-46960289D01*
X84253708Y-46829179D01*
X84314051Y-46683497D01*
X84344814Y-46528842D01*
X84344814Y-46371158D01*
X84344814Y-46371155D01*
X84344813Y-46371153D01*
X84333696Y-46315265D01*
X84314051Y-46216503D01*
X84257256Y-46079386D01*
X84253710Y-46070825D01*
X84253709Y-46070824D01*
X84253708Y-46070821D01*
X84218317Y-46017856D01*
X84197440Y-45951180D01*
X84206860Y-45901512D01*
X84225827Y-45855722D01*
X84225829Y-45855718D01*
X84256592Y-45701063D01*
X84256592Y-45566581D01*
X84276277Y-45499542D01*
X84329081Y-45453787D01*
X84398239Y-45443843D01*
X84428042Y-45452019D01*
X84470817Y-45469737D01*
X84620656Y-45499542D01*
X84625467Y-45500499D01*
X84625470Y-45500500D01*
X84625472Y-45500500D01*
X84783158Y-45500500D01*
X84783159Y-45500499D01*
X84937811Y-45469737D01*
X85083493Y-45409394D01*
X85214603Y-45321789D01*
X85326103Y-45210289D01*
X85413708Y-45079179D01*
X85474051Y-44933497D01*
X85504814Y-44778842D01*
X85504814Y-44621158D01*
X85504814Y-44621155D01*
X85504813Y-44621153D01*
X85474052Y-44466510D01*
X85474051Y-44466503D01*
X85459814Y-44432131D01*
X85413711Y-44320827D01*
X85413704Y-44320814D01*
X85326103Y-44189711D01*
X85326100Y-44189707D01*
X85214606Y-44078213D01*
X85214602Y-44078210D01*
X85083499Y-43990609D01*
X85083486Y-43990602D01*
X84937815Y-43930264D01*
X84937803Y-43930261D01*
X84783159Y-43899500D01*
X84783156Y-43899500D01*
X84625472Y-43899500D01*
X84625469Y-43899500D01*
X84470824Y-43930261D01*
X84470812Y-43930264D01*
X84325141Y-43990602D01*
X84325128Y-43990609D01*
X84194025Y-44078210D01*
X84194021Y-44078213D01*
X84082527Y-44189707D01*
X84082524Y-44189711D01*
X83994923Y-44320814D01*
X83994916Y-44320827D01*
X83934578Y-44466498D01*
X83934575Y-44466510D01*
X83903814Y-44621153D01*
X83903814Y-44755639D01*
X83884129Y-44822678D01*
X83831325Y-44868433D01*
X83762167Y-44878377D01*
X83732363Y-44870201D01*
X83689589Y-44852484D01*
X83689581Y-44852482D01*
X83534937Y-44821721D01*
X83534934Y-44821721D01*
X83377250Y-44821721D01*
X83377247Y-44821721D01*
X83222602Y-44852482D01*
X83222590Y-44852485D01*
X83076919Y-44912823D01*
X83076906Y-44912830D01*
X82945803Y-45000431D01*
X82945799Y-45000434D01*
X82834305Y-45111928D01*
X82834302Y-45111932D01*
X82746701Y-45243035D01*
X82746694Y-45243048D01*
X82686356Y-45388719D01*
X82686353Y-45388731D01*
X82655592Y-45543374D01*
X82655592Y-45701067D01*
X82686353Y-45855710D01*
X82686356Y-45855722D01*
X82746695Y-46001395D01*
X82746696Y-46001397D01*
X82782087Y-46054363D01*
X82802965Y-46121041D01*
X82793547Y-46170705D01*
X82774576Y-46216506D01*
X82774574Y-46216511D01*
X82743814Y-46371153D01*
X82743814Y-46528846D01*
X82774575Y-46683489D01*
X82774578Y-46683501D01*
X82834916Y-46829172D01*
X82834923Y-46829185D01*
X82922524Y-46960288D01*
X82922527Y-46960292D01*
X83031357Y-47069122D01*
X83064842Y-47130445D01*
X83059858Y-47200137D01*
X83017986Y-47256070D01*
X82967868Y-47278420D01*
X82824057Y-47307026D01*
X82824047Y-47307029D01*
X82678376Y-47367367D01*
X82678363Y-47367374D01*
X82547260Y-47454975D01*
X82547256Y-47454978D01*
X82435762Y-47566472D01*
X82435759Y-47566476D01*
X82348158Y-47697579D01*
X82348151Y-47697592D01*
X82287813Y-47843263D01*
X82287810Y-47843275D01*
X82257049Y-47997918D01*
X79605169Y-47997918D01*
X79523159Y-47981605D01*
X79523156Y-47981605D01*
X79365472Y-47981605D01*
X79365469Y-47981605D01*
X79210824Y-48012366D01*
X79210812Y-48012369D01*
X79065141Y-48072707D01*
X79065128Y-48072714D01*
X78934025Y-48160315D01*
X78934021Y-48160318D01*
X78822527Y-48271812D01*
X78822524Y-48271816D01*
X78734923Y-48402919D01*
X78734916Y-48402932D01*
X78674578Y-48548603D01*
X78674575Y-48548615D01*
X78643814Y-48703258D01*
X78643814Y-48860951D01*
X78674575Y-49015594D01*
X78674578Y-49015606D01*
X78734916Y-49161277D01*
X78734923Y-49161290D01*
X78822524Y-49292393D01*
X78822527Y-49292397D01*
X78934021Y-49403891D01*
X78934025Y-49403894D01*
X79065128Y-49491495D01*
X79065141Y-49491502D01*
X79210812Y-49551840D01*
X79210817Y-49551842D01*
X79227163Y-49555093D01*
X79244337Y-49558510D01*
X79306248Y-49590895D01*
X79340822Y-49651610D01*
X79337083Y-49721380D01*
X79296217Y-49778052D01*
X79244338Y-49801744D01*
X79081654Y-49834104D01*
X79081646Y-49834106D01*
X78917773Y-49901983D01*
X78917762Y-49901989D01*
X78833601Y-49958224D01*
X78766924Y-49979101D01*
X78699544Y-49960616D01*
X78661609Y-49924012D01*
X78621985Y-49864711D01*
X78621982Y-49864707D01*
X78510488Y-49753213D01*
X78510484Y-49753210D01*
X78379381Y-49665609D01*
X78379368Y-49665602D01*
X78233697Y-49605264D01*
X78233685Y-49605261D01*
X78079041Y-49574500D01*
X78079038Y-49574500D01*
X77921354Y-49574500D01*
X77921351Y-49574500D01*
X77766706Y-49605261D01*
X77766694Y-49605264D01*
X77621023Y-49665602D01*
X77621010Y-49665609D01*
X77489907Y-49753210D01*
X77489903Y-49753213D01*
X77378409Y-49864707D01*
X77378406Y-49864711D01*
X77290805Y-49995814D01*
X77290798Y-49995827D01*
X77230460Y-50141498D01*
X77230457Y-50141510D01*
X77199696Y-50296153D01*
X68138220Y-50296153D01*
X68258799Y-50215584D01*
X68258802Y-50215581D01*
X68271999Y-50202385D01*
X68384225Y-50090158D01*
X68384228Y-50090155D01*
X68482777Y-49942667D01*
X68550658Y-49778786D01*
X68555746Y-49753211D01*
X68585263Y-49604815D01*
X68585264Y-49604813D01*
X68585264Y-49427426D01*
X68585263Y-49427424D01*
X68550660Y-49253461D01*
X68550657Y-49253452D01*
X68482780Y-49089579D01*
X68482773Y-49089566D01*
X68384228Y-48942085D01*
X68384225Y-48942081D01*
X68258802Y-48816658D01*
X68258798Y-48816655D01*
X68111317Y-48718110D01*
X68111304Y-48718103D01*
X67947431Y-48650226D01*
X67947422Y-48650223D01*
X67773458Y-48615620D01*
X67773455Y-48615620D01*
X67596073Y-48615620D01*
X67596070Y-48615620D01*
X67422105Y-48650223D01*
X67422096Y-48650226D01*
X67258223Y-48718103D01*
X67258210Y-48718110D01*
X67110729Y-48816655D01*
X67110725Y-48816658D01*
X66985302Y-48942081D01*
X66985299Y-48942085D01*
X66886754Y-49089566D01*
X66886747Y-49089579D01*
X66818870Y-49253452D01*
X66818867Y-49253461D01*
X66784264Y-49427424D01*
X63250634Y-49427424D01*
X63286384Y-49341115D01*
X63317147Y-49186460D01*
X63317147Y-49028776D01*
X63317147Y-49028773D01*
X63317146Y-49028771D01*
X63314527Y-49015606D01*
X63286384Y-48874121D01*
X63262582Y-48816658D01*
X63226044Y-48728445D01*
X63226037Y-48728432D01*
X63138436Y-48597329D01*
X63138433Y-48597325D01*
X63026939Y-48485831D01*
X63026935Y-48485828D01*
X62895832Y-48398227D01*
X62895819Y-48398220D01*
X62750148Y-48337882D01*
X62750136Y-48337879D01*
X62595492Y-48307118D01*
X62595489Y-48307118D01*
X62437805Y-48307118D01*
X62437802Y-48307118D01*
X62283157Y-48337879D01*
X62283145Y-48337882D01*
X62137474Y-48398220D01*
X62137461Y-48398227D01*
X62006358Y-48485828D01*
X62006354Y-48485831D01*
X61894860Y-48597325D01*
X61894857Y-48597329D01*
X61807256Y-48728432D01*
X61807249Y-48728445D01*
X61746911Y-48874116D01*
X61746908Y-48874128D01*
X61716147Y-49028771D01*
X55984814Y-49028771D01*
X55984814Y-46861304D01*
X60283814Y-46861304D01*
X60283814Y-47038695D01*
X60318417Y-47212658D01*
X60318420Y-47212667D01*
X60386297Y-47376540D01*
X60386304Y-47376553D01*
X60484849Y-47524034D01*
X60484852Y-47524038D01*
X60610275Y-47649461D01*
X60610279Y-47649464D01*
X60757760Y-47748009D01*
X60757773Y-47748016D01*
X60880677Y-47798923D01*
X60921648Y-47815894D01*
X60921650Y-47815894D01*
X60921655Y-47815896D01*
X61095618Y-47850499D01*
X61095621Y-47850500D01*
X61095623Y-47850500D01*
X61273007Y-47850500D01*
X61273008Y-47850499D01*
X61330996Y-47838964D01*
X61446972Y-47815896D01*
X61446975Y-47815894D01*
X61446980Y-47815894D01*
X61596856Y-47753814D01*
X61610854Y-47748016D01*
X61610854Y-47748015D01*
X61610861Y-47748013D01*
X61758349Y-47649464D01*
X61883778Y-47524035D01*
X61982327Y-47376547D01*
X61986130Y-47367367D01*
X61992272Y-47352535D01*
X62045138Y-47224907D01*
X68397417Y-47224907D01*
X68397417Y-47402298D01*
X68432020Y-47576261D01*
X68432023Y-47576270D01*
X68499900Y-47740143D01*
X68499907Y-47740156D01*
X68598452Y-47887637D01*
X68598455Y-47887641D01*
X68723878Y-48013064D01*
X68723882Y-48013067D01*
X68871363Y-48111612D01*
X68871376Y-48111619D01*
X68986725Y-48159397D01*
X69035251Y-48179497D01*
X69035253Y-48179497D01*
X69035258Y-48179499D01*
X69209221Y-48214102D01*
X69209224Y-48214103D01*
X69209226Y-48214103D01*
X69386610Y-48214103D01*
X69386611Y-48214102D01*
X69444599Y-48202567D01*
X69560575Y-48179499D01*
X69560578Y-48179497D01*
X69560583Y-48179497D01*
X69724464Y-48111616D01*
X69871952Y-48013067D01*
X69997381Y-47887638D01*
X70095930Y-47740150D01*
X70163811Y-47576269D01*
X70173245Y-47528844D01*
X70187938Y-47454975D01*
X70198417Y-47402294D01*
X70198417Y-47371153D01*
X72633814Y-47371153D01*
X72633814Y-47528846D01*
X72664575Y-47683489D01*
X72664578Y-47683501D01*
X72724916Y-47829172D01*
X72724923Y-47829185D01*
X72812524Y-47960288D01*
X72812527Y-47960292D01*
X72924021Y-48071786D01*
X72924025Y-48071789D01*
X73055128Y-48159390D01*
X73055141Y-48159397D01*
X73187213Y-48214102D01*
X73200817Y-48219737D01*
X73355467Y-48250499D01*
X73355470Y-48250500D01*
X73355472Y-48250500D01*
X73513158Y-48250500D01*
X73513159Y-48250499D01*
X73667811Y-48219737D01*
X73811267Y-48160316D01*
X73813486Y-48159397D01*
X73813486Y-48159396D01*
X73813493Y-48159394D01*
X73944603Y-48071789D01*
X74056103Y-47960289D01*
X74143708Y-47829179D01*
X74204051Y-47683497D01*
X74234814Y-47528842D01*
X74234814Y-47371158D01*
X74234814Y-47371155D01*
X74234813Y-47371153D01*
X74222058Y-47307029D01*
X74204051Y-47216503D01*
X74180396Y-47159394D01*
X74143711Y-47070827D01*
X74143704Y-47070814D01*
X74056103Y-46939711D01*
X74056100Y-46939707D01*
X73944606Y-46828213D01*
X73944602Y-46828210D01*
X73813499Y-46740609D01*
X73813486Y-46740602D01*
X73667815Y-46680264D01*
X73667803Y-46680261D01*
X73513159Y-46649500D01*
X73513156Y-46649500D01*
X73355472Y-46649500D01*
X73355469Y-46649500D01*
X73200824Y-46680261D01*
X73200812Y-46680264D01*
X73055141Y-46740602D01*
X73055128Y-46740609D01*
X72924025Y-46828210D01*
X72924021Y-46828213D01*
X72812527Y-46939707D01*
X72812524Y-46939711D01*
X72724923Y-47070814D01*
X72724916Y-47070827D01*
X72664578Y-47216498D01*
X72664575Y-47216510D01*
X72633814Y-47371153D01*
X70198417Y-47371153D01*
X70198417Y-47224912D01*
X70198417Y-47224909D01*
X70198416Y-47224907D01*
X70163813Y-47050944D01*
X70163810Y-47050935D01*
X70158738Y-47038691D01*
X70126264Y-46960289D01*
X70095933Y-46887062D01*
X70095926Y-46887049D01*
X69997381Y-46739568D01*
X69997378Y-46739564D01*
X69871955Y-46614141D01*
X69871951Y-46614138D01*
X69724461Y-46515587D01*
X69723003Y-46514808D01*
X69722382Y-46514198D01*
X69719399Y-46512205D01*
X69719777Y-46511639D01*
X69673161Y-46465844D01*
X69657702Y-46397706D01*
X69681536Y-46332027D01*
X69734008Y-46290890D01*
X69763945Y-46278491D01*
X69895055Y-46190886D01*
X70006555Y-46079386D01*
X70094160Y-45948276D01*
X70154503Y-45802594D01*
X70185266Y-45647939D01*
X70185266Y-45490255D01*
X70185266Y-45490252D01*
X70185265Y-45490250D01*
X70178012Y-45453787D01*
X70154503Y-45335600D01*
X70116162Y-45243035D01*
X70094163Y-45189924D01*
X70094156Y-45189911D01*
X70006555Y-45058808D01*
X70006552Y-45058804D01*
X69895058Y-44947310D01*
X69895054Y-44947307D01*
X69763951Y-44859706D01*
X69763938Y-44859699D01*
X69618267Y-44799361D01*
X69618255Y-44799358D01*
X69463611Y-44768597D01*
X69463608Y-44768597D01*
X69305924Y-44768597D01*
X69305921Y-44768597D01*
X69151276Y-44799358D01*
X69151264Y-44799361D01*
X69005593Y-44859699D01*
X69005580Y-44859706D01*
X68874477Y-44947307D01*
X68874473Y-44947310D01*
X68762979Y-45058804D01*
X68762976Y-45058808D01*
X68675375Y-45189911D01*
X68675368Y-45189924D01*
X68615030Y-45335595D01*
X68615027Y-45335607D01*
X68584266Y-45490250D01*
X68584266Y-45647943D01*
X68615027Y-45802586D01*
X68615030Y-45802598D01*
X68675368Y-45948269D01*
X68675375Y-45948282D01*
X68762976Y-46079385D01*
X68762979Y-46079389D01*
X68874473Y-46190883D01*
X68874477Y-46190886D01*
X68980384Y-46261652D01*
X69025189Y-46315265D01*
X69033896Y-46384590D01*
X69003741Y-46447617D01*
X68958945Y-46479315D01*
X68871376Y-46515586D01*
X68871363Y-46515593D01*
X68723882Y-46614138D01*
X68723878Y-46614141D01*
X68598455Y-46739564D01*
X68598452Y-46739568D01*
X68499907Y-46887049D01*
X68499900Y-46887062D01*
X68432023Y-47050935D01*
X68432020Y-47050944D01*
X68397417Y-47224907D01*
X62045138Y-47224907D01*
X62050208Y-47212666D01*
X62082379Y-47050935D01*
X62084814Y-47038693D01*
X62084814Y-46861306D01*
X62084813Y-46861304D01*
X62050210Y-46687341D01*
X62050207Y-46687332D01*
X62047279Y-46680264D01*
X61984560Y-46528844D01*
X61982330Y-46523459D01*
X61982323Y-46523446D01*
X61883778Y-46375965D01*
X61883775Y-46375961D01*
X61874008Y-46366194D01*
X61840523Y-46304871D01*
X61845507Y-46235179D01*
X61858587Y-46209622D01*
X61873511Y-46187286D01*
X61912338Y-46129178D01*
X61915709Y-46121041D01*
X61972679Y-45983500D01*
X61972681Y-45983496D01*
X62003444Y-45828841D01*
X62003444Y-45671157D01*
X62003444Y-45671154D01*
X62003443Y-45671152D01*
X61972682Y-45516509D01*
X61972681Y-45516502D01*
X61966053Y-45500500D01*
X61912341Y-45370826D01*
X61912334Y-45370813D01*
X61824733Y-45239710D01*
X61824730Y-45239706D01*
X61713236Y-45128212D01*
X61713232Y-45128209D01*
X61582129Y-45040608D01*
X61582116Y-45040601D01*
X61436445Y-44980263D01*
X61436433Y-44980260D01*
X61281789Y-44949499D01*
X61281786Y-44949499D01*
X61124102Y-44949499D01*
X61124099Y-44949499D01*
X60969454Y-44980260D01*
X60969442Y-44980263D01*
X60823771Y-45040601D01*
X60823758Y-45040608D01*
X60692655Y-45128209D01*
X60692651Y-45128212D01*
X60581157Y-45239706D01*
X60581154Y-45239710D01*
X60493553Y-45370813D01*
X60493546Y-45370826D01*
X60433208Y-45516497D01*
X60433205Y-45516509D01*
X60402444Y-45671152D01*
X60402444Y-45828845D01*
X60433205Y-45983488D01*
X60433208Y-45983500D01*
X60493546Y-46129171D01*
X60493553Y-46129184D01*
X60532376Y-46187286D01*
X60553254Y-46253964D01*
X60534770Y-46321344D01*
X60516956Y-46343857D01*
X60484853Y-46375960D01*
X60484849Y-46375965D01*
X60386304Y-46523446D01*
X60386297Y-46523459D01*
X60318420Y-46687332D01*
X60318417Y-46687341D01*
X60283814Y-46861304D01*
X55984814Y-46861304D01*
X55984814Y-43221153D01*
X61883814Y-43221153D01*
X61883814Y-43378846D01*
X61914575Y-43533489D01*
X61914578Y-43533501D01*
X61974916Y-43679172D01*
X61974923Y-43679185D01*
X62062524Y-43810288D01*
X62062527Y-43810292D01*
X62174021Y-43921786D01*
X62174025Y-43921789D01*
X62305128Y-44009390D01*
X62305141Y-44009397D01*
X62450812Y-44069735D01*
X62450817Y-44069737D01*
X62605467Y-44100499D01*
X62605470Y-44100500D01*
X62605472Y-44100500D01*
X62763158Y-44100500D01*
X62763159Y-44100499D01*
X62917811Y-44069737D01*
X63060060Y-44010816D01*
X63063486Y-44009397D01*
X63063486Y-44009396D01*
X63063493Y-44009394D01*
X63194603Y-43921789D01*
X63306103Y-43810289D01*
X63393708Y-43679179D01*
X63454051Y-43533497D01*
X63484814Y-43378842D01*
X63484814Y-43221158D01*
X63484814Y-43221155D01*
X63484813Y-43221153D01*
X63465048Y-43121789D01*
X63454051Y-43066503D01*
X63430582Y-43009844D01*
X63393711Y-42920827D01*
X63393704Y-42920814D01*
X63306103Y-42789711D01*
X63306100Y-42789707D01*
X63194606Y-42678213D01*
X63194602Y-42678210D01*
X63063499Y-42590609D01*
X63063486Y-42590602D01*
X62917815Y-42530264D01*
X62917803Y-42530261D01*
X62763159Y-42499500D01*
X62763156Y-42499500D01*
X62605472Y-42499500D01*
X62605469Y-42499500D01*
X62450824Y-42530261D01*
X62450812Y-42530264D01*
X62305141Y-42590602D01*
X62305128Y-42590609D01*
X62174025Y-42678210D01*
X62174021Y-42678213D01*
X62062527Y-42789707D01*
X62062524Y-42789711D01*
X61974923Y-42920814D01*
X61974916Y-42920827D01*
X61914578Y-43066498D01*
X61914575Y-43066510D01*
X61883814Y-43221153D01*
X55984814Y-43221153D01*
X55984814Y-42421153D01*
X75285286Y-42421153D01*
X75285286Y-42578846D01*
X75316047Y-42733489D01*
X75316050Y-42733501D01*
X75376388Y-42879172D01*
X75376395Y-42879185D01*
X75463996Y-43010288D01*
X75463999Y-43010292D01*
X75575493Y-43121786D01*
X75575497Y-43121789D01*
X75706600Y-43209390D01*
X75706613Y-43209397D01*
X75810542Y-43252445D01*
X75852289Y-43269737D01*
X76006939Y-43300499D01*
X76006942Y-43300500D01*
X76006944Y-43300500D01*
X76164630Y-43300500D01*
X76164631Y-43300499D01*
X76319283Y-43269737D01*
X76373499Y-43247279D01*
X76462598Y-43210375D01*
X76532067Y-43202906D01*
X76557502Y-43210375D01*
X76659101Y-43252458D01*
X76700817Y-43269737D01*
X76855467Y-43300499D01*
X76855470Y-43300500D01*
X76855472Y-43300500D01*
X77013158Y-43300500D01*
X77145535Y-43274168D01*
X77215127Y-43280395D01*
X77270304Y-43323258D01*
X77293549Y-43389147D01*
X77291344Y-43419976D01*
X77264927Y-43552784D01*
X77264927Y-43710477D01*
X77295688Y-43865120D01*
X77295691Y-43865132D01*
X77356029Y-44010803D01*
X77356036Y-44010816D01*
X77443637Y-44141919D01*
X77443640Y-44141923D01*
X77555134Y-44253417D01*
X77555138Y-44253420D01*
X77686241Y-44341021D01*
X77686254Y-44341028D01*
X77831925Y-44401366D01*
X77831930Y-44401368D01*
X77986580Y-44432130D01*
X77986583Y-44432131D01*
X77986585Y-44432131D01*
X78144271Y-44432131D01*
X78144272Y-44432130D01*
X78298924Y-44401368D01*
X78444606Y-44341025D01*
X78575716Y-44253420D01*
X78687216Y-44141920D01*
X78774821Y-44010810D01*
X78783189Y-43990609D01*
X78811694Y-43921789D01*
X78835164Y-43865128D01*
X78865927Y-43710473D01*
X78865927Y-43552789D01*
X78865927Y-43552786D01*
X78865926Y-43552784D01*
X78862088Y-43533489D01*
X78835164Y-43398134D01*
X78835162Y-43398129D01*
X78774824Y-43252458D01*
X78774817Y-43252445D01*
X78687216Y-43121342D01*
X78687213Y-43121338D01*
X78575719Y-43009844D01*
X78575715Y-43009841D01*
X78444612Y-42922240D01*
X78444599Y-42922233D01*
X78298928Y-42861895D01*
X78298916Y-42861892D01*
X78144272Y-42831131D01*
X78144269Y-42831131D01*
X77986585Y-42831131D01*
X77986580Y-42831131D01*
X77854204Y-42857462D01*
X77784612Y-42851235D01*
X77729435Y-42808371D01*
X77706191Y-42742482D01*
X77708396Y-42711653D01*
X77734814Y-42578844D01*
X77734814Y-42421155D01*
X77734813Y-42421153D01*
X77708603Y-42289388D01*
X77704051Y-42266503D01*
X77685414Y-42221508D01*
X77643711Y-42120827D01*
X77643704Y-42120814D01*
X77556103Y-41989711D01*
X77556100Y-41989707D01*
X77444606Y-41878213D01*
X77444602Y-41878210D01*
X77313499Y-41790609D01*
X77313486Y-41790602D01*
X77167815Y-41730264D01*
X77167803Y-41730261D01*
X77013159Y-41699500D01*
X77013156Y-41699500D01*
X76855472Y-41699500D01*
X76855469Y-41699500D01*
X76700824Y-41730261D01*
X76700812Y-41730264D01*
X76557502Y-41789625D01*
X76488033Y-41797094D01*
X76462598Y-41789625D01*
X76319287Y-41730264D01*
X76319275Y-41730261D01*
X76164631Y-41699500D01*
X76164628Y-41699500D01*
X76006944Y-41699500D01*
X76006941Y-41699500D01*
X75852296Y-41730261D01*
X75852284Y-41730264D01*
X75706613Y-41790602D01*
X75706600Y-41790609D01*
X75575497Y-41878210D01*
X75575493Y-41878213D01*
X75463999Y-41989707D01*
X75463996Y-41989711D01*
X75376395Y-42120814D01*
X75376388Y-42120827D01*
X75316050Y-42266498D01*
X75316047Y-42266510D01*
X75285286Y-42421153D01*
X55984814Y-42421153D01*
X55984814Y-41334796D01*
X60683814Y-41334796D01*
X60683814Y-41512187D01*
X60718417Y-41686150D01*
X60718420Y-41686159D01*
X60786297Y-41850032D01*
X60786304Y-41850045D01*
X60884849Y-41997526D01*
X60884852Y-41997530D01*
X61010275Y-42122953D01*
X61010279Y-42122956D01*
X61157760Y-42221501D01*
X61157773Y-42221508D01*
X61266391Y-42266498D01*
X61321648Y-42289386D01*
X61321650Y-42289386D01*
X61321655Y-42289388D01*
X61495618Y-42323991D01*
X61495621Y-42323992D01*
X61495623Y-42323992D01*
X61673007Y-42323992D01*
X61673008Y-42323991D01*
X61730996Y-42312456D01*
X61846972Y-42289388D01*
X61846975Y-42289386D01*
X61846980Y-42289386D01*
X62010861Y-42221505D01*
X62158349Y-42122956D01*
X62283778Y-41997527D01*
X62382327Y-41850039D01*
X62450208Y-41686158D01*
X62484814Y-41512183D01*
X62484814Y-41334801D01*
X62484814Y-41334798D01*
X62484813Y-41334796D01*
X62450210Y-41160833D01*
X62450207Y-41160824D01*
X62382330Y-40996951D01*
X62382323Y-40996938D01*
X62283778Y-40849457D01*
X62283775Y-40849453D01*
X62158349Y-40724027D01*
X62014016Y-40627586D01*
X70129595Y-40627586D01*
X70129595Y-40785279D01*
X70160356Y-40939922D01*
X70160359Y-40939934D01*
X70220697Y-41085605D01*
X70220704Y-41085618D01*
X70308305Y-41216721D01*
X70308308Y-41216725D01*
X70419802Y-41328219D01*
X70419806Y-41328222D01*
X70550909Y-41415823D01*
X70550922Y-41415830D01*
X70696593Y-41476168D01*
X70696598Y-41476170D01*
X70851248Y-41506932D01*
X70851251Y-41506933D01*
X70851253Y-41506933D01*
X71008939Y-41506933D01*
X71008940Y-41506932D01*
X71163592Y-41476170D01*
X71309274Y-41415827D01*
X71440384Y-41328222D01*
X71551884Y-41216722D01*
X71639489Y-41085612D01*
X71699832Y-40939930D01*
X71730595Y-40785275D01*
X71730595Y-40627591D01*
X71730595Y-40627588D01*
X71730594Y-40627586D01*
X71699833Y-40472943D01*
X71699832Y-40472936D01*
X71699830Y-40472931D01*
X71639492Y-40327260D01*
X71639485Y-40327247D01*
X71551884Y-40196144D01*
X71551881Y-40196140D01*
X71440387Y-40084646D01*
X71440383Y-40084643D01*
X71309280Y-39997042D01*
X71309267Y-39997035D01*
X71163596Y-39936697D01*
X71163584Y-39936694D01*
X71008940Y-39905933D01*
X71008937Y-39905933D01*
X70851253Y-39905933D01*
X70851250Y-39905933D01*
X70696605Y-39936694D01*
X70696593Y-39936697D01*
X70550922Y-39997035D01*
X70550909Y-39997042D01*
X70419806Y-40084643D01*
X70419802Y-40084646D01*
X70308308Y-40196140D01*
X70308305Y-40196144D01*
X70220704Y-40327247D01*
X70220697Y-40327260D01*
X70160359Y-40472931D01*
X70160356Y-40472943D01*
X70129595Y-40627586D01*
X62014016Y-40627586D01*
X62010867Y-40625482D01*
X62010854Y-40625475D01*
X61846981Y-40557598D01*
X61846972Y-40557595D01*
X61673008Y-40522992D01*
X61673005Y-40522992D01*
X61495623Y-40522992D01*
X61495620Y-40522992D01*
X61321655Y-40557595D01*
X61321646Y-40557598D01*
X61157773Y-40625475D01*
X61157760Y-40625482D01*
X61010279Y-40724027D01*
X61010275Y-40724030D01*
X60884852Y-40849453D01*
X60884849Y-40849457D01*
X60786304Y-40996938D01*
X60786297Y-40996951D01*
X60718420Y-41160824D01*
X60718417Y-41160833D01*
X60683814Y-41334796D01*
X55984814Y-41334796D01*
X55984814Y-39061304D01*
X64283814Y-39061304D01*
X64283814Y-39238695D01*
X64318417Y-39412658D01*
X64318420Y-39412667D01*
X64386297Y-39576540D01*
X64386304Y-39576553D01*
X64484849Y-39724034D01*
X64484852Y-39724038D01*
X64610275Y-39849461D01*
X64610279Y-39849464D01*
X64757760Y-39948009D01*
X64757773Y-39948016D01*
X64876135Y-39997042D01*
X64921648Y-40015894D01*
X64921650Y-40015894D01*
X64921655Y-40015896D01*
X65095618Y-40050499D01*
X65095621Y-40050500D01*
X65095623Y-40050500D01*
X65273007Y-40050500D01*
X65273008Y-40050499D01*
X65330996Y-40038964D01*
X65446972Y-40015896D01*
X65446975Y-40015894D01*
X65446980Y-40015894D01*
X65610861Y-39948013D01*
X65758349Y-39849464D01*
X65883778Y-39724035D01*
X65883780Y-39724031D01*
X65887642Y-39719327D01*
X65889245Y-39720642D01*
X65935590Y-39681889D01*
X66004912Y-39673162D01*
X66067948Y-39703299D01*
X66099673Y-39748119D01*
X66136297Y-39836540D01*
X66136304Y-39836553D01*
X66234849Y-39984034D01*
X66234852Y-39984038D01*
X66360275Y-40109461D01*
X66360279Y-40109464D01*
X66507760Y-40208009D01*
X66507773Y-40208016D01*
X66630677Y-40258923D01*
X66671648Y-40275894D01*
X66671650Y-40275894D01*
X66671655Y-40275896D01*
X66845618Y-40310499D01*
X66845621Y-40310500D01*
X66845623Y-40310500D01*
X67023007Y-40310500D01*
X67023008Y-40310499D01*
X67080996Y-40298964D01*
X67196972Y-40275896D01*
X67196975Y-40275894D01*
X67196980Y-40275894D01*
X67360861Y-40208013D01*
X67508349Y-40109464D01*
X67633778Y-39984035D01*
X67732327Y-39836547D01*
X67800208Y-39672666D01*
X67834814Y-39498691D01*
X67834814Y-39321309D01*
X67834814Y-39321306D01*
X67834813Y-39321304D01*
X67800210Y-39147341D01*
X67800206Y-39147329D01*
X67785284Y-39111304D01*
X84533814Y-39111304D01*
X84533814Y-39288695D01*
X84568417Y-39462658D01*
X84568420Y-39462667D01*
X84636297Y-39626540D01*
X84636304Y-39626553D01*
X84734849Y-39774034D01*
X84734852Y-39774038D01*
X84860275Y-39899461D01*
X84860279Y-39899464D01*
X85007760Y-39998009D01*
X85007773Y-39998016D01*
X85130677Y-40048923D01*
X85171648Y-40065894D01*
X85171650Y-40065894D01*
X85171655Y-40065896D01*
X85345618Y-40100499D01*
X85345621Y-40100500D01*
X85345623Y-40100500D01*
X85523007Y-40100500D01*
X85523008Y-40100499D01*
X85602723Y-40084643D01*
X85696972Y-40065896D01*
X85696975Y-40065894D01*
X85696980Y-40065894D01*
X85860861Y-39998013D01*
X86008349Y-39899464D01*
X86133778Y-39774035D01*
X86232327Y-39626547D01*
X86300208Y-39462666D01*
X86310154Y-39412667D01*
X86334813Y-39288695D01*
X86334814Y-39288693D01*
X86334814Y-39111306D01*
X86334813Y-39111304D01*
X86300210Y-38937341D01*
X86300207Y-38937332D01*
X86232330Y-38773459D01*
X86232323Y-38773446D01*
X86133778Y-38625965D01*
X86133775Y-38625961D01*
X86008352Y-38500538D01*
X86008348Y-38500535D01*
X85860867Y-38401990D01*
X85860854Y-38401983D01*
X85696981Y-38334106D01*
X85696972Y-38334103D01*
X85523008Y-38299500D01*
X85523005Y-38299500D01*
X85345623Y-38299500D01*
X85345620Y-38299500D01*
X85171655Y-38334103D01*
X85171646Y-38334106D01*
X85007773Y-38401983D01*
X85007760Y-38401990D01*
X84860279Y-38500535D01*
X84860275Y-38500538D01*
X84734852Y-38625961D01*
X84734849Y-38625965D01*
X84636304Y-38773446D01*
X84636297Y-38773459D01*
X84568420Y-38937332D01*
X84568417Y-38937341D01*
X84533814Y-39111304D01*
X67785284Y-39111304D01*
X67732330Y-38983459D01*
X67732323Y-38983446D01*
X67633778Y-38835965D01*
X67633775Y-38835961D01*
X67508352Y-38710538D01*
X67508348Y-38710535D01*
X67360867Y-38611990D01*
X67360854Y-38611983D01*
X67196981Y-38544106D01*
X67196972Y-38544103D01*
X67023008Y-38509500D01*
X67023005Y-38509500D01*
X66845623Y-38509500D01*
X66845620Y-38509500D01*
X66671655Y-38544103D01*
X66671646Y-38544106D01*
X66507773Y-38611983D01*
X66507760Y-38611990D01*
X66360279Y-38710535D01*
X66360275Y-38710538D01*
X66234852Y-38835961D01*
X66230986Y-38840673D01*
X66229391Y-38839364D01*
X66182983Y-38878133D01*
X66113656Y-38886827D01*
X66050635Y-38856661D01*
X66018955Y-38811881D01*
X65982327Y-38723453D01*
X65982323Y-38723446D01*
X65883778Y-38575965D01*
X65883775Y-38575961D01*
X65758352Y-38450538D01*
X65758348Y-38450535D01*
X65610867Y-38351990D01*
X65610854Y-38351983D01*
X65446981Y-38284106D01*
X65446972Y-38284103D01*
X65273008Y-38249500D01*
X65273005Y-38249500D01*
X65095623Y-38249500D01*
X65095620Y-38249500D01*
X64921655Y-38284103D01*
X64921646Y-38284106D01*
X64757773Y-38351983D01*
X64757760Y-38351990D01*
X64610279Y-38450535D01*
X64610275Y-38450538D01*
X64484852Y-38575961D01*
X64484849Y-38575965D01*
X64386304Y-38723446D01*
X64386297Y-38723459D01*
X64318420Y-38887332D01*
X64318417Y-38887341D01*
X64283814Y-39061304D01*
X55984814Y-39061304D01*
X55984814Y-37861304D01*
X76553814Y-37861304D01*
X76553814Y-38038695D01*
X76588417Y-38212658D01*
X76588420Y-38212667D01*
X76656297Y-38376540D01*
X76656304Y-38376553D01*
X76754849Y-38524034D01*
X76754852Y-38524038D01*
X76880275Y-38649461D01*
X76880279Y-38649464D01*
X77027760Y-38748009D01*
X77027773Y-38748016D01*
X77150677Y-38798923D01*
X77191648Y-38815894D01*
X77191650Y-38815894D01*
X77191655Y-38815896D01*
X77365618Y-38850499D01*
X77365621Y-38850500D01*
X77365623Y-38850500D01*
X77543007Y-38850500D01*
X77543008Y-38850499D01*
X77616097Y-38835961D01*
X77716972Y-38815896D01*
X77716975Y-38815894D01*
X77716980Y-38815894D01*
X77880861Y-38748013D01*
X78028349Y-38649464D01*
X78153778Y-38524035D01*
X78252327Y-38376547D01*
X78320208Y-38212666D01*
X78354814Y-38038691D01*
X78354814Y-37861309D01*
X78354814Y-37861306D01*
X78354813Y-37861304D01*
X78320210Y-37687341D01*
X78320207Y-37687332D01*
X78252330Y-37523459D01*
X78252323Y-37523446D01*
X78153778Y-37375965D01*
X78153775Y-37375961D01*
X78028352Y-37250538D01*
X78028348Y-37250535D01*
X77880867Y-37151990D01*
X77880854Y-37151983D01*
X77716981Y-37084106D01*
X77716972Y-37084103D01*
X77543008Y-37049500D01*
X77543005Y-37049500D01*
X77365623Y-37049500D01*
X77365620Y-37049500D01*
X77191655Y-37084103D01*
X77191646Y-37084106D01*
X77027773Y-37151983D01*
X77027760Y-37151990D01*
X76880279Y-37250535D01*
X76880275Y-37250538D01*
X76754852Y-37375961D01*
X76754849Y-37375965D01*
X76656304Y-37523446D01*
X76656297Y-37523459D01*
X76588420Y-37687332D01*
X76588417Y-37687341D01*
X76553814Y-37861304D01*
X55984814Y-37861304D01*
X55984814Y-36957577D01*
X66550289Y-36957577D01*
X66655550Y-37001178D01*
X66655554Y-37001179D01*
X66800440Y-37029999D01*
X66800443Y-37030000D01*
X66948185Y-37030000D01*
X66948187Y-37029999D01*
X67093074Y-37001179D01*
X67093089Y-37001175D01*
X67198338Y-36957578D01*
X67198338Y-36957577D01*
X67850289Y-36957577D01*
X67955550Y-37001178D01*
X67955554Y-37001179D01*
X68100440Y-37029999D01*
X68100443Y-37030000D01*
X68248185Y-37030000D01*
X68248187Y-37029999D01*
X68393074Y-37001179D01*
X68393089Y-37001175D01*
X68498338Y-36957578D01*
X68498338Y-36957577D01*
X68174315Y-36633554D01*
X68174314Y-36633554D01*
X67850289Y-36957577D01*
X67198338Y-36957577D01*
X66874315Y-36633554D01*
X66874314Y-36633554D01*
X66550289Y-36957577D01*
X55984814Y-36957577D01*
X55984814Y-35128480D01*
X55985009Y-35121527D01*
X55988808Y-35053873D01*
X56001398Y-34829691D01*
X56002952Y-34815900D01*
X56013518Y-34753711D01*
X56583814Y-34753711D01*
X56583814Y-34996288D01*
X56615475Y-35236785D01*
X56678261Y-35471104D01*
X56770915Y-35694789D01*
X56771090Y-35695212D01*
X56892378Y-35905289D01*
X56892380Y-35905292D01*
X56892381Y-35905293D01*
X57040047Y-36097736D01*
X57040053Y-36097743D01*
X57211570Y-36269260D01*
X57211577Y-36269266D01*
X57321837Y-36353871D01*
X57404025Y-36416936D01*
X57614102Y-36538224D01*
X57838214Y-36631054D01*
X58072525Y-36693838D01*
X58252900Y-36717584D01*
X58313025Y-36725500D01*
X58313026Y-36725500D01*
X58555603Y-36725500D01*
X58603702Y-36719167D01*
X58796103Y-36693838D01*
X59030414Y-36631054D01*
X59254526Y-36538224D01*
X59464603Y-36416936D01*
X59657052Y-36269265D01*
X59720191Y-36206126D01*
X66124314Y-36206126D01*
X66124314Y-36353873D01*
X66153134Y-36498759D01*
X66153136Y-36498767D01*
X66196735Y-36604024D01*
X66520760Y-36280000D01*
X66520760Y-36279999D01*
X66500870Y-36260109D01*
X66774314Y-36260109D01*
X66774314Y-36299891D01*
X66789538Y-36336645D01*
X66817669Y-36364776D01*
X66854423Y-36380000D01*
X66894205Y-36380000D01*
X66930959Y-36364776D01*
X66959090Y-36336645D01*
X66974314Y-36299891D01*
X66974314Y-36280000D01*
X67227868Y-36280000D01*
X67524314Y-36576446D01*
X67820760Y-36280000D01*
X67800869Y-36260109D01*
X68074314Y-36260109D01*
X68074314Y-36299891D01*
X68089538Y-36336645D01*
X68117669Y-36364776D01*
X68154423Y-36380000D01*
X68194205Y-36380000D01*
X68230959Y-36364776D01*
X68259090Y-36336645D01*
X68274314Y-36299891D01*
X68274314Y-36279999D01*
X68527868Y-36279999D01*
X68527868Y-36280001D01*
X68851891Y-36604024D01*
X68851892Y-36604024D01*
X68895489Y-36498775D01*
X68895493Y-36498760D01*
X68924313Y-36353873D01*
X68924314Y-36353871D01*
X68924314Y-36206128D01*
X68924313Y-36206126D01*
X68895493Y-36061240D01*
X68895492Y-36061236D01*
X68851891Y-35955975D01*
X68527868Y-36279999D01*
X68274314Y-36279999D01*
X68274314Y-36260109D01*
X68259090Y-36223355D01*
X68230959Y-36195224D01*
X68194205Y-36180000D01*
X68154423Y-36180000D01*
X68117669Y-36195224D01*
X68089538Y-36223355D01*
X68074314Y-36260109D01*
X67800869Y-36260109D01*
X67524314Y-35983554D01*
X67227868Y-36280000D01*
X66974314Y-36280000D01*
X66974314Y-36260109D01*
X66959090Y-36223355D01*
X66930959Y-36195224D01*
X66894205Y-36180000D01*
X66854423Y-36180000D01*
X66817669Y-36195224D01*
X66789538Y-36223355D01*
X66774314Y-36260109D01*
X66500870Y-36260109D01*
X66196735Y-35955974D01*
X66196734Y-35955974D01*
X66153137Y-36061228D01*
X66153134Y-36061240D01*
X66124314Y-36206126D01*
X59720191Y-36206126D01*
X59731093Y-36195224D01*
X59813960Y-36112358D01*
X59828574Y-36097743D01*
X59828579Y-36097738D01*
X59976250Y-35905289D01*
X60097538Y-35695212D01*
X60124550Y-35630000D01*
X66577868Y-35630000D01*
X66874314Y-35926446D01*
X67170760Y-35630000D01*
X67877868Y-35630000D01*
X68174314Y-35926446D01*
X68470760Y-35630000D01*
X68174314Y-35333554D01*
X67877868Y-35630000D01*
X67170760Y-35630000D01*
X66874314Y-35333554D01*
X66577868Y-35630000D01*
X60124550Y-35630000D01*
X60143898Y-35583289D01*
X60165480Y-35531186D01*
X60165480Y-35531185D01*
X60187223Y-35478693D01*
X60190368Y-35471100D01*
X60253152Y-35236789D01*
X60284814Y-34996288D01*
X60284814Y-34906126D01*
X66124314Y-34906126D01*
X66124314Y-35053873D01*
X66153134Y-35198759D01*
X66153136Y-35198767D01*
X66196735Y-35304024D01*
X66520760Y-34980000D01*
X66520760Y-34979999D01*
X66500870Y-34960109D01*
X66774314Y-34960109D01*
X66774314Y-34999891D01*
X66789538Y-35036645D01*
X66817669Y-35064776D01*
X66854423Y-35080000D01*
X66894205Y-35080000D01*
X66930959Y-35064776D01*
X66959090Y-35036645D01*
X66974314Y-34999891D01*
X66974314Y-34980000D01*
X67227868Y-34980000D01*
X67524314Y-35276446D01*
X67820760Y-34980000D01*
X67800869Y-34960109D01*
X68074314Y-34960109D01*
X68074314Y-34999891D01*
X68089538Y-35036645D01*
X68117669Y-35064776D01*
X68154423Y-35080000D01*
X68194205Y-35080000D01*
X68230959Y-35064776D01*
X68259090Y-35036645D01*
X68274314Y-34999891D01*
X68274314Y-34979999D01*
X68527868Y-34979999D01*
X68527868Y-34980001D01*
X68851891Y-35304024D01*
X68851892Y-35304024D01*
X68895489Y-35198775D01*
X68895493Y-35198760D01*
X68924313Y-35053873D01*
X68924314Y-35053871D01*
X68924314Y-34994153D01*
X74883814Y-34994153D01*
X74883814Y-35151846D01*
X74914575Y-35306489D01*
X74914578Y-35306501D01*
X74974916Y-35452172D01*
X74974923Y-35452185D01*
X75062524Y-35583288D01*
X75062527Y-35583292D01*
X75174021Y-35694786D01*
X75174025Y-35694789D01*
X75305128Y-35782390D01*
X75305141Y-35782397D01*
X75450812Y-35842735D01*
X75450817Y-35842737D01*
X75605467Y-35873499D01*
X75605470Y-35873500D01*
X75605472Y-35873500D01*
X75763158Y-35873500D01*
X75763159Y-35873499D01*
X75917811Y-35842737D01*
X76063493Y-35782394D01*
X76194603Y-35694789D01*
X76306103Y-35583289D01*
X76393708Y-35452179D01*
X76454051Y-35306497D01*
X76455084Y-35301302D01*
X84283814Y-35301302D01*
X84283814Y-35478693D01*
X84318417Y-35652656D01*
X84318420Y-35652665D01*
X84386297Y-35816538D01*
X84386304Y-35816551D01*
X84484849Y-35964032D01*
X84484852Y-35964036D01*
X84610275Y-36089459D01*
X84610279Y-36089462D01*
X84757760Y-36188007D01*
X84757773Y-36188014D01*
X84843096Y-36223355D01*
X84921648Y-36255892D01*
X84921650Y-36255892D01*
X84921655Y-36255894D01*
X85095618Y-36290497D01*
X85095621Y-36290498D01*
X85095623Y-36290498D01*
X85273007Y-36290498D01*
X85273008Y-36290497D01*
X85330996Y-36278962D01*
X85446972Y-36255894D01*
X85446975Y-36255892D01*
X85446980Y-36255892D01*
X85610861Y-36188011D01*
X85758349Y-36089462D01*
X85883778Y-35964033D01*
X85982327Y-35816545D01*
X86050208Y-35652664D01*
X86054717Y-35630000D01*
X86084813Y-35478693D01*
X86084814Y-35478691D01*
X86084814Y-35301304D01*
X86084813Y-35301302D01*
X86050210Y-35127339D01*
X86050207Y-35127330D01*
X86047803Y-35121527D01*
X85997421Y-34999891D01*
X85982330Y-34963457D01*
X85982323Y-34963444D01*
X85885504Y-34818546D01*
X85885503Y-34818545D01*
X85883775Y-34815959D01*
X85821527Y-34753711D01*
X87083814Y-34753711D01*
X87083814Y-34996288D01*
X87115475Y-35236785D01*
X87178261Y-35471104D01*
X87270915Y-35694789D01*
X87271090Y-35695212D01*
X87392378Y-35905289D01*
X87392380Y-35905292D01*
X87392381Y-35905293D01*
X87540047Y-36097736D01*
X87540053Y-36097743D01*
X87711570Y-36269260D01*
X87711577Y-36269266D01*
X87821837Y-36353871D01*
X87904025Y-36416936D01*
X88114102Y-36538224D01*
X88338214Y-36631054D01*
X88572525Y-36693838D01*
X88752900Y-36717584D01*
X88813025Y-36725500D01*
X88813026Y-36725500D01*
X89055603Y-36725500D01*
X89103702Y-36719167D01*
X89296103Y-36693838D01*
X89530414Y-36631054D01*
X89754526Y-36538224D01*
X89964603Y-36416936D01*
X90157052Y-36269265D01*
X90328579Y-36097738D01*
X90476250Y-35905289D01*
X90597538Y-35695212D01*
X90690368Y-35471100D01*
X90753152Y-35236789D01*
X90784814Y-34996288D01*
X90784814Y-34753712D01*
X90753152Y-34513211D01*
X90690368Y-34278900D01*
X90597538Y-34054788D01*
X90476250Y-33844711D01*
X90328579Y-33652262D01*
X90328574Y-33652256D01*
X90157057Y-33480739D01*
X90157050Y-33480733D01*
X89964607Y-33333067D01*
X89964606Y-33333066D01*
X89964603Y-33333064D01*
X89754526Y-33211776D01*
X89754519Y-33211773D01*
X89530418Y-33118947D01*
X89296099Y-33056161D01*
X89055603Y-33024500D01*
X89055602Y-33024500D01*
X88813026Y-33024500D01*
X88813025Y-33024500D01*
X88572528Y-33056161D01*
X88338209Y-33118947D01*
X88114108Y-33211773D01*
X88114099Y-33211777D01*
X87904020Y-33333067D01*
X87711577Y-33480733D01*
X87711570Y-33480739D01*
X87540053Y-33652256D01*
X87540047Y-33652263D01*
X87392381Y-33844706D01*
X87271091Y-34054785D01*
X87271087Y-34054794D01*
X87178261Y-34278895D01*
X87115475Y-34513214D01*
X87083814Y-34753711D01*
X85821527Y-34753711D01*
X85758352Y-34690536D01*
X85758348Y-34690533D01*
X85610867Y-34591988D01*
X85610854Y-34591981D01*
X85446981Y-34524104D01*
X85446972Y-34524101D01*
X85273008Y-34489498D01*
X85273005Y-34489498D01*
X85095623Y-34489498D01*
X85095620Y-34489498D01*
X84921655Y-34524101D01*
X84921646Y-34524104D01*
X84757773Y-34591981D01*
X84757760Y-34591988D01*
X84610279Y-34690533D01*
X84610275Y-34690536D01*
X84484852Y-34815959D01*
X84484849Y-34815963D01*
X84386304Y-34963444D01*
X84386297Y-34963457D01*
X84318420Y-35127330D01*
X84318417Y-35127339D01*
X84283814Y-35301302D01*
X76455084Y-35301302D01*
X76460029Y-35276446D01*
X76461108Y-35271022D01*
X76461108Y-35271020D01*
X76475481Y-35198760D01*
X76484814Y-35151842D01*
X76484814Y-34994158D01*
X76484814Y-34994155D01*
X76484813Y-34994153D01*
X76478706Y-34963451D01*
X76454051Y-34839503D01*
X76447113Y-34822752D01*
X76393711Y-34693827D01*
X76393704Y-34693814D01*
X76306103Y-34562711D01*
X76306100Y-34562707D01*
X76194606Y-34451213D01*
X76194602Y-34451210D01*
X76063499Y-34363609D01*
X76063486Y-34363602D01*
X75917815Y-34303264D01*
X75917803Y-34303261D01*
X75763159Y-34272500D01*
X75763156Y-34272500D01*
X75605472Y-34272500D01*
X75605469Y-34272500D01*
X75450824Y-34303261D01*
X75450812Y-34303264D01*
X75305141Y-34363602D01*
X75305128Y-34363609D01*
X75174025Y-34451210D01*
X75174021Y-34451213D01*
X75062527Y-34562707D01*
X75062524Y-34562711D01*
X74974923Y-34693814D01*
X74974916Y-34693827D01*
X74914578Y-34839498D01*
X74914575Y-34839510D01*
X74883814Y-34994153D01*
X68924314Y-34994153D01*
X68924314Y-34906128D01*
X68924313Y-34906126D01*
X68895493Y-34761240D01*
X68895492Y-34761236D01*
X68851891Y-34655975D01*
X68527868Y-34979999D01*
X68274314Y-34979999D01*
X68274314Y-34960109D01*
X68259090Y-34923355D01*
X68230959Y-34895224D01*
X68194205Y-34880000D01*
X68154423Y-34880000D01*
X68117669Y-34895224D01*
X68089538Y-34923355D01*
X68074314Y-34960109D01*
X67800869Y-34960109D01*
X67524314Y-34683554D01*
X67227868Y-34980000D01*
X66974314Y-34980000D01*
X66974314Y-34960109D01*
X66959090Y-34923355D01*
X66930959Y-34895224D01*
X66894205Y-34880000D01*
X66854423Y-34880000D01*
X66817669Y-34895224D01*
X66789538Y-34923355D01*
X66774314Y-34960109D01*
X66500870Y-34960109D01*
X66196735Y-34655974D01*
X66196734Y-34655974D01*
X66153137Y-34761228D01*
X66153134Y-34761240D01*
X66124314Y-34906126D01*
X60284814Y-34906126D01*
X60284814Y-34753712D01*
X60253152Y-34513211D01*
X60204060Y-34330000D01*
X66577868Y-34330000D01*
X66874314Y-34626446D01*
X67170760Y-34330000D01*
X67877868Y-34330000D01*
X68174314Y-34626446D01*
X68470760Y-34330000D01*
X68174314Y-34033554D01*
X67877868Y-34330000D01*
X67170760Y-34330000D01*
X66874314Y-34033554D01*
X66577868Y-34330000D01*
X60204060Y-34330000D01*
X60190368Y-34278900D01*
X60097538Y-34054788D01*
X59976250Y-33844711D01*
X59861277Y-33694875D01*
X59846432Y-33675528D01*
X59846430Y-33675526D01*
X59834600Y-33660109D01*
X59828579Y-33652262D01*
X59828577Y-33652260D01*
X59828574Y-33652256D01*
X59782444Y-33606126D01*
X66124314Y-33606126D01*
X66124314Y-33753873D01*
X66153134Y-33898759D01*
X66153136Y-33898767D01*
X66196735Y-34004024D01*
X66520760Y-33680000D01*
X66520760Y-33679999D01*
X66500870Y-33660109D01*
X66774314Y-33660109D01*
X66774314Y-33699891D01*
X66789538Y-33736645D01*
X66817669Y-33764776D01*
X66854423Y-33780000D01*
X66894205Y-33780000D01*
X66930959Y-33764776D01*
X66959090Y-33736645D01*
X66974314Y-33699891D01*
X66974314Y-33680000D01*
X67227868Y-33680000D01*
X67524314Y-33976446D01*
X67820760Y-33680000D01*
X67800869Y-33660109D01*
X68074314Y-33660109D01*
X68074314Y-33699891D01*
X68089538Y-33736645D01*
X68117669Y-33764776D01*
X68154423Y-33780000D01*
X68194205Y-33780000D01*
X68230959Y-33764776D01*
X68259090Y-33736645D01*
X68274314Y-33699891D01*
X68274314Y-33679999D01*
X68527868Y-33679999D01*
X68527868Y-33680001D01*
X68851891Y-34004024D01*
X68851892Y-34004024D01*
X68895489Y-33898775D01*
X68895493Y-33898760D01*
X68924313Y-33753873D01*
X68924314Y-33753871D01*
X68924314Y-33606128D01*
X68924313Y-33606126D01*
X68895493Y-33461240D01*
X68895492Y-33461236D01*
X68851891Y-33355975D01*
X68527868Y-33679999D01*
X68274314Y-33679999D01*
X68274314Y-33660109D01*
X68259090Y-33623355D01*
X68230959Y-33595224D01*
X68194205Y-33580000D01*
X68154423Y-33580000D01*
X68117669Y-33595224D01*
X68089538Y-33623355D01*
X68074314Y-33660109D01*
X67800869Y-33660109D01*
X67524314Y-33383554D01*
X67227868Y-33680000D01*
X66974314Y-33680000D01*
X66974314Y-33660109D01*
X66959090Y-33623355D01*
X66930959Y-33595224D01*
X66894205Y-33580000D01*
X66854423Y-33580000D01*
X66817669Y-33595224D01*
X66789538Y-33623355D01*
X66774314Y-33660109D01*
X66500870Y-33660109D01*
X66196735Y-33355974D01*
X66196734Y-33355974D01*
X66153137Y-33461228D01*
X66153134Y-33461240D01*
X66124314Y-33606126D01*
X59782444Y-33606126D01*
X59657057Y-33480739D01*
X59657050Y-33480733D01*
X59464607Y-33333067D01*
X59464606Y-33333066D01*
X59464603Y-33333064D01*
X59254526Y-33211776D01*
X59254519Y-33211772D01*
X59124210Y-33157797D01*
X59124208Y-33157796D01*
X59030421Y-33118948D01*
X59029469Y-33118693D01*
X58796103Y-33056162D01*
X58796102Y-33056161D01*
X58796099Y-33056161D01*
X58555603Y-33024500D01*
X58555602Y-33024500D01*
X58313026Y-33024500D01*
X58313025Y-33024500D01*
X58072528Y-33056161D01*
X57838209Y-33118947D01*
X57614108Y-33211773D01*
X57614099Y-33211777D01*
X57404020Y-33333067D01*
X57211577Y-33480733D01*
X57211570Y-33480739D01*
X57040053Y-33652256D01*
X57040047Y-33652263D01*
X56892381Y-33844706D01*
X56771091Y-34054785D01*
X56771087Y-34054794D01*
X56678261Y-34278895D01*
X56615475Y-34513214D01*
X56583814Y-34753711D01*
X56013518Y-34753711D01*
X56051329Y-34531167D01*
X56054423Y-34517615D01*
X56062524Y-34489498D01*
X56134375Y-34240096D01*
X56138967Y-34226975D01*
X56249489Y-33960151D01*
X56255509Y-33947651D01*
X56395216Y-33694869D01*
X56402611Y-33683101D01*
X56404811Y-33680001D01*
X56569742Y-33447551D01*
X56578393Y-33436704D01*
X56770841Y-33221356D01*
X56780672Y-33211526D01*
X56996018Y-33019079D01*
X57006865Y-33010428D01*
X57018151Y-33002420D01*
X66550288Y-33002420D01*
X66550288Y-33002421D01*
X66874314Y-33326446D01*
X66874315Y-33326446D01*
X67198338Y-33002421D01*
X67198336Y-33002420D01*
X67850288Y-33002420D01*
X67850288Y-33002421D01*
X68174314Y-33326446D01*
X68174315Y-33326446D01*
X68498338Y-33002421D01*
X68393081Y-32958822D01*
X68393073Y-32958820D01*
X68248186Y-32930000D01*
X68100442Y-32930000D01*
X67955554Y-32958820D01*
X67955542Y-32958823D01*
X67850288Y-33002420D01*
X67198336Y-33002420D01*
X67093081Y-32958822D01*
X67093073Y-32958820D01*
X66948186Y-32930000D01*
X66800442Y-32930000D01*
X66655554Y-32958820D01*
X66655542Y-32958823D01*
X66550288Y-33002420D01*
X57018151Y-33002420D01*
X57242420Y-32843293D01*
X57254183Y-32835902D01*
X57506965Y-32696195D01*
X57519465Y-32690175D01*
X57786293Y-32579651D01*
X57799410Y-32575061D01*
X58076935Y-32495107D01*
X58090481Y-32492015D01*
X58375212Y-32443638D01*
X58389005Y-32442084D01*
X58680842Y-32425695D01*
X58687795Y-32425500D01*
X58731909Y-32425500D01*
X71774537Y-32425500D01*
X71841576Y-32445185D01*
G37*
%TD.AperFunction*%
%TD*%
M02*
