M48
; DRILL file KiCad 10.0.4 date 2026-07-23T06:56:01
; FORMAT={-:-/ absolute / metric / decimal}
; #@! TF.CreationDate,2026-07-23T06:56:01-04:00
; #@! TF.GenerationSoftware,Kicad,Pcbnew,10.0.4
; #@! TF.FileFunction,Plated,1,4,PTH
FMAT,2
METRIC
; #@! TA.AperFunction,Plated,PTH,ComponentDrill
T1C0.200
; #@! TA.AperFunction,Plated,PTH,ViaDrill
T2C0.300
; #@! TA.AperFunction,Plated,PTH,ViaDrill
T3C0.400
; #@! TA.AperFunction,Plated,PTH,ComponentDrill
T4C0.600
%
G90
G05
T1
X66.874Y-33.68
X66.874Y-34.98
X66.874Y-36.28
X68.174Y-33.68
X68.174Y-34.98
X68.174Y-36.28
T2
X59.305Y-54.079
X59.509Y-52.916
X60.434Y-57.7
X61.203Y-45.75
X62.517Y-49.108
X62.546Y-52.141
X62.684Y-43.3
X63.923Y-52.192
X65.684Y-66.2
X66.214Y-53.729
X67.524Y-34.98
X67.934Y-63.7
X68.62Y-53.586
X69.334Y-56.092
X69.385Y-45.569
X69.479Y-53.575
X70.93Y-40.706
X71.233Y-53.589
X71.434Y-57.384
X72.146Y-56.367
X72.434Y-53.7
X72.684Y-37.95
X73.434Y-33.95
X73.434Y-47.45
X75.184Y-66.45
X75.684Y-35.073
X75.844Y-52.753
X76.086Y-42.5
X76.331Y-56.586
X76.861Y-52.326
X76.934Y-42.5
X77.684Y-53.2
X78.0Y-50.375
X78.065Y-43.632
X78.484Y-53.2
X79.444Y-48.782
X80.684Y-60.2
X81.184Y-59.2
X83.058Y-48.077
X83.456Y-45.622
X83.544Y-46.45
X83.904Y-48.075
X84.184Y-62.45
X84.434Y-48.7
X84.704Y-44.7
X86.184Y-52.45
X87.934Y-51.2
X87.934Y-54.7
X88.135Y-53.651
T3
X59.009Y-51.449
X59.434Y-42.2
X61.184Y-33.2
X61.184Y-46.95
X61.584Y-41.423
X61.684Y-49.45
X62.184Y-39.2
X63.434Y-48.92
X64.484Y-37.785
X65.184Y-39.15
X65.634Y-50.95
X66.184Y-59.45
X66.934Y-39.41
X67.685Y-49.516
X68.358Y-45.25
X69.298Y-47.314
X69.934Y-41.95
X72.309Y-50.325
X72.684Y-33.03
X72.694Y-57.46
X73.934Y-59.22
X74.386Y-50.45
X74.386Y-52.525
X75.726Y-57.65
X75.934Y-59.45
X77.184Y-36.45
X77.454Y-37.95
X79.184Y-46.7
X79.344Y-50.7
X79.934Y-63.45
X80.319Y-57.275
X82.684Y-61.7
X83.184Y-40.7
X83.334Y-63.114
X85.184Y-35.39
X85.434Y-39.2
X85.666Y-48.175
X86.684Y-43.95
X89.394Y-45.975
X89.934Y-60.325
T4
G00X62.364Y-62.088
M15
G01X62.364Y-62.987
M16
G05
G00X62.364Y-66.447
M15
G01X62.364Y-67.047
M16
G05
G00X71.004Y-62.087
M15
G01X71.004Y-62.988
M16
G05
G00X71.004Y-66.447
M15
G01X71.004Y-67.047
M16
G05
M30
